<svg xmlns="http://www.w3.org/2000/svg" width="80" height="60" viewBox="0 0 80 60"><defs><style>.cls-1{fill:#b05412;}</style></defs><title>1-2 poopdust</title><g id="Layer_1" data-name="Layer 1"><path class="cls-1" d="M32,25.09c-2.13,1.77-4.81,6.11-9,7-3.48.69-5.71-3.51-9-6.95-2.64-2.77,5-9.88,9-6.94S33.8,23.64,32,25.09Z"/><path class="cls-1" d="M25.35,36.68c1.36,2,5.15,5,5.24,8.47.08,2.84-4.4,3.67-8.31,5.47-3.17,1.46-8.8-6-5.25-8.46S24.23,35,25.35,36.68Z"/><path class="cls-1" d="M13.68,34.77c-.26,2.16-3.94,2.78-6.4,4.21s-7.36-6.83-4-6.52C9.55,33.06,14,32.15,13.68,34.77Z"/><path class="cls-1" d="M77.8,30.54c-.4,2.24-2.34,3.31-3.76,5.07s-2.92-6.11-1.27-6.18C75.9,29.28,78.27,27.82,77.8,30.54Z"/><path class="cls-1" d="M43.87,9.87C42,12,38.17,14.31,36.45,15.59,33.17,18.05,29,13,29,9.87s3.33-5.72,7.42-5.72S46,7.49,43.87,9.87Z"/><path class="cls-1" d="M74.87,42.87C73,45,69.17,47.31,67.45,48.59,64.17,51.05,60,46,60,42.87s3.33-5.72,7.42-5.72S77,40.49,74.87,42.87Z"/><path class="cls-1" d="M57.83,34.87c-.84,1.79-7.06,6.58-13.9,10.72-6.56,4-13.9-4.8-13.9-10.72s6.23-10.72,13.9-10.72S60.35,29.51,57.83,34.87Z"/><path class="cls-1" d="M66.4,26.12C63.15,24.5,56,23.89,51.29,24.17c-6.65.39-6.48-12.68-1.95-15.11,2.6-1.4,9.29-1.25,15.11,1.95C71.28,14.76,71.7,28.76,66.4,26.12Z"/><path class="cls-1" d="M6.71,45.13c1.17-.91-1.17-3.43-1.46-2.68a13.6,13.6,0,0,1-1.46,2.68c-.89,1.18,1,3.33,1.46,2.68S5.93,45.73,6.71,45.13Z"/><path class="cls-1" d="M49.52,52.13c.3-2-1.83-3.43-2.3-2.68a13.36,13.36,0,0,1-2.3,2.68c-1.4,1.18,1.84,1.81,2.3,2.68C48.19,56.61,48.91,56.28,49.52,52.13Z"/><path class="cls-1" d="M75.71,22.13c1.17-.91-1.17-3.43-1.46-2.68a13.6,13.6,0,0,1-1.46,2.68c-.89,1.18,1,3.33,1.46,2.68C74.61,24.31,74.93,22.73,75.71,22.13Z"/></g></svg>