<svg xmlns="http://www.w3.org/2000/svg" width="75.89" height="74.6" viewBox="0 0 75.89 74.6"><defs><style>.cls-1{fill:#b05412;}</style></defs><title>2-2 poopdust</title><g id="Layer_1" data-name="Layer 1"><path class="cls-1" d="M25.44,15c-1.63,1.34-3.66,4.64-6.84,5.27-2.64.53-4.35-2.66-6.84-5.27-2-2.11,3.79-7.51,6.84-5.28S26.78,13.91,25.44,15Z"/><path class="cls-1" d="M29.36,47.22C30.57,49,33.92,51.69,34,54.73c.07,2.52-3.9,3.25-7.37,4.85-2.8,1.29-7.8-5.31-4.65-7.5S28.37,45.73,29.36,47.22Z"/><path class="cls-1" d="M11.54,37.52c-.27,2.16-3.94,2.78-6.41,4.22-2.31,1.35-7.35-6.83-4-6.52C7.4,35.81,11.86,34.9,11.54,37.52Z"/><path class="cls-1" d="M26.65,29.29c-.39,2.24-2.33,3.31-3.75,5.07s-2.92-6.1-1.27-6.18C24.76,28,27.13,26.58,26.65,29.29Z"/><path class="cls-1" d="M48.62,16.27a29,29,0,0,1-4.36,3.37c-1.93,1.44-4.37-1.51-4.37-3.37s2-3.36,4.37-3.36S49.84,14.87,48.62,16.27Z"/><path class="cls-1" d="M62.73,47.63c-1.88,2.14-5.7,4.43-7.42,5.72-3.28,2.45-7.42-2.56-7.42-5.72s3.32-5.72,7.42-5.72S64.81,45.25,62.73,47.63Z"/><path class="cls-1" d="M60.27,74.39c-2.07-1-6.63-1.42-9.63-1.24-4.23.25-4.12-8.07-1.24-9.62,1.66-.89,5.92-.8,9.62,1.24C63.37,67.16,63.64,76.07,60.27,74.39Z"/><path class="cls-1" d="M4.57,47.88c1.17-.9-1.17-3.43-1.46-2.67a13.7,13.7,0,0,1-1.47,2.67c-.89,1.19,1,3.34,1.47,2.68C3.46,50.06,3.79,48.49,4.57,47.88Z"/><path class="cls-1" d="M62.38,2.88c.3-2-1.84-3.43-2.3-2.67a13.32,13.32,0,0,1-2.3,2.67c-1.4,1.19,1.83,1.81,2.3,2.68C61,7.37,61.76,7,62.38,2.88Z"/><path class="cls-1" d="M73.57,24.88c1.17-.9-1.17-3.43-1.46-2.67a13.7,13.7,0,0,1-1.47,2.67c-.89,1.19,1,3.34,1.47,2.68C72.46,27.06,72.79,25.49,73.57,24.88Z"/><path class="cls-1" d="M75.57,41.88c1.17-.9-1.17-3.43-1.46-2.67a13.7,13.7,0,0,1-1.47,2.67c-.89,1.19,1,3.34,1.47,2.68C74.46,44.06,74.79,42.49,75.57,41.88Z"/><path class="cls-1" d="M34.54,4.24c1.2.86,3-2.09,2.16-2.16a13.19,13.19,0,0,1-3-.65C32.33.92,30.8,3.33,31.56,3.6,32.14,3.8,33.74,3.66,34.54,4.24Z"/></g></svg>