<svg xmlns="http://www.w3.org/2000/svg" xmlns:xlink="http://www.w3.org/1999/xlink" width="1920" height="1080" viewBox="0 0 1920 1080"><defs><style>.cls-1{isolation:isolate;}.cls-2{opacity:0.43;}.cls-3{fill:url(#radial-gradient);}.cls-4{fill:#0ba2b0;}.cls-5{opacity:0.21;}.cls-6{opacity:0.19;}.cls-7{opacity:0.17;}.cls-8{opacity:0.5;}.cls-9{opacity:0.07;}.cls-10{opacity:0.48;}.cls-11{fill:url(#New_Gradient_Swatch_1);}.cls-12{fill:url(#linear-gradient);}.cls-13{fill:url(#linear-gradient-2);}.cls-14{fill:url(#linear-gradient-3);}.cls-15{fill:url(#New_Gradient_Swatch_1-2);}.cls-16{fill:url(#linear-gradient-4);}.cls-17{opacity:0.75;mix-blend-mode:multiply;}.cls-18{fill:#fff;}.cls-19{fill:#f1c91e;}.cls-20{fill:#76f1fc;}</style><radialGradient id="radial-gradient" cx="960.5" cy="539.5" fx="997.0828477313211" fy="162.8777168397608" r="1100.48" gradientUnits="userSpaceOnUse"><stop offset="0"/><stop offset="0.12" stop-color="#000605"/><stop offset="0.29" stop-color="#011714"/><stop offset="0.47" stop-color="#03322d"/><stop offset="0.68" stop-color="#045850"/><stop offset="0.89" stop-color="#07897c"/><stop offset="0.97" stop-color="#089e8f"/></radialGradient><linearGradient id="New_Gradient_Swatch_1" x1="737" y1="-69.77" x2="1219.79" y2="-69.77" gradientUnits="userSpaceOnUse"><stop offset="0.06"/><stop offset="0.9" stop-color="#06a696"/></linearGradient><linearGradient id="linear-gradient" x1="978" y1="90.94" x2="978" y2="41.91" gradientUnits="userSpaceOnUse"><stop offset="0"/><stop offset="0.09" stop-color="#0a0a0a"/><stop offset="0.23" stop-color="#242424"/><stop offset="0.41" stop-color="#4f4f4f"/><stop offset="0.63" stop-color="#8b8b8b"/><stop offset="0.88" stop-color="#d7d7d7"/><stop offset="1" stop-color="#fff"/></linearGradient><linearGradient id="linear-gradient-2" x1="651.86" y1="493.27" x2="258.21" y2="955.33" xlink:href="#New_Gradient_Swatch_1"/><linearGradient id="linear-gradient-3" x1="703.87" y1="615.49" x2="424.02" y2="940.41" gradientUnits="userSpaceOnUse"><stop offset="0.06"/><stop offset="0.16" stop-color="#000c0b"/><stop offset="0.35" stop-color="#022b27"/><stop offset="0.59" stop-color="#035d54"/><stop offset="0.89" stop-color="#06a293"/><stop offset="0.9" stop-color="#06a696"/></linearGradient><linearGradient id="New_Gradient_Swatch_1-2" x1="319.89" y1="499.48" x2="-73.75" y2="961.54" gradientTransform="matrix(-1, 0.03, 0.03, 1, 1582.11, -3.26)" xlink:href="#New_Gradient_Swatch_1"/><linearGradient id="linear-gradient-4" x1="371.9" y1="621.7" x2="92.05" y2="946.62" gradientTransform="matrix(-1, 0.03, 0.03, 1, 1582.11, -3.26)" xlink:href="#linear-gradient-3"/></defs><title>Background</title><g class="cls-1"><g id="Lag_2" data-name="Lag 2"><rect class="cls-2" width="1920" height="1080"/><rect class="cls-3" width="1921" height="1079"/><polygon class="cls-4" points="1224 447 695 422 36 1080 1921 1079 1224 447"/><path class="cls-5" d="M1568.07,760.89l140.3,127.22c135.6-114.37,196.26-274.17,196.26-459.37,0-155.09-42.54-303.72-136-424.74h-99.32C1738.38,102.78,1770,221.07,1770,344.17,1770,516.52,1708,662.91,1568.07,760.89Z"/><path class="cls-5" d="M240.9,875.41,379.55,737C254.73,651.89,186,533.84,186,388c0-134.51,58.45-271.11,165.45-384H254.3C113.4,141.45,36,312.33,36,480.44,36,643.14,108.5,776.51,240.9,875.41Z"/><path class="cls-5" d="M1466.65,668.93l101.42,92c140-98,201.93-244.37,201.93-416.72,0-123.1-31.62-241.39-100.68-340.17H1505.16c84,89.11,121.84,205.23,121.84,327.09C1627,470.2,1577.73,588.67,1466.65,668.93Z"/><path class="cls-5" d="M379.55,737l94.06-93.92C380.19,574.19,329,481,329,367c0-130.23,66.86-262.86,187.22-363H351.45C244.45,116.89,186,253.49,186,388,186,533.84,254.73,651.89,379.55,737Z"/><path class="cls-6" d="M1466.65,668.93l101.42,92c140-98,201.93-244.37,201.93-416.72,0-123.1-31.62-241.39-100.68-340.17H1505.16c84,89.11,121.84,205.23,121.84,327.09C1627,470.2,1577.73,588.67,1466.65,668.93Z"/><path class="cls-6" d="M379.55,737l94.06-93.92C380.19,574.19,329,481,329,367c0-130.23,66.86-262.86,187.22-363H351.45C244.45,116.89,186,253.49,186,388,186,533.84,254.73,651.89,379.55,737Z"/><path class="cls-5" d="M473.61,643.06l120.77-120.6C545.45,476.6,519,418.42,519,349.55,519,209.2,628.81,64.9,815,4H516.22C395.86,104.14,329,236.77,329,367,329,481,380.19,574.19,473.61,643.06Z"/><path class="cls-5" d="M1437,324.15c0,91.73-30.3,170.78-98.08,227.06l128.9,116.87c110.26-80.23,159.18-198.37,159.18-337,0-121.86-37.81-238-121.84-327.09H1209.41C1369.17,59.91,1437,186.87,1437,324.15Z"/><path class="cls-5" d="M1437,324.15c0,92-30.47,171.23-98.65,227.54l128.86,116.84C1577.9,588.28,1627,470,1627,331.09c0-121.86-37.81-238-121.84-327.09H1209.41C1369.17,59.91,1437,186.87,1437,324.15Z"/><path class="cls-5" d="M474.18,643.48,594.9,523C545.63,477,519,418.67,519,349.55,519,209.2,628.81,64.9,815,4H516.22C395.86,104.14,329,236.77,329,367,329,481.18,380.4,574.57,474.18,643.48Z"/><path class="cls-7" d="M1437,324.15c0,92-30.47,171.23-98.65,227.54l128.86,116.84C1577.9,588.28,1627,470,1627,331.09c0-121.86-37.81-238-121.84-327.09H1209.41C1369.17,59.91,1437,186.87,1437,324.15Z"/><path class="cls-7" d="M474.18,643.48,594.9,523C545.63,477,519,418.67,519,349.55,519,209.2,628.81,64.9,815,4H516.22C395.86,104.14,329,236.77,329,367,329,481.18,380.4,574.57,474.18,643.48Z"/><path class="cls-5" d="M593.87,522,694,422l3,.14c-27.36-30.32-42-67.36-42-110.33C655,182.3,788.1,48,1001,48s298.87,116.46,298.87,246c0,64.64-21.42,120.31-69.34,159.87l107.86,97.8c68.15-56.3,98.6-135.52,98.6-227.49C1437,186.87,1369.17,59.91,1209.41,4H815C628.81,64.9,519,209.2,519,349.55,519,418.18,545.27,476.19,593.87,522Z"/><path class="cls-5" d="M593.87,522,694,422l3,.14c-27.36-30.32-42-67.36-42-110.33C655,182.3,788.1,48,1001,48s298.87,116.46,298.87,246c0,64.64-21.42,120.31-69.34,159.87l107.86,97.8c68.15-56.3,98.6-135.52,98.6-227.49C1437,186.87,1369.17,59.91,1209.41,4H815C628.81,64.9,519,209.2,519,349.55,519,418.18,545.27,476.19,593.87,522Z"/><path class="cls-8" d="M593.87,522,694,422l3,.14c-27.36-30.32-42-67.36-42-110.33C655,182.3,788.1,48,1001,48s298.87,116.46,298.87,246c0,64.64-21.42,120.31-69.34,159.87l107.86,97.8c68.15-56.3,98.6-135.52,98.6-227.49C1437,186.87,1369.17,59.91,1209.41,4H815C628.81,64.9,519,209.2,519,349.55,519,418.18,545.27,476.19,593.87,522Z"/><path class="cls-9" d="M593.87,522,694,422l3,.14c-27.36-30.32-42-67.36-42-110.33C655,182.3,788.1,48,1001,48s298.87,116.46,298.87,246c0,64.64-21.42,120.31-69.34,159.87l107.86,97.8c68.15-56.3,98.6-135.52,98.6-227.49C1437,186.87,1369.17,59.91,1209.41,4H815C628.81,64.9,519,209.2,519,349.55,519,418.18,545.27,476.19,593.87,522Z"/><path class="cls-5" d="M700,422l35.73,1.69C723.46,403.91,717,381.26,717,356c0-101.62,104.43-207,271.5-207S1223,240.38,1223,342c0,39.56-10.23,74.84-32.58,103.18L1229,447l4.64,4.21c45.74-39.38,66.24-94,66.24-157.24,0-129.51-86-246-298.87-246S655,182.3,655,311.81c0,43.68,15.14,81.23,43.37,111.82Z"/><path class="cls-5" d="M735.91,424C723.53,404.13,717,381.39,717,356c0-101.62,104.43-207,271.5-207S1223,240.38,1223,342c0,39.69-10.3,75.07-32.8,103.45L1223,447l7.54,6.84c47.92-39.56,69.34-95.23,69.34-159.87,0-129.51-86-246-298.87-246S655,182.3,655,311.81c0,43,14.67,80,42,110.33Z"/><path class="cls-8" d="M735.91,424C723.53,404.13,717,381.39,717,356c0-101.62,104.43-207,271.5-207S1223,240.38,1223,342c0,39.69-10.3,75.07-32.8,103.45L1223,447l7.54,6.84c47.92-39.56,69.34-95.23,69.34-159.87,0-129.51-86-246-298.87-246S655,182.3,655,311.81c0,43,14.67,80,42,110.33Z"/><path class="cls-10" d="M736.56,425C723.75,404.92,717,381.83,717,356c0-101.62,104.43-207,271.5-207S1223,240.38,1223,342c0,40.14-10.54,75.87-33.57,104.41L1223,448l7,6.31c48.33-39.58,69.92-95.44,69.92-160.34,0-129.51-86-246-298.87-246S655,182.3,655,311.81c0,43.47,15,80.87,43,111.38Z"/><path class="cls-9" d="M735.94,424C723.54,404.17,717,381.41,717,356c0-101.62,104.43-207,271.5-207S1223,240.38,1223,342c0,39.71-10.31,75.1-32.83,103.5L1222,447l8,7.27c48.29-39.58,69.86-95.42,69.86-160.3,0-129.51-86-246-298.87-246S655,182.3,655,311.81c0,43,14.68,80.05,42.07,110.38Z"/><path d="M1208.56,489c24.31-33.62,35.44-75.35,35.44-122.09C1244,245.86,1169.37,137,984.47,137S684,262.54,684,383.6c0,29.73,7.75,78,21,101.4Z"/><path class="cls-11" d="M1219,77H737S858-212.16,978-216h0C1120.49-230.62,1230.23,59.52,1219,77Z"/><ellipse cx="978" cy="77" rx="241" ry="25"/><ellipse class="cls-12" cx="978" cy="76.72" rx="219" ry="22.72"/><polygon class="cls-13" points="784 425 695 422 34 1080 270 1080 784 425"/><polygon class="cls-14" points="777 470 784 425 270 1080 386 1082 777 470"/><polygon points="385.89 1082.11 370 951.23 372.1 951 387.99 1081.88 385.89 1082.11"/><polygon points="481.48 932.55 482.71 930.63 469.37 825.94 467.45 828.38 481.48 932.55"/><polygon points="560.17 809.39 561.29 807.63 550.46 722.61 548.77 724.75 560.17 809.39"/><polygon points="629.15 701.41 630.37 699.51 621.74 631.78 620.06 633.91 629.15 701.41"/><polygon points="691.42 603.96 692.67 602 686.02 549.86 684.41 551.91 691.42 603.96"/><polygon points="739.89 528.08 741.17 526.09 736.07 486.08 734.51 488.07 739.89 528.08"/><polygon points="370.57 954.39 370.79 954.11 370.8 951.18 166.03 950.56 162.82 953.76 370.57 954.39"/><path d="M469,828h0v-3l-177.61-.55a1.41,1.41,0,0,0-1,.41l-2.4,2.39Z"/><polygon points="548.23 724.9 550.56 721.93 394.19 721.45 391.38 724.25 548.23 724.9"/><polygon points="620.09 633.87 622.42 630.91 485.56 630.49 482.74 633.3 620.09 633.87"/><polygon points="684.45 551.86 686.77 548.9 567.88 548.54 565.04 551.37 684.45 551.86"/><polygon points="628.27 488.42 733.89 488.86 736.21 485.9 631.13 485.58 628.27 488.42"/><polygon class="cls-15" points="1143.88 441.97 1232.75 436.17 1914.14 1073.03 1678.26 1080.46 1143.88 441.97"/><polygon class="cls-16" points="1152.3 486.73 1143.88 441.97 1678.26 1080.46 1562.38 1086.11 1152.3 486.73"/><polygon points="1562.49 1086.22 1574.25 954.9 1572.14 954.74 1560.38 1086.06 1562.49 1086.22"/><polygon points="1462.24 939.75 1460.95 937.86 1470.99 832.8 1472.98 835.18 1462.24 939.75"/><polygon points="1379.71 819.12 1378.53 817.39 1386.68 732.08 1388.43 734.17 1379.71 819.12"/><polygon points="1307.36 713.37 1306.09 711.51 1312.58 643.54 1314.32 645.61 1307.36 713.37"/><polygon points="1242.06 617.92 1240.75 616.01 1245.75 563.68 1247.42 565.68 1242.06 617.92"/><polygon points="1191.21 543.61 1189.88 541.66 1193.72 501.51 1195.34 503.45 1191.21 543.61"/><polygon points="1573.79 958.08 1573.56 957.81 1573.46 954.88 1778.1 947.81 1781.41 950.9 1573.79 958.08"/><path d="M1471.42,834.85h0l-.09-3,177.5-6.14a1.42,1.42,0,0,1,1,.38l2.48,2.31Z"/><polygon points="1388.99 734.3 1386.57 731.41 1542.84 726 1545.74 728.71 1388.99 734.3"/><polygon points="1314.29 645.58 1311.87 642.69 1448.65 637.96 1451.56 640.68 1314.29 645.58"/><polygon points="1247.38 565.64 1244.97 562.75 1363.78 558.64 1366.71 561.38 1247.38 565.64"/><polygon points="1301.53 500.46 1195.98 504.22 1193.57 501.34 1298.59 497.71 1301.53 500.46"/><image class="cls-17" width="36" height="38" transform="translate(815 254)" xlink:href="Background1.png"/><path class="cls-18" d="M821.19,285.58a15.06,15.06,0,0,1-4-1.9,2,2,0,0,1-.83-2,17.77,17.77,0,0,1,.93-3.54c4.87-11.81,26.94-22.88,26.94-22.88a14.48,14.48,0,0,1,.61,2.08c.63,3.79,1.48,7.52.24,11.68C841.47,281,830.79,288.44,821.19,285.58Z"/><path class="cls-19" d="M843,267.45a11.9,11.9,0,0,1,1,4.51h0c-.15.35-.3.69-.46,1h0c-.15.33-.32.66-.48,1h0c-.17.32-.34.64-.52.95h0c-.18.31-.36.62-.55.92h0c-.19.3-.38.59-.58.88v0l-.6.84,0,0q-.3.4-.63.81h0l-.66.78h0c-.23.26-.45.5-.69.74v0c-.23.24-.47.47-.71.7h0l-.73.67h0c-.25.21-.5.42-.76.62h0l-.78.59h0c-.27.19-.53.38-.8.55h0c-.54.35-1.09.67-1.65,1h0a12,12,0,0,1-12.35-7.2,12.3,12.3,0,0,1-.91-3.46c3.82-5,9.92-9.57,15-12.89A12,12,0,0,1,843,267.45Z"/><path d="M822.87,270.25c1.24,2.38,2.53,4.62,3.82,6.63l1.44,2.24h0a74.35,74.35,0,0,0-3.22-10.83C824.2,268.93,823.53,269.58,822.87,270.25Z"/><image class="cls-17" width="37" height="36" transform="translate(761 256)" xlink:href="Background2.png"/><path class="cls-18" d="M792.28,286a14.48,14.48,0,0,0,3.87-2.2,2,2,0,0,0,.68-2,17.32,17.32,0,0,0-1.18-3.47c-5.73-11.42-28.55-20.83-28.55-20.83a14.07,14.07,0,0,0-.46,2.12c-.35,3.82-.92,7.61.62,11.67C771.72,283,782.91,289.6,792.28,286Z"/><path class="cls-19" d="M769.18,269.57a11.67,11.67,0,0,0-.64,4.57h0c.17.33.34.66.53,1h0c.18.32.36.63.56.94h0c.19.31.39.61.59.91h0c.2.3.41.59.62.87v0c.21.28.42.56.64.83v0c.22.27.44.53.67.79v0l.69.76,0,0,.71.72v0l.74.68h0c.25.23.51.44.76.65h0c.26.21.52.42.78.61h0c.27.2.53.39.8.57h0c.27.18.54.36.82.53h0c.28.17.56.34.84.49h0a18.27,18.27,0,0,0,1.72.85h0a12,12,0,0,0,12.43-11.6c-4.18-4.69-10.59-8.81-15.94-11.75A12,12,0,0,0,769.18,269.57Z"/><path d="M789.47,270.88c-1.06,2.45-2.18,4.79-3.32,6.89l-1.27,2.34h0a74,74,0,0,1,2.42-11C788.05,269.65,788.77,270.26,789.47,270.88Z"/><image class="cls-17" width="30" height="31" transform="translate(1078 400)" xlink:href="Background3.png"/><path class="cls-18" d="M1083.52,424.88a11.68,11.68,0,0,1-3.17-1.5,1.55,1.55,0,0,1-.65-1.57,14,14,0,0,1,.73-2.79c3.83-9.3,21.21-18,21.21-18a11.17,11.17,0,0,1,.48,1.64c.51,3,1.17,5.92.19,9.2C1099.5,421.29,1091.08,427.13,1083.52,424.88Z"/><path class="cls-19" d="M1100.71,410.6a9.39,9.39,0,0,1,.77,3.56h0c-.11.27-.23.54-.36.8h0c-.12.26-.25.52-.38.78h0c-.13.26-.26.51-.4.75h0c-.14.25-.28.49-.43.72h0l-.45.7h0l-.48.66v0c-.16.21-.33.43-.5.63v0l-.51.61h0c-.17.2-.35.39-.53.58h0c-.18.19-.36.38-.55.56h0l-.58.52h0c-.19.17-.39.33-.59.49h0l-.61.46h0c-.21.16-.42.3-.63.44h0c-.43.28-.86.53-1.3.77h0a9.47,9.47,0,0,1-9.72-5.67,9.28,9.28,0,0,1-.72-2.73c3-3.93,7.81-7.54,11.84-10.15A9.43,9.43,0,0,1,1100.71,410.6Z"/><path d="M1084.85,412.81c1,1.87,2,3.63,3,5.22l1.14,1.76h0a58.68,58.68,0,0,0-2.54-8.53C1085.89,411.77,1085.36,412.28,1084.85,412.81Z"/><image class="cls-17" width="31" height="30" transform="translate(1035 401)" xlink:href="Background4.png"/><path class="cls-18" d="M1060.75,425.24a11.31,11.31,0,0,0,3-1.73,1.55,1.55,0,0,0,.54-1.61,13.57,13.57,0,0,0-.94-2.73c-4.5-9-22.48-16.41-22.48-16.41a11.1,11.1,0,0,0-.36,1.67c-.28,3-.73,6,.49,9.19C1044.55,422.84,1053.37,428,1060.75,425.24Z"/><path class="cls-19" d="M1042.55,412.27a9.35,9.35,0,0,0-.5,3.6h0c.13.26.27.52.42.77h0c.14.25.29.5.44.74h0l.46.71h0q.24.36.48.69h0l.5.66h0l.52.63h0q.27.31.54.6h0c.18.2.37.39.56.57v0c.19.18.38.36.58.53v0l.6.51h0l.61.49h0q.32.24.63.45h0l.65.41h0l.66.38h0c.45.25.9.47,1.35.67h0a9.46,9.46,0,0,0,9.28-6.37,9.61,9.61,0,0,0,.52-2.77c-3.29-3.69-8.35-6.94-12.56-9.25A9.46,9.46,0,0,0,1042.55,412.27Z"/><path d="M1058.54,413.3c-.84,1.94-1.72,3.77-2.62,5.43l-1,1.84h0a58.22,58.22,0,0,1,1.91-8.7C1057.42,412.34,1058,412.81,1058.54,413.3Z"/><image class="cls-17" width="22" height="22" transform="translate(952 167)" xlink:href="Background5.png"/><path class="cls-18" d="M955.94,183.28a7.7,7.7,0,0,1-2-.95,1,1,0,0,1-.42-1,8.75,8.75,0,0,1,.47-1.79c2.45-5.95,13.58-11.53,13.58-11.53a7.08,7.08,0,0,1,.31,1.05c.32,1.91.74,3.79.12,5.89C966.17,181,960.78,184.72,955.94,183.28Z"/><path class="cls-19" d="M966.94,174.15a5.91,5.91,0,0,1,.49,2.27h0l-.22.51h0c-.07.16-.16.33-.24.49h0l-.26.48h0l-.27.46h0c-.09.15-.19.3-.29.44h0c-.09.15-.2.29-.3.43h0l-.31.4h0l-.33.39h0c-.11.13-.23.25-.34.37h0l-.36.35h0l-.37.33h0l-.38.32h0l-.39.3h0l-.4.28h0c-.27.18-.55.34-.83.49h0a6,6,0,0,1-6.22-3.63,5.83,5.83,0,0,1-.46-1.74,31.26,31.26,0,0,1,7.57-6.5A6,6,0,0,1,966.94,174.15Z"/><path d="M956.79,175.56c.62,1.19,1.27,2.32,1.92,3.34l.73,1.13h0a37.57,37.57,0,0,0-1.62-5.46C957.46,174.89,957.12,175.22,956.79,175.56Z"/><image class="cls-17" width="22" height="21" transform="translate(923 168)" xlink:href="Background6.png"/><path class="cls-18" d="M941.37,183.51a7.49,7.49,0,0,0,2-1.1,1,1,0,0,0,.34-1,8.62,8.62,0,0,0-.6-1.75c-2.88-5.76-14.39-10.5-14.39-10.5a7.67,7.67,0,0,0-.22,1.07c-.18,1.92-.47,3.83.31,5.88C931,182,936.65,185.31,941.37,183.51Z"/><path class="cls-19" d="M929.72,175.21a6.18,6.18,0,0,0-.32,2.31h0c.09.17.17.33.27.49h0a5.5,5.5,0,0,0,.28.48h0c.1.16.19.31.3.46h0l.31.44h0l.33.42h0l.34.41h0c.11.14.23.26.34.39h0l.36.36h0l.37.34h0l.38.33h0c.12.11.26.21.39.31h0l.41.29h0l.41.26h0l.43.25h0c.28.16.57.3.86.43h0a6.07,6.07,0,0,0,6.27-5.85,31.59,31.59,0,0,0-8-5.92A6.06,6.06,0,0,0,929.72,175.21Z"/><path d="M940,175.87c-.53,1.24-1.1,2.42-1.67,3.48l-.64,1.18h0a36.43,36.43,0,0,1,1.22-5.57C939.23,175.26,939.6,175.56,940,175.87Z"/><image class="cls-17" width="23" height="23" transform="translate(831 407)" xlink:href="Background7.png"/><path class="cls-18" d="M835.22,424.25a7.79,7.79,0,0,1-2.12-1,1.06,1.06,0,0,1-.44-1.05,8.74,8.74,0,0,1,.49-1.87c2.57-6.23,14.21-12.07,14.21-12.07a8.7,8.7,0,0,1,.32,1.1c.33,2,.78,4,.12,6.16C845.92,421.85,840.28,425.76,835.22,424.25Z"/><path class="cls-19" d="M846.73,414.69a6.3,6.3,0,0,1,.52,2.38h0l-.24.54h0c-.09.18-.17.35-.26.52h0c-.09.17-.18.34-.28.5h0c-.09.16-.19.32-.29.48h0c-.1.16-.2.31-.31.46h0l-.32.45h0l-.33.42h0c-.11.14-.23.28-.35.41h0l-.35.39h0l-.37.37h0l-.39.35h0l-.4.33h0l-.41.31h0l-.42.29h0a9.42,9.42,0,0,1-.87.51h0a6.34,6.34,0,0,1-6.51-3.79,6.44,6.44,0,0,1-.48-1.83,33,33,0,0,1,7.93-6.8A6.31,6.31,0,0,1,846.73,414.69Z"/><path d="M836.11,416.17c.65,1.25,1.33,2.43,2,3.49l.76,1.18h0a39.32,39.32,0,0,0-1.7-5.71C836.81,415.47,836.45,415.82,836.11,416.17Z"/><image class="cls-17" width="23" height="22" transform="translate(801 408)" xlink:href="Background8.png"/><path class="cls-18" d="M820,424.49a7.78,7.78,0,0,0,2-1.15,1.06,1.06,0,0,0,.36-1.08,9.21,9.21,0,0,0-.63-1.83c-3-6-15.06-11-15.06-11a8.81,8.81,0,0,0-.24,1.12c-.18,2-.48,4,.33,6.15C809.13,422.89,815,426.37,820,424.49Z"/><path class="cls-19" d="M807.79,415.81a6.29,6.29,0,0,0-.34,2.41h0l.28.52h0l.3.5h0c.1.16.2.32.31.48h0l.33.46h0c.11.15.22.3.34.44h0l.35.42h0c.12.14.24.27.37.4h0c.12.13.24.26.37.38h0l.39.36h0l.39.34h0l.41.32h0l.42.3h0l.44.28h0l.44.26h0l.9.45h0a6.33,6.33,0,0,0,6.56-6.12,32.75,32.75,0,0,0-8.4-6.2A6.31,6.31,0,0,0,807.79,415.81Z"/><path d="M818.49,416.5c-.56,1.29-1.15,2.52-1.75,3.63l-.67,1.23h0a39.38,39.38,0,0,1,1.28-5.82Q817.94,416,818.49,416.5Z"/><image class="cls-17" width="26" height="27" transform="translate(1129 240)" xlink:href="Background9.png"/><path class="cls-18" d="M1133.6,261.06a9.63,9.63,0,0,1-2.67-1.26,1.29,1.29,0,0,1-.54-1.32,11.53,11.53,0,0,1,.61-2.34c3.22-7.82,17.82-15.14,17.82-15.14a9.07,9.07,0,0,1,.4,1.38c.42,2.5,1,5,.16,7.73C1147,258.05,1140,263,1133.6,261.06Z"/><path class="cls-19" d="M1148,249.07a7.87,7.87,0,0,1,.64,3h0c-.09.23-.19.45-.3.68h0c-.1.22-.21.44-.32.65h0c-.12.22-.23.43-.35.63h0l-.36.61h0l-.38.58h0l-.4.56h0c-.14.18-.27.36-.42.53v0l-.43.51h0l-.45.49h0c-.15.16-.31.31-.47.46h0l-.48.44h0l-.5.41h0l-.52.39h0c-.17.12-.35.25-.53.36h0a12,12,0,0,1-1.09.65h0a8,8,0,0,1-8.17-4.76,8.25,8.25,0,0,1-.6-2.29c2.53-3.3,6.56-6.34,10-8.53A7.92,7.92,0,0,1,1148,249.07Z"/><path d="M1134.71,250.92c.82,1.57,1.67,3.05,2.53,4.39l1,1.48h0a49.45,49.45,0,0,0-2.13-7.17C1135.59,250,1135.14,250.48,1134.71,250.92Z"/><image class="cls-17" width="27" height="26" transform="translate(1092 241)" xlink:href="Background10.png"/><path class="cls-18" d="M1114.47,261.36a9.63,9.63,0,0,0,2.56-1.45,1.29,1.29,0,0,0,.45-1.35,12,12,0,0,0-.78-2.3c-3.79-7.55-18.89-13.78-18.89-13.78a9.15,9.15,0,0,0-.3,1.4c-.24,2.53-.61,5,.41,7.72C1100.86,259.35,1108.27,263.72,1114.47,261.36Z"/><path class="cls-19" d="M1099.18,250.47a8.09,8.09,0,0,0-.42,3h0c.11.22.23.44.35.65h0c.12.22.24.43.37.63h0l.39.61h0c.13.2.27.39.4.58h0l.42.55h0c.15.18.29.36.44.53h0c.15.17.3.34.46.5h0c.15.17.31.33.47.48h0l.49.46h0c.16.14.33.29.5.42h0l.51.41h0l.53.38h0l.54.35h0c.18.11.36.22.55.32h0a10,10,0,0,0,1.14.56h0a7.93,7.93,0,0,0,7.79-5.35,7.59,7.59,0,0,0,.43-2.32c-2.76-3.11-7-5.84-10.54-7.78A7.93,7.93,0,0,0,1099.18,250.47Z"/><path d="M1112.61,251.33c-.7,1.63-1.44,3.17-2.2,4.56l-.83,1.55h0a48.53,48.53,0,0,1,1.59-7.31Q1111.92,250.72,1112.61,251.33Z"/><path class="cls-20" d="M581,1070c21.93-55.3,80.08-111.08,81-170-2.11-133.31,62.85-314.7,125-393-47.28,89.27-115.39,235.46-86,302C696.37,880.16,622.81,1023.28,581,1070Z"/><path class="cls-20" d="M1021,1070c-40.73-44.43-58.32-103.42-38.51-158a83.72,83.72,0,0,0,5.08-31.18c-3.75-119-22.81-158.24,36.43-232.87-34.87,65.83-29.73,135.17-22.62,197.52,3.08,27.06.84,54.59-7.75,80.43C983.66,955.94,995.43,1018.08,1021,1070Z"/><path class="cls-20" d="M963.69,576.57c-6.11,19.88-15.8,39.85-14.49,60.41,4.43,46.39,13.89,59.45-5.6,88.46,14-32.42,2.77-84.38-1.07-110.72C942.17,589.8,950.42,594,963.69,576.57Z"/><path class="cls-20" d="M1164.92,617.89c-1.47,59.47-1.06,52.29,18.43,107.9,48.05,124.37,84.22,153,52.94,248,12.9-95.38-24.08-148.37-54.37-213.35a144.67,144.67,0,0,1-7-18C1156,681.69,1142.79,673.75,1164.92,617.89Z"/><path class="cls-20" d="M1064.73,489.19c-.65,18.15,6.45,29.17,17.25,39.48a30.41,30.41,0,0,1,9.38,21.31c.88,39-4.65,52.07-6,51.35,5.5-4.84,6.09-56-10.52-76.31a102.19,102.19,0,0,1-10.15-14.7C1059.74,501.41,1060.68,505.89,1064.73,489.19Z"/><path class="cls-20" d="M828,583c5-11.19,3.68-20-.2-29.14a26.35,26.35,0,0,1-.4-19.82c9.44-24.38,16.23-31.13,16.91-30.31-5.07,1.77-19.84,37.39-12.82,54.67a25.58,25.58,0,0,1,1.83,7.5C834.31,577.28,836,571.85,828,583Z"/></g></g></svg>
