<svg xmlns="http://www.w3.org/2000/svg" xmlns:xlink="http://www.w3.org/1999/xlink" width="200" height="100" viewBox="0 0 200 100"><defs><style>.cls-1{filter:url(#AI_BevelShadow_1);}.cls-2{fill:#fff;}.cls-3{fill:#f1c91e;}</style><filter id="AI_BevelShadow_1" x="-20" y="-20" width="140" height="140" name="AI_BevelShadow_1"><feGaussianBlur result="blur" stdDeviation="4" in="SourceAlpha"/><feOffset result="offsetBlur" dx="4" dy="4" in="blur"/><feSpecularLighting result="specOut" surfaceScale="5" specularExponent="10" in="blur"><fePointLight x="-5000" y="-10000" z="-20000"/></feSpecularLighting><feComposite result="specOut" operator="in" in="specOut" in2="SourceAlpha"/><feComposite result="litPaint" operator="arithmetic" k2="1" k3="1" in="SourceGraphic" in2="specOut"/><feMerge><feMergeNode in="offsetBlur"/><feMergeNode in="litPaint"/></feMerge></filter></defs><title>Evil eyes</title><g id="Layer_1" data-name="Layer 1"><g class="cls-1"><path class="cls-2" d="M128.12,76.69a27.26,27.26,0,0,1-7.43-3.51,3.66,3.66,0,0,1-1.53-3.68A31.61,31.61,0,0,1,120.87,63c9-21.82,49.76-42.27,49.76-42.27a26.29,26.29,0,0,1,1.13,3.85c1.17,7,2.73,13.89.44,21.58C165.6,68.28,145.86,82,128.12,76.69Z"/><path class="cls-3" d="M168.45,43.21a22.22,22.22,0,0,1,1.8,8.33h0c-.27.64-.55,1.26-.84,1.88h0c-.29.62-.59,1.22-.91,1.82h0c-.31.6-.63,1.18-1,1.76v0c-.33.57-.67,1.14-1,1.69v0c-.35.55-.7,1.09-1.07,1.62l0,0q-.54.8-1.11,1.56l0,0c-.38.51-.77,1-1.16,1.5l0,0c-.4.49-.8,1-1.21,1.43l0,0c-.42.46-.84.92-1.26,1.36l0,0c-.43.44-.86.87-1.31,1.3l0,0q-.66.63-1.35,1.23h0c-.46.4-.92.79-1.39,1.17h0c-.47.37-.95.74-1.43,1.09h0c-.49.36-1,.7-1.48,1h0a33.67,33.67,0,0,1-3,1.8h0A22.2,22.2,0,0,1,126,54.35c7.06-9.22,18.32-17.68,27.76-23.82A22.14,22.14,0,0,1,168.45,43.21Z"/><path d="M131.24,48.38c2.29,4.38,4.66,8.53,7,12.24L141,64.76h0a136.09,136.09,0,0,0-5.95-20C133.69,45.93,132.45,47.15,131.24,48.38Z"/><path class="cls-2" d="M74.72,77.54a27.33,27.33,0,0,0,7.15-4.05,3.65,3.65,0,0,0,1.26-3.79,31.23,31.23,0,0,0-2.19-6.4C70.37,42.2,28.2,24.81,28.2,24.81a27.17,27.17,0,0,0-.84,3.93c-.65,7.06-1.7,14.05,1.15,21.55C36.73,71.91,57.42,84.11,74.72,77.54Z"/><path class="cls-3" d="M32,47.12a22.28,22.28,0,0,0-1.18,8.44h0c.32.62.64,1.22,1,1.82h0c.33.59.68,1.18,1,1.75h0Q33.4,60,34,60.82l0,0c.37.55.75,1.09,1.13,1.61l0,0c.39.52.78,1,1.18,1.54l0,0q.6.75,1.23,1.47l0,0c.42.48.84,1,1.27,1.41l0,0c.43.46.86.9,1.31,1.33l0,0c.45.44.9.86,1.36,1.27l0,0c.46.41.92.81,1.39,1.2l0,0c.47.39,1,.76,1.44,1.13h0c.48.37,1,.72,1.47,1.06h0c.5.34,1,.67,1.51,1h0c.51.31,1,.61,1.54.9h0c1,.58,2.1,1.11,3.17,1.58h0a22.2,22.2,0,0,0,23-21.44c-7.71-8.67-19.56-16.29-29.44-21.71A22.13,22.13,0,0,0,32,47.12Z"/><path d="M69.53,49.53c-2,4.54-4,8.85-6.13,12.73l-2.34,4.32h0a134.39,134.39,0,0,1,4.46-20.39C66.9,47.27,68.23,48.39,69.53,49.53Z"/></g></g></svg>