<svg xmlns="http://www.w3.org/2000/svg" xmlns:xlink="http://www.w3.org/1999/xlink" width="500" height="300" viewBox="0 0 500 300"><defs><style>.cls-1{fill:url(#New_Gradient_Swatch_1);}.cls-2{fill:url(#New_Gradient_Swatch_1-2);}.cls-3{fill:url(#New_Gradient_Swatch_1-3);}.cls-4{fill:url(#New_Gradient_Swatch_1-4);}.cls-5{fill:url(#New_Gradient_Swatch_1-5);}.cls-6{fill:url(#New_Gradient_Swatch_1-6);}.cls-7{filter:url(#AI_BevelShadow_1);}.cls-8{fill:#b05412;}.cls-9{fill:#7c4b2a;}.cls-10{fill:#ed2435;}.cls-11{fill:#fff;}.cls-12{fill:#f1c91e;}.cls-13{fill:#727272;}.cls-14{fill:#76f1fc;}</style><linearGradient id="New_Gradient_Swatch_1" x1="214.56" y1="273.11" x2="283.37" y2="273.11" gradientUnits="userSpaceOnUse"><stop offset="0" stop-color="#76f1fc"/><stop offset="0.18" stop-color="#69e8f3"/><stop offset="0.51" stop-color="#48cfdb"/><stop offset="0.94" stop-color="#13a8b5"/><stop offset="1" stop-color="#0ba2b0"/></linearGradient><linearGradient id="New_Gradient_Swatch_1-2" x1="279.65" y1="19.34" x2="332.21" y2="19.34" xlink:href="#New_Gradient_Swatch_1"/><linearGradient id="New_Gradient_Swatch_1-3" x1="397.7" y1="49.55" x2="495.34" y2="49.55" xlink:href="#New_Gradient_Swatch_1"/><linearGradient id="New_Gradient_Swatch_1-4" x1="5.91" y1="72.31" x2="175.23" y2="72.31" xlink:href="#New_Gradient_Swatch_1"/><linearGradient id="New_Gradient_Swatch_1-5" x1="367.23" y1="221.7" x2="495.34" y2="221.7" xlink:href="#New_Gradient_Swatch_1"/><linearGradient id="New_Gradient_Swatch_1-6" x1="5.91" y1="239.33" x2="150.48" y2="239.33" xlink:href="#New_Gradient_Swatch_1"/><filter id="AI_BevelShadow_1" x="-20" y="-20" width="140" height="140" name="AI_BevelShadow_1"><feGaussianBlur result="blur" stdDeviation="4" in="SourceAlpha"/><feOffset result="offsetBlur" dx="4" dy="4" in="blur"/><feSpecularLighting result="specOut" surfaceScale="5" specularExponent="10" in="blur"><fePointLight x="-5000" y="-10000" z="-20000"/></feSpecularLighting><feComposite result="specOut" operator="in" in="specOut" in2="SourceAlpha"/><feComposite result="litPaint" operator="arithmetic" k2="1" k3="1" in="SourceGraphic" in2="specOut"/><feMerge><feMergeNode in="offsetBlur"/><feMergeNode in="litPaint"/></feMerge></filter></defs><title>Gameover</title><g id="Layer_1" data-name="Layer 1"><rect x="1.5" y="-0.3" width="497" height="292.89"/><path class="cls-1" d="M273.94,259.35a22.3,22.3,0,0,0-2.7-1.72c-2.11-.28-7.27-1.58-.7,7.53,7.22,10-22.6,27.14-17.4,7.46,2.26-8.6-24.4,8.18-22-4.22a15.84,15.84,0,0,1,.55-2.07l-17.1,22.48h68.81Z"/><path class="cls-2" d="M308.12,33A56.91,56.91,0,0,0,332.21,3.81H279.65C286,23.4,295.68,40.73,308.12,33Z"/><path class="cls-3" d="M398.21,39.44c-1.9,13.45,1.26,26.86,14.25,32.91l61.67,11.8c9.11,2.63,16.07,6.49,21.21,11.13V3.81H402.88Z"/><path class="cls-4" d="M121.24,88.64c13.28-4.92,55.17-39.47,54-53.06Q167.77,19,162.36,3.81H5.91v137C33.33,110.48,75.26,97.18,121.24,88.64Z"/><path class="cls-5" d="M455.14,165c-5.95,1.13-26.66-4-31.51,10.34-16.48,48.83-32.86,32.2-35.06-6.56,0,0,0-.08,0-.12-1.35.59-2.69,1.2-4,1.85-11.43,4.23-21.39,34.46-15.62,52.63,3.92,12.35,6,25.12,7.46,37.9l3.1,27.75H495.34V154.58C484.93,167.15,469.34,173.7,455.14,165Z"/><path class="cls-6" d="M113.61,274c1.9-13.45,17.77-68.95,36.87-84.07-14,2.55-34,4.43-51.29,5.7l-.28.08A17.92,17.92,0,0,1,93,196l-3.66.25c-2.35.73-3.7,3.21-3,11,1.42,16.45-22.94-8.73-28.42-.07s-21.42,4.53-19.8,19.94c2.36,22.41-26.5,10.92-21.62-6.3,5-17.7-2.83-24.83-10.56-31v98.95H111.39Z"/><g class="cls-7"><path class="cls-8" d="M153,63.12A29.72,29.72,0,0,0,139.47,45a18.29,18.29,0,0,0-10.32,1.45C108.59,56,96.44,49.37,85.75,56,65,68.7,61.67,86.2,61.67,111.32c0,1.75-18,30.77-10.49,53,3.17,9.45,7,13.15,9.85,14.39l-.59.18C47.2,183.1,55.16,208.21,67.58,211h4.49l.1,0h11c7.74-2.46,23.67-26.15,16-51.61-.34-1.14-3.65-8.45-4.1-9.46,7.36-3.66,24.58,17,31.36,1.69,8.63-19.42,3-2.79,22.88-14.4,30.51-17.8,8.34-73.35,3.84-73.95A.18.18,0,0,1,153,63.12ZM94.43,125.54c14-12.73,3.68-28.4,12.43-35.88-.8,1.18-.56,3,5.19,4.38l3.31.66a110.46,110.46,0,0,0,11.72,1.16,12.14,12.14,0,0,0,5.23-1.09c1.75-.73,4.07.54,3.69,2.4-2.9,13.93-2.78,29.86-24,34.94C103.57,134.14,90,129.57,94.43,125.54Z"/><path class="cls-9" d="M61.79,111.29h-.12v0a29.94,29.94,0,0,1-1.94,4.33c3.27.78,7.27,2.06,11.57,3.54a0,0,0,1,0,0-.09A22.27,22.27,0,0,1,61.79,111.29Z"/><path class="cls-9" d="M77.28,178.73c-5.07.33-11,1.11-14.9.22l-1.48-.26.13.06-.59.18a9.43,9.43,0,0,0-2.51,1.21,22.75,22.75,0,0,1,7.94.76,10.52,10.52,0,0,0,4.57-.05C72.74,180.33,77.33,178.73,77.28,178.73Z"/><path class="cls-9" d="M109.92,72.1a.23.23,0,0,0-.46,0,57.92,57.92,0,0,0-4.79,20.22,10.1,10.1,0,0,1,2.12-2.55.78.78,0,0,0,.11-.39A66.29,66.29,0,0,1,109.92,72.1Z"/><path class="cls-9" d="M114,54.31c4-3.17,13.76-4.77,13.65-7.12,0,0,0,0,0-.07C115.16,52.53,105.83,52,98,52.61,98.36,54.9,111.05,56.69,114,54.31Z"/><path class="cls-9" d="M132.56,94.69a2.9,2.9,0,0,1,3.14,1l.06,0a10.57,10.57,0,0,0,4.89-6.14c0-.11-.1-.17-.17-.08Q138.09,92.9,132.56,94.69Z"/><path class="cls-9" d="M134.07,141.43a12.73,12.73,0,0,1-6.15-4.94.19.19,0,0,0-.33.16c.73,2.68,1.59,5,3.09,5.63l.3.23c1-1.3,1.82-1.2,3.14-1Z"/><path class="cls-9" d="M153,63.18s0,0,0-.06c-.14-.6-.31-1.19-.49-1.78a.09.09,0,0,0-.12-.06c-3.34,1.06-4.81,4.55-6.16,8.19a.09.09,0,0,0,.15.08c2.17-3.38,4.43-6.5,6.34-6.09Z"/><path class="cls-9" d="M87.5,144.41c.53,2.3,5.18,3.9,7.58,5.5a4.23,4.23,0,0,1,1.22-.38c-2.78-3.65-5.83-3.36-8.45-5.45C87.69,144,87.46,144.21,87.5,144.41Z"/><path class="cls-8" d="M412.34,64.81a29.73,29.73,0,0,0-13.52-18.1,18.28,18.28,0,0,0-10.32,1.44c-20.56,9.49-32.71,2.91-43.4,9.49C324.37,70.4,321,87.89,321,113c0,1.75-18,30.78-10.5,53,3.18,9.45,7,13.15,9.86,14.4l-.6.17c-13.24,4.17-5.28,29.28,7.14,32.08h4.5l.09,0h11.05c7.73-2.47,23.67-26.16,16-51.62-.34-1.13-3.65-8.45-4.1-9.46,7.36-3.65,24.57,17,31.35,1.7,8.64-19.43,3-2.8,22.89-14.41,30.51-17.8,8.33-73.34,3.84-73.94A.19.19,0,0,1,412.34,64.81Zm-58.56,62.42c14-12.72,3.68-28.39,12.42-35.88-.79,1.19-.55,3,5.2,4.39l3.3.66a111.47,111.47,0,0,0,11.72,1.15,12.13,12.13,0,0,0,5.24-1.08c1.75-.73,4.07.54,3.68,2.39-2.89,13.94-2.77,29.86-24,35C362.92,135.84,349.34,131.26,353.78,127.23Z"/><path class="cls-9" d="M321.14,113H321v0a29.42,29.42,0,0,1-1.94,4.33c3.26.79,7.26,2.07,11.57,3.55a.05.05,0,0,0,0-.1A22.13,22.13,0,0,1,321.14,113Z"/><path class="cls-9" d="M336.63,180.42c-5.08.34-11,1.12-14.9.23l-1.48-.26.13.06-.6.17a10.07,10.07,0,0,0-2.51,1.21,22.73,22.73,0,0,1,7.94.77,10.83,10.83,0,0,0,4.57,0C332.09,182,336.68,180.43,336.63,180.42Z"/><path class="cls-9" d="M369.27,73.79a.23.23,0,0,0-.46-.05A57.59,57.59,0,0,0,364,94a10.1,10.1,0,0,1,2.11-2.55.69.69,0,0,0,.11-.39A66.81,66.81,0,0,1,369.27,73.79Z"/><path class="cls-9" d="M373.37,56c4-3.17,13.76-4.77,13.65-7.13,0,0,0,0,0-.07-12.5,5.41-21.83,4.93-29.65,5.5C357.71,56.6,370.4,58.38,373.37,56Z"/><path class="cls-9" d="M391.91,96.38a2.91,2.91,0,0,1,3.13,1l.07,0A10.62,10.62,0,0,0,400,91.23a.09.09,0,0,0-.17-.08Q397.43,94.59,391.91,96.38Z"/><path class="cls-9" d="M393.41,143.13a12.8,12.8,0,0,1-6.14-4.94.19.19,0,0,0-.34.16c.73,2.68,1.59,5,3.09,5.63l.31.23c1-1.3,1.82-1.2,3.13-1Z"/><path class="cls-9" d="M412.38,64.88a.1.1,0,0,1,0-.07c-.14-.59-.31-1.19-.5-1.78a.1.1,0,0,0-.11-.06c-3.34,1.07-4.82,4.56-6.17,8.2,0,.1.1.16.16.08,2.17-3.38,4.42-6.5,6.34-6.09Z"/><path class="cls-9" d="M346.85,146.1c.53,2.31,5.18,3.91,7.58,5.5a3.87,3.87,0,0,1,1.21-.37c-2.77-3.65-5.82-3.36-8.45-5.45C347,145.65,346.8,145.9,346.85,146.1Z"/><path class="cls-8" d="M216.16,182.51c1.44-1.53,2.53-4.27,2.16-10.78-.29-5-1.07-9.42-2.62-11.49a6.83,6.83,0,0,0-2.78-4c.75-2-.41-1.92-.41-3.14,0-2,.23-3.73-4.25-4.37a.09.09,0,0,1-.06,0,12.73,12.73,0,0,0-8.38-7.84,2.35,2.35,0,0,1-.64-.3l-.48-.34a2.22,2.22,0,0,1-.69-.77,13.88,13.88,0,0,0-18.1-5.92c-1.12-.1-2.25-.16-3.4-.16a39.4,39.4,0,0,0-5,.33,21,21,0,0,0-3.7-.33c-6.1,0-11.15,2.56-12,5.91-1.34,4.39-5.47,6.1-9.33,8,0,0-.09,0-.12,0C141.23,152,137,154.77,137,159a13.8,13.8,0,0,0,.77,4.61c-1,3.42-5.16,8.77-5.41,14-.44,8.94,6,14.9,8.16,15.68a11.59,11.59,0,0,0,11.58,11l.4,0a36.57,36.57,0,0,0,3.43,2.36c2.59,3.07,5.92,4.13,10.1,4.63h0c2.54,2.22,2.32,1.16,10.45,1.16,4.78,0,7.79.15,10.25-.28.82.18,1.66-.88,2.53-.88,5.13,0,9.49-2.18,11-6.8l.41-.36a8.9,8.9,0,0,0,6.53-4.29A13.66,13.66,0,0,0,214.84,188a9.85,9.85,0,0,0-.25-2.31A13.71,13.71,0,0,0,216.16,182.51Zm-36.06,2.35a16.21,16.21,0,0,0-11.72-5h-2.75a.06.06,0,0,1-.06-.08,12.22,12.22,0,0,0,.49-3.41,11.84,11.84,0,0,0-1.93-6.56.06.06,0,0,1,0-.08,12.64,12.64,0,0,0,4.6-6.14h0c4.31-.08,8-1.56,9.92-3.72a9.83,9.83,0,0,0,7.72,3.74,9.63,9.63,0,0,0,1.08-.07,14.69,14.69,0,0,1,2.12,3.31,10.86,10.86,0,0,0-.52,9.86,15,15,0,0,0-4.24,3.88A10.9,10.9,0,0,0,180.1,184.86Z"/><path class="cls-9" d="M150.41,145.24A4.71,4.71,0,0,0,155,143.3c1.56-2,2.53-3.78,1.18-5a4.32,4.32,0,0,0-.39,1C154.88,142.13,152.81,143.85,150.41,145.24Z"/><path class="cls-9" d="M169,163.53a15.3,15.3,0,0,0,1.53-.11.07.07,0,0,0,.06-.08c-.09-1.16-3.08-2.84-5.12-4.1a.08.08,0,0,0-.09.12c1.86,1.79,3.93,3.19,3.54,4.07C168.87,163.48,168.92,163.53,169,163.53Z"/><path class="cls-9" d="M179.49,138.07a.09.09,0,0,0,.17,0c-.07-1.36-.08-3.41.65-4.66-.13.06-.27.11-.4.18l-1-.08A10.87,10.87,0,0,0,179.49,138.07Z"/><path class="cls-9" d="M180.1,184.86l-.64-.63c.28,1.28.68,4,.88,5.65,0,.08.13.06.14,0,.1-.68-.49-2.67,0-5.49Z"/><path class="cls-9" d="M164.13,169.81a.06.06,0,0,1,0-.08c.12-.08.23-.17.34-.26-1.33-.43-2.89-.8-4-1.13,1.42.8,3,1.41,4,2Z"/><path class="cls-9" d="M165.63,179.86a.06.06,0,0,1-.06-.08,12.39,12.39,0,0,0,.29-1.27c-1.28.5-2.74,2.52-3.86,4.11a.09.09,0,0,0,.13.11c1.6-1.5,3-2.89,3.87-2.87Z"/><path class="cls-9" d="M178.66,159.86q.15.19.3.36a9.45,9.45,0,0,1,.72-4.91c-.67.75-1.54.89-1.43,2.13-.14-1-.51-1.23-1.42-2.13.78,1.3,1,3.22,1.42,5A5.51,5.51,0,0,0,178.66,159.86Z"/><path class="cls-9" d="M190.12,161.2a3.35,3.35,0,0,1-2.6,2.29h0l0,0c.17.2.33.41.49.62a4.27,4.27,0,0,0,2.32-2.9A.08.08,0,0,0,190.12,161.2Z"/><path class="cls-9" d="M145.06,192.9c-.53.37-2.2.43-4.53.31h0a8,8,0,0,0,.08.87h2.48a1.17,1.17,0,0,0,.55-.13l1.51-.75C145.33,193.12,145.88,192.31,145.06,192.9Z"/><path class="cls-9" d="M137.65,163.13c0,.14.09.29.14.43a12.63,12.63,0,0,1-.55,1.44,8.81,8.81,0,0,0,5.61,2.08.14.14,0,0,0,.06-.26A16.56,16.56,0,0,1,137.65,163.13Z"/><path class="cls-9" d="M159.7,199.68l-5.28,3.3-2.52,1.26h.22l.4,0,.75.56,1.15-.38,5.34-4.65A0,0,0,0,0,159.7,199.68Z"/><path class="cls-9" d="M173.27,208.63a19.54,19.54,0,0,1-5.8,2.25,5,5,0,0,0-1.36.38,8.26,8.26,0,0,0,1.24.93,10.1,10.1,0,0,0,6-3.47A.05.05,0,0,0,173.27,208.63Z"/><path class="cls-9" d="M200.42,200a0,0,0,1,0-.09,0,22.64,22.64,0,0,1-.35,5.23c.12-.28.23-.56.33-.86l.41-.36.55-.11A12,12,0,0,0,200.42,200Z"/><path class="cls-9" d="M185.57,207.93a0,0,0,0,0-.07.07,11.5,11.5,0,0,0,2.47,3.74,3.27,3.27,0,0,1,1.21-.52A22.06,22.06,0,0,1,185.57,207.93Z"/><path class="cls-9" d="M192.81,179.2a.09.09,0,0,0,.13-.12,5.15,5.15,0,0,0-2.95-2.43l-1.11-.39a3.38,3.38,0,0,0,.18.44l-.46.3A12.31,12.31,0,0,1,192.81,179.2Z"/><path class="cls-9" d="M207.25,199.76l.48-.26a16.29,16.29,0,0,1-3.68-.82.09.09,0,0,0-.09.16,5.58,5.58,0,0,0,3,1.39C207.08,200.07,207.17,199.92,207.25,199.76Z"/><path class="cls-9" d="M213.24,156.51l-.32-.23c.08-.21.13-.39.18-.56a20.49,20.49,0,0,1-2.45.19.09.09,0,0,0,0,.18A6.25,6.25,0,0,0,213.24,156.51Z"/><path class="cls-9" d="M208.64,148.83l-.38-.06a.09.09,0,0,1-.06,0c0-.14-.11-.28-.16-.41a3.83,3.83,0,0,0-1.17,2.94c0,.1.16.17.15.08A3.25,3.25,0,0,1,208.64,148.83Z"/><path class="cls-9" d="M214.59,185.67c.15-.22.29-.44.42-.67-2.13-1.16-5.73-1.35-7.58-.16-.14.09-.11.3.06.24a9.16,9.16,0,0,1,7.12.67S214.6,185.69,214.59,185.67Z"/><path class="cls-9" d="M200.85,141.24c-.34-.13-.68-.25-1-.35a2.35,2.35,0,0,1-.64-.3l-.48-.34a2.18,2.18,0,0,1-.53-.52c.19,1.12.57,2.3.72,2.06A1.52,1.52,0,0,1,200.85,141.24Z"/><path class="cls-9" d="M212.87,154.2a1.88,1.88,0,0,1-.36-1.06,12.35,12.35,0,0,0,0-1.51,3.41,3.41,0,0,0-.42,1A1.32,1.32,0,0,0,212.87,154.2Z"/><path class="cls-8" d="M305.15,182.51c1.44-1.53,2.53-4.27,2.16-10.78-.29-5-1.07-9.42-2.62-11.49a6.83,6.83,0,0,0-2.78-4c.76-2-.41-1.92-.41-3.14,0-2,.23-3.73-4.25-4.37a.09.09,0,0,1-.06,0,12.73,12.73,0,0,0-8.38-7.84,2.5,2.5,0,0,1-.64-.3l-.48-.34a2.22,2.22,0,0,1-.69-.77,13.87,13.87,0,0,0-18.09-5.92c-1.13-.1-2.26-.16-3.41-.16a39.4,39.4,0,0,0-5,.33,21,21,0,0,0-3.7-.33c-6.1,0-11.14,2.56-12,5.91-1.34,4.39-5.47,6.1-9.33,8,0,0-.09,0-.11,0C230.22,152,226,154.77,226,159a14.06,14.06,0,0,0,.77,4.61c-1,3.42-5.16,8.77-5.41,14-.44,8.94,6,14.9,8.16,15.68a11.59,11.59,0,0,0,11.58,11l.4,0a37.93,37.93,0,0,0,3.43,2.36c2.59,3.07,5.92,4.13,10.11,4.63h0c2.54,2.22,2.32,1.16,10.45,1.16,4.78,0,7.79.15,10.25-.28.82.18,1.66-.88,2.53-.88,5.14,0,9.49-2.18,11-6.8l.41-.36a8.94,8.94,0,0,0,6.54-4.29A13.65,13.65,0,0,0,303.83,188a9.85,9.85,0,0,0-.25-2.31A13.71,13.71,0,0,0,305.15,182.51Zm-36.06,2.35a16.21,16.21,0,0,0-11.72-5h-2.75a.06.06,0,0,1-.06-.08,12.22,12.22,0,0,0,.49-3.41,11.76,11.76,0,0,0-1.93-6.56.06.06,0,0,1,0-.08,12.57,12.57,0,0,0,4.6-6.14h0c4.32-.08,8-1.56,9.92-3.72a9.83,9.83,0,0,0,7.72,3.74,9.48,9.48,0,0,0,1.08-.07,14.69,14.69,0,0,1,2.12,3.31,10.95,10.95,0,0,0-.52,9.86,15.19,15.19,0,0,0-4.24,3.88A10.9,10.9,0,0,0,269.09,184.86Z"/><path class="cls-9" d="M239.4,145.24A4.71,4.71,0,0,0,244,143.3c1.57-2,2.53-3.78,1.18-5a4.87,4.87,0,0,0-.39,1C243.88,142.13,241.8,143.85,239.4,145.24Z"/><path class="cls-9" d="M258,163.53a15.3,15.3,0,0,0,1.53-.11.06.06,0,0,0,.06-.08c-.09-1.16-3.08-2.84-5.12-4.1a.08.08,0,0,0-.09.12c1.86,1.79,3.93,3.19,3.55,4.07C257.86,163.48,257.91,163.53,258,163.53Z"/><path class="cls-9" d="M268.49,138.07a.09.09,0,0,0,.17,0c-.07-1.36-.09-3.41.64-4.66l-.39.18-1.06-.08A10.72,10.72,0,0,0,268.49,138.07Z"/><path class="cls-9" d="M269.09,184.86l-.64-.63c.28,1.28.68,4,.89,5.65,0,.08.12.06.14,0a24.31,24.31,0,0,1-.05-5.49C269.31,184.53,269.2,184.69,269.09,184.86Z"/><path class="cls-9" d="M253.12,169.81a.06.06,0,0,1,0-.08c.12-.08.23-.17.34-.26-1.33-.43-2.89-.8-4-1.13,1.43.8,3,1.41,4,2Z"/><path class="cls-9" d="M254.62,179.86a.06.06,0,0,1-.06-.08,10.22,10.22,0,0,0,.29-1.27c-1.28.5-2.74,2.52-3.86,4.11a.09.09,0,0,0,.13.11c1.6-1.5,3-2.89,3.88-2.87Z"/><path class="cls-9" d="M267.65,159.86a3.65,3.65,0,0,0,.31.36,9.32,9.32,0,0,1,.71-4.91c-.67.75-1.54.89-1.42,2.13-.15-1-.52-1.23-1.43-2.13.79,1.3,1,3.22,1.43,5C267.39,160.15,267.52,160,267.65,159.86Z"/><path class="cls-9" d="M279.12,161.2a3.36,3.36,0,0,1-2.6,2.29h0l0,0c.17.2.33.41.49.62a4.27,4.27,0,0,0,2.32-2.9A.07.07,0,0,0,279.12,161.2Z"/><path class="cls-9" d="M234.05,192.9c-.52.37-2.2.43-4.53.31h0a8,8,0,0,0,.08.87h2.48a1.24,1.24,0,0,0,.56-.13l1.5-.75C234.32,193.12,234.87,192.31,234.05,192.9Z"/><path class="cls-9" d="M226.64,163.13c0,.14.09.29.14.43a11,11,0,0,1-.55,1.44,8.81,8.81,0,0,0,5.61,2.08.14.14,0,0,0,.06-.26A16.56,16.56,0,0,1,226.64,163.13Z"/><path class="cls-9" d="M248.69,199.68l-5.28,3.3-2.52,1.26h.22l.4,0,.75.56,1.15-.38,5.34-4.65A0,0,0,0,0,248.69,199.68Z"/><path class="cls-9" d="M262.27,208.63a19.66,19.66,0,0,1-5.81,2.25,5,5,0,0,0-1.36.38,8.26,8.26,0,0,0,1.24.93,10.1,10.1,0,0,0,6-3.47C262.36,208.69,262.32,208.61,262.27,208.63Z"/><path class="cls-9" d="M289.41,200a0,0,0,0,0-.09,0,22.64,22.64,0,0,1-.35,5.23c.12-.28.23-.56.33-.86l.41-.36.55-.11A12,12,0,0,0,289.41,200Z"/><path class="cls-9" d="M274.56,207.93s-.1,0-.07.07a11.67,11.67,0,0,0,2.47,3.74,3.27,3.27,0,0,1,1.21-.52A22.06,22.06,0,0,1,274.56,207.93Z"/><path class="cls-9" d="M281.8,179.2a.09.09,0,0,0,.13-.12,5.16,5.16,0,0,0-2.94-2.43l-1.12-.39a3.38,3.38,0,0,0,.18.44l-.46.3A12.31,12.31,0,0,1,281.8,179.2Z"/><path class="cls-9" d="M296.25,199.76l.47-.26a16.29,16.29,0,0,1-3.68-.82.09.09,0,0,0-.09.16,5.6,5.6,0,0,0,3,1.39Z"/><path class="cls-9" d="M302.23,156.51l-.32-.23a4.45,4.45,0,0,0,.18-.56,20.49,20.49,0,0,1-2.45.19.09.09,0,0,0,0,.18A6.25,6.25,0,0,0,302.23,156.51Z"/><path class="cls-9" d="M297.63,148.83l-.38-.06a.09.09,0,0,1-.06,0c-.05-.14-.11-.28-.16-.41a3.83,3.83,0,0,0-1.17,2.94c0,.1.16.17.15.08A3.25,3.25,0,0,1,297.63,148.83Z"/><path class="cls-9" d="M303.58,185.67c.15-.22.29-.44.42-.67-2.13-1.16-5.73-1.35-7.58-.16-.14.09-.11.3.06.24a9.16,9.16,0,0,1,7.12.67S303.59,185.69,303.58,185.67Z"/><path class="cls-9" d="M289.84,141.24c-.34-.13-.68-.25-1-.35a2.5,2.5,0,0,1-.64-.3l-.48-.34a2.18,2.18,0,0,1-.53-.52c.19,1.12.57,2.3.72,2.06A1.53,1.53,0,0,1,289.84,141.24Z"/><path class="cls-9" d="M301.86,154.2a1.88,1.88,0,0,1-.36-1.06,12.35,12.35,0,0,0,0-1.51,3.69,3.69,0,0,0-.42,1A1.33,1.33,0,0,0,301.86,154.2Z"/></g><path class="cls-10" d="M172.32,79.05c1.33-.25,2.69-.49,4.1-.72s2.82-.44,4.24-.61,2.86-.32,4.3-.43,2.85-.16,4.26-.16a43.71,43.71,0,0,1,5.68.37,24.92,24.92,0,0,1,5.19,1.24,18.26,18.26,0,0,1,4.47,2.33A14,14,0,0,1,208,84.7a17.16,17.16,0,0,1,2.27,5.14,26.19,26.19,0,0,1,.81,6.86,31.07,31.07,0,0,1-.7,6.7,26.4,26.4,0,0,1-2,6,22.8,22.8,0,0,1-3.26,5,20.28,20.28,0,0,1-4.4,3.87,20.79,20.79,0,0,1-5.45,2.48,22.76,22.76,0,0,1-6.4.87,27.4,27.4,0,0,1-3.59-.24,34,34,0,0,1-3.8-.76l-3.72.46-.34,0c.09-.8.18-1.87.28-3.19s.2-2.86.29-4.61.19-3.71.28-5.86.16-4.46.23-6.94.12-5.08.16-7.83.06-5.59.06-8.55a14.44,14.44,0,0,0-.08-1.58,2.52,2.52,0,0,0-.38-1.13,1.89,1.89,0,0,0-.92-.67,5,5,0,0,0-1.67-.23,24.45,24.45,0,0,0-3.18.28Zm11.33.62c0,.63,0,1.56-.05,2.8s-.06,2.69-.1,4.33-.08,3.45-.14,5.4-.11,3.94-.18,6-.13,4.06-.2,6.08-.15,3.92-.23,5.71-.15,3.42-.23,4.88-.16,2.65-.24,3.57a22.57,22.57,0,0,0,3.43.64,29.62,29.62,0,0,0,3.09.16,18.54,18.54,0,0,0,5.65-.79,14.32,14.32,0,0,0,4.38-2.21,14.13,14.13,0,0,0,3.22-3.37,19.17,19.17,0,0,0,2.16-4.29,25.52,25.52,0,0,0,1.22-5,36.67,36.67,0,0,0,.39-5.39,29.89,29.89,0,0,0-.91-7.58,15.18,15.18,0,0,0-3-5.92,13.59,13.59,0,0,0-5.36-3.86,20.84,20.84,0,0,0-8.09-1.39c-.79,0-1.58,0-2.38.06Z"/><path class="cls-10" d="M234.94,114.94l.29.16a2.7,2.7,0,0,1,.33.22,1.66,1.66,0,0,1,.26.27.45.45,0,0,1,.11.27.3.3,0,0,1-.05.15,15.73,15.73,0,0,1-2.27,2.55,13.93,13.93,0,0,1-2.52,1.8,11.31,11.31,0,0,1-2.66,1.07,10.76,10.76,0,0,1-2.67.35,9.3,9.3,0,0,1-4.13-.92,9.85,9.85,0,0,1-3.24-2.52,12,12,0,0,1-2.11-3.75,13.69,13.69,0,0,1-.76-4.62,19,19,0,0,1,1.72-7.85,16.94,16.94,0,0,1,2-3.4A14.35,14.35,0,0,1,222,96a12.61,12.61,0,0,1,3.37-1.82,11.51,11.51,0,0,1,3.94-.65,9.27,9.27,0,0,1,2.65.37,7.06,7.06,0,0,1,2.2,1.08,5.29,5.29,0,0,1,1.52,1.74,4.89,4.89,0,0,1,.56,2.35,4.94,4.94,0,0,1-1.25,3.35,9.86,9.86,0,0,1-3.45,2.42,24.17,24.17,0,0,1-5.18,1.61,55.47,55.47,0,0,1-6.44.91v.32a15.19,15.19,0,0,0,.61,4.4,10.77,10.77,0,0,0,1.69,3.41,7.78,7.78,0,0,0,2.52,2.21,6.35,6.35,0,0,0,3.12.79,8.1,8.1,0,0,0,3.47-.84A12.68,12.68,0,0,0,234.94,114.94Zm-3.54-15.1a4.61,4.61,0,0,0-.29-1.62,3.86,3.86,0,0,0-.81-1.3,3.73,3.73,0,0,0-2.77-1.2,5.46,5.46,0,0,0-2.22.44,6.44,6.44,0,0,0-1.79,1.17,8.86,8.86,0,0,0-1.39,1.73,12.74,12.74,0,0,0-1,2.1,18,18,0,0,0-.69,2.27,19.28,19.28,0,0,0-.37,2.28,33.94,33.94,0,0,0,4.78-.65,15.21,15.21,0,0,0,3.57-1.19,6.09,6.09,0,0,0,2.23-1.73A3.69,3.69,0,0,0,231.4,99.84Z"/><path class="cls-10" d="M255.31,101.44a6.22,6.22,0,0,0-.49-2.58,5.13,5.13,0,0,0-1.27-1.78,5.29,5.29,0,0,0-1.79-1,6.29,6.29,0,0,0-2-.33,7.79,7.79,0,0,0-2.26.28,4.1,4.1,0,0,0-1.49.77,2.74,2.74,0,0,0-.83,1.15,4,4,0,0,0-.25,1.44,5.35,5.35,0,0,0,.33,1.82,6.67,6.67,0,0,0,1,1.77l-.07.21a4.91,4.91,0,0,1-2.16.53,3.6,3.6,0,0,1-1.2-.2,2.72,2.72,0,0,1-1-.57,2.55,2.55,0,0,1-.63-.93,3,3,0,0,1-.24-1.22,4.22,4.22,0,0,1,.54-2.08,6.84,6.84,0,0,1,1.41-1.79A10.88,10.88,0,0,1,245,95.44a17.91,17.91,0,0,1,2.41-1.08,16.42,16.42,0,0,1,2.49-.67,12.36,12.36,0,0,1,2.32-.24,9.67,9.67,0,0,1,3.38.53,5.5,5.5,0,0,1,2.27,1.53,6.28,6.28,0,0,1,1.28,2.43,11.92,11.92,0,0,1,.4,3.24c0,.82,0,1.73-.1,2.72s-.15,2-.23,3.11-.17,2.21-.24,3.36-.1,2.3-.1,3.44a6.84,6.84,0,0,0,1,4.07,3.12,3.12,0,0,0,2.64,1.36,6.37,6.37,0,0,0,3.24-1.07l.54.81a9.09,9.09,0,0,1-2.74,1.92,7.59,7.59,0,0,1-3.12.65,5.94,5.94,0,0,1-2.26-.41,4.91,4.91,0,0,1-1.78-1.23,5.58,5.58,0,0,1-1.17-2.06,9,9,0,0,1-.41-2.88c0-.32,0-.65,0-1a6.64,6.64,0,0,1,.12-1h-.12a26.77,26.77,0,0,1-1.87,3.19,16.9,16.9,0,0,1-2.33,2.8,11.46,11.46,0,0,1-2.7,2,6.35,6.35,0,0,1-3,.76,6,6,0,0,1-2.37-.45,5.46,5.46,0,0,1-3-3.11,6.43,6.43,0,0,1-.42-2.36,7.15,7.15,0,0,1,.61-3,8,8,0,0,1,1.69-2.43A10.5,10.5,0,0,1,244,108.5a18.42,18.42,0,0,1,3.27-1.3,25,25,0,0,1,3.74-.77,31.44,31.44,0,0,1,4-.25c.09-.79.16-1.56.22-2.3S255.31,102.33,255.31,101.44Zm-11.54,12.91a5.92,5.92,0,0,0,.16,1.41,3.65,3.65,0,0,0,.51,1.17,2.5,2.5,0,0,0,.88.8,2.73,2.73,0,0,0,1.29.29,4.41,4.41,0,0,0,1.75-.39,8.39,8.39,0,0,0,1.77-1.09,11.5,11.5,0,0,0,1.68-1.67,14,14,0,0,0,2.5-4.53,12.16,12.16,0,0,0,.55-2.6q-1.4,0-2.76.18a18.54,18.54,0,0,0-2.6.44,11.86,11.86,0,0,0-2.29.79,6.51,6.51,0,0,0-1.81,1.21,5.18,5.18,0,0,0-1.2,1.71A5.79,5.79,0,0,0,243.77,114.35Z"/><path class="cls-10" d="M294.42,70.31q-.69,4.77-1.3,9.77t-1.09,10c-.32,3.31-.57,6.56-.75,9.77s-.29,6.29-.29,9.23c0,1.42,0,2.63.05,3.65s.08,1.87.15,2.58a9.7,9.7,0,0,0,.28,1.67,2.86,2.86,0,0,0,.45,1,1.37,1.37,0,0,0,.63.44,3.05,3.05,0,0,0,.85.1,7.73,7.73,0,0,0,1.94-.27,13.19,13.19,0,0,0,2.12-.76l.36,1a12.56,12.56,0,0,1-1.7,1.11,22.66,22.66,0,0,1-2.16,1,17.56,17.56,0,0,1-2.21.76,7.5,7.5,0,0,1-1.87.29,3.44,3.44,0,0,1-1-.13,1.63,1.63,0,0,1-.74-.46,2.62,2.62,0,0,1-.53-.87,7.11,7.11,0,0,1-.35-1.4c-.11-.75-.2-1.62-.27-2.63s-.1-2.09-.1-3.27,0-2.53.14-3.82.24-2.59.46-3.89l-.17,0a55.59,55.59,0,0,1-3.15,6.9,33.34,33.34,0,0,1-3.51,5.26,16.59,16.59,0,0,1-3.62,3.36,6.54,6.54,0,0,1-3.5,1.17,4.93,4.93,0,0,1-2.91-.86,6.63,6.63,0,0,1-2-2.25,11.23,11.23,0,0,1-1.15-3.22,18.36,18.36,0,0,1-.38-3.73,20.56,20.56,0,0,1,.51-4.56,20.31,20.31,0,0,1,1.46-4.25,20,20,0,0,1,2.28-3.74,16.1,16.1,0,0,1,3-3,14.12,14.12,0,0,1,3.58-1.94,11.66,11.66,0,0,1,4.05-.71,12,12,0,0,1,3,.38,10.93,10.93,0,0,1,2.94,1.24q.11-3.2.24-6.5t.33-6.42c.12-2.08.26-4,.41-5.9s.31-3.51.49-5a1.68,1.68,0,0,1,.3-.78,1.77,1.77,0,0,1,.62-.53,3,3,0,0,1,.85-.29,5,5,0,0,1,1-.09A5.47,5.47,0,0,1,294.42,70.31ZM287.67,96.8a11.64,11.64,0,0,0-5-1.21,9.38,9.38,0,0,0-6.11,2.19,11.24,11.24,0,0,0-2.14,2.41,14.38,14.38,0,0,0-1.53,3,19.14,19.14,0,0,0-.91,3.3,18.7,18.7,0,0,0-.31,3.4q0,.6.06,1.38a13.84,13.84,0,0,0,.21,1.62,13.18,13.18,0,0,0,.43,1.64,6.47,6.47,0,0,0,.65,1.43,3.5,3.5,0,0,0,.95,1,2.22,2.22,0,0,0,1.31.38,4.7,4.7,0,0,0,2.76-1,14.46,14.46,0,0,0,2.76-2.69,26.61,26.61,0,0,0,2.53-3.84,41.09,41.09,0,0,0,2.13-4.44,36.83,36.83,0,0,0,1.52-4.51A22.07,22.07,0,0,0,287.67,96.8Z"/><g class="cls-7"><path class="cls-11" d="M331.16,262.38a11,11,0,0,1-2.27-2.46,1.49,1.49,0,0,1,0-1.62,13.52,13.52,0,0,1,1.65-2.21c6.73-6.87,25.24-8.35,25.24-8.35a11.84,11.84,0,0,1-.16,1.62c-.63,2.82-1.09,5.66-3.13,8.21C346.59,264.93,337.05,267.09,331.16,262.38Z"/><path class="cls-12" d="M351.49,255.9a8.83,8.83,0,0,1-.59,3.42h0l-.6.59h0l-.61.55h0L349,261h0l-.64.49h0c-.21.16-.43.31-.65.45h0l-.66.42h0l-.67.39h0c-.22.13-.45.24-.67.36h0l-.68.32h0c-.23.11-.46.2-.69.29h0l-.7.26h0l-.7.22h0l-.71.19h0l-.71.16h0a14.09,14.09,0,0,1-1.43.21h0a9.05,9.05,0,0,1-6.23-11.17c4.07-2.4,9.61-3.87,14.12-4.75A9,9,0,0,1,351.49,255.9Z"/><path d="M336.66,252.17c.19,2,.46,3.93.79,5.7l.37,2h0a54.14,54.14,0,0,0,.81-8.47C338,251.62,337.3,251.89,336.66,252.17Z"/><path class="cls-11" d="M310.87,254.54a10.82,10.82,0,0,0,3.32-.43,1.46,1.46,0,0,0,1.05-1.24,12.6,12.6,0,0,0,.16-2.75c-.77-9.58-14-22.58-14-22.58a11.14,11.14,0,0,0-.92,1.35c-1.32,2.57-2.79,5-2.86,8.31C297.39,246.62,303.34,254.38,310.87,254.54Z"/><path class="cls-12" d="M299.41,236.54a8.87,8.87,0,0,0-1.73,3h0c0,.28.05.56.09.83h0q0,.41.12.81h0l.15.8h0c.06.26.12.52.19.78h0l.21.77h0c.07.25.15.5.23.74v0q.12.36.27.72v0c.1.24.19.47.29.7v0c.1.23.21.46.32.68v0c.11.22.22.45.34.66v0c.12.21.24.43.37.64h0c.13.21.26.42.4.62h0l.42.6h0c.14.2.29.39.44.58h0q.46.57,1,1.08h0a9.06,9.06,0,0,0,10.5-2.31,9.15,9.15,0,0,0,1.44-2.27c-1.59-4.45-4.9-9.14-7.79-12.69A9,9,0,0,0,299.41,236.54Z"/><path d="M313.19,243.18c-1.43,1.42-2.87,2.73-4.26,3.87l-1.54,1.27h0a54.33,54.33,0,0,1,4.8-7C312.54,241.93,312.88,242.55,313.19,243.18Z"/></g><g class="cls-7"><path class="cls-11" d="M217.61,33.2a8.31,8.31,0,0,1-2.53.12,1.12,1.12,0,0,1-1-.78,9.36,9.36,0,0,1-.47-2c-.71-7.25,7.45-18.72,7.45-18.72a9,9,0,0,1,.86.88c1.33,1.74,2.75,3.39,3.24,5.82C226.61,25.49,223.21,32.08,217.61,33.2Z"/><path class="cls-12" d="M223.76,18.24a6.84,6.84,0,0,1,1.69,2h0c0,.22,0,.43.05.64h0c0,.21,0,.42,0,.63h0c0,.21,0,.42,0,.62h0l0,.6h0l-.06.6h0c0,.2,0,.4-.08.59h0c0,.2-.07.39-.1.58h0c0,.19-.08.38-.12.56v0l-.15.55h0c-.06.19-.11.37-.17.55h0c-.06.17-.13.35-.19.53h0l-.21.52h0c-.08.17-.15.34-.24.5h0c-.08.17-.16.33-.25.5h0q-.27.48-.57.93h0a6.85,6.85,0,0,1-8.14-.33,6.73,6.73,0,0,1-1.38-1.5,35.54,35.54,0,0,1,4.12-10.51A6.84,6.84,0,0,1,223.76,18.24Z"/><path d="M214.36,25c1.26.86,2.51,1.65,3.7,2.31l1.32.75h0a43,43,0,0,0-4.52-4.6C214.68,24,214.51,24.53,214.36,25Z"/><path class="cls-11" d="M203.17,41.16A8.38,8.38,0,0,0,204.54,39a1.13,1.13,0,0,0-.21-1.21,9.82,9.82,0,0,0-1.52-1.43c-5.94-4.22-19.95-2.86-19.95-2.86a9.45,9.45,0,0,0,.34,1.19c.84,2,1.57,4.08,3.43,5.71C192,45.12,199.41,45.46,203.17,41.16Z"/><path class="cls-12" d="M187.14,39a6.7,6.7,0,0,0,.9,2.48h0l.53.35h0l.53.33h0a5.54,5.54,0,0,0,.53.3h0l.54.27h0l.55.25h0l.55.22h0l.55.19h0l.55.17h0l.56.14h0l.55.12h0l.56.1h0l.55.08h0l.55,0h0l.56,0h0a9.92,9.92,0,0,0,1.09,0h0a6.84,6.84,0,0,0,3.77-7.22,7,7,0,0,0-.61-2,35.79,35.79,0,0,0-11.17-1.65A6.81,6.81,0,0,0,187.14,39Z"/><path d="M197.71,34.28c.12,1.52.18,3,.17,4.36l0,1.51h0a42.54,42.54,0,0,1-1.73-6.2C196.66,34,197.19,34.15,197.71,34.28Z"/></g><g class="cls-7"><path class="cls-11" d="M147,277.57a5.7,5.7,0,0,1-1.67-.68.81.81,0,0,1-.38-.8,6.89,6.89,0,0,1,.3-1.46c1.72-4.91,10.46-9.89,10.46-9.89a5.39,5.39,0,0,1,.29.84,9.91,9.91,0,0,1,.35,4.74C155.14,275.28,151,278.53,147,277.57Z"/><path class="cls-12" d="M155.47,269.73a5,5,0,0,1,.5,1.81h0c-.06.15-.11.29-.17.43h0c-.05.14-.11.28-.17.41h0c-.06.14-.12.27-.19.4h0c-.06.13-.13.25-.2.38h0l-.21.37h0l-.22.36h0l-.24.34h0l-.25.33h0a4,4,0,0,1-.26.32h0l-.27.3h0l-.29.29h0l-.29.27h0l-.3.25h0a3.24,3.24,0,0,1-.31.24h0c-.21.15-.42.3-.64.43h0a4.91,4.91,0,0,1-5.18-2.66,5.13,5.13,0,0,1-.45-1.39,25.5,25.5,0,0,1,5.84-5.57A4.88,4.88,0,0,1,155.47,269.73Z"/><path d="M147.34,271.3c.55.94,1.13,1.83,1.7,2.62l.63.88h0a29,29,0,0,0-1.55-4.34Q147.71,270.88,147.34,271.3Z"/><path class="cls-11" d="M135.24,278.38a6.15,6.15,0,0,0,1.52-1,.82.82,0,0,0,.24-.85,7.13,7.13,0,0,0-.56-1.38c-2.58-4.53-12.06-7.86-12.06-7.86a5.39,5.39,0,0,0-.14.87,10.1,10.1,0,0,0,.5,4.74C126.81,277.59,131.5,280,135.24,278.38Z"/><path class="cls-12" d="M125.48,272.19a5,5,0,0,0-.16,1.87h0l.24.39h0c.08.13.16.25.25.37h0c.08.13.17.24.26.36h0l.27.34h0l.28.33h0c.09.11.19.21.28.31h0l.3.29h0l.31.28h0l.31.26h0a3.92,3.92,0,0,0,.32.25h0l.33.23h0a3.87,3.87,0,0,0,.34.21h0l.34.2h0l.35.18h0c.23.11.47.22.71.31h0a4.9,4.9,0,0,0,4.62-3.55,4.8,4.8,0,0,0,.19-1.44,25.41,25.41,0,0,0-6.74-4.44A4.89,4.89,0,0,0,125.48,272.19Z"/><path d="M133.76,272.28c-.37,1-.78,2-1.2,2.87l-.46,1h0a30.25,30.25,0,0,1,.74-4.54C133.16,271.81,133.47,272,133.76,272.28Z"/></g><g class="cls-7"><path class="cls-11" d="M221.18,223a7.45,7.45,0,0,1-2.11-.06,1,1,0,0,1-.74-.71,8.22,8.22,0,0,1-.27-1.72c-.13-6.06,7.35-15.08,7.35-15.08a8.62,8.62,0,0,1,.67.79,11.7,11.7,0,0,1,2.32,5C229.13,217.19,225.9,222.44,221.18,223Z"/><path class="cls-12" d="M227.22,211a5.64,5.64,0,0,1,1.28,1.78h0c0,.17,0,.35,0,.53h0c0,.17,0,.35,0,.52h0c0,.17,0,.35,0,.51h0l-.06.5h0c0,.17-.05.33-.08.49h0c0,.16-.07.33-.1.48h0a4.21,4.21,0,0,1-.12.48h0c0,.15-.09.31-.14.46h0c0,.15-.1.3-.16.45h0c-.05.15-.11.29-.17.44h0c-.06.14-.12.28-.19.42h0l-.21.42h0c-.07.14-.15.27-.23.41h0l-.24.39h0c-.17.26-.34.5-.53.74h0a5.71,5.71,0,0,1-6.74-.78,5.5,5.5,0,0,1-1.05-1.33,29.62,29.62,0,0,1,4.08-8.47A5.68,5.68,0,0,1,227.22,211Z"/><path d="M219,216c1,.8,2,1.53,2.92,2.16l1.05.7h0a35.43,35.43,0,0,0-3.46-4.1C219.32,215.21,219.15,215.63,219,216Z"/><path class="cls-11" d="M208.7,228.73A6.87,6.87,0,0,0,210,227a1,1,0,0,0-.1-1,7.87,7.87,0,0,0-1.17-1.28c-4.66-3.88-16.38-3.62-16.38-3.62a6.49,6.49,0,0,0,.21,1,11.53,11.53,0,0,0,2.49,5C199.18,231.32,205.31,232.06,208.7,228.73Z"/><path class="cls-12" d="M195.52,226a5.71,5.71,0,0,0,.59,2.11h0l.42.32h0l.43.31h0l.43.29h0l.44.26h0l.44.24h0c.14.08.29.15.44.22h0l.44.19h0l.45.18h0l.45.16h0l.45.14h0l.45.12h0l.46.1h0l.46.07h0l.46.06h0c.3,0,.61,0,.91,0h0a5.71,5.71,0,0,0,3.58-5.76,5.61,5.61,0,0,0-.39-1.65,29.51,29.51,0,0,0-9.16-2.08A5.72,5.72,0,0,0,195.52,226Z"/><path d="M204.59,222.67c0,1.27,0,2.5-.13,3.63l-.1,1.26h0a34.86,34.86,0,0,1-1.06-5.26C203.74,222.41,204.17,222.54,204.59,222.67Z"/></g><g class="cls-7"><path class="cls-11" d="M36.12,158.35a7.41,7.41,0,0,1-2.19.21,1,1,0,0,1-.85-.64,8.48,8.48,0,0,1-.5-1.74c-.9-6.24,5.69-16.49,5.69-16.49a7.63,7.63,0,0,1,.78.74,12,12,0,0,1,3,4.89C43.59,151.32,40.91,157.15,36.12,158.35Z"/><path class="cls-12" d="M40.83,145.17a6,6,0,0,1,1.55,1.67h0c0,.18,0,.37.06.55h0c0,.18,0,.36,0,.54h0c0,.18,0,.36,0,.54h0c0,.18,0,.36,0,.53h0c0,.17,0,.35,0,.52h0c0,.17,0,.34,0,.51h0c0,.17,0,.33-.07.5h0c0,.17,0,.33-.08.49v0c0,.16-.07.32-.11.48h0l-.12.48h0c0,.16-.09.32-.14.47h0l-.16.45h0a3.38,3.38,0,0,1-.18.44h0c-.06.14-.13.29-.2.43h0c-.14.29-.29.56-.45.83h0a6,6,0,0,1-7.06.05,5.88,5.88,0,0,1-1.25-1.24,30.82,30.82,0,0,1,3.14-9.26A5.92,5.92,0,0,1,40.83,145.17Z"/><path d="M33,151.42c1.13.7,2.23,1.33,3.29,1.86l1.17.59h0a35.72,35.72,0,0,0-4.09-3.8C33.21,150.52,33.09,151,33,151.42Z"/><path class="cls-11" d="M24,165.81a7.21,7.21,0,0,0,1.09-1.9,1,1,0,0,0-.22-1,9.15,9.15,0,0,0-1.38-1.18C18.15,158.28,6.09,160,6.09,160a7,7,0,0,0,.34,1c.81,1.71,1.52,3.46,3.2,4.79C14.46,169.69,20.88,169.68,24,165.81Z"/><path class="cls-12" d="M10,164.63a5.86,5.86,0,0,0,.88,2.1h0c.15.1.31.19.47.28h0l.47.26h0l.47.23h0l.48.21h0l.48.19h0l.48.18h0l.49.15h0l.48.13h0l.49.11h0l.48.09h0l.48.06h0l.48,0h0l.48,0h.48c.32,0,.63,0,.94-.07h0a5.92,5.92,0,0,0,3-6.39,5.68,5.68,0,0,0-.61-1.66,31.06,31.06,0,0,0-9.72-1A5.94,5.94,0,0,0,10,164.63Z"/><path d="M19,160.08c.17,1.31.28,2.58.33,3.76l0,1.31h0a35.64,35.64,0,0,1-1.75-5.29C18,159.92,18.5,160,19,160.08Z"/></g><g class="cls-7"><path class="cls-11" d="M306.39,59.49a10.91,10.91,0,0,1-3-1.46,1.5,1.5,0,0,1-.6-1.51,12.67,12.67,0,0,1,.73-2.66c3.77-8.84,20.48-17,20.48-17a10.17,10.17,0,0,1,.43,1.57c.45,2.86,1.05,5.67.07,8.79C321.69,56.26,313.59,61.74,306.39,59.49Z"/><path class="cls-12" d="M323,46.07a9.1,9.1,0,0,1,.69,3.4h0c-.11.26-.23.51-.35.76h0c-.12.25-.25.49-.38.73h0l-.4.71h0c-.14.23-.28.46-.43.68h0l-.44.66h0l-.47.63h0a7,7,0,0,1-.48.6v0l-.5.57h0c-.17.19-.35.37-.52.55h0c-.18.18-.36.36-.54.52h0l-.56.5h0c-.18.16-.38.32-.57.47h0l-.59.44h0l-.6.41h0c-.41.26-.83.5-1.25.72h0A9,9,0,0,1,306.29,53a8.85,8.85,0,0,1-.65-2.61c2.92-3.72,7.54-7.11,11.42-9.56A9,9,0,0,1,323,46.07Z"/><path d="M307.81,48c.9,1.8,1.85,3.5,2.8,5l1.06,1.69h0a54.2,54.2,0,0,0-2.32-8.17C308.82,47,308.3,47.49,307.81,48Z"/><path class="cls-11" d="M284.64,59.57A11,11,0,0,0,287.58,58a1.51,1.51,0,0,0,.53-1.54,13.17,13.17,0,0,0-.86-2.62C283.05,45.16,266,37.86,266,37.86a11.37,11.37,0,0,0-.36,1.6c-.3,2.87-.76,5.71.36,8.78C269.21,57.08,277.57,62.16,284.64,59.57Z"/><path class="cls-12" d="M267.42,47a9,9,0,0,0-.52,3.44h0c.12.25.25.5.39.74h0c.13.25.27.49.41.72h0c.14.23.29.46.44.68h0l.45.66v0c.16.21.31.42.48.63h0c.16.21.32.41.49.61h0l.51.58h0c.17.19.35.37.53.55h0c.18.18.36.36.55.52v0l.56.49h0l.58.46h0l.6.44h0l.61.41h0l.62.38h0c.42.24.85.46,1.28.66h0A9,9,0,0,0,285,50.43c-3.09-3.57-7.88-6.73-11.87-9A9,9,0,0,0,267.42,47Z"/><path d="M282.67,48.14c-.82,1.84-1.68,3.58-2.56,5.15l-1,1.75h0a53.93,53.93,0,0,1,1.92-8.28C281.61,47.21,282.15,47.67,282.67,48.14Z"/></g><g class="cls-7"><path class="cls-13" d="M449.82,235.05l12.35,8.87,8.81-12.4a.89.89,0,0,0-.88-1.4l-3.6.59a35.49,35.49,0,0,0-30.89-17.28c-19.39,0-35.11,14.75-35.11,32.94s15.72,32.93,35.11,32.93c14.77,0,27.39-8.55,32.58-20.65a2,2,0,0,0-1.43-2.73l-8.64-1.81a2,2,0,0,0-2.18,1,23,23,0,0,1-20.44,11.93c-12.58,0-22.79-9.57-22.79-21.38s10.21-21.37,22.79-21.37a23.31,23.31,0,0,1,18.17,8.47h.22l-3.69.62A.9.9,0,0,0,449.82,235.05Z"/></g><ellipse cx="460.38" cy="42.81" rx="26.99" ry="27"/><circle class="cls-14" cx="457.87" cy="41.32" r="27.5"/><rect x="453.49" y="21.13" width="7.72" height="40.04" transform="translate(174.17 -320.33) rotate(46.78)"/><rect x="453.56" y="21.61" width="7.72" height="40.04" transform="translate(819.28 -241.26) rotate(136.78)"/></g></svg>
