<svg xmlns="http://www.w3.org/2000/svg" width="350" height="350" viewBox="0 0 350 350"><defs><style>.cls-1{fill:none;}.cls-2{fill:#7c4b2a;}.cls-3{fill:#b05412;}.cls-4{fill:#492519;}.cls-5{fill:#fcad74;}</style></defs><title>Hus 5-5</title><g id="Layer_1" data-name="Layer 1"><path class="cls-1" d="M152,261.22c0-.23,0-.45.05-.66a6.65,6.65,0,0,1-.08.78A.53.53,0,0,1,152,261.22Z"/><path class="cls-1" d="M148.21,265l.12,0a4,4,0,0,1-.78.08A3.67,3.67,0,0,0,148.21,265Z"/><path class="cls-1" d="M143.05,259.79c0,.23,0,.45-.05.67a6.82,6.82,0,0,1,.08-.79A.53.53,0,0,1,143.05,259.79Z"/><path class="cls-1" d="M146.79,256.06l-.12,0a4,4,0,0,1,.78-.08A4.89,4.89,0,0,0,146.79,256.06Z"/><path class="cls-2" d="M68.78,46.39h-.06v0a1.26,1.26,0,0,1-.06.22s0,0,0,0-.1.23-.17.39l0,.11-.24.52-.34.7-.06.14h0c1.75.41,3.93,1.1,6.27,1.9A11.24,11.24,0,0,1,68.78,46.39Z"/><path class="cls-2" d="M71,80.53a5.32,5.32,0,0,0,1.78,0A22.85,22.85,0,0,0,77,80.34c3.13-.47,6.64-1.78,8.38-5.09a18.48,18.48,0,0,0,1.07-13.66h0c.45,4.08.7,14-8.68,16.19L77,78a22.36,22.36,0,0,0-5,1.92,16.07,16.07,0,0,1-2.72-.33l-.72-.12h0l.07,0-.29.09a4.2,4.2,0,0,0-.65.26l0,0a4.8,4.8,0,0,0-.54.32h0A11.36,11.36,0,0,1,71,80.53Z"/><path class="cls-2" d="M125.32,30.31c1.44-.49,2.79-.92,3.87-1.17h0l-.08-.17c-.08-.16-.14-.31-.21-.44a1.42,1.42,0,0,1-.08-.18,2.35,2.35,0,0,1-.11-.24s0-.08,0-.11a.52.52,0,0,1-.06-.18h0A6.91,6.91,0,0,1,125.32,30.31Z"/><path class="cls-2" d="M125,48.51v.16l.82.2a3.43,3.43,0,0,0,1.39,0,7,7,0,0,1,2.4-.22h0a2.92,2.92,0,0,0-.73-.36l-.18,0,0,0h0l-.44.08A13,13,0,0,1,125,48.51Z"/><path class="cls-2" d="M75.33,20a7.55,7.55,0,0,1-2.87-1.82h0a.3.3,0,0,1-.07.11l-.06.06-.13.15-.11.1-.25.26-.1.1h0c1,.27,2.32.66,3.68,1.1Z"/><path class="cls-2" d="M73.79,32.07,75.63,32a27,27,0,0,1-4.41-.6l-.46-.1h0l0,0h-.2a4.7,4.7,0,0,0-.81.14h0a11.9,11.9,0,0,1,2.54.43A6.15,6.15,0,0,0,73.79,32.07Z"/><path class="cls-3" d="M70.9,12s0,0,0,0h0S70.89,12,70.9,12Z"/><path class="cls-3" d="M72.23,17.36l.26-.06h0Z"/><path class="cls-3" d="M80.18,4.81h0a.09.09,0,0,1-.06,0,.09.09,0,0,0,.06,0Z"/><polygon class="cls-3" points="80.1 4.78 80.1 4.78 80.1 4.78 80.1 4.78"/><polygon class="cls-3" points="70.96 11.92 70.95 11.92 70.96 11.92 70.96 11.92"/><path class="cls-2" d="M71.3,10.82a11.34,11.34,0,0,0,4.06-.54,0,0,0,0,0,0-.06,9.88,9.88,0,0,1-4-.3v0l-.06.24-.12.43v0A.16.16,0,0,0,71.3,10.82Z"/><path class="cls-2" d="M76.79,6.18a.17.17,0,0,0,.3-.16A3,3,0,0,0,76,4.59a.19.19,0,0,0-.18,0h0l-.08.06a.16.16,0,0,1-.09,0H75.4A6.92,6.92,0,0,1,76.79,6.18Z"/><path class="cls-2" d="M79.61,6.23c-.06.08.71-.29.76-1.36h0l-.2-.05h0a.09.09,0,0,1-.06,0h0l-.17-.13v0A1.71,1.71,0,0,1,79.61,6.23Z"/><path class="cls-2" d="M71.34,11.71l-.14-.06a.17.17,0,0,0-.23.14,0,0,0,0,1,0,0v.12h0a.18.18,0,0,1-.06.09s0,0,0,0h0l-.13.09h0a1.19,1.19,0,0,1,.46,0A.23.23,0,0,0,71.34,11.71Z"/><path class="cls-2" d="M72.67,17.36v0l.11.12h0a1.81,1.81,0,0,0,.52-.6.17.17,0,0,0-.26-.22c-.39.35-.83.68-.84.69h0l.26-.06h0l.08,0Z"/><polygon class="cls-3" points="120.08 4.78 120.08 4.78 120.08 4.78 120.08 4.78"/><path class="cls-3" d="M120.08,4.78a.09.09,0,0,1-.07,0h0A.09.09,0,0,0,120.08,4.78Z"/><path class="cls-3" d="M129.32,12.06h0s0,0,0,0,0,0,0,0Z"/><path class="cls-3" d="M127.7,17.3l.25.06-.25-.06Z"/><path class="cls-3" d="M127.5,17.38l0,0,.06,0-.06,0Z"/><path class="cls-2" d="M128.87,9.92a9.6,9.6,0,0,1-3.87.31v.15a13.19,13.19,0,0,0,3.89.44.16.16,0,0,0,.14-.18s0,0,0,0-.07-.29-.11-.43a2.17,2.17,0,0,0-.07-.24Z"/><path class="cls-2" d="M124.18,4.59A2.91,2.91,0,0,0,123.1,6a.17.17,0,0,0,.3.16,6.92,6.92,0,0,1,1.39-1.48h-.25a.14.14,0,0,1-.09,0l-.09-.06h0A.17.17,0,0,0,124.18,4.59Z"/><path class="cls-2" d="M120.57,6.23a1.77,1.77,0,0,1-.32-1.56v0l-.17.13h0a.09.09,0,0,1-.07,0h0l-.2.05h0C119.86,5.94,120.63,6.31,120.57,6.23Z"/><path class="cls-2" d="M129,11.65l-.14.06a.23.23,0,0,0,.12.44,1.24,1.24,0,0,1,.47,0h0l-.13-.09h0s0,0,0,0-.05,0-.05-.09h0a.49.49,0,0,0,0-.12h0A.17.17,0,0,0,129,11.65Z"/><path class="cls-2" d="M126.87,16.9a2,2,0,0,0,.53.6h0l.1-.12,0,0,.06,0a.17.17,0,0,1,.12,0h0l.25.06h0s-.44-.34-.83-.69A.18.18,0,0,0,126.87,16.9Z"/><path class="cls-3" d="M125,52.62l4.85-3.74a2.41,2.41,0,0,0-.24-.21,7,7,0,0,0-2.4.22,3.43,3.43,0,0,1-1.39,0l-.82-.2v-.16a13,13,0,0,0,3.27-.2l.44-.08c.85-.38,2-1.5,3-4.32,1.84-5.34-1.18-12-2.5-14.77-1.08.25-2.43.68-3.87,1.17a6.91,6.91,0,0,0,3.25-2.5h0c0-4-.24-7.29-1.38-10.13l.17-.18a2,2,0,0,1-.53-.6.18.18,0,0,1,.27-.22c.39.35.83.68.83.69,1,.22,1.61,0,2.4-3.13a2,2,0,0,0-.93-2.09,1.24,1.24,0,0,0-.47,0,.23.23,0,0,1-.12-.44l.14-.06a.17.17,0,0,1,.23.14,9.19,9.19,0,0,0-.19-1.15.16.16,0,0,1-.14.18,13.19,13.19,0,0,1-3.89-.44v-.15a9.6,9.6,0,0,0,3.87-.31l0,0a2.17,2.17,0,0,1,.07.24c0-.06,0-.11,0-.16a.14.14,0,0,1,0-.15,2.76,2.76,0,0,0,.57-1.64c0-1.86-2.07-3.37-4.69-3.53a6.92,6.92,0,0,0-1.39,1.48.17.17,0,0,1-.3-.16,2.91,2.91,0,0,1,1.08-1.43.17.17,0,0,1,.17,0,3.67,3.67,0,0,0-2-.58,3.62,3.62,0,0,0-2.1.66,1.77,1.77,0,0,0,.32,1.56c.06.08-.71-.29-.76-1.36A7.65,7.65,0,0,0,115.94,7H84.25a7.73,7.73,0,0,0-3.88-2.14c-.05,1.07-.82,1.44-.76,1.36a1.71,1.71,0,0,0,.32-1.56A3.59,3.59,0,0,0,77.83,4a3.7,3.7,0,0,0-2,.58.19.19,0,0,1,.18,0A3,3,0,0,1,77.09,6a.17.17,0,0,1-.3.16A6.92,6.92,0,0,0,75.4,4.7c-2.63.16-4.69,1.67-4.69,3.53a2.76,2.76,0,0,0,.57,1.64.2.2,0,0,1,0,.15.75.75,0,0,0,0,.16l.06-.24v0a9.88,9.88,0,0,0,4,.3,0,0,0,0,1,0,.06,11.34,11.34,0,0,1-4.06.54.16.16,0,0,1-.14-.18A7.66,7.66,0,0,0,71,11.79a.17.17,0,0,1,.23-.14l.14.06a.23.23,0,0,1-.13.44,1.19,1.19,0,0,0-.46,0,2,2,0,0,0-.93,2.09c.79,3.14,1.36,3.36,2.39,3.13,0,0,.45-.34.84-.69a.17.17,0,0,1,.26.22,1.81,1.81,0,0,1-.52.6h0l-.11-.12v0l-.06,0-.08,0c0,.29-.08.59-.11.89h0A7.55,7.55,0,0,0,75.33,20l0,.06c-1.36-.44-2.64-.83-3.68-1.1-1.62,1.63-5.34,5.55-3.79,9.2a5.6,5.6,0,0,0,2.59,3,1,1,0,0,0,0,.16,5.77,5.77,0,0,0-.67.12,4.7,4.7,0,0,1,.81-.14h.2l0,0h0l.46.1a27,27,0,0,0,4.41.6l-1.84.06a6.15,6.15,0,0,1-1.48-.15,11.9,11.9,0,0,0-2.54-.43c-2.2.62-2,2.91-.45,4.6a64.78,64.78,0,0,0-.6,10.3h.06a11.24,11.24,0,0,0,5.27,4c-2.34-.8-4.52-1.49-6.27-1.9-2.15,4.52-7,15.28-4.06,23.92,1.57,4.56,3.45,6.38,4.83,7l.72.12a16.07,16.07,0,0,0,2.72.33A22.36,22.36,0,0,1,77,78l.77-.2c9.38-2.17,9.13-12.11,8.68-16.19h0a18.48,18.48,0,0,1-1.07,13.66c-1.74,3.31-5.25,4.62-8.38,5.09a22.85,22.85,0,0,1-4.23.24,5.32,5.32,0,0,1-1.78,0,11.36,11.36,0,0,0-3.91-.35c-4.26,2.91-1.44,12,3.38,14.57l6.54-5Z"/><path class="cls-2" d="M268.2,334.24c.05-.56.1-1.22.15-1.81l-.24-.09a27.66,27.66,0,0,1-2.19,6.09l-.37.77h0l.05-.06c0,.11,0,.23,0,.35a7.09,7.09,0,0,0,0,.81.09.09,0,0,1,0,.05,5,5,0,0,0,.14.69v0a14.8,14.8,0,0,1,1.69-4.29A6.82,6.82,0,0,0,268.2,334.24Z"/><path class="cls-2" d="M314.85,233.86l0,0h0a.34.34,0,0,1,0-.12.13.13,0,0,1,0-.06l0-.13s0-.07,0-.1a1.11,1.11,0,0,1,0-.19s0-.07,0-.11,0-.17,0-.27a.31.31,0,0,1,0-.1c0-.33-.07-.73-.1-1.18,0-.07,0-.14,0-.21h0c-1.83.56-4.22,1.09-6.79,1.61A12,12,0,0,1,314.85,233.86Z"/><path class="cls-2" d="M307.45,272.3c-5.19-4-16.74-16.72-15.44-31,0,0-1.55,15.5,3.26,22.58,4.23,6.21,11.58,8.79,13.31,9.32l.47.22.22-.17.18-.13c.31-.23.62-.44.92-.65l.24-.17,1-.7.06,0,1.28-.85.62-.42.37-.24.18-.13h0C313.53,269.18,309.4,270.7,307.45,272.3Z"/><path class="cls-2" d="M306,189c.26,3,6.13,11.67,9.91,11.4H316a.59.59,0,0,1,.09-.22l0-.06.24-.38.06-.1.36-.54c.12-.19.27-.41.42-.63a1.77,1.77,0,0,1,.12-.17h0C313.23,200,306.76,191.86,306,189Z"/><path class="cls-2" d="M316.46,163.74c-1.23.11-3,.27-3,.28a25.55,25.55,0,0,1,7,1.29l.74.24h0l-.06,0,.32,0a5.06,5.06,0,0,0,.72-.17l0,0a5.9,5.9,0,0,0,.63-.25h0a11.92,11.92,0,0,1-4.06-1A5.47,5.47,0,0,0,316.46,163.74Z"/><path class="cls-3" d="M201.48,341l-1-.33Z"/><path class="cls-2" d="M206.83,326.12c-2.73,1.25-9,10.3-7.48,14.19v.07h.2l.14,0,.09,0,.19.05.11,0,.24.08.13,0,1,.33.33.1h0C198.85,337.36,204.38,327.86,206.83,326.12Z"/><path class="cls-2" d="M234.74,331.39a6.81,6.81,0,0,0-.51-2.6c-.28-.71-.65-1.59-.91-2.23h-.16a28.67,28.67,0,0,1,.94,7l0,.86h0l0-.07c.05.1.1.2.15.32a6.77,6.77,0,0,0,.41.7l0,0a6.26,6.26,0,0,0,.45.57h0A14.42,14.42,0,0,1,234.74,331.39Z"/><path class="cls-3" d="M27.94,172.84c.11-.42.2-.8.28-1.11C28.14,172,28.05,172.42,27.94,172.84Z"/><path class="cls-2" d="M28.47,170.63h-.06v.14a.13.13,0,0,0,0,.06s0,.09,0,.14a.29.29,0,0,0,0,.09c0,.06,0,.12,0,.19l0,.11-.06.26s0,.07,0,.1c-.08.31-.17.69-.28,1.11l-.06.24h0c1.91.06,4.34.33,7,.67A12,12,0,0,1,28.47,170.63Z"/><path class="cls-3" d="M35,331.48s0,0,0,0,0,0,0,0l0,0Z"/><path class="cls-2" d="M32.09,327.48c3.1-4,9.15-17.1,9.91-20.24v-.84a.14.14,0,0,0-.17.08c-5.08,9.21-9.61,16.34-12.92,18.94a.53.53,0,0,0,.12,0c.17.24.35.46.52.69s.41.52.62.77.51.6.77.89S31.75,327.92,32.09,327.48Z"/><path class="cls-2" d="M22.08,294.4c2.18-1.52,6.22-2.76,9.46-3.62a1.06,1.06,0,0,0,.54-.36c8-.09,20.38,1.83,27.93,10.31,0,0-10.25-11.72-18.71-13.05A23.73,23.73,0,0,0,29.92,289a13.74,13.74,0,0,0-6.35,2.15A1.26,1.26,0,0,0,23,292a.29.29,0,0,0,0,.09c0,.17,0,.35,0,.52a1.32,1.32,0,0,1-.17.52h0C22.56,293.52,22.32,294,22.08,294.4Z"/><path class="cls-2" d="M35.22,333.05a11.07,11.07,0,0,1,1.38-2.29c.91-1.19-.11-2.49-1.21-1.54-.21.17-.41.35-.61.53a1,1,0,0,0-.17,1.43l0,0,.36.27,0,0,0,0a.62.62,0,0,1,.2.43,1.08,1.08,0,0,1,0,.19C35.25,332.45,35.23,332.75,35.22,333.05Z"/><path class="cls-2" d="M58.47,336.37c-.18.39-.37.77-.49,1.08A2.21,2.21,0,0,0,58.47,336.37Z"/><path class="cls-2" d="M55.91,323H53.52c2.4,1.59,5.68,9.91,4.95,13.36.2-.42.41-.85.55-1.23h0c.44-.12.89-.27,1.33-.41h0C63,329.89,59.16,324.81,55.91,323Z"/><path class="cls-2" d="M30.2,271.81c3.61-4.64,11.09-21.16,10.53-22,.09-.19-.11-.3-.23-.12-5.36,9.69-10.12,17.21-13.58,20l.12,0,.54.72.63.8c.26.31.51.62.78.92S29.83,272.28,30.2,271.81Z"/><path class="cls-2" d="M20.1,237.24c2.28-1.61,6.49-3,9.86-3.88.94-.26,1.21-1.83.33-1.9a14.09,14.09,0,0,0-8.61,2.34,1.39,1.39,0,0,0-.56.87s0,.06,0,.09c0,.19,0,.37-.05.55a1.22,1.22,0,0,1-.17.54h0C20.61,236.31,20.36,236.78,20.1,237.24Z"/><path class="cls-2" d="M36.12,212.1l-.78.93a1,1,0,0,1-.34.29c-.33.19-.67.39-1,.6,3.5.62,4,2.84,4.87,5.14C39,219.55,40,214.75,36.12,212.1Z"/><path class="cls-3" d="M42,156H26.92c-.3,4.39.37,9.19,1.49,14.63h.06a12,12,0,0,0,6.36,3.12c-2.61-.34-5-.61-6.95-.67-1.29,5.19-4.12,17.46.79,25.87,2.59,4.44,4.94,5.94,6.51,6.31l.78,0a16.18,16.18,0,0,0,2.71-.2c11.91-3.71,15.16-11.27,16.07-15.17h0c0,.28.11,9.27-5.26,15.76-5.23,6.31-14.49,1-15.27.59l-.41.11c-1.87,1.93-1.67,5.05-.32,7.94a29.62,29.62,0,0,0-12.36,20.42,1.39,1.39,0,0,1,.56-.87,14.09,14.09,0,0,1,8.61-2.34c.88.07.61,1.64-.33,1.9-3.37.93-7.58,2.27-9.86,3.88.26-.46.51-.93.78-1.39h0C12.67,250,11.7,264.72,18.82,269a10,10,0,0,0,7.81.74.57.57,0,0,1,.64.2c.1.14.21.26.31.4l-.54-.72-.12,0c3.46-2.76,8.22-10.28,13.58-20,.12-.18.32-.07.23.12.56.82-6.92,17.34-10.53,22-.37.47-.92.6-1.21.27s-.52-.61-.78-.92a27.15,27.15,0,0,0,3.61,3.72,28.05,28.05,0,0,0-5,6.15A26.33,26.33,0,0,0,23,292a1.26,1.26,0,0,1,.53-.83A13.74,13.74,0,0,1,29.92,289a23.73,23.73,0,0,1,11.38-1.3C49.76,289,60,300.73,60,300.73c-7.55-8.48-19.91-10.4-27.93-10.31a1.06,1.06,0,0,1-.54.36c-3.24.86-7.28,2.1-9.46,3.62.24-.44.48-.88.73-1.31h0c-7.79,13.44-8.6,27.48-1.7,31.64a9.69,9.69,0,0,0,7.52.77.58.58,0,0,1,.62.19l.3.39c-.17-.23-.35-.45-.52-.69a.53.53,0,0,1-.12,0c3.31-2.6,7.84-9.73,12.92-18.94a.14.14,0,0,1,.17-.08v.84c-.76,3.14-6.81,16.28-9.91,20.24-.34.44-.86.56-1.15.26a26.25,26.25,0,0,0,3.67,3.44,1,1,0,0,1,.17-1.43c.2-.18.4-.36.61-.53,1.1-1,2.12.35,1.21,1.54a11.07,11.07,0,0,0-1.38,2.29c0-.3,0-.6.05-.9a1.08,1.08,0,0,0,0-.19,1.08,1.08,0,0,1,0,.19c-.39,5,1,9.08,4.76,9.9,14.72,3.22,16.32.23,18.78-6.34a1.17,1.17,0,0,1,.72-.72c.28-.08.55-.18.83-.27-.44.14-.89.29-1.33.41h0c-.14.38-.35.81-.55,1.23a2.21,2.21,0,0,1-.49,1.08c.12-.31.31-.69.49-1.08.73-3.45-2.55-11.77-4.95-13.36h2.39c3.25,1.8,7,6.88,4.47,11.7a40.64,40.64,0,0,0,4.08-1.56c2.43-.18,7.1-1,7.6-1l4.79.3a.77.77,0,0,1-.72-.62c-.35-2.13,2.36-4.93,3.43-4.89.76-.65-2.86,3.61-1.39,6.11,6.53,8.36,15.12,9.68,19.19,2.32.21-.37.4-.74.59-1.12a.78.78,0,0,1,.74-.42l-.51,0-.06.12c-1.12-3.36-3.48-6.57-5.7-7.26-.29-.09,0-.35.27-.44,1.53-.44,4.74,3.33,7.23,7.69l-1.15-.08,36.16,2.29a27.27,27.27,0,0,1,3,.38,34.47,34.47,0,0,0,6.17.49c-3.68-5,5.09-14.13,7.25-12.72-2.29.21-6.26,10.43-5.37,13.63.18.29.37.57.5.8a1.3,1.3,0,0,1-.5-.8,9.46,9.46,0,0,1-.56-.92h0c-.43,0-.86,0-1.29,0,.27,0,.54,0,.81,0a.76.76,0,0,1,.71.43c2.51,5.05,4.12,7.21,18.23.14a8.11,8.11,0,0,0,4.25-6c.09.12.16.24.26.36,8.74,10.58,18.09,10.83,31,8.45h0v-.07c-1.52-3.89,4.75-12.94,7.48-14.19-2.45,1.74-8,11.24-5,14.95,5.19,1.65,17.5,5.29,26,.25,4.46-2.67,6-5.18,6.35-6.9l0-.86a28.67,28.67,0,0,0-.94-7h.16c.26.64.63,1.52.91,2.23a6.81,6.81,0,0,1,.51,2.6,14.42,14.42,0,0,0,.44,4.59c1.6,1.79,4,2,6.48,1.28,4.31,3,9.63,5.59,15.1,5.22,5.19-.36,7.68-1.91,8.79-3.28l.37-.77a27.66,27.66,0,0,0,2.19-6.09l.24.09c-.05.59-.1,1.25-.15,1.81a6.82,6.82,0,0,1-.73,2.54,14.8,14.8,0,0,0-1.69,4.29c1.66,6.27,13.87,5.25,17.07-.76l.57-1.94c.35.12.7.22,1.05.32-2.11-5.81,8.91-12.09,10.58-10.12-2.25-.45-9,8.2-9,11.52.1.33.19.65.25.92a1.33,1.33,0,0,1-.25-.92,7.62,7.62,0,0,1-.27-1h0c-.42-.1-.83-.22-1.24-.35l.77.23a.78.78,0,0,1,.56.61c1,5.56,1.88,8.09,17.43,5.35,3.93-.69,6.31-4.14,7.07-8.37a.77.77,0,0,1,.07-.16,1.11,1.11,0,0,0-.07.16c-.05.26-.1.51-.16.76a6.1,6.1,0,0,0-.86-1.93,1,1,0,0,1,1.58-1.31l.48.45a.77.77,0,0,1-.15,1.21,38.43,38.43,0,0,0,4.48-2.91.78.78,0,0,1-1.1-.22c-2.45-3.72-6-17-5.22-17.67a.14.14,0,0,1,.25-.1c3,7.79,5.91,13.83,8.65,16l-.12,0c-.22.2-.45.39-.68.58l.39-.33a.8.8,0,0,1,.67-.16,12.21,12.21,0,0,0,7.75-.66c7.64-3.41,10.12-14.64,6-25.66-1.84-1.28-5.61-2.33-8.66-3.05a.78.78,0,0,1,.11-1.53,13.3,13.3,0,0,1,7.83,1.82.78.78,0,0,1,.34.7,16.73,16.73,0,0,0-7.78-16.66c-3.53.53-4.52,2.33-5.9,4.19-.2.39-.11-3.46,4.24-5.63a34.83,34.83,0,0,0-13.36-11l.21-.17-.22.17-.47-.22c-1.73-.53-9.08-3.11-13.31-9.32-4.81-7.08-3.26-22.58-3.26-22.58-1.3,14.27,10.25,27,15.44,31,1.95-1.6,6.08-3.12,6.71-2.37a13.55,13.55,0,0,0,4.63-4.77c5.94-11.25,2.8-20-3.89-31.33l0,0a12,12,0,0,0-7-.9c2.57-.52,5-1.05,6.79-1.61a56.15,56.15,0,0,0-3-14.87c2.31-4.4,3.48-9.73,4.36-16.06h-.06c-3.78.27-9.65-8.43-9.91-11.4.76,2.85,7.23,11,11.3,9.3,3-4.45,9.74-15.06,7.95-24.63-.95-5.05-2.65-7.26-4-8.13l-.74-.24a25.55,25.55,0,0,0-7-1.29s1.76-.17,3-.28a5.47,5.47,0,0,1,2.37.31,11.92,11.92,0,0,0,4.06,1c2.84-1.39,3.53-5.29,2.72-9H42Zm-3.13,63.05c-.88-2.3-1.37-4.52-4.87-5.14.33-.21.67-.41,1-.6a1,1,0,0,0,.34-.29l.78-.93C40,214.75,39,219.55,38.87,219.06ZM118,218v27H62V216.34h0V189h56Zm97,105H134V189h81Zm27.78,0H243s0,.06,0,.09Z"/><path class="cls-3" d="M265.78,341.08h0v0Z"/><path class="cls-3" d="M30.92,327.73h0c-.26-.29-.52-.58-.77-.89C30.42,327.15,30.67,327.45,30.92,327.73Z"/><path class="cls-3" d="M323.25,285.37l.05,0-.06,0a.82.82,0,0,1-.26-.23v0A.87.87,0,0,0,323.25,285.37Z"/><polygon class="cls-3" points="331.83 303.46 331.83 303.46 331.83 303.46 331.83 303.46"/><path class="cls-3" d="M310.7,336h0l.05,0-.05,0Z"/><path class="cls-2" d="M318.27,330.81c-2.74-2.19-5.65-8.23-8.65-16a.14.14,0,0,0-.25.1c-.74.67,2.77,13.95,5.22,17.67a.78.78,0,0,0,1.1.22h0l1-.74.8-.66c.23-.19.46-.38.68-.58Z"/><path class="cls-2" d="M323.69,300a.78.78,0,0,0-.11,1.53c3.05.72,6.82,1.77,8.66,3.05h0c-.14-.37-.29-.74-.44-1.11h0a.74.74,0,0,1,0-.44c0-.15,0-.29.07-.44a.22.22,0,0,0,0-.08.78.78,0,0,0-.34-.7A13.3,13.3,0,0,0,323.69,300Z"/><path class="cls-2" d="M318.18,290c1.38-1.86,2.37-3.66,5.9-4.19h0c-.25-.15-.51-.3-.78-.44l-.05,0a.87.87,0,0,1-.27-.23v0l-.53-.73h0C318.07,286.57,318,290.42,318.18,290Z"/><path class="cls-2" d="M311.36,334.48l-.48-.45a1,1,0,0,0-1.58,1.31,6.1,6.1,0,0,1,.86,1.93c.06-.25.11-.5.16-.76a1.11,1.11,0,0,1,.07-.16.75.75,0,0,1,.31-.37h0l.05,0,.43-.24,0,0A.77.77,0,0,0,311.36,334.48Z"/><path class="cls-2" d="M242.78,323l.25.09s0-.06,0-.09Z"/><path class="cls-2" d="M286,340.09a1.33,1.33,0,0,0,.25.92C286.2,340.74,286.11,340.42,286,340.09Z"/><path class="cls-2" d="M285.74,339.05a7.62,7.62,0,0,0,.27,1c.07-3.32,6.79-12,9-11.52-1.67-2-12.69,4.31-10.58,10.12h0c.41.13.82.25,1.24.35Z"/><path class="cls-3" d="M77.4,332.52a.78.78,0,0,1,.56.31l.09.1-.3-.39Z"/><path class="cls-2" d="M92.69,326.26c-.3.09-.56.35-.27.44,2.22.69,4.58,3.9,5.7,7.26l.06-.12.51,0h.08l1.15.08C97.43,329.59,94.22,325.82,92.69,326.26Z"/><path class="cls-2" d="M145.4,337a9.46,9.46,0,0,0,.56.92c-.89-3.2,3.08-13.42,5.37-13.63-2.16-1.41-10.93,7.76-7.25,12.72h0c.43,0,.86,0,1.29,0Z"/><path class="cls-2" d="M146,337.94a1.3,1.3,0,0,0,.5.8C146.33,338.51,146.14,338.23,146,337.94Z"/><path class="cls-2" d="M79.56,327c-1.07,0-3.78,2.76-3.43,4.89a.77.77,0,0,0,.72.62h0l.55,0,.35,0,.3.39.14.18,0,0C76.7,330.59,80.32,326.33,79.56,327Z"/><path class="cls-4" d="M344.33,144.79,175,14,129.85,48.88,125,52.62,77,89.7l-6.54,5-64.79,50A6.27,6.27,0,0,0,9.5,156h331A6.27,6.27,0,0,0,344.33,144.79Z"/><path class="cls-5" d="M134,323h81V189H134Zm9-62.55c0-.22,0-.44.05-.67a.53.53,0,0,0,0-.12l.06-.21a3.09,3.09,0,0,1,.18-.59l.09-.22a4,4,0,0,1,.27-.5l.14-.22c.13-.18.27-.35.41-.51l.19-.18a3.89,3.89,0,0,1,.5-.41,1.09,1.09,0,0,1,.23-.14,4.67,4.67,0,0,1,.49-.27l.23-.1a5.58,5.58,0,0,1,.58-.18l.22-.05.12,0a4.89,4.89,0,0,1,.66-.05h.14a5.16,5.16,0,0,1,.79.08h0a4.66,4.66,0,0,1,.75.23l.14.06a4.22,4.22,0,0,1,.66.36l.11.08a4.75,4.75,0,0,1,.6.49h0a4.68,4.68,0,0,1,.5.6l.08.12a5.25,5.25,0,0,1,.36.66s0,.09,0,.13a5.15,5.15,0,0,1,.24.76v0a4.15,4.15,0,0,1,.08.79s0,.06,0,.09v.05c0,.21,0,.43-.05.66a.53.53,0,0,0,0,.12l-.06.21a3.09,3.09,0,0,1-.18.59l-.09.23a4.67,4.67,0,0,1-.27.49l-.14.22c-.13.18-.27.35-.41.51l-.19.18a5,5,0,0,1-.5.42l-.23.14c-.16.09-.32.18-.49.26l-.23.1a5.58,5.58,0,0,1-.58.18l-.22.05-.12,0a3.67,3.67,0,0,1-.66.05h-.14a4.91,4.91,0,0,1-.78-.08h0a4.66,4.66,0,0,1-.75-.23l-.14-.06a4.22,4.22,0,0,1-.66-.36l-.11-.08a4.75,4.75,0,0,1-.6-.49h0a4.68,4.68,0,0,1-.5-.6l-.08-.12a5.25,5.25,0,0,1-.36-.66s0-.09,0-.13a5.15,5.15,0,0,1-.24-.76v0a4.07,4.07,0,0,1-.08-.79s0,0,0-.08Z"/><polygon class="cls-5" points="90.69 216.13 117.98 215.94 118 218.01 118 189.01 90.69 189.01 90.69 216.13"/><polygon class="cls-5" points="62.01 218.41 62 217 62 245.01 88.95 245.01 88.95 218.21 62.01 218.41"/><polygon class="cls-5" points="90.69 245.01 118 245.01 118 218.01 90.69 218.2 90.69 245.01"/><polygon class="cls-5" points="88.95 189.01 62 189.01 62 216.34 88.95 216.15 88.95 189.01"/><polygon points="90.69 216.13 90.69 189.01 88.95 189.01 88.95 216.15 62 216.34 61.99 216.34 62 217 62.01 218.41 88.95 218.21 88.95 245.01 90.69 245.01 90.69 218.2 118 218.01 117.98 215.94 90.69 216.13"/><path class="cls-4" d="M143.09,261.38v0a5.15,5.15,0,0,0,.24.76s0,.09,0,.13a5.25,5.25,0,0,0,.36.66l.08.12a4.68,4.68,0,0,0,.5.6h0a4.75,4.75,0,0,0,.6.49l.11.08a4.22,4.22,0,0,0,.66.36l.14.06a4.66,4.66,0,0,0,.75.23h0a4.91,4.91,0,0,0,.78.08h.14a4,4,0,0,0,.78-.08l.22-.05a5.58,5.58,0,0,0,.58-.18l.23-.1c.17-.08.33-.17.49-.26l.23-.14a5,5,0,0,0,.5-.42l.19-.18c.14-.16.28-.33.41-.51l.14-.22a4.67,4.67,0,0,0,.27-.49l.09-.23a3.09,3.09,0,0,0,.18-.59l.06-.21a6.65,6.65,0,0,0,.08-.78v-.05s0-.06,0-.09a4.15,4.15,0,0,0-.08-.79v0a5.15,5.15,0,0,0-.24-.76s0-.09,0-.13a5.25,5.25,0,0,0-.36-.66l-.08-.12a4.68,4.68,0,0,0-.5-.6h0a4.75,4.75,0,0,0-.6-.49l-.11-.08a4.22,4.22,0,0,0-.66-.36l-.14-.06a4.66,4.66,0,0,0-.75-.23h0a5.16,5.16,0,0,0-.79-.08h-.14a4,4,0,0,0-.78.08l-.22.05a5.58,5.58,0,0,0-.58.18l-.23.1a4.67,4.67,0,0,0-.49.27,1.09,1.09,0,0,0-.23.14,3.89,3.89,0,0,0-.5.41l-.19.18c-.14.16-.28.33-.41.51l-.14.22a4,4,0,0,0-.27.5l-.09.22a3.09,3.09,0,0,0-.18.59l-.06.21a6.82,6.82,0,0,0-.08.79v.05s0,.05,0,.08A4.07,4.07,0,0,0,143.09,261.38Z"/><path class="cls-2" d="M49.48,205.61c5.37-6.49,5.27-15.48,5.26-15.76h0c-.91,3.9-4.16,11.46-16.07,15.17a16.18,16.18,0,0,1-2.71.2l-.78,0h.07l-.29.16a4.44,4.44,0,0,0-.62.41l0,0-.51.45h0l.41-.11C35,206.66,44.25,211.92,49.48,205.61Z"/></g></svg>