<svg xmlns="http://www.w3.org/2000/svg" xmlns:xlink="http://www.w3.org/1999/xlink" width="350" height="350" viewBox="0 0 350 350"><defs><style>.cls-1{fill:none;}.cls-2{clip-path:url(#clip-path);}.cls-3{clip-path:url(#clip-path-2);}.cls-4{clip-path:url(#clip-path-3);}.cls-5{clip-path:url(#clip-path-4);}.cls-6{fill:#7c4b2a;}.cls-7{fill:#b05412;}.cls-8{fill:#492519;}.cls-9{fill:#fcad74;}</style><clipPath id="clip-path"><rect class="cls-1" x="-484.5" y="172" width="455" height="269"/></clipPath><clipPath id="clip-path-2"><rect class="cls-1" x="-74.5" y="201" width="473" height="222"/></clipPath><clipPath id="clip-path-3"><rect class="cls-1" x="-56.5" y="134" width="455" height="269"/></clipPath><clipPath id="clip-path-4"><rect class="cls-1" x="-72.5" y="66" width="526" height="312"/></clipPath></defs><title>Hus 2-5</title><g id="Layer_1" data-name="Layer 1"><g class="cls-3"><g class="cls-4"><g class="cls-5"><path class="cls-1" d="M155.45,258.21a4.87,4.87,0,0,0,0-.66,4.92,4.92,0,0,1-.07.78A.53.53,0,0,1,155.45,258.21Z"/><path class="cls-1" d="M151.71,262l.12,0a4.92,4.92,0,0,1-.78.07A4.87,4.87,0,0,0,151.71,262Z"/><path class="cls-1" d="M150.29,253.05a.53.53,0,0,1-.12,0A4.92,4.92,0,0,1,151,253,4.87,4.87,0,0,0,150.29,253.05Z"/><path class="cls-1" d="M146.55,256.79a4.87,4.87,0,0,0,0,.66,4.92,4.92,0,0,1,.07-.78A.53.53,0,0,1,146.55,256.79Z"/><path class="cls-6" d="M72.28,43.39h-.06a1.26,1.26,0,0,1-.06.22s0,0,0,.06-.1.23-.17.38l0,.11-.24.52-.34.7-.06.14h0c1.75.41,3.93,1.11,6.27,1.9A11.22,11.22,0,0,1,72.28,43.39Z"/><path class="cls-6" d="M74.49,77.53a5.32,5.32,0,0,0,1.78,0,23.63,23.63,0,0,0,4.23-.23c3.13-.48,6.64-1.78,8.38-5.09A18.51,18.51,0,0,0,90,58.58h0c.45,4.08.7,14-8.68,16.19l-.77.2a22.36,22.36,0,0,0-5,1.92,16.1,16.1,0,0,1-2.72-.32l-.72-.12h0l.07,0-.29.09a5.5,5.5,0,0,0-.65.26.05.05,0,0,1,0,0c-.19.1-.37.21-.54.32h0A11.07,11.07,0,0,1,74.49,77.53Z"/><path class="cls-6" d="M128.82,27.3c1.44-.49,2.79-.92,3.87-1.17h0l-.08-.17c-.08-.16-.14-.3-.21-.43s-.06-.13-.08-.19a2.35,2.35,0,0,1-.11-.24.47.47,0,0,0-.05-.1.85.85,0,0,1,0-.18h0A7,7,0,0,1,128.82,27.3Z"/><path class="cls-6" d="M128.5,45.5v.17l.82.19a3.11,3.11,0,0,0,1.39,0,7,7,0,0,1,2.4-.21h0a2.37,2.37,0,0,0-.73-.36l-.18-.06,0,0h0l-.44.08A13,13,0,0,1,128.5,45.5Z"/><path class="cls-6" d="M78.83,17A7.56,7.56,0,0,1,76,15.18h0a.3.3,0,0,1-.07.11l-.06.07-.13.14-.11.11-.25.25-.1.1h0c1,.27,2.32.66,3.68,1.1Z"/><path class="cls-6" d="M77.29,29.06,79.13,29a26.06,26.06,0,0,1-4.41-.59l-.46-.1h0l0,0h-.2a4.67,4.67,0,0,0-.81.15h0a12.56,12.56,0,0,1,2.54.43A6.15,6.15,0,0,0,77.29,29.06Z"/><path class="cls-7" d="M74.4,9l0,0h0Z"/><path class="cls-7" d="M75.73,14.36,76,14.3h0Z"/><path class="cls-7" d="M83.68,1.81h0l-.06,0,.06,0Z"/><polygon class="cls-7" points="83.6 1.77 83.6 1.77 83.6 1.77 83.6 1.77"/><polygon class="cls-7" points="74.46 8.91 74.45 8.91 74.46 8.91 74.46 8.91"/><path class="cls-6" d="M74.8,7.82a11.3,11.3,0,0,0,4.06-.55s0,0,0-.06a9.7,9.7,0,0,1-4-.3v0l-.06.24-.12.44v0A.18.18,0,0,0,74.8,7.82Z"/><path class="cls-6" d="M80.29,3.17a.17.17,0,0,0,.3-.16,3,3,0,0,0-1.08-1.43.19.19,0,0,0-.18,0h0l-.08.06a.16.16,0,0,1-.09,0H78.9A7.16,7.16,0,0,1,80.29,3.17Z"/><path class="cls-6" d="M83.11,3.23a1.46,1.46,0,0,0,.76-1.37h0l-.19,0h0l-.06,0h0l-.17-.12h0A1.72,1.72,0,0,1,83.11,3.23Z"/><path class="cls-6" d="M74.84,8.7l-.14,0a.17.17,0,0,0-.23.13h0a.49.49,0,0,0,0,.12h0A.15.15,0,0,1,74.4,9l0,0h0l-.13.09h0a1.77,1.77,0,0,1,.46,0A.23.23,0,0,0,74.84,8.7Z"/><path class="cls-6" d="M76.17,14.35v0l.1.12h0a1.63,1.63,0,0,0,.52-.6.17.17,0,0,0-.26-.21,10.31,10.31,0,0,1-.84.68h0L76,14.3h0s0,0,0,0h.08Z"/><polygon class="cls-7" points="123.58 1.77 123.58 1.77 123.58 1.77 123.58 1.77"/><path class="cls-7" d="M123.58,1.78l-.07,0h0Z"/><polygon class="cls-7" points="132.73 8.91 132.73 8.91 132.73 8.91 132.73 8.91"/><path class="cls-7" d="M132.82,9.05h0s0,0,0,0,0,0,0,0Z"/><path class="cls-7" d="M131.2,14.3l.25.06-.25-.06Z"/><path class="cls-7" d="M131,14.37l0,0,.06,0-.06,0Z"/><path class="cls-6" d="M132.37,6.91a9.25,9.25,0,0,1-3.87.31v.15a13.53,13.53,0,0,0,3.89.45.18.18,0,0,0,.14-.19s0,0,0,0-.07-.29-.11-.44a2.17,2.17,0,0,0-.07-.24Z"/><path class="cls-6" d="M127.68,1.58A2.91,2.91,0,0,0,126.6,3a.17.17,0,0,0,.3.16,7.16,7.16,0,0,1,1.39-1.48H128a.14.14,0,0,1-.09,0l-.09-.06h0A.17.17,0,0,0,127.68,1.58Z"/><path class="cls-6" d="M124.07,3.23a1.78,1.78,0,0,1-.32-1.57h0l-.17.12h0l-.07,0h0l-.2,0h0A1.46,1.46,0,0,0,124.07,3.23Z"/><path class="cls-6" d="M132.49,8.65l-.14,0a.23.23,0,0,0,.12.44,1.84,1.84,0,0,1,.47,0h0l-.13-.09h0s0,0,0,0a.13.13,0,0,1-.05-.09h0a.49.49,0,0,0,0-.12h0A.17.17,0,0,0,132.49,8.65Z"/><path class="cls-6" d="M130.37,13.89a1.75,1.75,0,0,0,.53.6h0l.1-.12,0,0,.06,0a.16.16,0,0,1,.12,0h0l.25.06h0s-.44-.33-.83-.68A.17.17,0,0,0,130.37,13.89Z"/><path class="cls-7" d="M128.5,49.62l4.85-3.75a2.31,2.31,0,0,0-.24-.2,7,7,0,0,0-2.4.21,3.11,3.11,0,0,1-1.39,0l-.82-.19V45.5a13,13,0,0,0,3.27-.2l.44-.08c.85-.38,2-1.5,3-4.32,1.84-5.34-1.18-12-2.5-14.77-1.08.25-2.43.68-3.87,1.17a7,7,0,0,0,3.25-2.49h0c0-4-.24-7.29-1.38-10.13l.17-.19a1.75,1.75,0,0,1-.53-.6.17.17,0,0,1,.27-.21c.39.35.83.68.83.68,1,.23,1.61,0,2.4-3.12a2,2,0,0,0-.93-2.1,1.84,1.84,0,0,0-.47,0,.23.23,0,0,1-.12-.44l.14,0a.17.17,0,0,1,.23.13,9.5,9.5,0,0,0-.19-1.15.18.18,0,0,1-.14.19,13.53,13.53,0,0,1-3.89-.45V7.22a9.25,9.25,0,0,0,3.87-.31l0,0a2.17,2.17,0,0,1,.07.24s0-.1,0-.16a.14.14,0,0,1,0-.15A2.74,2.74,0,0,0,133,5.23c0-1.86-2.07-3.38-4.69-3.54a7.16,7.16,0,0,0-1.39,1.48.17.17,0,0,1-.3-.16,2.91,2.91,0,0,1,1.08-1.43.17.17,0,0,1,.17,0,3.67,3.67,0,0,0-2-.58,3.62,3.62,0,0,0-2.1.66,1.78,1.78,0,0,0,.32,1.57,1.46,1.46,0,0,1-.76-1.37A7.8,7.8,0,0,0,119.44,4H87.75a7.88,7.88,0,0,0-3.88-2.14,1.46,1.46,0,0,1-.76,1.37,1.72,1.72,0,0,0,.32-1.57A3.59,3.59,0,0,0,81.33,1a3.7,3.7,0,0,0-2,.58.19.19,0,0,1,.18,0A3,3,0,0,1,80.59,3a.17.17,0,0,1-.3.16A7.16,7.16,0,0,0,78.9,1.69c-2.63.16-4.69,1.68-4.69,3.54a2.74,2.74,0,0,0,.57,1.63.21.21,0,0,1,0,.15,1.24,1.24,0,0,0,0,.16l.06-.24v0a9.7,9.7,0,0,0,4,.3s0,.06,0,.06a11.3,11.3,0,0,1-4.06.55.18.18,0,0,1-.14-.19,7.88,7.88,0,0,0-.19,1.15.17.17,0,0,1,.23-.13l.14,0a.23.23,0,0,1-.13.44,1.77,1.77,0,0,0-.46,0,2,2,0,0,0-.93,2.1c.79,3.14,1.36,3.35,2.39,3.12a10.31,10.31,0,0,0,.84-.68.17.17,0,0,1,.26.21,1.63,1.63,0,0,1-.52.6h0l-.1-.12v0l-.06,0H76c0,.29-.08.58-.11.88h0A7.56,7.56,0,0,0,78.83,17l0,0c-1.36-.44-2.64-.83-3.68-1.1-1.62,1.64-5.34,5.55-3.79,9.21a5.57,5.57,0,0,0,2.59,3,1.09,1.09,0,0,0,0,.17,3.33,3.33,0,0,0-.67.12,4.67,4.67,0,0,1,.81-.15h.2l0,0h0l.46.1a26.06,26.06,0,0,0,4.41.59l-1.84.06a6.15,6.15,0,0,1-1.48-.15,12.56,12.56,0,0,0-2.54-.43c-2.2.63-2,2.91-.45,4.6a65,65,0,0,0-.6,10.31h.06a11.22,11.22,0,0,0,5.27,4c-2.34-.79-4.52-1.49-6.27-1.9-2.15,4.53-7,15.29-4.06,23.92,1.57,4.57,3.45,6.38,4.83,7l.72.12a16.1,16.1,0,0,0,2.72.32,22.36,22.36,0,0,1,5-1.92l.77-.2C90.65,72.61,90.4,62.67,90,58.59h0a18.51,18.51,0,0,1-1.07,13.67c-1.74,3.31-5.25,4.61-8.38,5.09a23.63,23.63,0,0,1-4.23.23,5.32,5.32,0,0,1-1.78,0,11.07,11.07,0,0,0-3.9-.36c-4.27,2.91-1.45,12,3.37,14.57l6.54-5Z"/><path class="cls-6" d="M271.7,331.23c.05-.56.1-1.22.15-1.81l-.24-.08a27.75,27.75,0,0,1-2.19,6.08l-.37.78h0l.05-.06c0,.12,0,.23,0,.36a5.34,5.34,0,0,0,.05.81v0a5.42,5.42,0,0,0,.14.7v0a14.57,14.57,0,0,1,1.69-4.29A6.87,6.87,0,0,0,271.7,331.23Z"/><path class="cls-6" d="M318.35,230.85l0,0h0a.23.23,0,0,1,0-.11.13.13,0,0,1,0-.06l0-.14s0-.06,0-.1a1,1,0,0,1,0-.19s0-.07,0-.11,0-.17,0-.26a.41.41,0,0,1,0-.11c0-.32-.06-.72-.1-1.17l0-.22h0c-1.83.57-4.22,1.1-6.79,1.62A12,12,0,0,1,318.35,230.85Z"/><path class="cls-6" d="M311,269.29c-5.19-4-16.74-16.71-15.44-31,0,0-1.55,15.49,3.26,22.57,4.23,6.22,11.58,8.79,13.31,9.33l.47.21.22-.16.18-.14.92-.65.24-.17,1-.7.06,0,1.28-.84.62-.42.37-.25.18-.12h0C317,266.17,312.9,267.7,311,269.29Z"/><path class="cls-6" d="M309.5,186c.26,3,6.13,11.67,9.91,11.41h.06v0a.76.76,0,0,1,.09-.22l0-.05q.09-.16.24-.39l.06-.1.36-.54.42-.62.12-.18h0C316.73,197,310.26,188.86,309.5,186Z"/><path class="cls-6" d="M320,160.74c-1.23.1-3,.26-3,.27a25.55,25.55,0,0,1,7,1.29l.74.24h0l-.06,0,.32,0a6.88,6.88,0,0,0,.72-.18h0a5.93,5.93,0,0,0,.63-.26h0a11.75,11.75,0,0,1-4.06-1A5.62,5.62,0,0,0,320,160.74Z"/><path class="cls-7" d="M205,338l-1-.32Z"/><path class="cls-6" d="M210.33,323.11c-2.73,1.25-9,10.3-7.48,14.2v.06h.2l.14,0,.09,0,.19.05.11,0,.25.07.12,0,1,.32.33.11h0C202.35,334.35,207.88,324.85,210.33,323.11Z"/><path class="cls-6" d="M238.24,328.38a6.76,6.76,0,0,0-.51-2.59c-.28-.71-.65-1.6-.91-2.23l-.16,0a28.74,28.74,0,0,1,.94,7l0,.86h0s0-.06,0-.08l.15.32a6.77,6.77,0,0,0,.41.7l0,0a4.35,4.35,0,0,0,.45.57h0A14.51,14.51,0,0,1,238.24,328.38Z"/><path class="cls-7" d="M31.44,169.84l.28-1.12Z"/><path class="cls-6" d="M32,167.63h0v.12a.13.13,0,0,0,0,.06s0,.09,0,.14a.3.3,0,0,0,0,.1c0,.05,0,.11,0,.18l0,.11-.06.27s0,.06,0,.09l-.28,1.12-.06.24h0c1.92.06,4.34.33,7,.67A12,12,0,0,1,32,167.63Z"/><path class="cls-7" d="M38.49,328.48l0,0h0Z"/><path class="cls-6" d="M35.59,324.48c3.1-4,9.15-17.11,9.91-20.24v-.84a.14.14,0,0,0-.17.07c-5.08,9.21-9.61,16.35-12.92,18.95l.12,0,.52.68c.21.27.41.53.62.78s.51.6.77.89S35.25,324.92,35.59,324.48Z"/><path class="cls-6" d="M25.58,291.4c2.18-1.52,6.22-2.76,9.46-3.63a1.06,1.06,0,0,0,.54-.36c8-.09,20.38,1.83,27.93,10.32,0,0-10.25-11.73-18.71-13.06A23.73,23.73,0,0,0,33.42,286a13.76,13.76,0,0,0-6.35,2.16,1.24,1.24,0,0,0-.53.82.29.29,0,0,0,0,.09c0,.18,0,.35,0,.53a1.23,1.23,0,0,1-.17.51h0C26.06,290.52,25.82,291,25.58,291.4Z"/><path class="cls-6" d="M38.72,330a11,11,0,0,1,1.38-2.28c.91-1.2-.11-2.5-1.21-1.55l-.61.53a1,1,0,0,0-.17,1.43l0,0,.36.28,0,0h0a.65.65,0,0,1,.2.43,1.38,1.38,0,0,1,0,.2C38.75,329.45,38.73,329.75,38.72,330Z"/><path class="cls-6" d="M62,333.37c-.18.39-.37.77-.49,1.08A2.21,2.21,0,0,0,62,333.37Z"/><path class="cls-6" d="M59.41,320H57c2.4,1.59,5.68,9.91,4.95,13.37.2-.42.41-.86.55-1.23h0c.44-.13.89-.27,1.33-.42h0C66.45,326.88,62.66,321.8,59.41,320Z"/><path class="cls-6" d="M33.7,268.8c3.61-4.64,11.1-21.15,10.53-22,.09-.19-.11-.29-.23-.12-5.36,9.7-10.12,17.21-13.59,20l.13,0,.54.71.63.81c.26.31.51.62.78.91S33.33,269.27,33.7,268.8Z"/><path class="cls-6" d="M23.6,234.23c2.28-1.61,6.49-2.95,9.86-3.88.94-.26,1.21-1.82.33-1.89a14.07,14.07,0,0,0-8.61,2.33,1.39,1.39,0,0,0-.56.88s0,.06,0,.09c0,.18,0,.36-.05.55a1.22,1.22,0,0,1-.17.54h0C24.11,233.31,23.86,233.77,23.6,234.23Z"/><path class="cls-6" d="M39.62,209.09l-.78.94a1.17,1.17,0,0,1-.34.29c-.33.18-.67.38-1,.59,3.5.62,4,2.84,4.87,5.14C42.47,216.54,43.5,211.74,39.62,209.09Z"/><path class="cls-7" d="M45.5,153H30.42c-.3,4.4.37,9.2,1.49,14.64H32a12,12,0,0,0,6.36,3.12c-2.61-.34-5-.61-6.95-.67-1.29,5.18-4.12,17.45.79,25.86,2.59,4.44,4.94,5.95,6.51,6.31l.78,0a16.18,16.18,0,0,0,2.71-.2c11.91-3.71,15.16-11.27,16.07-15.18h0c0,.28.11,9.27-5.26,15.76-5.22,6.31-14.49,1.05-15.27.59l-.41.12c-1.87,1.92-1.67,5.05-.32,7.93a29.67,29.67,0,0,0-12.36,20.43,1.39,1.39,0,0,1,.56-.88,14.07,14.07,0,0,1,8.61-2.33c.88.07.61,1.63-.33,1.89-3.37.93-7.58,2.27-9.86,3.88.26-.46.51-.92.78-1.38h0C16.17,247,15.2,261.71,22.32,266a9.91,9.91,0,0,0,7.81.74.59.59,0,0,1,.64.2c.1.14.21.26.31.4l-.54-.71-.13,0c3.47-2.76,8.23-10.27,13.59-20,.12-.17.32-.07.23.12.57.83-6.92,17.34-10.53,22-.37.47-.92.6-1.21.27s-.52-.6-.78-.91a28.35,28.35,0,0,0,3.61,3.72,27.76,27.76,0,0,0-5,6.14A26.37,26.37,0,0,0,26.54,289a1.24,1.24,0,0,1,.53-.82A13.76,13.76,0,0,1,33.42,286a23.73,23.73,0,0,1,11.38-1.3c8.46,1.33,18.71,13.06,18.71,13.06C56,289.24,43.6,287.32,35.58,287.41a1.06,1.06,0,0,1-.54.36c-3.24.87-7.28,2.11-9.46,3.63.24-.44.48-.88.73-1.32h0c-7.79,13.45-8.6,27.48-1.7,31.64a9.65,9.65,0,0,0,7.52.77.57.57,0,0,1,.62.2l.3.38-.52-.68-.12,0c3.31-2.6,7.84-9.74,12.92-18.95a.14.14,0,0,1,.17-.07v.84c-.76,3.13-6.81,16.27-9.91,20.24-.34.44-.86.55-1.15.26a26.77,26.77,0,0,0,3.67,3.43,1,1,0,0,1,.17-1.43l.61-.53c1.1-.95,2.12.35,1.21,1.55A11,11,0,0,0,38.72,330c0-.29,0-.59.05-.89a1.38,1.38,0,0,0,0-.2,1.25,1.25,0,0,1,0,.19c-.39,5,1,9.09,4.76,9.9,14.72,3.23,16.32.24,18.78-6.33A1.18,1.18,0,0,1,63,332c.28-.08.55-.18.83-.27-.44.15-.89.29-1.33.42h0c-.14.37-.35.81-.55,1.23a2.21,2.21,0,0,1-.49,1.08c.12-.31.31-.69.49-1.08.73-3.46-2.55-11.78-4.95-13.37h2.39c3.25,1.8,7,6.88,4.47,11.71A38.44,38.44,0,0,0,68,330.14c2.43-.17,7.1-1,7.6-1l4.79.3a.77.77,0,0,1-.72-.61c-.35-2.13,2.36-4.94,3.43-4.9.76-.65-2.86,3.62-1.39,6.11,6.53,8.37,15.12,9.68,19.19,2.33.21-.37.4-.75.59-1.12a.77.77,0,0,1,.74-.43l-.51,0-.06.12c-1.12-3.35-3.48-6.57-5.7-7.25-.29-.09,0-.36.27-.45,1.53-.44,4.74,3.33,7.22,7.69l-1.14-.07,36.16,2.28a27.27,27.27,0,0,1,3,.38,35.43,35.43,0,0,0,6.17.5c-3.68-5,5.09-14.13,7.25-12.73-2.29.21-6.26,10.43-5.37,13.63.18.29.37.57.5.81a1.35,1.35,0,0,1-.5-.81,9.46,9.46,0,0,1-.56-.92h0l-1.29,0h.81a.76.76,0,0,1,.71.43c2.51,5.05,4.12,7.21,18.23.14a8.07,8.07,0,0,0,4.25-6c.09.12.16.24.26.36,8.74,10.59,18.09,10.83,31,8.45h0v-.06c-1.51-3.9,4.75-12.95,7.48-14.2-2.45,1.74-8,11.24-5,15,5.19,1.65,17.5,5.29,26,.24,4.46-2.66,6-5.18,6.35-6.9l0-.86a28.74,28.74,0,0,0-.94-7l.16,0c.26.63.63,1.52.91,2.23a6.76,6.76,0,0,1,.51,2.59,14.51,14.51,0,0,0,.44,4.6c1.6,1.79,4,2,6.48,1.27,4.31,3,9.63,5.59,15.1,5.22,5.19-.35,7.68-1.91,8.79-3.27l.37-.78a27.75,27.75,0,0,0,2.19-6.08l.24.08c-.05.59-.1,1.25-.15,1.81a6.87,6.87,0,0,1-.73,2.55,14.57,14.57,0,0,0-1.69,4.29c1.66,6.26,13.87,5.25,17.07-.77l.58-1.93,1,.31c-2.11-5.81,8.91-12.08,10.58-10.12-2.25-.45-9,8.21-9,11.53.1.33.19.65.25.91a1.3,1.3,0,0,1-.25-.91,8,8,0,0,1-.27-1h0l-1.24-.35.77.23a.75.75,0,0,1,.56.61c1,5.56,1.88,8.09,17.43,5.35,3.93-.69,6.31-4.15,7.07-8.38a1,1,0,0,1,.07-.15.77.77,0,0,0-.07.16c-.05.25-.1.5-.16.75a6.1,6.1,0,0,0-.86-1.93,1,1,0,0,1,1.58-1.31l.48.45a.77.77,0,0,1-.15,1.21,37.18,37.18,0,0,0,4.48-2.91.78.78,0,0,1-1.1-.22c-2.45-3.71-6-17-5.22-17.66a.14.14,0,0,1,.25-.1c3,7.79,5.91,13.82,8.65,16l-.12,0c-.22.2-.45.39-.68.58l.39-.32a.77.77,0,0,1,.67-.17,12.21,12.21,0,0,0,7.75-.65c7.64-3.41,10.12-14.64,6-25.67-1.84-1.28-5.61-2.32-8.66-3.05a.77.77,0,0,1,.11-1.52A13.23,13.23,0,0,1,335,298.8a.77.77,0,0,1,.34.7,16.74,16.74,0,0,0-7.78-16.67c-3.53.54-4.52,2.33-5.9,4.19-.2.4-.11-3.46,4.24-5.63a34.92,34.92,0,0,0-13.36-11l.21-.16-.22.16-.47-.21c-1.73-.54-9.08-3.11-13.31-9.33-4.81-7.08-3.26-22.57-3.26-22.57-1.3,14.27,10.25,27,15.44,31,1.95-1.59,6.08-3.12,6.71-2.37a13.44,13.44,0,0,0,4.63-4.76c5.94-11.26,2.8-20-3.89-31.34l0,0a12,12,0,0,0-7-.89c2.57-.52,5-1.05,6.79-1.62a56.1,56.1,0,0,0-3-14.86c2.31-4.41,3.48-9.73,4.36-16.06h-.06c-3.78.26-9.65-8.43-9.91-11.41.76,2.86,7.23,11,11.3,9.3,3-4.45,9.74-15.05,7.95-24.62-.95-5.06-2.65-7.26-4-8.14l-.74-.24a25.55,25.55,0,0,0-7-1.29s1.76-.17,3-.27a5.62,5.62,0,0,1,2.37.3,11.75,11.75,0,0,0,4.06,1c2.84-1.38,3.53-5.29,2.72-9H45.5Zm-3.13,63.05c-.88-2.3-1.37-4.52-4.87-5.14.33-.21.67-.41,1-.59a1.17,1.17,0,0,0,.34-.29l.78-.94C43.5,211.74,42.47,216.54,42.37,216.05ZM121.5,215v27h-56V213.33h0V186h56Zm97,105h-81V186h81Zm27.78,0h.23s0,.06,0,.09Z"/><path class="cls-7" d="M269.28,338.07h0v0Z"/><path class="cls-7" d="M34.42,324.73h0c-.26-.29-.52-.58-.77-.89Z"/><path class="cls-7" d="M326.75,282.36l.05,0-.06,0a.71.71,0,0,1-.26-.23v0A.67.67,0,0,0,326.75,282.36Z"/><polygon class="cls-7" points="335.33 300.45 335.33 300.45 335.33 300.45 335.33 300.45"/><path class="cls-7" d="M314.2,333h0l.05,0-.05,0S314.21,333,314.2,333Z"/><path class="cls-6" d="M321.77,327.81c-2.74-2.2-5.65-8.23-8.65-16a.14.14,0,0,0-.25.1c-.74.67,2.77,13.95,5.22,17.66a.78.78,0,0,0,1.1.22h0l1-.74c.27-.21.53-.43.8-.66s.46-.38.68-.58Z"/><path class="cls-6" d="M327.19,297a.77.77,0,0,0-.11,1.52c3.05.73,6.82,1.77,8.66,3.05h0c-.14-.37-.29-.74-.44-1.11h0a.71.71,0,0,1,0-.43c0-.15,0-.3.07-.45s0-.05,0-.07a.77.77,0,0,0-.34-.7A13.23,13.23,0,0,0,327.19,297Z"/><path class="cls-6" d="M321.68,287c1.38-1.86,2.37-3.65,5.9-4.19h0c-.25-.15-.51-.3-.78-.43l-.05,0a.67.67,0,0,1-.27-.23v0l-.53-.73h0C321.57,283.56,321.48,287.42,321.68,287Z"/><path class="cls-6" d="M314.86,331.47l-.48-.45a1,1,0,0,0-1.58,1.31,6.1,6.1,0,0,1,.86,1.93c.06-.25.11-.5.16-.75a.77.77,0,0,1,.07-.16.67.67,0,0,1,.31-.37s0,0,0,0l.05,0,.43-.24,0,0A.77.77,0,0,0,314.86,331.47Z"/><path class="cls-6" d="M246.28,320l.25.09s0-.06,0-.09Z"/><path class="cls-6" d="M289.51,337.09a1.3,1.3,0,0,0,.25.91C289.7,337.74,289.61,337.42,289.51,337.09Z"/><path class="cls-6" d="M289.24,336.05a8,8,0,0,0,.27,1c.07-3.32,6.79-12,9-11.53-1.67-2-12.69,4.31-10.58,10.12h0l1.24.35Z"/><path class="cls-7" d="M80.9,329.52a.74.74,0,0,1,.56.3l.09.11-.3-.39Z"/><path class="cls-6" d="M96.19,323.25c-.3.09-.56.36-.27.45,2.22.68,4.58,3.9,5.7,7.25l.06-.12.51,0h.08l1.14.07C100.93,326.58,97.72,322.81,96.19,323.25Z"/><path class="cls-6" d="M148.9,334a9.46,9.46,0,0,0,.56.92c-.89-3.2,3.08-13.42,5.37-13.63-2.16-1.4-10.93,7.76-7.25,12.73h0l1.29,0Z"/><path class="cls-6" d="M149.46,334.93a1.35,1.35,0,0,0,.5.81C149.83,335.5,149.64,335.22,149.46,334.93Z"/><path class="cls-6" d="M83.06,324c-1.07,0-3.78,2.77-3.43,4.9a.77.77,0,0,0,.72.61h0l.55,0,.35,0,.3.39.14.18,0,0C80.2,327.59,83.82,323.32,83.06,324Z"/><path class="cls-8" d="M347.83,141.78,257,71.59,178.5,11,133.35,45.87l-4.85,3.75L107.84,65.57,80.5,86.69l-6.54,5-64.79,50A6.27,6.27,0,0,0,13,153H344A6.27,6.27,0,0,0,347.83,141.78Z"/><path class="cls-9" d="M137.5,320h81V186h-81Zm9-62.55a4.87,4.87,0,0,1,0-.66.53.53,0,0,0,0-.12l.06-.22a3,3,0,0,1,.18-.58l.09-.23a4.67,4.67,0,0,1,.27-.49c0-.08.09-.16.14-.23s.27-.34.41-.5l.19-.18a5,5,0,0,1,.5-.42l.23-.14a4.67,4.67,0,0,1,.49-.27l.23-.09a3,3,0,0,1,.58-.18l.22-.06a.53.53,0,0,0,.12,0,4.87,4.87,0,0,1,.66,0h.14a4.15,4.15,0,0,1,.79.08h0a4.69,4.69,0,0,1,.75.24l.14,0a7,7,0,0,1,.66.36l.11.08a4.08,4.08,0,0,1,.6.5h0a4.08,4.08,0,0,1,.5.6.76.76,0,0,0,.08.11,5.25,5.25,0,0,1,.36.66l0,.14a4.69,4.69,0,0,1,.24.75v.05a4,4,0,0,1,.08.78s0,.06,0,.09a.09.09,0,0,1,0,.05,4.87,4.87,0,0,1,0,.66.53.53,0,0,0,0,.12l-.06.22a3,3,0,0,1-.18.58l-.09.23a4.67,4.67,0,0,1-.27.49c0,.08-.09.16-.14.23s-.27.34-.41.5l-.19.18a5,5,0,0,1-.5.42l-.23.14a4.67,4.67,0,0,1-.49.27l-.23.09a3,3,0,0,1-.58.18l-.22.06-.12,0a4.87,4.87,0,0,1-.66,0h-.14a4,4,0,0,1-.78-.08h0a4.69,4.69,0,0,1-.75-.24l-.14-.05a5.25,5.25,0,0,1-.66-.36l-.11-.08a4.08,4.08,0,0,1-.6-.5h0a4.08,4.08,0,0,1-.5-.6.76.76,0,0,0-.08-.11,5.25,5.25,0,0,1-.36-.66l0-.14a4.69,4.69,0,0,1-.24-.75v-.05a4,4,0,0,1-.08-.78s0-.06,0-.09A.09.09,0,0,1,146.51,257.45Z"/><polygon class="cls-9" points="94.19 213.13 121.48 212.93 121.5 215 121.5 186 94.19 186 94.19 213.13"/><polygon class="cls-9" points="65.51 215.4 65.5 214 65.5 242 92.45 242 92.45 215.21 65.51 215.4"/><polygon class="cls-9" points="94.19 242 121.5 242 121.5 215 94.19 215.2 94.19 242"/><polygon class="cls-9" points="92.45 186 65.5 186 65.5 213.33 92.45 213.14 92.45 186"/><polygon points="94.19 213.13 94.19 186 92.45 186 92.45 213.14 65.5 213.33 65.5 213.33 65.5 214 65.51 215.4 92.45 215.21 92.45 242 94.19 242 94.19 215.2 121.5 215 121.48 212.93 94.19 213.13"/><path class="cls-8" d="M146.59,258.37v.05a4.69,4.69,0,0,0,.24.75l0,.14a5.25,5.25,0,0,0,.36.66.76.76,0,0,1,.08.11,4.08,4.08,0,0,0,.5.6h0a4.08,4.08,0,0,0,.6.5l.11.08a5.25,5.25,0,0,0,.66.36l.14.05a4.69,4.69,0,0,0,.75.24h0a4,4,0,0,0,.78.08h.14a4.92,4.92,0,0,0,.78-.07l.22-.06a3,3,0,0,0,.58-.18l.23-.09a4.67,4.67,0,0,0,.49-.27l.23-.14a5,5,0,0,0,.5-.42l.19-.18c.14-.16.28-.32.41-.5s.09-.15.14-.23a4.67,4.67,0,0,0,.27-.49l.09-.23a3,3,0,0,0,.18-.58l.06-.22a4.92,4.92,0,0,0,.07-.78.09.09,0,0,0,0-.05s0-.06,0-.09a4,4,0,0,0-.08-.78v-.05a4.69,4.69,0,0,0-.24-.75l0-.14a5.25,5.25,0,0,0-.36-.66.76.76,0,0,1-.08-.11,4.08,4.08,0,0,0-.5-.6h0a4.08,4.08,0,0,0-.6-.5l-.11-.08a7,7,0,0,0-.66-.36l-.14,0a4.69,4.69,0,0,0-.75-.24h0a4.15,4.15,0,0,0-.79-.08H151a4.92,4.92,0,0,0-.78.07l-.22.06a3,3,0,0,0-.58.18l-.23.09a4.67,4.67,0,0,0-.49.27l-.23.14a5,5,0,0,0-.5.42l-.19.18c-.14.16-.28.32-.41.5s-.09.15-.14.23a4.67,4.67,0,0,0-.27.49l-.09.23a3,3,0,0,0-.18.58l-.06.22a4.92,4.92,0,0,0-.07.78.09.09,0,0,0,0,.05s0,.06,0,.09A4,4,0,0,0,146.59,258.37Z"/><path class="cls-6" d="M53,202.6c5.37-6.49,5.27-15.48,5.26-15.76h0c-.91,3.91-4.16,11.47-16.07,15.18a16.18,16.18,0,0,1-2.71.2l-.78,0h0l.07,0-.29.15a5.55,5.55,0,0,0-.62.41l0,0a5.47,5.47,0,0,0-.51.45h0l.41-.12C38.49,203.65,47.76,208.91,53,202.6Z"/></g></g></g></g></svg>