<svg xmlns="http://www.w3.org/2000/svg" xmlns:xlink="http://www.w3.org/1999/xlink" width="360" height="420" viewBox="0 0 360 420"><defs><style>.cls-1{filter:url(#AI_BevelShadow_1);}.cls-2{fill:#b05412;}.cls-3{fill:#fff;}.cls-4{fill:#fcad74;}.cls-5{fill:#faf7ee;}.cls-6{fill:#76f1fc;}.cls-7{fill:#ed2435;}.cls-8{fill:#7c4b2a;}.cls-9{fill:#c9c9c9;}</style><filter id="AI_BevelShadow_1" x="-20" y="-20" width="140" height="140" name="AI_BevelShadow_1"><feGaussianBlur result="blur" stdDeviation="4" in="SourceAlpha"/><feOffset result="offsetBlur" dx="4" dy="4" in="blur"/><feSpecularLighting result="specOut" surfaceScale="5" specularExponent="10" in="blur"><fePointLight x="-5000" y="-10000" z="-20000"/></feSpecularLighting><feComposite result="specOut" operator="in" in="specOut" in2="SourceAlpha"/><feComposite result="litPaint" operator="arithmetic" k2="1" k3="1" in="SourceGraphic" in2="specOut"/><feMerge><feMergeNode in="offsetBlur"/><feMergeNode in="litPaint"/></feMerge></filter></defs><title>Main Poo</title><g id="Layer_1" data-name="Layer 1"><g class="cls-1"><rect class="cls-2" x="138.1" y="196.37" width="6.8" height="52" rx="3.15" transform="translate(-55.68 47.47) rotate(-15.96)"/><rect class="cls-2" x="289.27" y="215.87" width="6.8" height="58.91" rx="3.15" transform="translate(-79.41 159.33) rotate(-26.96)"/><ellipse class="cls-3" cx="278.48" cy="216.47" rx="5.21" ry="8.73" transform="translate(-57.49 323.88) rotate(-55.59)"/><path class="cls-3" d="M22.59,13.94a2.52,2.52,0,0,1,.4-.87c1.41-2.7,3.08-2.17,5.05,3.28,11.7,14.83,9.27,11.42,27.15,11.9,18.15.5,13.64,15.22,30.87,16.23,15.62.91-6.47,35-23.63,44.82,1.8,1.38,2.88,3.47,2.78,7.19-.46,17-13.49,28.77-24.51,28.47s-25.48-15-25-32C16,82.46,17.48,26.41,22.59,13.94Z"/><rect class="cls-4" x="191.75" y="-8.79" width="7.55" height="302.23" transform="translate(-38.79 202.18) rotate(-50.38)"/><path d="M54.56,39.5C37.14,27.84,20.12,15.92,23.28,11.21S48.58,10.77,66,22.43,95,47.35,91.8,52.07,72,51.16,54.56,39.5Z"/><ellipse class="cls-5" cx="131.35" cy="192.76" rx="7.01" ry="16.18" transform="translate(-74.53 302.41) rotate(-83.77)"/><rect class="cls-2" x="161.35" y="232" width="6.8" height="47.56" rx="3.15" transform="translate(-139.37 247.15) rotate(-55.59)"/><rect class="cls-2" x="282.16" y="239.59" width="6.71" height="47.56" rx="3.11" transform="translate(-48.54 461.58) rotate(-73.37)"/><rect class="cls-6" x="184.29" y="260.03" width="14.39" height="20.79" rx="1.37" transform="translate(-103.71 420.95) rotate(-81.72)"/><rect class="cls-6" x="249.26" y="243.86" width="14.94" height="25.15" rx="2.55" transform="translate(-11.18 501.16) rotate(-87.38)"/><path class="cls-2" d="M101.29,103.07A33.31,33.31,0,0,1,120,105.69c37.35,17.25,59.44,5.3,78.86,17.25,37.66,23.18,43.75,55,43.75,100.61,0,3.18,32.66,55.92,19.07,96.37-5.77,17.17-12.79,23.9-17.91,26.15l1.08.33c24.06,7.57,9.6,53.19-13,58.28h-8.17l-.17,0H203.51c-14.06-4.48-43-47.52-29-93.79,8.41-27.81,38.31-33,8.63-61.47-24.82-23.78-6.68-51.59-22.57-65.19,1.44,2.16,1,5.4-9.45,8l-6,1.2a204.44,204.44,0,0,1-21.29,2.1c-15.9.86-41.28-24.83-46.38-39.9C70.88,136.16,83.65,113.53,101.29,103.07Z"/><path d="M169,178c-2.7-13.2,4.19-25.38,13-26.72s15.57,7.43,17.59,20.76-1.21,24.27-10,25.61S171,187.84,169,178Z"/><ellipse class="cls-3" cx="185.79" cy="173.35" rx="16.18" ry="24.41" transform="translate(-23.91 29.84) rotate(-8.63)"/><path d="M198.4,172.19c-6.22-12-4.84-25,3.09-29.12s17.47,3.76,23.69,15.72,4.69,22.84-3.24,27S204.63,184.14,198.4,172.19Z"/><path class="cls-3" d="M199.3,170.65c-6.23-12-6.82-23.46,1.11-27.58s19.39,2.22,25.61,14.18,4.85,25-3.08,29.12S205.52,182.61,199.3,170.65Z"/><ellipse cx="210.08" cy="164.72" rx="3.24" ry="5.93" transform="translate(-51.85 113.13) rotate(-26.96)"/><ellipse cx="187.43" cy="172.27" rx="3.24" ry="5.93" transform="matrix(1, -0.09, 0.09, 1, -14.26, 16.94)"/><path class="cls-5" d="M118.41,195.46c-7.32-3.26-9.7-11.86-1.62-11.69,7.07.16,10.41,6.7,15.64,12.77"/><path d="M178.81,205.16c2.37,9.23,21.79,26.45,34.49,23.19s23.73-26.54,19.43-35"/><path class="cls-7" d="M210.08,211.63c7.1,0,13.3,2.24,16.68,5.56-3.66,5.42-8.43,9.86-13.46,11.16-6.69,1.72-15.25-2.26-22.2-7.75C193,215.48,200.75,211.63,210.08,211.63Z"/><ellipse class="cls-3" cx="287.11" cy="212.16" rx="5.21" ry="8.73" transform="translate(-50.18 329.12) rotate(-55.59)"/><ellipse class="cls-3" cx="273.91" cy="212.41" rx="5.24" ry="3.13" transform="translate(24.25 452.86) rotate(-81.72)"/><path class="cls-8" d="M242.43,223.5h.22v.05c0,.66,1.41,3.47,3.53,7.86-6.47,1.56-14.53,4.18-23.16,7.19C231.1,235.18,237.86,230.45,242.43,223.5Z"/><path class="cls-8" d="M216.55,347.52c9.23.61,17.77.54,24.81-1.08L244,346l-.23.1,1.08.33a17.29,17.29,0,0,1,4.57,2.2c-6.25-.61-10,.46-14.43,1.38a19.41,19.41,0,0,1-8.31-.09C222.54,348.94,216.46,347.53,216.55,347.52Z"/><path class="cls-6" d="M242.43,255.85l6.21-5c1.51-1.21,3.09-3.3,4.43-4.19,4.71,11.41,9.59,25.88,11.31,40.78-4.67,2.12-12.1,1.8-16.19,1.8H206.48c-5.41,0-14.92.88-18.16-2,6.36-8.34,10.89-15.33,4.7-26l13.83,1.06C216.55,263.4,240.28,256.93,242.43,255.85Z"/><path class="cls-8" d="M155,152.28a.43.43,0,0,1,.84-.08,105.1,105.1,0,0,1,8.7,36.74,18.55,18.55,0,0,0-3.85-4.64,1.37,1.37,0,0,1-.2-.7A120.82,120.82,0,0,0,155,152.28Z"/><path class="cls-8" d="M147.53,120c-7.19-5.76-25-8.67-24.8-12.94a.68.68,0,0,1,0-.14c22.71,9.84,39.66,9,53.87,10C176,121,152.92,124.28,147.53,120Z"/><path class="cls-9" d="M63.35,90.17l-6.41-.4c-4.2-.85-6.75-3.78-8.63-7.55C52.55,85.14,58,87,64.4,88.07c-.66.44-1.32.86-2,1.23A6.91,6.91,0,0,1,63.35,90.17Z"/></g></g></svg>