<svg xmlns="http://www.w3.org/2000/svg" xmlns:xlink="http://www.w3.org/1999/xlink" width="320" height="120" viewBox="0 0 320 120"><defs><style>.cls-1{isolation:isolate;}.cls-2{opacity:0.75;mix-blend-mode:multiply;}.cls-3{fill:url(#linear-gradient);}</style><linearGradient id="linear-gradient" x1="11.45" y1="60" x2="308.55" y2="60" gradientUnits="userSpaceOnUse"><stop offset="0" stop-color="#76f1fc"/><stop offset="0.08" stop-color="#8af3fc"/><stop offset="0.26" stop-color="#bdf8fe"/><stop offset="0.46" stop-color="#fff"/><stop offset="0.53" stop-color="#f4feff"/><stop offset="0.66" stop-color="#d8fbfe"/><stop offset="0.83" stop-color="#a9f6fd"/><stop offset="1" stop-color="#76f1fc"/></linearGradient></defs><title>play</title><g class="cls-1"><g id="Layer_1" data-name="Layer 1"><image class="cls-2" width="343" height="143" transform="translate(-4.5 -4.07)" xlink:href="play1.png"/><rect x="3.5" y="3.93" width="313" height="112.14" rx="56.07"/><rect class="cls-3" x="11.45" y="12.3" width="297.1" height="95.41" rx="47.7"/><path d="M92.71,44.53h29.84v22.7H101.19V81.47H92.71ZM101.19,53v5.76h12.87V53Z"/><path d="M127.57,44.53h8.49V73h21.38v8.48H127.57Z"/><path d="M162.44,44.53h29.84V81.47H183.8V74.36H170.92v7.11h-8.48ZM170.92,53V65.88H183.8V53Z"/><path d="M197.45,44.53h8.49V58.77h12.87V44.53h8.48V81.47H197.45V73h21.33l0-5.76H197.45Z"/></g></g></svg>
