<svg xmlns="http://www.w3.org/2000/svg" xmlns:xlink="http://www.w3.org/1999/xlink" width="400" height="200" viewBox="0 0 400 200"><defs><style>.cls-1{filter:url(#AI_BevelShadow_1);}.cls-2{fill:#b05412;}.cls-3{fill:#7c4b2a;}</style><filter id="AI_BevelShadow_1" x="-20" y="-20" width="140" height="140" name="AI_BevelShadow_1"><feGaussianBlur result="blur" stdDeviation="4" in="SourceAlpha"/><feOffset result="offsetBlur" dx="4" dy="4" in="blur"/><feSpecularLighting result="specOut" surfaceScale="5" specularExponent="10" in="blur"><fePointLight x="-5000" y="-10000" z="-20000"/></feSpecularLighting><feComposite result="specOut" operator="in" in="specOut" in2="SourceAlpha"/><feComposite result="litPaint" operator="arithmetic" k2="1" k3="1" in="SourceGraphic" in2="specOut"/><feMerge><feMergeNode in="offsetBlur"/><feMergeNode in="litPaint"/></feMerge></filter></defs><title>Poo</title><g id="Layer_1" data-name="Layer 1"><g class="cls-1"><path class="cls-2" d="M386.25,130a37.64,37.64,0,0,0-11.44-18.12c-35.2-30.5-33.16-58.85-54.54-73.32-41.46-28-77.09-19.53-124.18,1.74-3.28,1.48-72.91-7.64-108.31,25.23-15,14-18.7,24.33-18.64,30.66l-.83-1C49.28,74,9,110.14,14.22,135.78L18,144.22l.12.16,9.34,20.7c11.18,12.41,69.07,22.22,110.29-13.77,24.77-21.63,16.22-54.91,59.4-37.54,36.1,14.52,56.33-17.14,77.77-7.08-2.9-.49-6.05,1.47-3.82,13.45,1.49,6.44.09.38,1.55,6.75a231.2,231.2,0,0,0,7.76,23c6.51,16.8,44.85,31,62.78,29.25C366.28,176.82,383.67,153.09,386.25,130Z"/><path class="cls-3" d="M196.24,40.52l-.1-.22,0,0c-.68.31-4.24.16-9.76,0,1.41,7.41,2.46,16.94,3.38,27.24C189.47,57.66,191.2,48.47,196.24,40.52Z"/><path class="cls-3" d="M80.35,125c-4.93-9.23-8.83-18.08-10.44-26.09l-.77-3v.29l-.83-1a20,20,0,0,0-4.4-3.69c3.54,6.17,4.19,10.55,5.29,15.54a22.1,22.1,0,0,0,4,8.52C76.1,119.49,80.38,125.11,80.35,125Z"/><path class="cls-3" d="M310.46,97.56a.48.48,0,0,0-.3-.9,118.87,118.87,0,0,0-42,8.14,20.72,20.72,0,0,1,6.57,1.81,1.57,1.57,0,0,0,.83-.12A136.64,136.64,0,0,1,310.46,97.56Z"/><path class="cls-3" d="M347.27,90.19c9.29,4.74,20.59,21.76,24.91,19.56a1.25,1.25,0,0,0,.12-.08c-20.72-18.85-27.71-36.76-35.39-50.93C332.91,61.34,340.31,86.64,347.27,90.19Z"/></g></g></svg>
