<svg id="Layer_1" data-name="Layer 1" xmlns="http://www.w3.org/2000/svg" width="500" height="100" viewBox="0 0 500 100"><defs><style>.cls-1{fill:none;}.cls-2{fill:#b05412;}.cls-3{fill:#7c4b2a;}</style></defs><title>poo_boom</title><rect class="cls-1" width="100" height="100"/><rect class="cls-1" x="100" width="100" height="100"/><rect class="cls-1" x="200" width="100" height="100"/><rect class="cls-1" x="300" width="100" height="100"/><rect class="cls-1" x="400" width="100" height="100"/><path class="cls-2" d="M91.83,56.74a8.49,8.49,0,0,0-2.57-4.07C81.35,45.82,81.81,39.46,77,36.21c-9.31-6.3-17.31-4.39-27.89.39-.73.33-16.37-1.72-24.32,5.66-3.38,3.14-4.2,5.47-4.19,6.89l-.19-.22C16.15,44.15,7.09,52.28,8.28,58l.85,1.89,0,0,2.1,4.65c2.51,2.78,15.51,5,24.77-3.1,5.56-4.85,3.64-12.33,13.34-8.43,8.1,3.26,12.65-3.85,17.46-1.59-.65-.11-1.36.33-.86,3,.34,1.45,0,.09.35,1.52a50.91,50.91,0,0,0,1.75,5.15c1.46,3.78,10.07,7,14.09,6.57C87.34,67.25,91.25,61.92,91.83,56.74Z"/><path class="cls-3" d="M49.16,36.64l0,0h0a13.78,13.78,0,0,1-2.19,0c.32,1.66.55,3.81.76,6.12A10.51,10.51,0,0,1,49.16,36.64Z"/><path class="cls-3" d="M23.13,55.62a22.47,22.47,0,0,1-2.35-5.86l-.17-.68v.07l-.19-.22a4.36,4.36,0,0,0-1-.82,10.3,10.3,0,0,1,1.18,3.48,5,5,0,0,0,.89,1.92C22.17,54.38,23.14,55.64,23.13,55.62Z"/><path class="cls-3" d="M74.81,49.45a.11.11,0,0,0-.07-.2,26.62,26.62,0,0,0-9.42,1.83,4.74,4.74,0,0,1,1.47.4.32.32,0,0,0,.19,0A30.86,30.86,0,0,1,74.81,49.45Z"/><path class="cls-3" d="M83.08,47.8c2.08,1.06,4.62,4.88,5.59,4.39l0,0c-4.66-4.23-6.23-8.25-8-11.44C79.85,41.32,81.51,47,83.08,47.8Z"/><path class="cls-2" d="M191.83,56.74a8.49,8.49,0,0,0-2.57-4.07c-7.91-6.85-7.45-13.21-12.25-16.46-9.31-6.3-17.31-4.39-27.89.39-.73.33-16.37-1.72-24.32,5.66-3.38,3.14-4.2,5.47-4.19,6.89l-.19-.22c-4.27-4.78-13.33,3.35-12.14,9.11l.85,1.89,0,0,2.1,4.65c2.51,2.78,10-1.54,19.25-9.62,5.56-4.86,10.3-10.9,20-7,8.11,3.26,11.51,1.24,16.32,3.5-.65-.11.18-.19.68,2.5.33,1.45,4.67.57,5,2s-.83,1.85,0,4c1.46,3.77,5.63,8.16,9.65,7.76C187.34,67.25,191.25,61.92,191.83,56.74Z"/><path class="cls-3" d="M149.16,36.64l0,0h0a13.78,13.78,0,0,1-2.19,0c.32,1.66.55,3.81.76,6.12A10.51,10.51,0,0,1,149.16,36.64Z"/><path class="cls-3" d="M123.13,55.62a22.47,22.47,0,0,1-2.35-5.86l-.17-.68v.07l-.19-.22a4.36,4.36,0,0,0-1-.82,10.3,10.3,0,0,1,1.18,3.48,5,5,0,0,0,.89,1.92C122.17,54.38,123.14,55.64,123.13,55.62Z"/><path class="cls-3" d="M174.81,49.45a.11.11,0,0,0-.07-.2,26.62,26.62,0,0,0-9.42,1.83,4.74,4.74,0,0,1,1.47.4.32.32,0,0,0,.19,0A30.86,30.86,0,0,1,174.81,49.45Z"/><path class="cls-3" d="M183.08,47.8c2.08,1.06,4.62,4.88,5.59,4.39l0,0c-4.66-4.23-6.23-8.25-7.95-11.44C179.85,41.32,181.51,47,183.08,47.8Z"/><path class="cls-2" d="M291.83,56.74a8.49,8.49,0,0,0-2.57-4.07c-7.91-6.85-7-13.09-12.25-16.46-5-3.21-17.31-4.39-27.89.39-.73.33-12.17,1-20.12,8.4-3.38,3.13-8.4,2.73-8.39,4.15l-.19-.22c-4.27-4.78-4.6-2.69-3.42,3.07v4h0l2,2c2.51,2.79,2.25,5.08,11.51-3,5.56-4.86,16.79-15.9,26.49-12,8.11,3.26,4,7,9.83,8.5-.65-.11.18-.19.68,2.5.33,1.45,4.67.57,5,2s-.83,1.85,0,4c1.46,3.77,6.46.4,10.49,0C288.18,59.49,291.25,61.92,291.83,56.74Z"/><path class="cls-3" d="M249.16,36.64l0,0h0a13.78,13.78,0,0,1-2.19,0c.32,1.66.55,3.81.76,6.12A10.51,10.51,0,0,1,249.16,36.64Z"/><path class="cls-3" d="M223.13,55.62a22.47,22.47,0,0,1-2.35-5.86l-.17-.68v.07l-.19-.22a4.36,4.36,0,0,0-1-.82,10.3,10.3,0,0,1,1.18,3.48,5,5,0,0,0,.89,1.92C222.17,54.38,223.14,55.64,223.13,55.62Z"/><path class="cls-3" d="M274.81,49.45a.11.11,0,0,0-.07-.2,26.62,26.62,0,0,0-9.42,1.83,4.74,4.74,0,0,1,1.47.4.32.32,0,0,0,.19,0A30.86,30.86,0,0,1,274.81,49.45Z"/><path class="cls-3" d="M283.08,47.8c2.08,1.06,4.62,4.88,5.59,4.39l0,0c-4.66-4.23-6.23-8.25-7.95-11.44C279.85,41.32,281.51,47,283.08,47.8Z"/><path class="cls-2" d="M171,61c-1.63,1.34,2,7-.4,5.29-2.2-1.56-4.35-2.66-6.84-5.27-2-2.11,3.53,1.35,5.24-2C171.4,54.26,172.34,59.89,171,61Z"/><path class="cls-2" d="M133,62c-.39,2.24-.68,3.6-2.1,5.36s-2.92-6.1-1.27-6.18C132.76,61,133.48,59.29,133,62Z"/><path class="cls-2" d="M189,36c-.39,2.24-.58,1.24-2,3s-3-3.74-1.37-3.82C188.76,35,189.48,33.29,189,36Z"/><path class="cls-2" d="M181,27c-1.1,1.26.27,3.88-.74,4.64-1.93,1.44-4.37-1.51-4.37-3.37s2-3.36,4.37-3.36S182.22,25.6,181,27Z"/><path class="cls-2" d="M124.57,70.88c1.17-.9-1.17-3.43-1.46-2.67a13.7,13.7,0,0,1-1.47,2.67c-.89,1.19,1,3.34,1.47,2.68C123.46,73.06,123.79,71.49,124.57,70.88Z"/><path class="cls-2" d="M130.57,33.88c1.17-.9-1.17-3.43-1.46-2.67a13.7,13.7,0,0,1-1.47,2.67c-.89,1.19,1,3.34,1.47,2.68"/><path class="cls-2" d="M270,70c-1.63,1.34-1.6,3.71-4,2a33.1,33.1,0,0,1-6.24-5c-2-2.11,3.53,1.35,5.24-2C267.4,60.26,271.34,68.89,270,70Z"/><path class="cls-2" d="M252,54c-1.63,1.34-1.6,3.71-4,2a33.1,33.1,0,0,1-6.24-5c-2-2.11,3.53,1.35,5.24-2C249.4,44.26,253.34,52.89,252,54Z"/><path class="cls-2" d="M233,68c-.39,2.24-.68,3.6-2.1,5.36s-2.92-6.1-1.27-6.18C232.76,67,233.48,65.29,233,68Z"/><path class="cls-2" d="M291,34c-.39,2.24-.58,1.24-2,3s-3-3.74-1.37-3.82C290.76,33,291.48,31.29,291,34Z"/><path class="cls-2" d="M261,56c-.39,2.24-.58,1.24-2,3s-3-3.74-1.37-3.82C260.76,55,261.48,53.29,261,56Z"/><path class="cls-2" d="M233,34c-.39,2.24,1.42.24,0,2s-3-3.74-1.37-3.82C234.76,32,233.48,31.29,233,34Z"/><path class="cls-2" d="M277,20c-1.1,1.26.27,3.88-.74,4.64-1.93,1.44-4.37-1.51-4.37-3.37s2-3.36,4.37-3.36S278.22,18.6,277,20Z"/><path class="cls-2" d="M220.57,76.88c1.17-.9-1.17-3.43-1.46-2.67a13.7,13.7,0,0,1-1.47,2.67c-.89,1.19,1,3.34,1.47,2.68C219.46,79.06,219.79,77.49,220.57,76.88Z"/><path class="cls-2" d="M214,56c0-1.48-.6-2.55-.89-1.79a13.7,13.7,0,0,1-1.47,2.67c-.89,1.19.89,1.78,1.36,1.12A3.13,3.13,0,0,0,214,56Z"/><path class="cls-2" d="M234.57,56.88c1.17-.9-1.17-3.43-1.46-2.67a13.7,13.7,0,0,1-1.47,2.67c-.89,1.19,1,3.34,1.47,2.68C233.46,59.06,233.79,57.49,234.57,56.88Z"/><path class="cls-2" d="M222.57,36.88c1.17-.9-1.17-3.43-1.46-2.67a13.7,13.7,0,0,1-1.47,2.67c-.89,1.19,1,3.34,1.47,2.68"/><path class="cls-2" d="M279.57,32.88c1.17-.9-1.17-3.43-1.46-2.67a13.7,13.7,0,0,1-1.47,2.67c-.89,1.19,1,3.34,1.47,2.68"/><path class="cls-2" d="M329.27,22.8c1.62-1.35,1.6-3.71,4-2a33.39,33.39,0,0,1,6.23,5c2,2.11-3.53-1.35-5.23,2C331.87,32.54,327.93,23.9,329.27,22.8Z"/><path class="cls-2" d="M339.27,51.8c1.62-1.35,1.6-3.71,4-2,2.19,1.56,1.24,4.59,3.73,7.2,2,2.11-1-3.57-2.73-.2C341.87,61.54,337.93,52.9,339.27,51.8Z"/><path class="cls-2" d="M344.27,52.8c1.62-1.35,1.6-3.71,4-2,2.19,1.56-.76,1.59,1.73,4.2,2,2.11,1-.57-.73,2.8C346.87,62.54,342.93,53.9,344.27,52.8Z"/><path class="cls-2" d="M345.27,75.8c1.62-1.35,1.6-3.71,4-2,2.19,1.56-.76,1.59,1.73,4.2,2,2.11-1.29-2.37-3,1C345.6,83.74,343.93,76.9,345.27,75.8Z"/><path class="cls-2" d="M355.27,57.8c.39-2.24.67-3.6,2.1-5.37s2.92,6.11,1.27,6.18C355.51,58.76,354.79,60.51,355.27,57.8Z"/><path class="cls-2" d="M310.27,64.8c.39-2.24.57-1.24,2-3s3,3.74,1.37,3.81C310.51,65.76,309.79,67.51,310.27,64.8Z"/><path class="cls-2" d="M340.27,42.8c.39-2.24.57-1.24,2-3s3,3.74,1.37,3.81C340.51,43.76,339.79,45.51,340.27,42.8Z"/><path class="cls-2" d="M375.27,73.8c.39-2.24-1.43-.24,0-2s3,3.74,1.37,3.81C373.51,75.76,374.79,76.51,375.27,73.8Z"/><path class="cls-2" d="M320.27,42.8c.39-2.24-1.43-.24,0-2s3,3.74,1.37,3.81C318.51,44.76,319.79,45.51,320.27,42.8Z"/><path class="cls-2" d="M369.27,24.8c.39-2.24-1.43-.24,0-2s3,3.74,1.37,3.81C367.51,26.76,368.79,27.51,369.27,24.8Z"/><path class="cls-2" d="M324.27,78.8c1.1-1.26-.27-3.89.74-4.64,1.93-1.45,4.36,1.5,4.36,3.36s-1.95,3.37-4.36,3.37S323,80.2,324.27,78.8Z"/><path class="cls-2" d="M380.7,21.91c-1.17.91,1.17,3.43,1.46,2.68a13.6,13.6,0,0,1,1.46-2.68c.89-1.18-1-3.33-1.46-2.68C381.8,19.73,381.48,21.31,380.7,21.91Z"/><path class="cls-2" d="M387.27,42.8c0,1.48.6,2.54.89,1.79a13.6,13.6,0,0,1,1.46-2.68c.89-1.18-.88-1.77-1.35-1.11A3.13,3.13,0,0,0,387.27,42.8Z"/><path class="cls-2" d="M366.7,41.91c-1.17.91,1.17,3.43,1.46,2.68a13.6,13.6,0,0,1,1.46-2.68c.89-1.18-1-3.33-1.46-2.68S367.48,41.31,366.7,41.91Z"/><path class="cls-2" d="M385.7,69.91c-1.17.91,1.17,3.43,1.46,2.68a13.6,13.6,0,0,1,1.46-2.68c.89-1.18-1-3.33-1.46-2.68"/><path class="cls-2" d="M321.7,65.91c-1.17.91,1.17,3.43,1.46,2.68a13.6,13.6,0,0,1,1.46-2.68c.89-1.18-1-3.33-1.46-2.68"/></svg>
