<svg xmlns="http://www.w3.org/2000/svg" xmlns:xlink="http://www.w3.org/1999/xlink" width="160" height="160" viewBox="0 0 160 160"><defs><style>.cls-1{filter:url(#AI_BevelShadow_1);}.cls-2{fill:#b05412;}.cls-3{fill:#7c4b2a;}</style><filter id="AI_BevelShadow_1" x="-20" y="-20" width="140" height="140" name="AI_BevelShadow_1"><feGaussianBlur result="blur" stdDeviation="4" in="SourceAlpha"/><feOffset result="offsetBlur" dx="4" dy="4" in="blur"/><feSpecularLighting result="specOut" surfaceScale="5" specularExponent="10" in="blur"><fePointLight x="-5000" y="-10000" z="-20000"/></feSpecularLighting><feComposite result="specOut" operator="in" in="specOut" in2="SourceAlpha"/><feComposite result="litPaint" operator="arithmetic" k2="1" k3="1" in="SourceGraphic" in2="specOut"/><feMerge><feMergeNode in="offsetBlur"/><feMergeNode in="litPaint"/></feMerge></filter></defs><title>Poop Hearth</title><g id="Layer_1" data-name="Layer 1"><g class="cls-1"><path class="cls-2" d="M140.16,43.57a27.1,27.1,0,0,0-3.72-5.27,14.92,14.92,0,0,0,.68-2.9c.55-4.32-5.71-7.79-15-13-4.64-2.6-9.5.54-12.39,5A34.94,34.94,0,0,0,83.29,39.93a.87.87,0,0,1-1.35,0A35,35,0,0,0,61.45,28,16.21,16.21,0,0,0,51.12,24.4a16.38,16.38,0,0,0-9.6,3c-12.43.22-22.4,7.29-22.4,16a12.33,12.33,0,0,0,2.79,7.65,38.38,38.38,0,0,0-1.72,9.27c-3.73,2.42-6.07,6.1-5.07,10.08,4,15.76,6.68,15.1,12.47,13.61a34.69,34.69,0,0,0,5.25,5.38c.77.64,1.52,1.29,2.22,2l25.72,26.36c-.23.54-.46,1.09-.66,1.65-3,8,3.95,13.79,15,13l5.59,5.74a1.33,1.33,0,0,0,1.9,0l33.83-33.83c1.24.63,2.49,1.31,3.72,2.08,7.55,4.77,14.36-1.63,15-13A10.39,10.39,0,0,0,133.93,88C144.91,77.83,149.33,60.68,140.16,43.57Z"/><path class="cls-3" d="M21.91,51.05a38,38,0,0,0-1,3.77C24.1,56.07,39.68,53.6,40,52.59a.14.14,0,0,0,0-.27c-8.34.44-15,.23-18.16-1.36Z"/><path class="cls-3" d="M40.1,27.47c2.56,1.55,6.16,6.42,8,8.93.83.19-.53-6.61-5.62-9.64-.33.21-.66.42-1,.65C41,27.42,40.57,27.44,40.1,27.47Z"/><path class="cls-3" d="M61.45,28c-.29-.24-.6-.46-.91-.68,1,3.44-.28,5.07-1.42,7.09-.28.35,3.22-1.31,3.41-6.18Z"/><path class="cls-3" d="M109.92,27.14l-.19.27c-.66,0-1.31,0-2,.08,2.85,3.5,6.86,5.48,7.35,4.91C115.24,32.51,110.85,29.39,109.92,27.14Z"/><path class="cls-3" d="M84.51,52.34c.92,1.22.57-6.53-.93-12.74l-.29.33a.87.87,0,0,1-1.35,0c-.07-.08-.14-.15-.2-.23A42.13,42.13,0,0,1,84.51,52.34Z"/><path class="cls-3" d="M137.5,39.54c-.34-.42-.69-.84-1.06-1.24l0-.09c-1.82,2-5.95,1.27-10.35.19C124.77,39.82,131,41.67,137.5,39.54Z"/><path class="cls-3" d="M20.36,58.38c-.07.65-.13,1.3-.17,1.94-.32.21-.63.44-.94.67,4.17-.78,10.66,3.78,12.42,5.67a.26.26,0,0,0,.42-.3C30.89,64.37,25.55,60.27,20.36,58.38Z"/><path class="cls-3" d="M59.56,116.51l1.22,1.24a.61.61,0,0,0-.05.12c3.27-1.33,7.24-1.64,9.21-.4.26.16.29-.21.16-.49C69.44,115.52,64.49,115.55,59.56,116.51Z"/><path class="cls-3" d="M113.79,96.88c0-.35-.39-.15-.64.15-1,1.2.43,4.37,2.86,7.69l.39-.4c.87.44,1.74.92,2.6,1.42l0-.12.16,0C116,103.23,113.47,99.56,113.79,96.88Z"/><path class="cls-3" d="M133.93,88l.94-.91c-4-2.08-7.78-3.52-9.32-3.12-6.62,1.7-7.25,3-1.43,1.4,2.64-.73,7.15,1.11,10.35,3.84A10.89,10.89,0,0,0,133.93,88Z"/><path class="cls-3" d="M32.12,78.4c-.3,1.57-6.26,6-6.26,6L27.59,84c.27.35.56.68.84,1C30.89,83.52,32.63,78.56,32.12,78.4Z"/><path class="cls-3" d="M76.08,133.43c2.33-.6,2.84-5.17,2-6,0-1-.88,4.56-3.76,5l.72,0Z"/></g></g></svg>