<svg xmlns="http://www.w3.org/2000/svg" xmlns:xlink="http://www.w3.org/1999/xlink" width="100" height="100" viewBox="0 0 100 100"><defs><style>.cls-1{filter:url(#AI_BevelShadow_1);}.cls-2{fill:#727272;}</style><filter id="AI_BevelShadow_1" x="-20" y="-20" width="140" height="140" name="AI_BevelShadow_1"><feGaussianBlur result="blur" stdDeviation="4" in="SourceAlpha"/><feOffset result="offsetBlur" dx="4" dy="4" in="blur"/><feSpecularLighting result="specOut" surfaceScale="5" specularExponent="10" in="blur"><fePointLight x="-5000" y="-10000" z="-20000"/></feSpecularLighting><feComposite result="specOut" operator="in" in="specOut" in2="SourceAlpha"/><feComposite result="litPaint" operator="arithmetic" k2="1" k3="1" in="SourceGraphic" in2="specOut"/><feMerge><feMergeNode in="offsetBlur"/><feMergeNode in="litPaint"/></feMerge></filter></defs><title>restart</title><g id="Layer_1" data-name="Layer 1"><g class="cls-1"><path class="cls-2" d="M64,38.78,76.3,47.66l8.81-12.4a.9.9,0,0,0-.88-1.41l-3.6.6A35.48,35.48,0,0,0,49.74,17.17c-19.39,0-35.11,14.75-35.11,32.94S30.35,83,49.74,83c14.77,0,27.39-8.55,32.58-20.66a2,2,0,0,0-1.43-2.72l-8.64-1.81a2,2,0,0,0-2.18,1A23,23,0,0,1,49.63,70.83c-12.58,0-22.79-9.57-22.79-21.38S37.05,28.08,49.63,28.08A23.28,23.28,0,0,1,67.8,36.55H68l-3.69.62A.89.89,0,0,0,64,38.78Z"/></g></g></svg>
