<svg xmlns="http://www.w3.org/2000/svg" xmlns:xlink="http://www.w3.org/1999/xlink" width="300" height="400" viewBox="0 0 300 400"><defs><style>.cls-1{isolation:isolate;}.cls-2{filter:url(#AI_BevelShadow_1);}.cls-3{fill:#89532f;}.cls-4{fill:#fcad74;}.cls-5{opacity:0.75;mix-blend-mode:multiply;}.cls-6{fill:#fff;}.cls-7{fill:#f1c91e;}</style><filter id="AI_BevelShadow_1" x="-20" y="-20" width="140" height="140" name="AI_BevelShadow_1"><feGaussianBlur result="blur" stdDeviation="4" in="SourceAlpha"/><feOffset result="offsetBlur" dx="4" dy="4" in="blur"/><feSpecularLighting result="specOut" surfaceScale="5" specularExponent="10" in="blur"><fePointLight x="-5000" y="-10000" z="-20000"/></feSpecularLighting><feComposite result="specOut" operator="in" in="specOut" in2="SourceAlpha"/><feComposite result="litPaint" operator="arithmetic" k2="1" k3="1" in="SourceGraphic" in2="specOut"/><feMerge><feMergeNode in="offsetBlur"/><feMergeNode in="litPaint"/></feMerge></filter></defs><title>Rotte</title><g class="cls-1"><g id="Layer_1" data-name="Layer 1"><g class="cls-2"><path class="cls-3" d="M225.89,83C201,18.4,176.49-12.44,123,40.35a67.58,67.58,0,0,0-49.9,7.33C23.89,76.36,9,160.94,11.18,213.39c-.29,16.3,4.18,38.79,15.78,70.51l62.66,89,16.24-126c8.71-19.14,14.74-35,18.41-48a36.47,36.47,0,0,1,6.88-13.19c26.83-32.75,47.49-85.32,36.94-109.32C162.57,63.83,152.57,53.61,140.31,47c55.29-46,70.1,41.91,82.08,118A75.08,75.08,0,0,0,240,202.76c10.47,12,24.43,24.38,35.64,26.67-.59-2.62-41-35-42.85-89.12C232.12,120.19,232.61,100.41,225.89,83Z"/><path class="cls-4" d="M34.78,264.36,42,246.55c-1.74-16.58-18.9-15.83-34-7.84C13,265.05,21.56,266.47,34.78,264.36Z"/><path class="cls-3" d="M42,246.55a15.53,15.53,0,0,0-3.44-8.8c-6.58-1.39-15.21.81-23.26,5.07,2.13,11.33,4.93,18,8.48,21.85,3.23.66,6.88.34,11-.31Z"/><path class="cls-4" d="M88.34,252.75,73.71,240.26c-6.07-15.53,9.51-22.74,26.59-22.59C108,243.35,101.05,248.54,88.34,252.75Z"/><path class="cls-3" d="M73.32,229c-1.31,3.1-1.34,6.84.39,11.25l14.63,12.49a34.58,34.58,0,0,0,9-4.12c2.18-5,1.91-12.68-1.85-25.19C86.85,223.36,78.59,225.18,73.32,229Z"/><circle cx="90.48" cy="372.17" r="7.54"/><path class="cls-4" d="M215.34,58C211,57.23,202.4,59.25,199,63.34c.38.88.77,1.77,1.15,2.68,2.74-4.27,11.16-7.35,15.35-7.66Z"/><path class="cls-4" d="M211.13,49.39c-3.83-1.11-12.8.73-16.65,4.77q.66,1.16,1.29,2.37c3.38-4.11,11.78-7,15.47-6.94C211.2,49.53,211.17,49.46,211.13,49.39Z"/><path class="cls-4" d="M205.14,38.9c-4.34.19-12.1,3.43-15.6,7.71.54.7,1.07,1.42,1.59,2.17,3-4.34,10.23-8.37,14.26-9.49C205.3,39.16,205.22,39,205.14,38.9Z"/><path class="cls-4" d="M221.16,71.15c-4.39-1.38-13.36-.27-17.79,3.55.36,1,.71,2.11,1.06,3.19,3.81-4.19,12.57-6.51,16.9-6.33Z"/><path class="cls-4" d="M207.55,88.41c.21.79.43,1.58.64,2.38,5-2.78,14.22-4.72,18.7-5-.06-.19-.14-.38-.2-.58C221.74,84.36,211.7,85.17,207.55,88.41Z"/><path class="cls-4" d="M210.05,98.17c.2.81.39,1.63.58,2.45,5.25-2.81,14.71-4.73,18.92-4.89l-.09-.44C224.86,94.28,214.55,95,210.05,98.17Z"/><path class="cls-4" d="M213.5,113.74c.17.87.35,1.74.52,2.62,4.68-3.82,13.07-5.29,17.68-4.49,0-.18,0-.36,0-.54C226.65,109.45,217.61,109.89,213.5,113.74Z"/><path class="cls-4" d="M216.45,129.13c.16.93.33,1.86.49,2.79,4.86-3.59,12-5.52,15.49-4.86v-.22C228.6,125.37,221.23,126.24,216.45,129.13Z"/><path class="cls-4" d="M232.91,142.69c0-.13,0-.27,0-.41-3.67-.92-9.5-.21-13.83,2,.14.89.29,1.78.44,2.66C223.84,144.1,229.47,142.51,232.91,142.69Z"/><path class="cls-4" d="M234.55,156.51c0-.09,0-.18-.05-.26-3.38-.68-8.83.53-13,3l.42,2.66C226,158.62,231.41,156.47,234.55,156.51Z"/><path class="cls-4" d="M194.7,25.27c-4.25,1.33-12,6.88-14,12.84h0c.75.49,1.49,1,2.21,1.6h0c1.38-5.7,8.29-11.94,12-14.27Z"/><path class="cls-4" d="M182.16,16.11c-6,2.1-13.33,10.12-14.62,17.41,0,0,0,.35-.08.74a22.88,22.88,0,0,1,2.89.12c1-6.82,7.23-15,12.49-17.94C182.61,16.33,182.39,16.21,182.16,16.11Z"/><path class="cls-4" d="M161,35.18c-1.24-6.07-1.68-15.09.14-20.43l-1.24.34c-2.48,5.37-2.79,14.65-1.67,21C159.19,35.71,160.11,35.42,161,35.18Z"/><path class="cls-4" d="M144.51,22.54c-.41.26-.81.53-1.22.81.31,5.44,2.84,12.43,5.66,17.3.82-.52,1.64-1,2.45-1.46C148.47,34.58,145.36,27.82,144.51,22.54Z"/><path class="cls-4" d="M131.92,32.11c1.63,4.79,5.4,10.35,9.1,14.26.75-.61,1.49-1.2,2.22-1.76-3.81-3.61-8.1-8.84-10.25-13.42Z"/><image class="cls-5" width="28" height="33" transform="translate(74 265)" xlink:href="Rotte1.png"/><path class="cls-6" d="M79.57,292.66a11.36,11.36,0,0,1-3.32-1,1.54,1.54,0,0,1-.87-1.45,13.78,13.78,0,0,1,.34-2.85c2.48-9.69,18.39-20.67,18.39-20.67a11.49,11.49,0,0,1,.7,1.55c.9,2.87,2,5.67,1.45,9C94.8,286.93,87.32,293.84,79.57,292.66Z"/><path class="cls-7" d="M94.52,276.24a9.28,9.28,0,0,1,1.24,3.39h0q-.11.42-.24.84h0c-.08.28-.17.55-.27.82h0l-.3.79h0l-.33.77h0c-.12.25-.23.5-.36.74v0c-.12.24-.25.48-.38.72h0c-.13.24-.26.47-.4.7v0c-.14.22-.28.45-.42.66v0l-.45.65h0c-.16.21-.31.42-.47.62h0l-.5.6h0c-.17.2-.34.39-.52.57h0c-.17.19-.35.37-.53.54h0l-.55.52h0a14.91,14.91,0,0,1-1.17.93h0a9.39,9.39,0,0,1-11.43-6.82c2.42-4.28,6.64-8.49,10.25-11.62A9.39,9.39,0,0,1,94.52,276.24Z"/><path d="M79.21,280.6c1.22,1.71,2.46,3.31,3.68,4.73l1.36,1.57h0a57.92,57.92,0,0,0-3.68-8C80.1,279.43,79.64,280,79.21,280.6Z"/><image class="cls-5" width="33" height="28" transform="translate(29 275)" xlink:href="Rotte2.png"/><path class="cls-6" d="M57.21,296.16A11.48,11.48,0,0,0,60,294.05a1.56,1.56,0,0,0,.31-1.67,13.62,13.62,0,0,0-1.3-2.55c-5.68-8.24-24.39-13.05-24.39-13.05a11.49,11.49,0,0,0-.12,1.7c.14,3,.11,6,1.75,9C40.94,296,50.34,299.94,57.21,296.16Z"/><path class="cls-7" d="M37.51,285.91a9.58,9.58,0,0,0,0,3.62h0c.17.24.34.47.52.7h0l.54.68h0c.18.22.37.43.56.64h0l.57.61h0l.59.58h0l.6.54h0l.61.52h0l.63.48h0c.21.16.43.31.65.45h0l.66.42h0l.67.39h0c.22.13.45.25.68.36h0l.69.33h0l.7.29h0c.48.18,1,.34,1.43.47h0a9.4,9.4,0,0,0,8.37-10.35c-3.75-3.18-9.17-5.68-13.63-7.37A9.39,9.39,0,0,0,37.51,285.91Z"/><path d="M53.38,284.72c-.55,2-1.16,3.95-1.82,5.7l-.73,1.95h0a58.29,58.29,0,0,1,.67-8.82C52.15,283.93,52.77,284.32,53.38,284.72Z"/></g></g></g></svg>
