<svg xmlns="http://www.w3.org/2000/svg" xmlns:xlink="http://www.w3.org/1999/xlink" width="530" height="320" viewBox="0 0 530 320"><defs><style>.cls-1{fill:url(#New_Gradient_Swatch_1);}</style><linearGradient id="New_Gradient_Swatch_1" x1="6.27" y1="150.49" x2="495.71" y2="150.49" gradientUnits="userSpaceOnUse"><stop offset="0" stop-color="#76f1fc"/><stop offset="0.18" stop-color="#69e8f3"/><stop offset="0.51" stop-color="#48cfdb"/><stop offset="0.94" stop-color="#13a8b5"/><stop offset="1" stop-color="#0ba2b0"/></linearGradient></defs><title>settingsMenu</title><g id="Layer_1" data-name="Layer 1"><rect x="2.27" y="3.78" width="497" height="292.89"/><rect class="cls-1" x="6.27" y="7.99" width="489.44" height="285"/><path d="M85.79,75.94c-.7.31-1.35.57-1.94.79s-1.14.4-1.64.54a13.48,13.48,0,0,1-1.43.32,9.3,9.3,0,0,1-1.27.1,3.2,3.2,0,0,1-1.46-.32,2.53,2.53,0,0,1-1-1,5.59,5.59,0,0,1-.62-1.89,16.83,16.83,0,0,1-.21-2.9V70.26c0-.6,0-1.31,0-2.1s0-1.64,0-2.54,0-1.8,0-2.73,0-1.82.05-2.69,0-1.67.06-2.42,0-1.39.05-1.92c0-1.14.11-2.28.17-3.42s.15-2.25.26-3.35l-.12,0q-.24.66-.6,1.5c-.23.56-.53,1.24-.89,2-.86,1.89-1.74,3.86-2.63,5.89s-1.8,4.1-2.71,6.22S68.05,69,67.12,71.12s-1.85,4.34-2.77,6.51l-.72,0c-.2-.66-.45-1.45-.75-2.35s-.61-1.88-1-2.93S61.19,70.16,60.8,69s-.8-2.34-1.21-3.54-.83-2.39-1.24-3.58-.82-2.34-1.2-3.44-.75-2.15-1.1-3.12l-.93-2.6c-.31-.89-.58-1.67-.81-2.36s-.43-1.29-.6-1.81l-.1,0c0,.29,0,.58,0,.87s0,.6,0,.93V52.8c0,1.55,0,3.14-.08,4.75s-.11,3.21-.19,4.78-.17,3.08-.28,4.55-.22,2.81-.33,4.05c-.1,1-.19,1.9-.27,2.62s-.18,1.32-.28,1.81a4.28,4.28,0,0,1-.38,1.15,1.72,1.72,0,0,1-.54.64,1.81,1.81,0,0,1-.81.27,9.34,9.34,0,0,1-1.14.06h-.76l-.47,0-.2-.14a22.79,22.79,0,0,0,1.22-3.17c.36-1.17.67-2.41.94-3.72s.5-2.66.7-4.06.35-2.8.49-4.2.23-2.77.32-4.13.14-2.65.18-3.87.07-2.35.08-3.38,0-1.94,0-2.71a6,6,0,0,0-.1-1.23,1.67,1.67,0,0,0-.36-.77,1.38,1.38,0,0,0-.7-.4,5.14,5.14,0,0,0-1.15-.11c-.32,0-.69,0-1.11.07s-.89.1-1.4.18l-.16-1.29c1.79-.41,3.26-.71,4.41-.91a17,17,0,0,1,2.76-.3,3.9,3.9,0,0,1,.9.09,1.69,1.69,0,0,1,.67.33,2.18,2.18,0,0,1,.51.6,7,7,0,0,1,.42.93q.78,2.16,1.64,4.61l1.77,5,1.8,5.1c.6,1.7,1.18,3.36,1.73,5l.6,1.73c.18.53.34,1,.5,1.46s.29.86.42,1.27.26.81.37,1.21h.11c.15-.42.31-.83.48-1.24s.34-.82.53-1.26.39-.9.61-1.4.46-1.06.74-1.68q1-2.35,2.13-4.87c.73-1.68,1.49-3.39,2.27-5.15s1.56-3.54,2.36-5.35S76.21,46,77,44.22a1.39,1.39,0,0,1,.36-.49,2.29,2.29,0,0,1,.5-.3,2.73,2.73,0,0,1,.56-.15,3.74,3.74,0,0,1,.54-.05,4.52,4.52,0,0,1,.93.11,5.61,5.61,0,0,1,1,.32c-.15,1.6-.28,3.13-.39,4.6s-.21,2.89-.29,4.28-.14,2.75-.2,4.11-.1,2.71-.13,4.09-.06,2.78-.07,4.22,0,2.93,0,4.5a22.41,22.41,0,0,0,.13,2.65,5.88,5.88,0,0,0,.46,1.79,2.25,2.25,0,0,0,.89,1,2.77,2.77,0,0,0,1.39.32h.59a4.43,4.43,0,0,0,.6-.07,5.7,5.7,0,0,0,.68-.15l.85-.27Z"/><path d="M92.75,58.69q0,1-.06,2.13c0,.76-.1,1.53-.17,2.31s-.13,1.56-.2,2.33-.14,1.51-.21,2.21S92,69,92,69.58s-.06,1.07-.06,1.46a4,4,0,0,0,.66,2.55,2.17,2.17,0,0,0,1.76.8,3.64,3.64,0,0,0,2.54-1.34,14,14,0,0,0,2.49-3.92,34.35,34.35,0,0,0,2-5.79,36.83,36.83,0,0,0,1.06-6.94l3.11-.38.23,0c-.08.93-.16,1.91-.24,3s-.14,2.08-.19,3.12-.11,2.06-.14,3,0,1.92,0,2.76a21.84,21.84,0,0,0,.28,3.9,8.63,8.63,0,0,0,.72,2.39,2.74,2.74,0,0,0,1,1.2,2.2,2.2,0,0,0,1.13.33,2.52,2.52,0,0,0,.67-.09,5,5,0,0,0,.62-.21,3.4,3.4,0,0,0,.54-.27l.42-.27.48.68a7.27,7.27,0,0,1-1,.83,8.11,8.11,0,0,1-1.14.67,6.74,6.74,0,0,1-1.26.45,6,6,0,0,1-1.33.16,4.1,4.1,0,0,1-1.65-.34,3.49,3.49,0,0,1-1.41-1.13,5.92,5.92,0,0,1-1-2.11,12.16,12.16,0,0,1-.38-3.28c0-.42,0-.84,0-1.27s0-.89.09-1.36.09-1,.15-1.55.14-1.16.23-1.82l-.16,0A37.73,37.73,0,0,1,100.07,71a20.09,20.09,0,0,1-2.39,4,8.12,8.12,0,0,1-2.45,2.17,5,5,0,0,1-2.35.66,4.58,4.58,0,0,1-1.6-.29,3.48,3.48,0,0,1-1.37-.94,4.72,4.72,0,0,1-1-1.72,8.33,8.33,0,0,1-.36-2.64c0-.68,0-1.47.12-2.38S88.87,68,89,67s.17-2.08.25-3.17.12-2.16.12-3.23c0-.43,0-.8,0-1.11a2.34,2.34,0,0,0-.2-.78.94.94,0,0,0-.43-.45,1.69,1.69,0,0,0-.78-.15,7.38,7.38,0,0,0-1.3.15c-.53.1-1.09.23-1.67.4l-.22-1.06c.8-.28,1.54-.53,2.23-.74s1.3-.38,1.84-.52,1-.24,1.38-.31a6.32,6.32,0,0,1,.83-.1,1.69,1.69,0,0,1,.86.19,1.41,1.41,0,0,1,.55.56,2.68,2.68,0,0,1,.28.88A8.06,8.06,0,0,1,92.75,58.69Z"/><path d="M113.82,71.74a4.32,4.32,0,0,0,1.8,3.24,5.3,5.3,0,0,0,1.59.76,6.14,6.14,0,0,0,1.73.25,5.4,5.4,0,0,0,1.56-.22,4.55,4.55,0,0,0,1.31-.63,3.06,3.06,0,0,0,.92-1,2.66,2.66,0,0,0,.34-1.35,2.53,2.53,0,0,0-.36-1.36,4.27,4.27,0,0,0-1-1.07,8.52,8.52,0,0,0-1.43-.89c-.54-.28-1.11-.56-1.69-.84l-1.56-.74c-.53-.25-1-.52-1.52-.81a13.83,13.83,0,0,1-1.37-.95A6.63,6.63,0,0,1,113.05,65a4.9,4.9,0,0,1-.75-1.39,5.11,5.11,0,0,1-.27-1.71,4.93,4.93,0,0,1,.35-1.86,5.55,5.55,0,0,1,1-1.53,6.79,6.79,0,0,1,1.41-1.19,9.35,9.35,0,0,1,1.7-.86,10.15,10.15,0,0,1,1.87-.51,11,11,0,0,1,1.87-.17,8.89,8.89,0,0,1,2.22.26,6.32,6.32,0,0,1,1.83.74,4,4,0,0,1,1.24,1.2,2.8,2.8,0,0,1,.47,1.58,2.52,2.52,0,0,1-.12.73,2.14,2.14,0,0,1-.4.74,2.26,2.26,0,0,1-.73.58,2.46,2.46,0,0,1-1.11.25,5,5,0,0,1-1.29-.19l0-.15a4.68,4.68,0,0,0,.3-.86,3.39,3.39,0,0,0,.09-.74,2,2,0,0,0-.35-1.13,2.49,2.49,0,0,0-.83-.75,3.66,3.66,0,0,0-1.1-.43,5.58,5.58,0,0,0-1.2-.13,5.68,5.68,0,0,0-1.86.28,4.22,4.22,0,0,0-1.38.74,3,3,0,0,0-.86,1,2.59,2.59,0,0,0,.12,2.66,4.62,4.62,0,0,0,1.13,1.17,10,10,0,0,0,1.62,1l1.91.94c.74.35,1.48.71,2.21,1.09a10.2,10.2,0,0,1,2,1.28,6.09,6.09,0,0,1,1.4,1.65,4.28,4.28,0,0,1,.54,2.19,5.38,5.38,0,0,1-.67,2.68,6.21,6.21,0,0,1-1.78,2,8.21,8.21,0,0,1-2.56,1.23,10.64,10.64,0,0,1-3,.42,11.22,11.22,0,0,1-1.61-.12,12,12,0,0,1-1.6-.35,9.57,9.57,0,0,1-1.47-.58,6.11,6.11,0,0,1-1.22-.79,3.5,3.5,0,0,1-.82-1,2.49,2.49,0,0,1-.3-1.21,1.8,1.8,0,0,1,.24-1,2,2,0,0,1,.64-.65,2.83,2.83,0,0,1,.89-.37,4.16,4.16,0,0,1,1-.14Z"/><path d="M134.81,56.42c-.17,1.11-.31,2.23-.43,3.35s-.21,2.2-.28,3.24-.13,2-.16,3-.05,1.77-.05,2.52c0,1,0,1.89,0,2.62s.08,1.34.15,1.84a6.24,6.24,0,0,0,.25,1.19,1.86,1.86,0,0,0,.38.69,1.07,1.07,0,0,0,.53.31,2.82,2.82,0,0,0,.68.08,5.75,5.75,0,0,0,1.52-.22,9.65,9.65,0,0,0,1.65-.59l.27.76a9.15,9.15,0,0,1-1.32.87,16.28,16.28,0,0,1-1.68.8,14.74,14.74,0,0,1-1.72.6,5.75,5.75,0,0,1-1.46.22,4.38,4.38,0,0,1-.75-.06,1.28,1.28,0,0,1-.6-.33,2.38,2.38,0,0,1-.49-.78,6.18,6.18,0,0,1-.35-1.39c-.09-.59-.16-1.32-.21-2.2s-.07-1.94-.07-3.19c0-.73,0-1.56,0-2.48s0-1.92.06-3,.07-2.18.12-3.35.11-2.39.19-3.64a1.21,1.21,0,0,1,.22-.67,1.26,1.26,0,0,1,.47-.39,1.77,1.77,0,0,1,.59-.19A3.17,3.17,0,0,1,133,56,4,4,0,0,1,134.81,56.42Zm-1.28-6.62a1.77,1.77,0,0,1-.9-.22A2.14,2.14,0,0,1,132,49a2.4,2.4,0,0,1-.42-.79,2.91,2.91,0,0,1-.15-.92,2.79,2.79,0,0,1,.22-1.16,2.75,2.75,0,0,1,.57-.85,2.48,2.48,0,0,1,.78-.52,2.26,2.26,0,0,1,.83-.16,2.19,2.19,0,0,1,.9.18,2.1,2.1,0,0,1,.68.5,2.64,2.64,0,0,1,.44.74A2.67,2.67,0,0,1,136,47a3,3,0,0,1-.18,1,3,3,0,0,1-.49.92,2.54,2.54,0,0,1-.76.66A2.08,2.08,0,0,1,133.53,49.8Z"/><path d="M152.74,62a3.59,3.59,0,0,0,.41-1.64,2.91,2.91,0,0,0-.2-1.07,2.56,2.56,0,0,0-.59-.9,3.07,3.07,0,0,0-1-.61,3.93,3.93,0,0,0-1.39-.23,5.17,5.17,0,0,0-2,.4,5.22,5.22,0,0,0-1.6,1.11,6.77,6.77,0,0,0-1.19,1.63,10.41,10.41,0,0,0-.8,2,13.4,13.4,0,0,0-.46,2.16,16.16,16.16,0,0,0-.15,2.17,11.24,11.24,0,0,0,.49,3.43A8.61,8.61,0,0,0,145.55,73a6.09,6.09,0,0,0,1.94,1.69,5,5,0,0,0,2.38.6,5.84,5.84,0,0,0,2.7-.7,8.65,8.65,0,0,0,2.66-2.24,1.72,1.72,0,0,1,.22.12,1.2,1.2,0,0,1,.26.18,2.08,2.08,0,0,1,.21.21.34.34,0,0,1,.08.19s0,.06,0,.07l0,.06a9.77,9.77,0,0,1-3.41,3.44,8.67,8.67,0,0,1-4.37,1.15,7.46,7.46,0,0,1-2.37-.36,7.25,7.25,0,0,1-2-1,7.16,7.16,0,0,1-1.55-1.51,8.93,8.93,0,0,1-1.11-1.89,10.27,10.27,0,0,1-.68-2.14,11.39,11.39,0,0,1-.22-2.26,14.66,14.66,0,0,1,.33-3.08,15.33,15.33,0,0,1,1-3,14.47,14.47,0,0,1,1.58-2.66,11.38,11.38,0,0,1,2.11-2.16,9.56,9.56,0,0,1,2.6-1.43,8.71,8.71,0,0,1,3-.52,8.48,8.48,0,0,1,2.24.29,5.8,5.8,0,0,1,1.79.83,4,4,0,0,1,1.19,1.29,3.27,3.27,0,0,1,.43,1.67,2.93,2.93,0,0,1-.18,1.07,2.52,2.52,0,0,1-.52.79,2.14,2.14,0,0,1-.77.5,2.8,2.8,0,0,1-1,.16,3.85,3.85,0,0,1-.66-.06,4.11,4.11,0,0,1-.68-.21Z"/><path d="M52.18,188.43a5.26,5.26,0,0,0-.09-1.05,1.48,1.48,0,0,0-.35-.71,1.54,1.54,0,0,0-.71-.4,4.81,4.81,0,0,0-1.18-.12,10.16,10.16,0,0,0-1.05,0c-.39,0-.84.08-1.33.14L47.31,185c.95-.15,1.84-.28,2.66-.39s1.59-.21,2.31-.3,1.39-.14,2-.18,1.22-.06,1.77-.06c1.55,0,3,0,4.39,0l3.68-.08,2.63-.07,1.27,0a1.54,1.54,0,0,1,1,.32,1.25,1.25,0,0,1,.35,1c0,.18,0,.52,0,1s-.08,1.09-.13,1.75-.11,1.35-.18,2.09-.14,1.41-.22,2l-1.41,0c0-.37,0-.72,0-1s0-.62,0-.91a10.87,10.87,0,0,0-.15-2,2.38,2.38,0,0,0-.53-1.2,1.89,1.89,0,0,0-1.06-.6,7.88,7.88,0,0,0-1.72-.18l-2.55,0h-4l-1.4,0c0,.81,0,1.72-.06,2.72s0,2.07-.08,3.22-.06,2.35-.1,3.61-.07,2.58-.11,3.93c1.26.06,2.38.1,3.36.13l2.71,0c1,0,1.9,0,2.67-.09s1.51-.17,2.21-.3a3.55,3.55,0,0,1,.23,1.15,1,1,0,0,1-.26.72,1.87,1.87,0,0,1-.75.48,4.84,4.84,0,0,1-1.17.26,12.06,12.06,0,0,1-1.54.08c-1,0-2.15,0-3.42-.17s-2.64-.25-4.1-.41c0,.56,0,1.24-.07,2s-.06,1.64-.1,2.54-.09,1.82-.14,2.76-.11,1.85-.16,2.71-.11,1.66-.18,2.38-.13,1.3-.19,1.76c.94-.14,1.87-.24,2.76-.3s1.72-.1,2.45-.1c1,0,2,0,2.88.08s1.78.09,2.66.09a4.52,4.52,0,0,0,1.54-.25,2.61,2.61,0,0,0,1.17-.86,5.26,5.26,0,0,0,.83-1.68,15.25,15.25,0,0,0,.51-2.68l1.32.07a23.84,23.84,0,0,1-.35,4.06,7.61,7.61,0,0,1-.86,2.52,3,3,0,0,1-1.34,1.28,4.22,4.22,0,0,1-1.78.36,12.68,12.68,0,0,1-1.75-.14l-2.08-.33q-1.12-.19-2.43-.33a25.07,25.07,0,0,0-2.83-.15,29,29,0,0,0-2.93.17,26.64,26.64,0,0,0-3.29.56L51,218c.14-1,.27-2.15.38-3.54s.22-2.9.3-4.55.17-3.38.22-5.21.11-3.67.15-5.53.07-3.7.08-5.52S52.18,190.06,52.18,188.43Z"/><path d="M76.48,197.41q.06-1.33.15-2.55c.06-.82.14-1.62.24-2.41s.21-1.59.35-2.38.32-1.61.52-2.46a14.33,14.33,0,0,1,1.69-4.23,11.55,11.55,0,0,1,2.47-2.88,9.06,9.06,0,0,1,2.88-1.63,9.3,9.3,0,0,1,3-.52,8.43,8.43,0,0,1,2,.22,6.39,6.39,0,0,1,1.56.58,5.24,5.24,0,0,1,1.17.87,4.25,4.25,0,0,1,.77,1.07,9.61,9.61,0,0,1,3.4-2.53,8.9,8.9,0,0,1,1.83-.6,8.61,8.61,0,0,1,1.8-.19,7.88,7.88,0,0,1,2.53.37,6.35,6.35,0,0,1,1.87,1,4.53,4.53,0,0,1,1.17,1.37,3.31,3.31,0,0,1,.41,1.56,2.86,2.86,0,0,1-.2,1.09,2.26,2.26,0,0,1-.54.82,2.3,2.3,0,0,1-.8.5,2.61,2.61,0,0,1-1,.18,3.38,3.38,0,0,1-1.42-.34l-.06-.16a8.69,8.69,0,0,0,.42-1.13,3.64,3.64,0,0,0,.14-1,2.41,2.41,0,0,0-.29-1.21,2.57,2.57,0,0,0-.74-.83,3.33,3.33,0,0,0-1-.47,4.35,4.35,0,0,0-1.12-.14,5.4,5.4,0,0,0-2,.35,4.62,4.62,0,0,0-1.53,1,5.74,5.74,0,0,0-1.1,1.43,9.71,9.71,0,0,0-.75,1.74,13,13,0,0,0-.5,1.91c-.13.66-.24,1.3-.32,1.93-.12.85-.22,1.65-.3,2.41s-.16,1.53-.23,2.3-.11,1.58-.15,2.41-.07,1.76-.1,2.76c.51,0,1,0,1.49,0h1.38c.86,0,1.62,0,2.29-.05a16.92,16.92,0,0,0,1.72-.17,2.08,2.08,0,0,1,.18.79.79.79,0,0,1-.21.58,1.37,1.37,0,0,1-.6.33,5,5,0,0,1-1,.15c-.41,0-.9,0-1.45,0l-1.72,0-2.12-.07c0,1.14-.09,2.38-.15,3.73s-.15,2.73-.25,4.16-.22,2.88-.36,4.34-.32,2.9-.53,4.29-.44,2.73-.71,4a30.63,30.63,0,0,1-.93,3.46,19.12,19.12,0,0,1-1.9,4.09,11.82,11.82,0,0,1-2.24,2.61A7.27,7.27,0,0,1,83,231.27a8.37,8.37,0,0,1-2.55.4,7.15,7.15,0,0,1-2-.25,5.26,5.26,0,0,1-1.47-.66,3.11,3.11,0,0,1-.9-.91,2,2,0,0,1-.3-1,1.6,1.6,0,0,1,.46-1.12A2.75,2.75,0,0,1,77.7,227a6,6,0,0,0,.87,1.19,4.1,4.1,0,0,0,1,.77,3.57,3.57,0,0,0,1.08.42,5.81,5.81,0,0,0,1.2.13,4.12,4.12,0,0,0,2.84-1.06,8,8,0,0,0,1.93-3,23.06,23.06,0,0,0,1.21-4.69q.43-2.75.66-6.13c.16-2.26.25-4.7.3-7.32s.07-5.37.09-8.24L85.32,199c-1.18,0-2.35,0-3.49,0h-1.3l-.43,0c0,1.16-.09,2.42-.14,3.79s-.14,2.78-.23,4.25-.21,3-.34,4.45-.31,3-.51,4.41-.44,2.81-.71,4.12a30.92,30.92,0,0,1-1,3.56,19.7,19.7,0,0,1-2,4.18A11.59,11.59,0,0,1,73,230.39a7.76,7.76,0,0,1-2.53,1.45,8.33,8.33,0,0,1-2.62.44,8.67,8.67,0,0,1-2.09-.25,6.27,6.27,0,0,1-1.66-.68,3.54,3.54,0,0,1-1.1-1,2,2,0,0,1-.41-1.19,1.64,1.64,0,0,1,.17-.7,1.73,1.73,0,0,1,.44-.6,2.49,2.49,0,0,1,.68-.44,2.13,2.13,0,0,1,.84-.16,6.13,6.13,0,0,0,.94,1.29,5,5,0,0,0,1.09.88,4.79,4.79,0,0,0,1.22.51,5.46,5.46,0,0,0,1.27.16A4.11,4.11,0,0,0,72.07,229a8.59,8.59,0,0,0,2-3.09,23.13,23.13,0,0,0,1.25-4.83c.3-1.89.53-4,.69-6.29s.27-4.81.33-7.49.09-5.49.11-8.43c-.92.05-1.77.11-2.54.17a7.14,7.14,0,0,0-2,.39.67.67,0,0,1-.06-.28.92.92,0,0,1,.33-.66,2.83,2.83,0,0,1,.94-.53,8.29,8.29,0,0,1,1.46-.38A14.37,14.37,0,0,1,76.48,197.41ZM90.17,187.3c.09-.43.21-.85.33-1.24s.26-.77.4-1.14a5.07,5.07,0,0,1-1-.18l-.06-.16c.09-.21.17-.41.23-.57s.11-.33.15-.48.06-.31.08-.46a3.48,3.48,0,0,0,0-.47,2.43,2.43,0,0,0-.29-1.21,2.54,2.54,0,0,0-.74-.82,3.12,3.12,0,0,0-1-.47,4.37,4.37,0,0,0-1.12-.15,5.5,5.5,0,0,0-2,.35,4.61,4.61,0,0,0-1.52.93,5.63,5.63,0,0,0-1.09,1.37,9.5,9.5,0,0,0-.74,1.69,13.56,13.56,0,0,0-.49,1.85c-.13.64-.24,1.26-.33,1.87-.11.83-.21,1.61-.3,2.35s-.15,1.47-.22,2.21-.11,1.49-.15,2.27-.07,1.62-.1,2.53l.45,0H82c1.18,0,2.35,0,3.52,0s2.31.06,3.44.1c0-1,.08-1.85.14-2.7s.14-1.68.24-2.5.21-1.63.36-2.44S90,188.18,90.17,187.3Z"/><path d="M113.75,213l.23.12.25.18a1.34,1.34,0,0,1,.21.2.37.37,0,0,1,.09.22.21.21,0,0,1,0,.11,11.8,11.8,0,0,1-1.76,2,10.9,10.9,0,0,1-2,1.4,8.56,8.56,0,0,1-2.08.84,8.31,8.31,0,0,1-2.08.27,7.21,7.21,0,0,1-3.22-.72,7.66,7.66,0,0,1-2.52-2,9.36,9.36,0,0,1-1.65-2.92,10.87,10.87,0,0,1-.59-3.6A14.49,14.49,0,0,1,99,206a14.2,14.2,0,0,1,1-3,13.4,13.4,0,0,1,1.59-2.65,11,11,0,0,1,2.13-2.12,9.74,9.74,0,0,1,2.62-1.41,8.84,8.84,0,0,1,3.07-.52,7.1,7.1,0,0,1,2.07.3,5.41,5.41,0,0,1,1.72.84,4.25,4.25,0,0,1,1.18,1.35,4,4,0,0,1-.54,4.44,7.76,7.76,0,0,1-2.69,1.89,18.43,18.43,0,0,1-4,1.25,42.13,42.13,0,0,1-5,.71v.25a11.56,11.56,0,0,0,.48,3.43,8.27,8.27,0,0,0,1.31,2.66,6,6,0,0,0,2,1.72,5,5,0,0,0,2.43.62,6.36,6.36,0,0,0,2.7-.65A10.07,10.07,0,0,0,113.75,213ZM111,201.24a3.48,3.48,0,0,0-.23-1.26,3,3,0,0,0-.63-1A2.94,2.94,0,0,0,108,198a4.37,4.37,0,0,0-1.73.33,4.81,4.81,0,0,0-1.39.92,6.93,6.93,0,0,0-1.09,1.35,9.83,9.83,0,0,0-.79,1.63,13.88,13.88,0,0,0-.54,1.77,16.88,16.88,0,0,0-.29,1.78,26.5,26.5,0,0,0,3.73-.51,12.39,12.39,0,0,0,2.78-.92A4.92,4.92,0,0,0,110.4,203,2.86,2.86,0,0,0,111,201.24Z"/><path d="M129.56,202.49a3.59,3.59,0,0,0,.41-1.64,3,3,0,0,0-.2-1.07,2.56,2.56,0,0,0-.59-.9,3.07,3.07,0,0,0-1-.61,3.93,3.93,0,0,0-1.39-.23,5,5,0,0,0-3.65,1.51,6.77,6.77,0,0,0-1.19,1.63,9.79,9.79,0,0,0-.8,2,13.43,13.43,0,0,0-.47,2.16,18,18,0,0,0-.14,2.17,11.19,11.19,0,0,0,.49,3.43,8.59,8.59,0,0,0,1.32,2.64,6.11,6.11,0,0,0,2,1.69,4.94,4.94,0,0,0,2.37.6,5.91,5.91,0,0,0,2.71-.7,8.65,8.65,0,0,0,2.66-2.24l.22.12a1.2,1.2,0,0,1,.26.18,1.29,1.29,0,0,1,.2.21.3.3,0,0,1,.09.19s0,.06,0,.07l0,.06a9.85,9.85,0,0,1-3.41,3.44,8.67,8.67,0,0,1-4.37,1.15,7.46,7.46,0,0,1-2.37-.36,7.17,7.17,0,0,1-3.51-2.51,8.53,8.53,0,0,1-1.11-1.89,10.27,10.27,0,0,1-.68-2.14,11.4,11.4,0,0,1-.23-2.26,14.68,14.68,0,0,1,.34-3.08,15.33,15.33,0,0,1,1-3,13.93,13.93,0,0,1,1.58-2.66,11.38,11.38,0,0,1,2.11-2.16,9.68,9.68,0,0,1,2.6-1.43,8.69,8.69,0,0,1,3-.52,8.5,8.5,0,0,1,2.25.29,5.8,5.8,0,0,1,1.79.83,4.16,4.16,0,0,1,1.19,1.29,3.38,3.38,0,0,1,.43,1.67,2.93,2.93,0,0,1-.18,1.07,2.41,2.41,0,0,1-.52.79,2.33,2.33,0,0,1-.77.5,2.84,2.84,0,0,1-1,.16,3.77,3.77,0,0,1-.66-.06,4.54,4.54,0,0,1-.69-.21Z"/><path d="M143.28,185.87q-.61,2.77-1,5.75t-.71,5.85l1.34,0,1.22,0,1,0h.77a12.72,12.72,0,0,0,2.18-.16q.08.24.12.45a1.82,1.82,0,0,1,0,.38.81.81,0,0,1-.53.84,5.07,5.07,0,0,1-1.55.19q-1,0-2.16-.12c-.79-.08-1.67-.15-2.61-.22-.11,1.05-.2,2.06-.27,3.05s-.14,1.93-.18,2.81-.08,1.69-.09,2.45,0,1.4,0,2A21.38,21.38,0,0,0,141,212a6.48,6.48,0,0,0,.57,2.08,3.06,3.06,0,0,0,1.13,1.32,3.33,3.33,0,0,0,1.81.45,6.34,6.34,0,0,0,1.77-.28,13,13,0,0,0,2.22-.89,1.54,1.54,0,0,1,.45,1,19.28,19.28,0,0,1-1.83,1.1c-.62.32-1.22.6-1.82.84a13,13,0,0,1-1.72.54,7,7,0,0,1-1.59.19,4.37,4.37,0,0,1-1.79-.36,3.32,3.32,0,0,1-1.41-1.27,7.56,7.56,0,0,1-.92-2.47,19.4,19.4,0,0,1-.33-3.93c0-.89,0-1.8,0-2.74s.07-1.9.12-2.87.11-1.93.19-2.9.17-1.92.27-2.85c-.78,0-1.49,0-2.15.09a11,11,0,0,0-1.69.26.46.46,0,0,1,0-.21.81.81,0,0,1,.3-.58,3,3,0,0,1,.84-.49,6.62,6.62,0,0,1,1.28-.36,12.84,12.84,0,0,1,1.64-.21c.23-2,.46-4,.72-5.78s.51-3.44.76-4.87a1.51,1.51,0,0,1,.27-.63,1.54,1.54,0,0,1,.46-.39,2,2,0,0,1,.57-.21,3.21,3.21,0,0,1,.6-.06,3.36,3.36,0,0,1,.88.11A2.65,2.65,0,0,1,143.28,185.87Z"/><path d="M152.42,212.25a4.43,4.43,0,0,0,.6,1.92,4.36,4.36,0,0,0,1.2,1.32,5.3,5.3,0,0,0,1.59.76,6.15,6.15,0,0,0,1.74.25,5.33,5.33,0,0,0,1.55-.22,4.48,4.48,0,0,0,1.32-.63,3.17,3.17,0,0,0,.92-1,2.76,2.76,0,0,0,.34-1.35,2.45,2.45,0,0,0-.37-1.36,4.09,4.09,0,0,0-1-1.07,8.13,8.13,0,0,0-1.43-.89c-.54-.28-1.1-.56-1.69-.84l-1.56-.74c-.52-.25-1-.52-1.51-.81a11.45,11.45,0,0,1-1.37-1,6.7,6.7,0,0,1-1.12-1.14,5.14,5.14,0,0,1-.74-1.39,4.87,4.87,0,0,1-.27-1.71,4.74,4.74,0,0,1,.35-1.86,5.2,5.2,0,0,1,1-1.53,6.73,6.73,0,0,1,1.4-1.19,9.12,9.12,0,0,1,1.71-.86,9.94,9.94,0,0,1,1.87-.51,11,11,0,0,1,1.86-.17,8.83,8.83,0,0,1,2.22.26,6.32,6.32,0,0,1,1.83.74,4,4,0,0,1,1.25,1.2,2.79,2.79,0,0,1,.46,1.58,2.52,2.52,0,0,1-.12.73,2.12,2.12,0,0,1-.39.74,2.37,2.37,0,0,1-.73.58,2.54,2.54,0,0,1-1.12.25,4.63,4.63,0,0,1-1.29-.19l0-.15a4.58,4.58,0,0,0,.29-.86,3.39,3.39,0,0,0,.09-.74,2,2,0,0,0-.34-1.13,2.59,2.59,0,0,0-.83-.75,3.62,3.62,0,0,0-1.11-.43,5.42,5.42,0,0,0-1.19-.13,5.68,5.68,0,0,0-1.86.28,4.28,4.28,0,0,0-1.39.74,3.26,3.26,0,0,0-.86,1,2.65,2.65,0,0,0-.3,1.22,2.54,2.54,0,0,0,.42,1.44,5,5,0,0,0,1.13,1.18,11.23,11.23,0,0,0,1.62,1l1.91.94c.74.35,1.48.71,2.21,1.09a10.28,10.28,0,0,1,2,1.28,6.27,6.27,0,0,1,1.4,1.65,4.38,4.38,0,0,1,.53,2.19,5.38,5.38,0,0,1-.66,2.68,6.13,6.13,0,0,1-1.79,2,8.16,8.16,0,0,1-2.55,1.23,10.66,10.66,0,0,1-3,.42,11.19,11.19,0,0,1-1.6-.12,11.64,11.64,0,0,1-1.6-.35,10.11,10.11,0,0,1-1.48-.58,5.62,5.62,0,0,1-1.21-.79,3.5,3.5,0,0,1-.82-1,2.47,2.47,0,0,1-.3-1.21,1.8,1.8,0,0,1,.24-1,1.9,1.9,0,0,1,.64-.65,2.78,2.78,0,0,1,.88-.37,4.24,4.24,0,0,1,1-.14Z"/><path d="M287.47,124.58a13.8,13.8,0,0,1-5.41-1,11.51,11.51,0,0,1-4.24-3,14.21,14.21,0,0,1-2.77-5,22.33,22.33,0,0,1-1-7,29.52,29.52,0,0,1,.41-4.92A25,25,0,0,1,275.7,99a19.3,19.3,0,0,1,2-3.91A14.11,14.11,0,0,1,280.58,92a12.93,12.93,0,0,1,3.65-2,13.17,13.17,0,0,1,4.44-.72,13.78,13.78,0,0,1,5.4,1,11.32,11.32,0,0,1,4.24,3,14.21,14.21,0,0,1,2.77,5,22.42,22.42,0,0,1,1,7,29.52,29.52,0,0,1-.41,4.92,23.19,23.19,0,0,1-1.23,4.53,18.64,18.64,0,0,1-2,3.92,13.82,13.82,0,0,1-2.84,3.06,12.66,12.66,0,0,1-3.64,2A13.17,13.17,0,0,1,287.47,124.58Zm.66-1.91a8.29,8.29,0,0,0,3.09-.55,8.15,8.15,0,0,0,2.48-1.57,9.83,9.83,0,0,0,1.9-2.45,15.2,15.2,0,0,0,1.32-3.2,23.4,23.4,0,0,0,.78-3.8,34.37,34.37,0,0,0,.26-4.27,27.2,27.2,0,0,0-.79-6.93A15.26,15.26,0,0,0,295,95a9,9,0,0,0-3.14-2.87,8.1,8.1,0,0,0-3.82-1,8.29,8.29,0,0,0-3.09.56,7.85,7.85,0,0,0-2.48,1.57,10,10,0,0,0-1.9,2.44A15,15,0,0,0,279.29,99a23.4,23.4,0,0,0-.78,3.8,34.61,34.61,0,0,0-.26,4.27A26.75,26.75,0,0,0,279,114a15.36,15.36,0,0,0,2.13,4.86,9,9,0,0,0,3.14,2.87A8.09,8.09,0,0,0,288.13,122.67Z"/><path d="M308.52,103.65c0-.89.08-1.74.14-2.56s.14-1.62.24-2.41.21-1.58.36-2.37.31-1.61.52-2.46a14.23,14.23,0,0,1,1.68-4.24,11.76,11.76,0,0,1,2.47-2.88,9.26,9.26,0,0,1,5.85-2.14,8.45,8.45,0,0,1,2,.21,6.1,6.1,0,0,1,1.56.59,5.24,5.24,0,0,1,1.17.87,3.86,3.86,0,0,1,.77,1.07,9.12,9.12,0,0,1,1.63-1.5,10,10,0,0,1,1.77-1,9.1,9.1,0,0,1,1.83-.6,9.5,9.5,0,0,1,1.8-.19,7.87,7.87,0,0,1,2.53.38,6,6,0,0,1,1.87,1,4.22,4.22,0,0,1,1.18,1.37,3.37,3.37,0,0,1,.4,1.55,2.92,2.92,0,0,1-.2,1.1,2.3,2.3,0,0,1-.54.81,2.48,2.48,0,0,1-.8.51,2.78,2.78,0,0,1-1,.17,3.52,3.52,0,0,1-1.42-.33l-.06-.17a8.11,8.11,0,0,0,.42-1.12,3.77,3.77,0,0,0,.14-1,2.33,2.33,0,0,0-.29-1.21,2.45,2.45,0,0,0-.74-.83,3.1,3.1,0,0,0-1-.46,4.31,4.31,0,0,0-1.12-.15,5.61,5.61,0,0,0-2.05.35,4.93,4.93,0,0,0-1.53,1,5.79,5.79,0,0,0-1.1,1.43,9.93,9.93,0,0,0-.75,1.73,14.86,14.86,0,0,0-.5,1.91c-.13.66-.23,1.3-.32,1.93-.12.85-.22,1.66-.3,2.42s-.16,1.53-.22,2.3-.12,1.57-.16,2.41-.07,1.75-.1,2.76l1.49,0h1.38c.86,0,1.63,0,2.29,0a14.66,14.66,0,0,0,1.73-.17,2.3,2.3,0,0,1,.17.79.82.82,0,0,1-.2.58,1.41,1.41,0,0,1-.61.33,4.42,4.42,0,0,1-1,.15c-.41,0-.89,0-1.45,0l-1.72,0-2.12-.07c0,1.15-.09,2.39-.15,3.73s-.15,2.73-.24,4.16-.22,2.88-.37,4.34-.32,2.9-.53,4.3-.44,2.73-.71,4a30.83,30.83,0,0,1-.93,3.47,18.55,18.55,0,0,1-1.9,4.08,11.14,11.14,0,0,1-2.24,2.61,7.14,7.14,0,0,1-2.45,1.39,8.69,8.69,0,0,1-2.55.4,7.13,7.13,0,0,1-2-.26A5.06,5.06,0,0,1,309,137a3,3,0,0,1-.9-.9,1.91,1.91,0,0,1-.31-1,1.62,1.62,0,0,1,.46-1.12,2.68,2.68,0,0,1,1.47-.72,7.22,7.22,0,0,0,.87,1.18,4.66,4.66,0,0,0,1,.78,4.18,4.18,0,0,0,1.08.42,5.81,5.81,0,0,0,1.2.12,4.05,4.05,0,0,0,2.84-1.06,8,8,0,0,0,1.93-3,22.53,22.53,0,0,0,1.21-4.7q.44-2.75.67-6.13t.29-7.31c0-2.63.08-5.37.09-8.24l-3.53-.09c-1.19,0-2.35,0-3.5,0h-1.72c0,1.16-.09,2.43-.15,3.79s-.14,2.79-.23,4.25-.21,3-.34,4.45-.31,3-.51,4.41-.44,2.81-.71,4.12a29.86,29.86,0,0,1-.95,3.56,19.7,19.7,0,0,1-1.95,4.18,11.66,11.66,0,0,1-2.31,2.7,7.76,7.76,0,0,1-2.53,1.45,8.25,8.25,0,0,1-2.61.43,8.09,8.09,0,0,1-2.09-.25,6.32,6.32,0,0,1-1.66-.67,3.85,3.85,0,0,1-1.11-1,2,2,0,0,1-.4-1.2,1.58,1.58,0,0,1,.16-.69,1.86,1.86,0,0,1,.44-.61,2.25,2.25,0,0,1,.68-.43,2.14,2.14,0,0,1,.84-.17,6.3,6.3,0,0,0,.94,1.3,5.32,5.32,0,0,0,1.1.88,4.87,4.87,0,0,0,2.49.66,4.05,4.05,0,0,0,2.86-1.09,8.33,8.33,0,0,0,2-3.09,22.81,22.81,0,0,0,1.25-4.83q.45-2.82.7-6.29c.16-2.31.26-4.8.32-7.48s.09-5.49.11-8.43c-.92,0-1.77.1-2.54.16a8,8,0,0,0-2,.39.67.67,0,0,1-.06-.28.92.92,0,0,1,.33-.66,2.83,2.83,0,0,1,.94-.53,7.54,7.54,0,0,1,1.46-.37A14.35,14.35,0,0,1,308.52,103.65ZM322.2,93.54c.1-.44.21-.86.34-1.25s.25-.77.39-1.14a5.71,5.71,0,0,1-1-.17l-.06-.17c.08-.21.16-.4.22-.57a2.21,2.21,0,0,0,.15-.48c0-.16.06-.31.08-.45a3.59,3.59,0,0,0,0-.47,2.33,2.33,0,0,0-.29-1.21,2.57,2.57,0,0,0-.74-.83,3.33,3.33,0,0,0-1-.47,4.3,4.3,0,0,0-1.12-.14,5.5,5.5,0,0,0-2,.34,4.92,4.92,0,0,0-1.51.93,5.53,5.53,0,0,0-1.1,1.38,10.18,10.18,0,0,0-.74,1.68,14,14,0,0,0-.49,1.85c-.13.64-.24,1.27-.32,1.87-.12.83-.22,1.62-.3,2.35s-.16,1.48-.23,2.22-.11,1.49-.15,2.27-.07,1.61-.1,2.52H314c1.18,0,2.36,0,3.52,0l3.44.1q.06-1.43.15-2.7c.05-.85.13-1.68.23-2.49s.22-1.63.36-2.45S322,94.42,322.2,93.54Z"/><path d="M419.8,124.58a13.78,13.78,0,0,1-5.4-1,11.43,11.43,0,0,1-4.24-3,14.21,14.21,0,0,1-2.77-5,22.33,22.33,0,0,1-1-7,28.49,28.49,0,0,1,.41-4.92A23.49,23.49,0,0,1,408,99a19.27,19.27,0,0,1,2-3.91A14.15,14.15,0,0,1,412.92,92a12.88,12.88,0,0,1,3.64-2,13.17,13.17,0,0,1,4.44-.72,13.8,13.8,0,0,1,5.41,1,11.4,11.4,0,0,1,4.24,3,14.21,14.21,0,0,1,2.77,5,22.42,22.42,0,0,1,1,7,29.52,29.52,0,0,1-.41,4.92,23.93,23.93,0,0,1-1.24,4.53,18.61,18.61,0,0,1-2,3.92,14.06,14.06,0,0,1-2.84,3.06,12.71,12.71,0,0,1-3.65,2A13.17,13.17,0,0,1,419.8,124.58Zm.66-1.91a8.29,8.29,0,0,0,3.09-.55,7.92,7.92,0,0,0,2.48-1.57,9.83,9.83,0,0,0,1.9-2.45,15.21,15.21,0,0,0,1.33-3.2,24.54,24.54,0,0,0,.77-3.8,34.37,34.37,0,0,0,.26-4.27,27.23,27.23,0,0,0-.78-6.93A15.49,15.49,0,0,0,427.37,95a8.87,8.87,0,0,0-3.14-2.87,8.06,8.06,0,0,0-3.81-1,8.22,8.22,0,0,0-3.09.56,7.9,7.9,0,0,0-2.49,1.57A9.69,9.69,0,0,0,413,95.79,15.53,15.53,0,0,0,411.62,99a23.4,23.4,0,0,0-.78,3.8,34.65,34.65,0,0,0-.25,4.27,27.23,27.23,0,0,0,.78,6.93,15.36,15.36,0,0,0,2.13,4.86,9,9,0,0,0,3.14,2.87A8.09,8.09,0,0,0,420.46,122.67Z"/><path d="M440.87,106.93a4.78,4.78,0,0,0-.09-1,1.63,1.63,0,0,0-.27-.65,1,1,0,0,0-.46-.35,1.91,1.91,0,0,0-.66-.1,7,7,0,0,0-1.26.14c-.49.1-1.05.23-1.67.4l-.22-1c.69-.25,1.36-.47,2-.67s1.22-.37,1.76-.52,1-.26,1.42-.34a5.35,5.35,0,0,1,1-.12,1.7,1.7,0,0,1,1.32.51,2.51,2.51,0,0,1,.48,1.74c0,.09,0,.32,0,.68s-.05.81-.08,1.35-.07,1.18-.12,1.88-.11,1.47-.17,2.27-.14,1.63-.21,2.48-.17,1.71-.25,2.56h.08a42,42,0,0,1,2.39-6.38,22.8,22.8,0,0,1,2.59-4.22,9.32,9.32,0,0,1,2.63-2.33,5.17,5.17,0,0,1,2.49-.72,4.12,4.12,0,0,1,1.58.31,3.45,3.45,0,0,1,1.35,1,5,5,0,0,1,.95,1.73,8.4,8.4,0,0,1,.35,2.57c0,.3,0,.69-.05,1.18s-.08,1-.13,1.65-.1,1.25-.16,1.93-.12,1.34-.17,2-.09,1.27-.13,1.87-.05,1.1-.05,1.54a13.47,13.47,0,0,0,.1,1.86,3.57,3.57,0,0,0,.31,1.14,1.2,1.2,0,0,0,.59.57,2.33,2.33,0,0,0,.89.15,6.3,6.3,0,0,0,1.58-.21,10.33,10.33,0,0,0,1.66-.59l.28.76a8.93,8.93,0,0,1-1.34.86c-.53.29-1.1.56-1.69.81a14,14,0,0,1-1.76.59,6.46,6.46,0,0,1-1.56.23,1.72,1.72,0,0,1-1.24-.43,2.61,2.61,0,0,1-.68-1.15,7.41,7.41,0,0,1-.29-1.72c0-.65-.07-1.36-.07-2.11,0-.92,0-1.86.1-2.83s.13-1.9.21-2.78.15-1.68.21-2.39.09-1.29.09-1.72a4,4,0,0,0-.64-2.53,2.08,2.08,0,0,0-1.71-.81,3,3,0,0,0-1.79.71,9.91,9.91,0,0,0-1.87,2,21.62,21.62,0,0,0-1.79,3,31.21,31.21,0,0,0-1.54,3.69,33.37,33.37,0,0,0-1.14,4.16,26.76,26.76,0,0,0-.57,4.33l-3.07.38h-.23c.08-.93.15-1.94.22-3s.13-2.21.19-3.34.11-2.24.15-3.35.09-2.14.12-3.11.06-1.82.07-2.58S440.87,107.37,440.87,106.93Z"/><path d="M286.45,276.54a14,14,0,0,1-5.41-1,11.42,11.42,0,0,1-4.24-3.05,14.08,14.08,0,0,1-2.77-5,22.38,22.38,0,0,1-1-7,29.52,29.52,0,0,1,.41-4.92,24.58,24.58,0,0,1,1.23-4.54,19.3,19.3,0,0,1,2-3.91,13.88,13.88,0,0,1,2.84-3.07,12.58,12.58,0,0,1,3.65-2,13.42,13.42,0,0,1,4.44-.71,14,14,0,0,1,5.4,1,11.46,11.46,0,0,1,4.24,3,14.21,14.21,0,0,1,2.77,5,22.42,22.42,0,0,1,1,7,29.52,29.52,0,0,1-.41,4.92,23.19,23.19,0,0,1-1.23,4.53,19,19,0,0,1-2,3.91,13.65,13.65,0,0,1-2.84,3.07,12.58,12.58,0,0,1-3.65,2A13.07,13.07,0,0,1,286.45,276.54Zm.65-1.91a7.87,7.87,0,0,0,5.58-2.12,10,10,0,0,0,1.9-2.45,16,16,0,0,0,1.32-3.2,23.63,23.63,0,0,0,.78-3.8,34.46,34.46,0,0,0,.25-4.28,27.2,27.2,0,0,0-.78-6.92A15.16,15.16,0,0,0,294,247a9,9,0,0,0-3.14-2.87,8.1,8.1,0,0,0-3.82-.95,8.29,8.29,0,0,0-3.09.56,7.74,7.74,0,0,0-2.48,1.57,9.77,9.77,0,0,0-1.9,2.44,15.67,15.67,0,0,0-1.33,3.2,24.92,24.92,0,0,0-.77,3.81,34.49,34.49,0,0,0-.26,4.27A27.15,27.15,0,0,0,278,266a15.55,15.55,0,0,0,2.14,4.87,9,9,0,0,0,3.14,2.87A8,8,0,0,0,287.1,274.63Z"/><path d="M307.5,255.6c0-.89.08-1.74.14-2.55s.14-1.62.24-2.41.21-1.58.36-2.38.31-1.61.52-2.46a14.06,14.06,0,0,1,1.68-4.23,11.55,11.55,0,0,1,2.47-2.88,9.21,9.21,0,0,1,5.85-2.14,8.45,8.45,0,0,1,1.95.21,6.83,6.83,0,0,1,1.56.58,5,5,0,0,1,1.17.88,3.92,3.92,0,0,1,.77,1.07,9.58,9.58,0,0,1,1.63-1.51,9.93,9.93,0,0,1,1.77-1,8.9,8.9,0,0,1,1.83-.6,8.61,8.61,0,0,1,1.8-.19,7.88,7.88,0,0,1,2.53.37,6.35,6.35,0,0,1,1.87,1,4.26,4.26,0,0,1,1.17,1.37,3.31,3.31,0,0,1,.41,1.56,3,3,0,0,1-.2,1.1,2.28,2.28,0,0,1-1.34,1.31,2.61,2.61,0,0,1-1,.18,3.38,3.38,0,0,1-1.42-.34l-.06-.16a8.18,8.18,0,0,0,.42-1.13,3.64,3.64,0,0,0,.14-1,2.43,2.43,0,0,0-.29-1.21,2.57,2.57,0,0,0-.74-.83,3.33,3.33,0,0,0-1-.47,4.84,4.84,0,0,0-1.12-.14,5.4,5.4,0,0,0-2.05.35,4.62,4.62,0,0,0-1.53,1,5.93,5.93,0,0,0-1.1,1.43,10,10,0,0,0-.75,1.74,14.44,14.44,0,0,0-.5,1.91c-.13.66-.24,1.3-.32,1.93-.12.85-.22,1.65-.3,2.41s-.16,1.53-.22,2.3-.12,1.58-.16,2.41-.07,1.76-.1,2.76c.51,0,1,0,1.49,0h1.38c.86,0,1.62,0,2.29-.05a16.63,16.63,0,0,0,1.72-.17,2.12,2.12,0,0,1,.18.79.79.79,0,0,1-.21.58,1.31,1.31,0,0,1-.6.33,4.42,4.42,0,0,1-1,.15c-.41,0-.89,0-1.45,0l-1.72,0-2.12-.07c0,1.14-.09,2.39-.15,3.73s-.15,2.73-.24,4.16-.22,2.88-.37,4.34-.32,2.9-.53,4.29-.44,2.74-.71,4a30.06,30.06,0,0,1-.93,3.46,18.89,18.89,0,0,1-1.9,4.09,11.6,11.6,0,0,1-2.24,2.61,7.27,7.27,0,0,1-2.45,1.38,8.39,8.39,0,0,1-2.55.41,7.13,7.13,0,0,1-2-.26A5.06,5.06,0,0,1,308,289a2.88,2.88,0,0,1-.9-.91,1.88,1.88,0,0,1-.31-1,1.62,1.62,0,0,1,.46-1.12,2.75,2.75,0,0,1,1.47-.73,6,6,0,0,0,.87,1.19,4.66,4.66,0,0,0,1,.78,3.82,3.82,0,0,0,1.08.41,5.19,5.19,0,0,0,1.2.13,4.1,4.1,0,0,0,2.84-1.06,8.07,8.07,0,0,0,1.93-3,22.7,22.7,0,0,0,1.21-4.7q.44-2.74.67-6.13c.15-2.26.24-4.69.29-7.32s.07-5.36.09-8.24l-3.53-.08c-1.19,0-2.36-.05-3.5-.05h-1.3l-.43,0c0,1.16-.08,2.42-.14,3.79s-.14,2.78-.23,4.25-.21,2.95-.34,4.45-.31,3-.51,4.41-.44,2.81-.71,4.12a30.38,30.38,0,0,1-.95,3.56,19.7,19.7,0,0,1-2,4.18,11.39,11.39,0,0,1-2.31,2.69,7.79,7.79,0,0,1-2.53,1.46,8.44,8.44,0,0,1-4.7.18,6.2,6.2,0,0,1-1.67-.68,3.54,3.54,0,0,1-1.1-1,2,2,0,0,1-.41-1.19,1.56,1.56,0,0,1,.17-.69,1.76,1.76,0,0,1,.44-.61,2.49,2.49,0,0,1,.68-.44,2.13,2.13,0,0,1,.84-.16,5.88,5.88,0,0,0,.94,1.29,4.82,4.82,0,0,0,2.31,1.39,5.54,5.54,0,0,0,1.28.16,4.1,4.1,0,0,0,2.86-1.09,8.59,8.59,0,0,0,2-3.09,23.13,23.13,0,0,0,1.25-4.83q.45-2.82.7-6.29c.16-2.31.26-4.81.32-7.49s.09-5.49.11-8.43c-.92.05-1.77.11-2.54.17a7.53,7.53,0,0,0-2,.39.67.67,0,0,1-.06-.28.92.92,0,0,1,.33-.66,2.83,2.83,0,0,1,.94-.53,8.29,8.29,0,0,1,1.46-.38A16.29,16.29,0,0,1,307.5,255.6Zm13.68-10.1c.09-.44.21-.86.33-1.25s.26-.77.4-1.14a5.19,5.19,0,0,1-1-.18l-.05-.16c.08-.21.16-.4.22-.57a3.72,3.72,0,0,0,.15-.48c0-.16.06-.31.08-.46a3.38,3.38,0,0,0,0-.47,2.4,2.4,0,0,0-.29-1.2,2.48,2.48,0,0,0-.74-.83,3.12,3.12,0,0,0-1-.47,4.37,4.37,0,0,0-1.12-.15,5.5,5.5,0,0,0-2,.35,4.8,4.8,0,0,0-1.51.93,5.66,5.66,0,0,0-1.1,1.37,10.29,10.29,0,0,0-.74,1.69,13.56,13.56,0,0,0-.49,1.85c-.13.64-.24,1.26-.33,1.87-.11.83-.21,1.61-.3,2.35s-.15,1.48-.22,2.21-.11,1.5-.15,2.27-.07,1.62-.1,2.53l.45,0H313c1.18,0,2.35,0,3.52,0l3.44.1c0-1,.09-1.85.14-2.7s.14-1.68.24-2.5.21-1.63.36-2.44S321,246.37,321.18,245.5Z"/><path d="M418.78,276.54a14,14,0,0,1-5.41-1,11.42,11.42,0,0,1-4.24-3.05,14.23,14.23,0,0,1-2.77-5,22.69,22.69,0,0,1-1-7,28.49,28.49,0,0,1,.41-4.92A23.1,23.1,0,0,1,407,251a18.78,18.78,0,0,1,2-3.91,13.88,13.88,0,0,1,2.84-3.07,12.71,12.71,0,0,1,3.65-2,13.42,13.42,0,0,1,4.44-.71,14,14,0,0,1,5.41,1,11.54,11.54,0,0,1,4.24,3,14.37,14.37,0,0,1,2.77,5,22.73,22.73,0,0,1,1,7,28.49,28.49,0,0,1-.41,4.92,23.19,23.19,0,0,1-1.23,4.53,18.53,18.53,0,0,1-2,3.91,13.88,13.88,0,0,1-2.84,3.07,12.71,12.71,0,0,1-3.65,2A13.17,13.17,0,0,1,418.78,276.54Zm.66-1.91a7.87,7.87,0,0,0,5.57-2.12,10,10,0,0,0,1.9-2.45,15.44,15.44,0,0,0,1.33-3.2,24.78,24.78,0,0,0,.77-3.8,34.41,34.41,0,0,0,.26-4.28,26.73,26.73,0,0,0-.79-6.92,15.16,15.16,0,0,0-2.13-4.86,8.86,8.86,0,0,0-3.14-2.87,8.1,8.1,0,0,0-3.82-.95,8.29,8.29,0,0,0-3.09.56,8,8,0,0,0-2.48,1.57,9.77,9.77,0,0,0-1.9,2.44,15.66,15.66,0,0,0-1.32,3.2,23.75,23.75,0,0,0-.78,3.81,34.53,34.53,0,0,0-.25,4.27,27.15,27.15,0,0,0,.78,6.92,15.32,15.32,0,0,0,2.13,4.87,9,9,0,0,0,3.14,2.87A8.09,8.09,0,0,0,419.44,274.63Z"/><path d="M439.84,258.88a5.74,5.74,0,0,0-.08-1,1.7,1.7,0,0,0-.27-.65,1.06,1.06,0,0,0-.47-.34,1.83,1.83,0,0,0-.66-.1,6.35,6.35,0,0,0-1.26.14c-.48.1-1,.23-1.67.4l-.21-1.06c.69-.24,1.35-.46,2-.66s1.23-.38,1.77-.52,1-.26,1.42-.34a5.35,5.35,0,0,1,1-.12,1.71,1.71,0,0,1,1.32.51,2.47,2.47,0,0,1,.48,1.73c0,.1,0,.33,0,.68s-.05.81-.08,1.36-.08,1.17-.13,1.88-.1,1.46-.16,2.26-.14,1.63-.22,2.49-.16,1.7-.24,2.55l.08,0a41.55,41.55,0,0,1,2.39-6.38,22.28,22.28,0,0,1,2.59-4.22,9.37,9.37,0,0,1,2.63-2.34,5.2,5.2,0,0,1,2.49-.71,4.3,4.3,0,0,1,1.58.3,3.58,3.58,0,0,1,1.35,1,4.84,4.84,0,0,1,.95,1.73,8.4,8.4,0,0,1,.35,2.57c0,.29,0,.69-.05,1.18s-.08,1-.13,1.65-.1,1.25-.17,1.92-.11,1.35-.16,2-.09,1.28-.13,1.87-.05,1.11-.05,1.55a13.47,13.47,0,0,0,.1,1.86,3.2,3.2,0,0,0,.31,1.13,1.23,1.23,0,0,0,.59.58,2.33,2.33,0,0,0,.89.15,6.3,6.3,0,0,0,1.58-.21,9.5,9.5,0,0,0,1.66-.6l.28.76a8.66,8.66,0,0,1-1.34.87,16.46,16.46,0,0,1-1.69.8,12.62,12.62,0,0,1-1.76.6,6.4,6.4,0,0,1-1.56.22,1.76,1.76,0,0,1-1.24-.42,2.59,2.59,0,0,1-.68-1.16,7.39,7.39,0,0,1-.3-1.71c0-.66-.06-1.36-.06-2.11,0-.92,0-1.86.09-2.84s.14-1.89.22-2.77.14-1.68.21-2.4.09-1.29.09-1.72a4,4,0,0,0-.64-2.52,2.06,2.06,0,0,0-1.72-.82,3,3,0,0,0-1.78.72,9.91,9.91,0,0,0-1.87,2,20.13,20.13,0,0,0-1.79,3,31.21,31.21,0,0,0-1.54,3.69,35.57,35.57,0,0,0-1.15,4.15,29.5,29.5,0,0,0-.57,4.34l-3.06.38h-.23c.08-.93.15-1.94.22-3s.13-2.2.19-3.33.11-2.24.15-3.35.08-2.15.12-3.11.06-1.82.07-2.58S439.84,259.32,439.84,258.88Z"/></g></svg>
