<svg xmlns="http://www.w3.org/2000/svg" xmlns:xlink="http://www.w3.org/1999/xlink" width="280" height="300" viewBox="0 0 280 300"><defs><style>.cls-1{filter:url(#AI_BevelShadow_1);}.cls-2{fill:#b05412;}.cls-3{fill:#0d0b0c;}.cls-4,.cls-5,.cls-7{fill:#06a696;}.cls-4{opacity:0.76;}.cls-5{opacity:0.73;}.cls-6{fill:#7c3b0f;}.cls-7{opacity:0.84;}</style><filter id="AI_BevelShadow_1" x="-20" y="-20" width="140" height="140" name="AI_BevelShadow_1"><feGaussianBlur result="blur" stdDeviation="4" in="SourceAlpha"/><feOffset result="offsetBlur" dx="4" dy="4" in="blur"/><feSpecularLighting result="specOut" surfaceScale="5" specularExponent="10" in="blur"><fePointLight x="-5000" y="-10000" z="-20000"/></feSpecularLighting><feComposite result="specOut" operator="in" in="specOut" in2="SourceAlpha"/><feComposite result="litPaint" operator="arithmetic" k2="1" k3="1" in="SourceGraphic" in2="specOut"/><feMerge><feMergeNode in="offsetBlur"/><feMergeNode in="litPaint"/></feMerge></filter></defs><title>Slim poop</title><g id="Layer_1" data-name="Layer 1"><g class="cls-1"><path class="cls-2" d="M243.51,148.63c-12.65-1.5-23.92,2.28-34.09,10.23-5.29,3.38-7.37,20.32-2.77,29.32A108.57,108.57,0,0,1,214,207.4l4.21,14.36a26.8,26.8,0,0,1-9.63,29.09,44.29,44.29,0,0,1-4.53,2.93,19.16,19.16,0,0,1-26.34-8l-14.87-28.92c-6.47-3.35-14.17.53-19.32,5.69l-25.28,53.86a11.3,11.3,0,0,1-2.46,3.39c-10.07,9.57-29.59,4.27-30.23-9.51l-1.13-29.56c-.34-7.28,2.27-38.13,10.34-48-14.16,5.8-42.17,12.79-42.17,12.79-17.05,5.68-50,4.54-35.24-22.73,10.59-19.57,30.61-31.12,53.21-40.48,6.14-3.93,23.7-26.37,21.81-33.41C75.93,84,68,63.15,66.2,45.19,61.39,24.6,91.59,5.28,106,21.32,118,30,127.73,41.93,133.26,60c-.53,2.77,14.26,44.62,25,34.1C174,78.67,163.69,61.38,174.18,52h0c5.68-12.5,26.61-19.07,27.28-4.54l2.27,40.92c.34,7.28,3.19,14,10.23,15.91h31.83C281,107.71,264.79,158,243.51,148.63Z"/><path class="cls-3" d="M112,134.8c-10.66-7.23-1.66-24.29,9.07-24s32.08,25,20.09,25.78c-9.69.64-4-4.78-14.69-5.11S123.51,142.61,112,134.8Z"/><path class="cls-3" d="M178,125.78c-10.46,2.43-3.79,6.62-13.41,7.89-11.91,1.58,4.2-26.79,14.65-29.22S201.9,117,192.86,126.17C183.09,136.09,188.49,123.36,178,125.78Z"/><path class="cls-4" d="M211.26,157.54c-.63-2.64,6.13-6.87,15.36-9.52s17.33-2.69,18.08-.08-14.13,0-15.37,9.52C225.78,184.86,216.05,177.75,211.26,157.54Z"/><path class="cls-5" d="M69.61,200.91c-3.23,1.74-7.39-.91-5.17,7.4,2.28,8.53-12.25-2.28-14.15,2.83s-10.23,4.55-8,12.5c3.31,11.58-12.16,8.44-11.37-1.13,1.29-15.64-11.07-13.9-14.77-20.46-2.86-5.05,8.08,10.07,26.14,2.27C51.23,200.48,81.29,194.63,69.61,200.91Z"/><path class="cls-6" d="M53.7,177c0,1.57-.9,2.28-3.41,2.28s-1.4-.27-3.41-2.28c-2.28-2.27,1.63-5.18,3.41-3.41C52.56,175.91,53.7,175.47,53.7,177Z"/><path class="cls-6" d="M189,239.56c0,1.57-.9,2.27-3.41,2.27s-1.4-.26-3.41-2.27c-2.28-2.28,1.63-5.19,3.41-3.41C187.82,238.42,189,238,189,239.56Z"/><path class="cls-6" d="M106.35,266.05c-4.82,2.39-8.49.4-12.74-8.14s-1.55-5.17,1.22-15.06c3.13-11.2,18.66-2.34,16.21,6.4C107.91,260.45,111.16,263.65,106.35,266.05Z"/><path class="cls-6" d="M204.73,195.32c3.84,5.3,6.45,14.34,3.26,16.66s-4.62-7.59-8.46-12.88-17.61-12.1-5.12-16.77C198.2,180.91,200.89,190,204.73,195.32Z"/><path class="cls-6" d="M150.35,170c1.83,2.53,1.73,7.83-1.46,10.14s-1.91-3.84-3.75-6.37-11.43-3.59,0-9.77C148.57,162.14,148.51,167.48,150.35,170Z"/><path class="cls-6" d="M175.81,145.48c-2.51,2.22-3.59,7.83-.75,11s2.88-3.59,5.38-5.81,12.86-1,2.23-10.28C179.46,137.63,178.31,143.25,175.81,145.48Z"/><path class="cls-6" d="M175.78,69c-2.67,1.08-4.33,7.44-1.89,13.5s3.18-2.55,5.85-3.63,12.64,7.66,3.26-11.49C180.16,61.59,178.46,67.94,175.78,69Z"/><path class="cls-6" d="M93,167.89c-8.3,1.73-10.34-10.59-4.7-15.58s26.24-3.69,20.39,2.43c-4.73,4.95-3.91-.34-9.54,4.66S102,166,93,167.89Z"/><path class="cls-6" d="M123.76,229.49c-3.66-8.72-8.39-15.16.13-16.53s8.06-.82,4.27,8.11c-2.7,6.36,15.93,6.05,7.41,7.41S126.59,236.24,123.76,229.49Z"/><path class="cls-6" d="M247.59,138.32c2.41,1.22.48,4.69-1.92,4.81s-7.26-4.27-4.59-4.64c2.16-.3.91.86,3.3.73S245,137,247.59,138.32Z"/><path class="cls-6" d="M188.49,196.29c2.41,1.21.47,4.68-1.92,4.81s-7.26-4.28-4.59-4.64c2.15-.3.9.85,3.3.73S185.88,195,188.49,196.29Z"/><path class="cls-6" d="M94.31,61.71c0-4.7-2.55-.85-5.11-6.8S73,61.71,77.29,61.71c4.7,0,10.21,9.36,11.91,5.11C91.56,60.93,94.31,66.41,94.31,61.71Z"/><path class="cls-6" d="M217.37,137.26c-3.92-3.14-4.19-3.41-8-3.41s-9.1-1.14-5.69,3.41c3,4,3.06,4.55,6.82,4.55S223.05,141.81,217.37,137.26Z"/><path class="cls-6" d="M136.22,85.2c-.48-5-.47-5.39-3.1-8.09s-5.52-7.31-6.4-1.7c-.79,5-1.14,5.36,1.49,8.06S136.92,92.44,136.22,85.2Z"/><polygon points="193.5 149.76 176.45 158.86 187.82 169.09 168.5 164.54 166.22 177.04 150.73 169.74 138.94 180.45 136.67 167.95 113.94 179.32 125.3 165.68 111.67 164.54 136.96 155.44 128.71 148.63 152.58 150.9 150.31 136.12 161.68 146.35 177.59 136.12 174.18 146.35 193.5 149.76"/><path class="cls-7" d="M161.68,220.23c4.54,4.55-8.67,16.59-8,5.69.31-4.76-11.37,6.77-11.37,0s7.92-15.65,14.62-12.4C168.5,219.1,154.33,212.89,161.68,220.23Z"/></g></g></svg>
