<svg xmlns="http://www.w3.org/2000/svg" xmlns:xlink="http://www.w3.org/1999/xlink" width="1920" height="1080" viewBox="0 0 1920 1080"><defs><style>.cls-1{isolation:isolate;}.cls-2{fill:url(#linear-gradient);}.cls-3{opacity:0.75;mix-blend-mode:multiply;}.cls-4{fill:#b05412;}.cls-5{fill:#7c4b2a;}.cls-6{fill:#5b5b5b;}.cls-7{fill:#fff;}.cls-8{fill:#fcad74;}.cls-9{fill:#faf7ee;}.cls-10{fill:#76f1fc;}.cls-11{fill:#ed2435;}.cls-12{fill:#c9c9c9;}.cls-13{fill:url(#linear-gradient-2);}.cls-14{fill:#0d0b0c;}.cls-15{fill:#06a696;opacity:0.76;}.cls-16{fill:#7c3b0f;}.cls-17{fill:#89532f;}.cls-18{fill:#f1c91e;}</style><linearGradient id="linear-gradient" y1="542" x2="1920" y2="542" gradientUnits="userSpaceOnUse"><stop offset="0" stop-color="#76f1fc"/><stop offset="0.18" stop-color="#69e8f3"/><stop offset="0.5" stop-color="#48cfdb"/><stop offset="0.92" stop-color="#13a8b5"/><stop offset="0.98" stop-color="#0ba2b0"/></linearGradient><linearGradient id="linear-gradient-2" x1="799.95" y1="691.07" x2="1097.05" y2="691.07" gradientUnits="userSpaceOnUse"><stop offset="0" stop-color="#76f1fc"/><stop offset="0.08" stop-color="#8af3fc"/><stop offset="0.26" stop-color="#bdf8fe"/><stop offset="0.46" stop-color="#fff"/><stop offset="0.53" stop-color="#f4feff"/><stop offset="0.66" stop-color="#d8fbfe"/><stop offset="0.83" stop-color="#a9f6fd"/><stop offset="1" stop-color="#76f1fc"/></linearGradient></defs><title>Titelskærm</title><g class="cls-1"><g id="Layer_2" data-name="Layer 2"><rect class="cls-2" y="2" width="1920" height="1080"/></g><g id="Layer_1" data-name="Layer 1"><ellipse cx="954.5" cy="598" rx="376.5" ry="37"/><image class="cls-3" width="772" height="362" transform="translate(609 270)" xlink:href="Titelsk%C3%A6rm1.png"/><path class="cls-4" d="M819.34,311.11C816,296.62,805.53,283,792.66,275.39a36.11,36.11,0,0,0-20.36,2.85C731.74,297,707.75,284,686.67,297c-40.9,25.17-47.51,59.68-47.51,109.25,0,3.45-35.47,60.72-20.71,104.65,6.26,18.64,13.88,26,19.44,28.4-.37.1-.76.22-1.17.35-26.13,8.22-10.42,57.76,14.08,63.28h8.88l.19,0h21.79c15.26-4.87,46.7-51.61,31.51-101.85-.68-2.24-7.2-16.67-8.1-18.66,14.52-7.22,48.5,33.44,61.88,3.34,17-38.32,5.88-5.52,45.15-28.43,60.2-35.11,16.44-144.71,7.58-145.89A.38.38,0,0,1,819.34,311.11ZM703.8,434.27c27.63-25.1,7.26-56,24.51-70.79-1.57,2.34-1.1,5.86,10.25,8.65l6.52,1.3a217.36,217.36,0,0,0,23.13,2.28,24.11,24.11,0,0,0,10.33-2.15c3.45-1.43,8,1.07,7.26,4.73-5.7,27.49-5.48,58.92-47.28,68.95C721.83,451.25,695,442.22,703.8,434.27Z"/><path class="cls-5" d="M639.39,406.16h-.23v.06c0,.71-1.54,3.76-3.84,8.53,6.45,1.56,14.35,4.08,22.84,7,.12,0,.2-.14.08-.19C650.45,418,643.92,413.06,639.39,406.16Z"/><path class="cls-5" d="M670,539.21c-10,.67-21.76,2.21-29.4.45l-2.92-.51.25.12c-.37.1-.76.22-1.17.35a18.86,18.86,0,0,0-5,2.39c6.79-.67,10.88.5,15.67,1.5a21,21,0,0,0,9-.1C661,542.38,670.06,539.23,670,539.21Z"/><path class="cls-5" d="M734.36,328.83a.46.46,0,0,0-.91-.1,114.14,114.14,0,0,0-9.45,39.9,20,20,0,0,1,4.17-5,1.43,1.43,0,0,0,.22-.77A130.76,130.76,0,0,1,734.36,328.83Z"/><path class="cls-5" d="M742.44,293.74c7.82-6.25,27.15-9.41,26.94-14.06a.7.7,0,0,0,0-.14c-24.65,10.68-43.07,9.71-58.49,10.84C711.55,294.9,736.59,298.42,742.44,293.74Z"/><path class="cls-5" d="M779,373.4a5.73,5.73,0,0,1,6.18,2l.13-.05a20.86,20.86,0,0,0,9.65-12.1.18.18,0,0,0-.33-.16Q789.94,369.87,779,373.4Z"/><path class="cls-5" d="M782,465.64a25.36,25.36,0,0,1-12.13-9.75.37.37,0,0,0-.66.31c1.44,5.29,3.14,9.88,6.1,11.11l.6.45c2.05-2.56,3.6-2.37,6.19-1.95Z"/><path class="cls-5" d="M819.42,311.24a.29.29,0,0,1-.08-.13c-.28-1.18-.61-2.34-1-3.51a.19.19,0,0,0-.23-.12c-6.59,2.1-9.49,9-12.16,16.17a.17.17,0,0,0,.31.15c4.28-6.66,8.73-12.82,12.51-12Z"/><path class="cls-5" d="M690.12,471.51c1,4.55,10.23,7.7,15,10.85a8.56,8.56,0,0,1,2.41-.75C702,474.41,696,475,690.8,470.86,690.48,470.6,690,471.11,690.12,471.51Z"/><path class="cls-4" d="M1331.05,314.46c-3.34-14.49-13.81-28.09-26.68-35.73a36.13,36.13,0,0,0-20.36,2.85c-40.56,18.73-64.54,5.75-85.63,18.73-40.89,25.17-47.51,59.68-47.51,109.25,0,3.45-35.46,60.72-20.71,104.65,6.26,18.65,13.89,25.95,19.45,28.4l-1.18.35c-26.12,8.22-10.42,57.77,14.09,63.29h8.87l.19,0h21.79c15.26-4.87,46.7-51.61,31.51-101.85-.68-2.24-7.2-16.67-8.09-18.66,14.52-7.21,48.49,33.45,61.87,3.35,17-38.33,5.88-5.52,45.15-28.43,60.2-35.12,16.45-144.72,7.58-145.9A.37.37,0,0,1,1331.05,314.46ZM1215.51,437.61c27.63-25.1,7.26-56,24.51-70.79-1.57,2.34-1.1,5.87,10.26,8.66,6.22,1.23.36.06,6.51,1.3a220,220,0,0,0,23.13,2.28,24.11,24.11,0,0,0,10.33-2.15c3.45-1.44,8,1.07,7.27,4.73-5.71,27.49-5.48,58.91-47.29,68.94C1233.54,454.59,1206.75,445.57,1215.51,437.61Z"/><path class="cls-5" d="M1151.1,409.51h-.23v.05c0,.72-1.54,3.77-3.83,8.54,6.44,1.55,14.34,4.08,22.83,7a.1.1,0,0,0,.08-.19C1162.17,421.29,1155.64,416.4,1151.1,409.51Z"/><path class="cls-5" d="M1181.67,542.56c-10,.67-21.76,2.21-29.4.45l-2.92-.52.26.12-1.18.35a19,19,0,0,0-5,2.39c6.78-.66,10.87.5,15.67,1.51a21.27,21.27,0,0,0,9-.1C1172.71,545.72,1181.77,542.57,1181.67,542.56Z"/><path class="cls-5" d="M1246.07,332.17a.46.46,0,0,0-.91-.09,114,114,0,0,0-9.45,39.9,20.11,20.11,0,0,1,4.18-5,1.45,1.45,0,0,0,.21-.76A131.25,131.25,0,0,1,1246.07,332.17Z"/><path class="cls-5" d="M1254.16,297.08c7.81-6.25,27.14-9.41,26.93-14.05,0,0,0-.1,0-.14-24.66,10.67-43.07,9.71-58.5,10.83C1223.26,298.25,1248.3,301.77,1254.16,297.08Z"/><path class="cls-5" d="M1290.74,376.74a5.73,5.73,0,0,1,6.18,2l.13-.05a21,21,0,0,0,9.66-12.11.19.19,0,0,0-.34-.16Q1301.65,373.22,1290.74,376.74Z"/><path class="cls-5" d="M1293.71,469a25.26,25.26,0,0,1-12.12-9.74.37.37,0,0,0-.66.31c1.43,5.28,3.13,9.87,6.09,11.1l.6.45c2.05-2.56,3.6-2.36,6.19-1.94Z"/><path class="cls-5" d="M1331.14,314.59a.28.28,0,0,1-.09-.13c-.27-1.18-.61-2.35-1-3.51a.18.18,0,0,0-.23-.12c-6.6,2.09-9.5,9-12.17,16.17a.17.17,0,0,0,.31.15c4.28-6.67,8.73-12.82,12.51-12Z"/><path class="cls-5" d="M1201.83,474.85c1.05,4.55,10.23,7.7,15,10.85a8.17,8.17,0,0,1,2.4-.74c-5.48-7.2-11.5-6.63-16.68-10.76C1202.2,474,1201.74,474.45,1201.83,474.85Z"/><path class="cls-4" d="M944,546.67c2.84-3,5-8.41,4.27-21.27-.57-10-2.12-18.57-5.17-22.66a13.51,13.51,0,0,0-5.49-7.8c1.49-3.91-.8-3.81-.8-6.2,0-4,.45-7.37-8.4-8.63a.14.14,0,0,1-.11-.09,25.17,25.17,0,0,0-16.54-15.46,4.12,4.12,0,0,1-1.25-.6l-1-.66a4.61,4.61,0,0,1-1.36-1.52,27.39,27.39,0,0,0-35.7-11.69c-2.22-.19-4.45-.31-6.72-.31a78.57,78.57,0,0,0-9.88.65,40.87,40.87,0,0,0-7.3-.65c-12,0-22,5.06-23.76,11.67-2.64,8.65-10.8,12-18.4,15.85-.08,0-.18-.07-.24,0-10,9.22-18.29,14.68-18.33,22.92a27.17,27.17,0,0,0,1.51,9.09c-2,6.75-10.18,17.31-10.68,27.57-.85,17.63,11.87,29.41,16.1,30.94a22.9,22.9,0,0,0,22.86,21.77c.27,0,.53,0,.79,0a80.15,80.15,0,0,0,6.76,4.65c5.11,6.05,11.68,8.14,19.94,9.13h0c5,4.38,4.59,2.29,20.62,2.29,9.42,0,15.37.29,20.23-.56,1.61.35,3.27-1.73,5-1.73,10.14,0,18.73-4.32,21.75-13.43l.81-.71c5.93-1,10.75-4.26,12.89-8.47a26.89,26.89,0,0,0,15-23.23,19.87,19.87,0,0,0-.48-4.57A26.52,26.52,0,0,0,944,546.67Zm-71.14,4.66a32,32,0,0,0-23.13-9.89l-5.42,0a.13.13,0,0,1-.12-.16,24.21,24.21,0,0,0,1-6.73,23.21,23.21,0,0,0-3.81-12.94.13.13,0,0,1,0-.17,24.85,24.85,0,0,0,9.07-12.11h0c8.5-.16,15.84-3.08,19.56-7.34a19.45,19.45,0,0,0,15.24,7.36,18.74,18.74,0,0,0,2.13-.12,28.71,28.71,0,0,1,4.18,6.53,21.53,21.53,0,0,0-1,19.45,30,30,0,0,0-8.36,7.65A21.55,21.55,0,0,0,872.83,551.33Z"/><path class="cls-5" d="M814.24,473.16c2.87.7,6.49-.71,9-3.83,3.1-3.86,5-7.46,2.33-9.84a9.07,9.07,0,0,0-.76,1.87C823.07,467,819,470.41,814.24,473.16Z"/><path class="cls-5" d="M850.86,509.24c1,0,2-.11,3-.22a.16.16,0,0,0,.14-.15c-.18-2.3-6.08-5.62-10.12-8.09a.14.14,0,0,0-.17.22c3.67,3.54,7.76,6.3,7,8A.15.15,0,0,0,850.86,509.24Z"/><path class="cls-5" d="M871.63,459a.18.18,0,0,0,.34-.07c-.14-2.68-.16-6.71,1.27-9.18l-.78.34c-.7-.06-1.39-.11-2.09-.15A21.69,21.69,0,0,0,871.63,459Z"/><path class="cls-5" d="M872.83,551.33c-.41-.43-.84-.84-1.27-1.25.56,2.52,1.34,7.94,1.75,11.14a.14.14,0,0,0,.27,0c.19-1.34-1-5.28-.09-10.84C873.26,550.67,873,551,872.83,551.33Z"/><path class="cls-5" d="M841.31,521.63a.13.13,0,0,1,0-.17c.23-.16.45-.34.67-.51-2.62-.85-5.7-1.58-8-2.23,2.83,1.59,5.9,2.79,7.9,3.93Q841.64,522.13,841.31,521.63Z"/><path class="cls-5" d="M844.28,541.46a.13.13,0,0,1-.12-.16,22.7,22.7,0,0,0,.57-2.5c-2.53,1-5.41,5-7.62,8.1a.17.17,0,0,0,.25.22c3.16-3,5.88-5.71,7.65-5.67Z"/><path class="cls-5" d="M870,502l.6.71c-.06-2.66-.49-5.51,1.41-9.7-1.32,1.48-3,1.76-2.81,4.21-.29-2-1-2.43-2.8-4.21,1.54,2.56,2,6.36,2.8,9.83C869.47,502.56,869.73,502.29,870,502Z"/><path class="cls-5" d="M892.61,504.64a6.66,6.66,0,0,1-5.14,4.51l-.07,0,0,.06c.33.4.65.8,1,1.22,2.91-1.67,4.17-3.63,4.59-5.73A.15.15,0,0,0,892.61,504.64Z"/><path class="cls-5" d="M803.68,567.18c-1,.74-4.33.85-8.93.62h0c0,.58.09,1.15.16,1.72h4.89a2.44,2.44,0,0,0,1.1-.26l3-1.48C804.21,567.61,805.31,566,803.68,567.18Z"/><path class="cls-5" d="M789.06,508.44c.09.29.18.57.28.85a24.59,24.59,0,0,1-1.08,2.85c3.51,2.72,7.19,4.18,11.07,4.1a.27.27,0,0,0,.11-.51A32.65,32.65,0,0,1,789.06,508.44Z"/><path class="cls-5" d="M832.57,580.56l-10.42,6.51-5,2.49h.44c.27,0,.53,0,.79,0l1.48,1.1,2.26-.75,10.54-9.18C832.77,580.63,832.67,580.5,832.57,580.56Z"/><path class="cls-5" d="M859.36,598.23c-4.32,2.61-11,4.58-11.46,4.43a9.28,9.28,0,0,0-2.67.75,16,16,0,0,0,2.44,1.83c4.76-.71,8.52-3.3,11.77-6.85A.09.09,0,0,0,859.36,598.23Z"/><path class="cls-5" d="M912.92,581.27a.09.09,0,0,0-.18,0,44.62,44.62,0,0,1-.7,10.32c.24-.55.46-1.11.66-1.7l.81-.71c.36-.06.72-.13,1.08-.22A23.78,23.78,0,0,0,912.92,581.27Z"/><path class="cls-5" d="M883.61,596.84a.09.09,0,0,0-.13.13,23,23,0,0,0,4.87,7.38,6.52,6.52,0,0,1,2.39-1A44.22,44.22,0,0,1,883.61,596.84Z"/><path class="cls-5" d="M897.89,540.16a.18.18,0,0,0,.26-.25c-1.57-2.41-3.42-4.19-5.8-4.78l-2.21-.78c.11.29.23.59.36.87-.31.19-.6.39-.9.59C891.74,536.06,895.62,538.46,897.89,540.16Z"/><path class="cls-5" d="M926.4,580.71c.32-.16.63-.33.94-.5a33.59,33.59,0,0,1-7.27-1.62.18.18,0,0,0-.17.31,11,11,0,0,0,6,2.74C926.06,581.33,926.24,581,926.4,580.71Z"/><path class="cls-5" d="M938.22,495.39c-.21-.15-.42-.31-.64-.45a9.13,9.13,0,0,0,.35-1.11,37.83,37.83,0,0,1-4.82.37.18.18,0,0,0-.06.35A12.3,12.3,0,0,0,938.22,495.39Z"/><path class="cls-5" d="M929.13,480.22l-.75-.11a.14.14,0,0,1-.11-.09c-.1-.27-.21-.54-.32-.81a7.61,7.61,0,0,0-2.3,5.82c0,.18.3.34.29.15C925.84,483.72,927.09,481.54,929.13,480.22Z"/><path class="cls-5" d="M940.88,552.91c.29-.42.57-.86.83-1.32-4.21-2.29-11.31-2.65-15-.31-.28.17-.22.59.12.47,3.47-1.26,10-1.3,14,1.32Z"/><path class="cls-5" d="M913.77,465.26c-.67-.26-1.35-.5-2-.7a4.12,4.12,0,0,1-1.25-.6l-1-.66a4.34,4.34,0,0,1-1-1c.36,2.2,1.11,4.54,1.41,4.06A3,3,0,0,1,913.77,465.26Z"/><path class="cls-5" d="M937.49,490.82a3.61,3.61,0,0,1-.71-2.08,24.37,24.37,0,0,0-.09-3,7.25,7.25,0,0,0-.82,2A2.6,2.6,0,0,0,937.49,490.82Z"/><path class="cls-4" d="M1119.56,546.67c2.84-3,5-8.41,4.26-21.27-.56-10-2.11-18.57-5.17-22.66a13.45,13.45,0,0,0-5.48-7.8c1.49-3.91-.8-3.81-.8-6.2,0-4,.45-7.37-8.4-8.63a.14.14,0,0,1-.11-.09,25.17,25.17,0,0,0-16.54-15.46,4.18,4.18,0,0,1-1.26-.6l-1-.66a4.5,4.5,0,0,1-1.36-1.52,27.39,27.39,0,0,0-35.7-11.69c-2.22-.19-4.46-.31-6.72-.31a78.73,78.73,0,0,0-9.89.65,40.71,40.71,0,0,0-7.3-.65c-12,0-22,5.06-23.75,11.67-2.65,8.65-10.8,12-18.41,15.85-.08,0-.17-.07-.23,0-10,9.22-18.29,14.68-18.33,22.92a27.17,27.17,0,0,0,1.51,9.09c-2,6.75-10.18,17.31-10.68,27.57-.86,17.63,11.87,29.41,16.1,30.94a22.9,22.9,0,0,0,22.86,21.77c.27,0,.53,0,.79,0a78.56,78.56,0,0,0,6.76,4.65c5.1,6.05,11.67,8.14,19.94,9.13h0c5,4.38,4.58,2.29,20.62,2.29,9.42,0,15.36.29,20.23-.56,1.6.35,3.27-1.73,5-1.73,10.14,0,18.72-4.32,21.74-13.43l.82-.71c5.93-1,10.75-4.26,12.89-8.47a26.91,26.91,0,0,0,15-23.23,19.87,19.87,0,0,0-.48-4.57A26.52,26.52,0,0,0,1119.56,546.67Zm-71.14,4.66a32,32,0,0,0-23.13-9.89l-5.42,0a.13.13,0,0,1-.12-.16,24.21,24.21,0,0,0,1-6.73,23.21,23.21,0,0,0-3.81-12.94.12.12,0,0,1,0-.17,24.85,24.85,0,0,0,9.07-12.11h0c8.5-.16,15.83-3.08,19.56-7.34a19.43,19.43,0,0,0,15.24,7.36,18.57,18.57,0,0,0,2.12-.12,28.41,28.41,0,0,1,4.19,6.53,21.45,21.45,0,0,0-1,19.45,29.82,29.82,0,0,0-8.36,7.65A21.5,21.5,0,0,0,1048.42,551.33Z"/><path class="cls-5" d="M989.82,473.16c2.88.7,6.49-.71,9-3.83,3.1-3.86,5-7.46,2.33-9.84a9.07,9.07,0,0,0-.76,1.87C998.66,467,994.57,470.41,989.82,473.16Z"/><path class="cls-5" d="M1026.45,509.24c1,0,2-.11,3-.22a.14.14,0,0,0,.13-.15c-.18-2.3-6.07-5.62-10.11-8.09a.14.14,0,0,0-.17.22c3.66,3.54,7.76,6.3,7,8A.15.15,0,0,0,1026.45,509.24Z"/><path class="cls-5" d="M1047.22,459a.17.17,0,0,0,.33-.07c-.13-2.68-.16-6.71,1.28-9.18-.26.11-.53.22-.78.34-.7-.06-1.39-.11-2.09-.15A21.53,21.53,0,0,0,1047.22,459Z"/><path class="cls-5" d="M1048.42,551.33c-.42-.43-.84-.84-1.27-1.25.56,2.52,1.34,7.94,1.75,11.14a.14.14,0,0,0,.27,0c.18-1.34-1-5.28-.1-10.84C1048.85,550.67,1048.63,551,1048.42,551.33Z"/><path class="cls-5" d="M1016.9,521.63a.12.12,0,0,1,0-.17c.23-.16.44-.34.67-.51-2.63-.85-5.71-1.58-8-2.23,2.82,1.59,5.89,2.79,7.9,3.93C1017.32,522.3,1017.12,522,1016.9,521.63Z"/><path class="cls-5" d="M1019.87,541.46a.13.13,0,0,1-.12-.16,22.7,22.7,0,0,0,.57-2.5c-2.53,1-5.41,5-7.63,8.1a.17.17,0,0,0,.26.22c3.16-3,5.87-5.71,7.65-5.67Z"/><path class="cls-5" d="M1045.57,502l.6.71c-.07-2.66-.49-5.51,1.41-9.7-1.32,1.48-3,1.76-2.81,4.21-.29-2-1-2.43-2.81-4.21,1.55,2.56,2,6.36,2.81,9.83C1045.05,502.56,1045.32,502.29,1045.57,502Z"/><path class="cls-5" d="M1068.19,504.64a6.63,6.63,0,0,1-5.13,4.51l-.07,0-.06.06c.34.4.66.8,1,1.22,2.91-1.67,4.16-3.63,4.58-5.73A.15.15,0,0,0,1068.19,504.64Z"/><path class="cls-5" d="M979.27,567.18c-1,.74-4.33.85-8.94.62h0c0,.58.09,1.15.16,1.72h4.89a2.47,2.47,0,0,0,1.1-.26l3-1.48C979.8,567.61,980.9,566,979.27,567.18Z"/><path class="cls-5" d="M964.65,508.44c.09.29.18.57.28.85a26.56,26.56,0,0,1-1.08,2.85c3.51,2.72,7.19,4.18,11.07,4.1a.27.27,0,0,0,.11-.51A32.65,32.65,0,0,1,964.65,508.44Z"/><path class="cls-5" d="M1008.16,580.56l-10.42,6.51-5,2.49h.44c.27,0,.53,0,.79,0,.49.37,1,.74,1.48,1.1l2.26-.75,10.54-9.18C1008.36,580.63,1008.26,580.5,1008.16,580.56Z"/><path class="cls-5" d="M1034.94,598.23c-4.31,2.61-11,4.58-11.46,4.43a9.3,9.3,0,0,0-2.66.75,15.5,15.5,0,0,0,2.43,1.83c4.77-.71,8.53-3.3,11.78-6.85A.09.09,0,0,0,1034.94,598.23Z"/><path class="cls-5" d="M1088.51,581.27a.1.1,0,0,0-.19,0,44.11,44.11,0,0,1-.69,10.32,18.11,18.11,0,0,0,.65-1.7l.82-.71c.36-.06.72-.13,1.08-.22A23.78,23.78,0,0,0,1088.51,581.27Z"/><path class="cls-5" d="M1059.2,596.84a.09.09,0,0,0-.13.13,23,23,0,0,0,4.87,7.38,6.52,6.52,0,0,1,2.39-1A43.81,43.81,0,0,1,1059.2,596.84Z"/><path class="cls-5" d="M1073.48,540.16a.18.18,0,0,0,.26-.25c-1.57-2.41-3.42-4.19-5.81-4.78l-2.2-.78c.11.29.23.59.36.87-.31.19-.61.39-.9.59C1067.33,536.06,1071.21,538.46,1073.48,540.16Z"/><path class="cls-5" d="M1102,580.71c.32-.16.62-.33.93-.5a33.5,33.5,0,0,1-7.26-1.62.18.18,0,0,0-.17.31,11,11,0,0,0,6,2.74C1101.65,581.33,1101.83,581,1102,580.71Z"/><path class="cls-5" d="M1113.8,495.39c-.21-.15-.41-.31-.63-.45a9.13,9.13,0,0,0,.35-1.11,37.84,37.84,0,0,1-4.83.37.18.18,0,0,0,0,.35A12.28,12.28,0,0,0,1113.8,495.39Z"/><path class="cls-5" d="M1104.72,480.22l-.75-.11a.14.14,0,0,1-.11-.09c-.1-.27-.21-.54-.32-.81a7.61,7.61,0,0,0-2.3,5.82c0,.18.3.34.29.15C1101.43,483.72,1102.68,481.54,1104.72,480.22Z"/><path class="cls-5" d="M1116.47,552.91c.29-.42.56-.86.83-1.32-4.21-2.29-11.31-2.65-15-.31-.27.17-.21.59.13.47,3.47-1.26,10-1.3,14,1.32Z"/><path class="cls-5" d="M1089.36,465.26c-.67-.26-1.35-.5-2-.7a4.18,4.18,0,0,1-1.26-.6l-1-.66a4.38,4.38,0,0,1-1-1c.37,2.2,1.12,4.54,1.41,4.06A3,3,0,0,1,1089.36,465.26Z"/><path class="cls-5" d="M1113.07,490.82a3.68,3.68,0,0,1-.7-2.08,24.37,24.37,0,0,0-.09-3,7.58,7.58,0,0,0-.83,2A2.61,2.61,0,0,0,1113.07,490.82Z"/><image class="cls-3" width="186" height="188" transform="translate(1617 69)" xlink:href="Titelsk%C3%A6rm2.png"/><path class="cls-6" d="M1756.27,168l24.73-9.31-.58-12.07-25.51-6.89-3.87-9.25,13-23-8.2-8.87-24,11.11-8.91-4.59-4.87-26-12-1.53-11.22,23.93-9.77,2.21L1664.63,87l-10.16,6.54,6.79,25.53-6.07,8-26.42.29-3.58,11.54L1646.8,154l.48,10-20,17.21,4.68,11.14,26.32-2.25,6.8,7.36-4.3,26.07,10.75,5.53,18.72-18.64,9.94,1.26,13.46,22.74,11.79-2.67,2.36-26.32,8.42-5.42,24.93,8.76,7.31-9.62-15.11-21.67Zm-52.56,16.78a28.61,28.61,0,1,1,28.61-28.61A28.61,28.61,0,0,1,1703.71,184.73Z"/><image class="cls-3" width="591" height="772" transform="translate(1279 331)" xlink:href="Titelsk%C3%A6rm3.png"/><rect class="cls-4" x="1562.93" y="732.47" width="97.58" height="12.76" rx="3.15" transform="translate(458.24 2085.34) rotate(-74.04)"/><rect class="cls-4" x="1272.71" y="775.56" width="110.56" height="12.76" rx="3.15" transform="translate(29 1611.15) rotate(-63.04)"/><ellipse class="cls-7" cx="1354.62" cy="727.78" rx="16.39" ry="9.79" transform="translate(-174.23 892.91) rotate(-34.41)"/><path class="cls-7" d="M1834.88,347.66a5.11,5.11,0,0,0-.76-1.64c-2.64-5.07-5.77-4-9.47,6.16-22,27.84-17.4,21.44-51,22.35-34.08.92-25.6,28.56-57.94,30.44-29.31,1.71,12.15,65.7,44.35,84.13-3.38,2.59-5.4,6.51-5.21,13.5.86,31.85,25.31,54,46,53.42s47.83-28.14,47-60C1847.32,476.26,1844.48,371.07,1834.88,347.66Z"/><rect class="cls-8" x="1226.7" y="581.54" width="567.23" height="14.17" transform="translate(-28.43 1098.31) rotate(-39.62)"/><path d="M1774.89,395.64c32.67-21.88,64.62-44.25,58.69-53.1s-47.47-.83-80.15,21-54.36,46.78-48.44,55.63S1742.21,417.51,1774.89,395.64Z"/><ellipse class="cls-9" cx="1630.75" cy="683.28" rx="30.36" ry="13.16" transform="translate(-64.55 181.12) rotate(-6.23)"/><rect class="cls-4" x="1523.44" y="795.17" width="89.26" height="12.76" rx="3.15" transform="translate(-178.57 1026.45) rotate(-34.41)"/><rect class="cls-4" x="1296.79" y="809.49" width="89.26" height="12.59" rx="3.11" transform="translate(-177.35 417.97) rotate(-16.63)"/><rect class="cls-10" x="1498.39" y="815.53" width="39.02" height="27.02" rx="1.37" transform="translate(-103.6 227.33) rotate(-8.28)"/><rect class="cls-10" x="1371.85" y="788.77" width="47.2" height="28.03" rx="2.55" transform="translate(-35.26 64.68) rotate(-2.62)"/><path class="cls-4" d="M1687.17,514.94a62.4,62.4,0,0,0-35.18,4.93c-70.1,32.37-111.56,9.93-148,32.37-70.68,43.5-82.12,103.14-82.12,188.82,0,6-61.29,104.94-35.79,180.87,10.83,32.23,24,44.85,33.61,49.08l-2,.61c-45.15,14.21-18,99.84,24.34,109.38h15.35l.32-.06h37.65c26.39-8.42,80.72-89.2,54.47-176-15.78-52.19-71.9-62-16.19-115.37,46.58-44.64,12.54-96.82,42.36-122.35-2.71,4-1.9,10.14,17.72,15L1605,684.4a379.23,379.23,0,0,0,40,3.94c29.82,1.62,77.47-46.6,87-74.89C1744.25,577.05,1720.27,534.58,1687.17,514.94Z"/><path d="M1560.06,655.5c5.07-24.79-7.86-47.63-24.44-50.15s-29.21,13.95-33,39,2.26,45.56,18.84,48.08S1556.27,674,1560.06,655.5Z"/><ellipse class="cls-7" cx="1528.58" cy="646.84" rx="45.8" ry="30.36" transform="translate(659.68 2061.04) rotate(-81.37)"/><path d="M1504.91,644.66c11.68-22.44,9.09-46.9-5.79-54.64s-32.78,7.06-44.46,29.5-8.8,42.86,6.07,50.6S1493.23,667.1,1504.91,644.66Z"/><path class="cls-7" d="M1503.24,641.79c11.67-22.45,12.78-44-2.09-51.77s-36.4,4.17-48.08,26.61-9.09,46.91,5.79,54.65S1491.56,664.23,1503.24,641.79Z"/><ellipse cx="1482.99" cy="630.65" rx="11.13" ry="6.07" transform="translate(248.58 1666.62) rotate(-63.04)"/><ellipse cx="1525.5" cy="644.82" rx="11.13" ry="6.07" transform="translate(750.55 2108.51) rotate(-85.01)"/><path class="cls-9" d="M1655,688.34c13.74-6.11,18.21-22.27,3-21.93-13.28.29-19.54,12.57-29.36,24"/><path d="M1541.69,706.55c-4.45,17.33-40.91,49.63-64.73,43.51s-44.54-49.81-36.47-65.77"/><path class="cls-11" d="M1483,718.7c-13.32,0-25,4.19-31.3,10.42,6.87,10.17,15.82,18.52,25.27,20.94,12.56,3.23,28.62-4.23,41.67-14.53C1515.13,725.91,1500.51,718.7,1483,718.7Z"/><ellipse class="cls-7" cx="1338.43" cy="719.68" rx="16.39" ry="9.79" transform="translate(-172.49 882.34) rotate(-34.41)"/><ellipse class="cls-7" cx="1363.2" cy="720.15" rx="5.87" ry="9.84" transform="translate(-89.53 203.91) rotate(-8.28)"/><path class="cls-5" d="M1422.27,741h-.4v.1c0,1.24-2.65,6.51-6.62,14.75,12.14,2.93,27.27,7.86,43.46,13.49C1443.55,762.89,1430.85,754,1422.27,741Z"/><path class="cls-5" d="M1470.85,973.73c-17.31,1.15-33.35,1-46.55-2l-5-.89.44.2-2,.61a33,33,0,0,0-8.56,4.13c11.73-1.14,18.79.87,27.08,2.6a36.39,36.39,0,0,0,15.58-.17C1459.62,976.39,1471,973.75,1470.85,973.73Z"/><path class="cls-10" d="M1422.27,801.68l-11.64-9.31c-2.84-2.27-5.8-6.2-8.32-7.85-8.84,21.4-18,48.55-21.23,76.52,8.76,4,22.71,3.39,30.38,3.39h78.3c10.15,0,28,1.64,34.08-3.84-11.95-15.65-20.44-28.77-8.82-48.76l-26,2C1470.85,815.85,1426.32,803.71,1422.27,801.68Z"/><path class="cls-5" d="M1586.41,607.3a.8.8,0,0,0-1.57-.16q-14.17,31.85-16.33,69a34.7,34.7,0,0,1,7.21-8.7,2.46,2.46,0,0,0,.38-1.33A226.26,226.26,0,0,1,1586.41,607.3Z"/><path class="cls-5" d="M1600.39,546.66c13.5-10.81,46.92-16.26,46.55-24.29a1.87,1.87,0,0,0,0-.25c-42.62,18.45-74.44,16.79-101.11,18.73C1547,548.67,1590.27,554.75,1600.39,546.66Z"/><path class="cls-12" d="M1758.37,490.73l12-.75c7.89-1.6,12.68-7.09,16.19-14.17-7.94,5.49-18.22,9-30.19,11,1.24.83,2.48,1.61,3.7,2.31A14.11,14.11,0,0,0,1758.37,490.73Z"/><image class="cls-3" width="343" height="143" transform="translate(784 627)" xlink:href="Titelsk%C3%A6rm4.png"/><rect x="792" y="635" width="313" height="112.14" rx="56.07"/><rect class="cls-13" x="799.95" y="643.37" width="297.1" height="95.41" rx="47.7"/><path d="M881.21,675.6h29.84v22.7H889.69v14.25h-8.48Zm8.48,8.48v5.76h12.87v-5.76Z"/><path d="M916.07,675.6h8.49v28.51h21.38v8.49H916.07Z"/><path d="M950.94,675.6h29.84v36.95H972.3v-7.11H959.42v7.11h-8.48Zm8.48,8.48V697H972.3V684.08Z"/><path d="M986,675.6h8.49v14.24h12.87V675.6h8.48v36.95H986v-8.49h21.33l0-5.76H986Z"/><image class="cls-3" width="634" height="674" transform="translate(-229 667)" xlink:href="Titelsk%C3%A6rm5.png"/><path class="cls-4" d="M327.76,993.81c-30.2-3.58-57.1,5.44-81.39,24.42-12.62,8.08-17.59,48.51-6.6,70,7.47,14.59,12.88,30.15,17.48,45.88l10,34.29c7.51,25.66-1.44,53.56-23,69.42a105.19,105.19,0,0,1-10.83,7c-22.5,12.65-51,3.76-62.86-19.2l-35.49-69c-15.45-8-33.82,1.25-46.12,13.57L28.66,1298.73a27.22,27.22,0,0,1-5.86,8.09c-24,22.83-70.64,10.19-72.15-22.71l-2.72-70.54c-.8-17.39,5.43-91,24.7-114.64-33.8,13.85-100.66,30.53-100.66,30.53-40.7,13.57-119.38,10.85-84.11-54.26,25.26-46.7,73-74.27,127-96.6,14.66-9.39,56.58-62.94,52.06-79.75-39.16-59.23-58.22-109.06-62.4-151.93-11.47-49.15,60.61-95.26,95-57,28.58,20.77,51.9,49.18,65.11,92.24-1.26,6.61,34,106.5,59.69,81.39,37.54-36.75,12.95-78,38-100.38h0c13.57-29.84,63.52-45.52,65.12-10.85L232.8,850c.8,17.38,7.61,33.49,24.42,38h76C417.29,896.14,378.55,1016.28,327.76,993.81Z"/><path class="cls-14" d="M13.81,960.8c-25.45-17.24-4-58,21.63-57.19s76.59,59.66,48,61.54c-23.12,1.52-9.46-11.41-35.06-12.2S41.32,979.44,13.81,960.8Z"/><path class="cls-14" d="M171.47,939.29c-24.95,5.78-9,15.78-32,18.82-28.44,3.77,10-64,35-69.74s54,30,32.41,51.84C183.53,963.88,196.42,933.5,171.47,939.29Z"/><path class="cls-15" d="M250.76,1015.08c-1.49-6.3,14.64-16.39,36.68-22.72s41.37-6.41,43.16-.19-33.74,0-36.69,22.73C285.43,1080.29,262.19,1063.32,250.76,1015.08Z"/><path class="cls-16" d="M235.19,1105.27c9.17,12.64,15.4,34.23,7.78,39.76s-11-18.11-20.2-30.74-42-28.88-12.21-40C219.59,1070.87,226,1092.64,235.19,1105.27Z"/><path class="cls-16" d="M105.38,1044.84c4.38,6,4.13,18.69-3.49,24.22s-4.55-9.17-8.93-15.21-27.28-8.56-.07-23.31C101.13,1026.08,101,1038.8,105.38,1044.84Z"/><path class="cls-16" d="M166.15,986.29c-6,5.31-8.57,18.7-1.78,26.34s6.86-8.57,12.84-13.88,30.7-2.5,5.33-24.53C174.86,967.55,172.13,981,166.15,986.29Z"/><path class="cls-16" d="M166.09,803.78c-6.39,2.56-10.33,17.75-4.52,32.21s7.59-6.09,14-8.65,30.16,18.27,7.77-27.44C176.55,786.06,172.47,801.21,166.09,803.78Z"/><path class="cls-16" d="M-31.42,1039.78c-19.8,4.14-24.66-25.27-11.21-37.19S20,993.78,6,1008.41c-11.28,11.81-9.31-.81-22.77,11.12S-10,1035.31-31.42,1039.78Z"/><path class="cls-16" d="M337.49,969.22c5.75,2.89,1.14,11.17-4.57,11.48s-17.34-10.21-11-11.09c5.15-.7,2.16,2,7.88,1.74S331.28,966.09,337.49,969.22Z"/><path class="cls-16" d="M265.36,966.68c-9.36-7.49-10-8.14-19-8.14s-21.71-2.71-13.57,8.14c7.2,9.59,7.29,10.85,16.28,10.85S278.92,977.53,265.36,966.68Z"/><path class="cls-16" d="M71.65,842.4c-1.14-11.93-1.12-12.84-7.39-19.29S51.09,805.65,49,819.05c-1.87,11.84-2.7,12.79,3.56,19.24S73.32,859.7,71.65,842.4Z"/><polygon points="208.38 996.52 167.69 1018.23 194.82 1042.64 148.7 1031.79 143.27 1061.63 106.29 1044.2 78.16 1069.78 72.73 1039.93 18.47 1067.06 45.6 1034.51 13.04 1031.79 73.43 1010.08 53.74 993.81 110.72 999.24 105.29 963.97 132.42 988.38 170.4 963.97 162.26 988.38 208.38 996.52"/><image class="cls-3" width="311" height="317" transform="translate(1584 765)" xlink:href="Titelsk%C3%A6rm6.png"/><path class="cls-17" d="M1867.31,883.82c12.68-68,8-107.14-65.21-90.25a67.51,67.51,0,0,0-46.32-20c-57-1.41-114.06,62.76-139.68,108.58-8.8,13.72-16.79,35.22-23.56,68.3l6.67,108.61,79.94-98.76c17.46-11.72,30.91-22.05,40.84-31.17a36.5,36.5,0,0,1,12.77-7.62c40-13.81,85.2-47.72,88.81-73.69,1.88-13.57-1.27-27.52-8.22-39.62,71.2-10.13,37.69,72.46,8,143.54a75.2,75.2,0,0,0-4.83,41.42c2.63,15.68,8,33.57,16.36,41.4.87-2.54-16.55-51.34,10.27-98.35C1853.09,918.78,1863.88,902.19,1867.31,883.82Z"/><path class="cls-8" d="M1609.45,938,1625,926.61c7.21-15-7.79-23.39-24.83-24.51C1590.54,927.13,1597.09,932.83,1609.45,938Z"/><path class="cls-17" d="M1625,926.61a15.51,15.51,0,0,0,1.68-9.3c-4.86-4.63-13.37-7.28-22.45-7.88-4.13,10.76-5.27,17.94-4.25,23.05,2.41,2.25,5.67,3.9,9.5,5.49Z"/><path class="cls-8" d="M1661.14,956.19l-5.91-18.31c3-16.4,20-14.37,34.49-5.28C1682.81,958.5,1674.17,959.27,1661.14,956.19Z"/><path class="cls-17" d="M1660.81,928.1c-2.74,1.95-4.73,5.12-5.58,9.78l5.91,18.31a34.63,34.63,0,0,0,9.84,1.22c4.5-3.15,8.28-9.79,11.64-22.41C1675.29,930.39,1667.3,927.6,1660.81,928.1Z"/><circle cx="1600.31" cy="1058.97" r="7.54"/><path d="M1660.33,976.28c1.6-14.32-5.52-28.36-15-29.41s-16.32,8.6-17.91,22.92,2.32,25.9,11.81,27S1658.74,990.61,1660.33,976.28Z"/><ellipse class="cls-7" cx="1642.24" cy="970.65" rx="26.1" ry="17.3" transform="translate(495.72 2495.32) rotate(-83.64)"/><path d="M1628.72,970c6.14-13.05,4.11-26.92-4.53-31s-18.52,4.76-24.66,17.8-4,24.61,4.6,28.68S1622.57,983,1628.72,970Z"/><path class="cls-7" d="M1627.7,968.34c6.14-13,6.28-25.36-2.36-29.43s-20.63,3.2-26.78,16.24-4.11,26.92,4.53,31S1621.55,981.39,1627.7,968.34Z"/><ellipse cx="1615.92" cy="962.46" rx="6.34" ry="3.46" transform="translate(66.57 2028.78) rotate(-65.32)"/><ellipse cx="1640.44" cy="969.57" rx="6.34" ry="3.46" transform="translate(594.34 2562.3) rotate(-87.29)"/><path class="cls-8" d="M1871.45,857c-3.28-2.89-11.69-5.7-16.72-4-.13,1-.27,1.91-.43,2.88,4.59-2.19,13.36-.4,17.1,1.54C1871.42,857.29,1871.43,857.14,1871.45,857Z"/><path class="cls-8" d="M1872.36,847.49c-2.67-3-11.27-6.1-16.67-4.68q0,1.34-.15,2.7c5-1.73,13.68.27,16.81,2.21C1872.35,847.64,1872.36,847.57,1872.36,847.49Z"/><path class="cls-8" d="M1872.77,835.41c-3.79-2.11-12.1-3.42-17.32-1.62.09.88.16,1.77.21,2.68,4.85-2.11,13.1-1.76,17.12-.6C1872.78,835.72,1872.77,835.57,1872.77,835.41Z"/><path class="cls-8" d="M1869.49,871.28c-3-3.48-11.24-7.25-17-6.32-.25,1.08-.5,2.18-.77,3.28,5.44-1.57,14.12,1,17.71,3.48C1869.44,871.57,1869.47,871.42,1869.49,871.28Z"/><path class="cls-8" d="M1848.84,878.83c-.23.78-.46,1.57-.7,2.36,5.73.27,14.59,3.44,18.55,5.56l.12-.61C1863.05,882.82,1854.08,878.25,1848.84,878.83Z"/><path class="cls-8" d="M1845.86,888.45c-.26.79-.53,1.59-.79,2.39,5.93.37,15,3.69,18.66,5.76.06-.14.1-.28.15-.42C1860.5,892.91,1851.36,888.09,1845.86,888.45Z"/><path class="cls-8" d="M1840.62,903.51l-.93,2.51c6-.8,13.9,2.35,17.41,5.45l.25-.48C1854.06,906.76,1846.14,902.4,1840.62,903.51Z"/><path class="cls-8" d="M1835.05,918.16c-.34.88-.69,1.76-1,2.64,6-.51,13.09,1.58,15.74,4l.11-.19C1847.37,921.33,1840.65,918.21,1835.05,918.16Z"/><path class="cls-8" d="M1842,938.35l.2-.37c-2.64-2.71-8-5.16-12.82-5.58l-1,2.5C1833.5,934.78,1839.12,936.38,1842,938.35Z"/><path class="cls-8" d="M1836.1,951c0-.09.07-.17.1-.25-2.53-2.35-7.8-4.18-12.66-4.28-.34.83-.69,1.66-1,2.48C1827.75,948.3,1833.45,949.28,1836.1,951Z"/><path class="cls-8" d="M1871,818.33c-4.31-1.09-13.81-.43-18.69,3.57h0q.57,1.22,1.05,2.52h0c4.16-4.13,13.32-5.81,17.7-5.86Z"/><path class="cls-8" d="M1865.16,804c-6.21-1.36-16.65,1.62-21.58,7.15l-.45.59a22.74,22.74,0,0,1,2.39,1.62c4.41-5.3,14-9,20-8.73C1865.44,804.38,1865.3,804.16,1865.16,804Z"/><path class="cls-8" d="M1837.16,809.1c2.13-5.81,6.49-13.73,10.84-17.32-.41-.12-.82-.25-1.24-.36-4.92,3.27-10.06,11-12.41,17C1835.32,808.59,1836.26,808.82,1837.16,809.1Z"/><path class="cls-8" d="M1829.74,789.68l-1.47,0c-2.59,4.8-4.1,12.08-4.26,17.7,1,0,1.93,0,2.85.05C1826.79,802,1827.69,794.62,1829.74,789.68Z"/><path class="cls-8" d="M1814,791.22c-1.13,4.93-.83,11.64.27,16.92,1-.13,1.89-.24,2.8-.34-1.34-5.07-2.25-11.78-1.68-16.8Z"/><path d="M186.71,167.76a49.18,49.18,0,0,1,9.22-4A44,44,0,0,1,204,162a20.4,20.4,0,0,1,6,.08c1.61.32,2.63.86,3.05,1.62q1.32,2.4,3.24,6.32c1.29,2.62,2.82,5.78,4.62,9.5l-3.2,1.63-.45-1c-.15-.3-.31-.61-.49-.93a23,23,0,0,0-3.08-4.26,13.72,13.72,0,0,0-4.18-3.11,19.61,19.61,0,0,0-5.38-1.62,24.38,24.38,0,0,0-5.8-.15,27.82,27.82,0,0,0-6,1.22,32.1,32.1,0,0,0-5.83,2.5,29.23,29.23,0,0,0-8,6.28,27.4,27.4,0,0,0-4.87,7.88,30.82,30.82,0,0,0-2.07,9,42.12,42.12,0,0,0,.38,9.68,54.75,54.75,0,0,0,2.5,9.85,65.19,65.19,0,0,0,4.29,9.55,61.78,61.78,0,0,0,6.6,9.77A50.24,50.24,0,0,0,193,243.3a38.46,38.46,0,0,0,8.21,5,30.73,30.73,0,0,0,8.52,2.45,27.15,27.15,0,0,0,8.49-.22,26.64,26.64,0,0,0,8.15-2.94,33.52,33.52,0,0,0,5.34-3.68,36.94,36.94,0,0,0,4.91-5.06,46.75,46.75,0,0,0,4.33-6.45,53.69,53.69,0,0,0,3.59-7.89l.86,0a6,6,0,0,1,1,.08,3.93,3.93,0,0,1,.88.27,1.2,1.2,0,0,1,.58.5,1.28,1.28,0,0,1,0,.75,54.28,54.28,0,0,1-3.7,10.22,46.38,46.38,0,0,1-5,8.09,38.87,38.87,0,0,1-6.12,6.29,46.49,46.49,0,0,1-7,4.74,37.52,37.52,0,0,1-10,3.82,36.4,36.4,0,0,1-10.27.78,38,38,0,0,1-10.11-2.11,41.22,41.22,0,0,1-9.51-4.89,48.08,48.08,0,0,1-8.49-7.53,53.19,53.19,0,0,1-7.05-10,60.71,60.71,0,0,1-4.86-11.52,57.82,57.82,0,0,1-2.36-12.34,51.61,51.61,0,0,1,.53-12.47,42.49,42.49,0,0,1,11.29-22.62A46.94,46.94,0,0,1,186.71,167.76Z"/><path d="M281.42,190.5a12.73,12.73,0,0,0-2.29-5.05,10.8,10.8,0,0,0-3.59-3,11.45,11.45,0,0,0-4.31-1.23,14.13,14.13,0,0,0-4.42.3,18,18,0,0,0-4.68,1.71,9.34,9.34,0,0,0-2.82,2.33,6,6,0,0,0-1.21,2.79,8.47,8.47,0,0,0,.15,3.08,10.75,10.75,0,0,0,1.58,3.56,14.42,14.42,0,0,0,2.92,3.17l-.06.46a11,11,0,0,1-4.36,2.16,8,8,0,0,1-2.65.2,6.1,6.1,0,0,1-2.32-.7,5.76,5.76,0,0,1-1.81-1.57,6.3,6.3,0,0,1-1.09-2.4,8.79,8.79,0,0,1,.14-4.55,14.68,14.68,0,0,1,2.17-4.38,23.55,23.55,0,0,1,3.68-4,38.28,38.28,0,0,1,4.62-3.42,37.34,37.34,0,0,1,5-2.64,28,28,0,0,1,4.85-1.64,21.9,21.9,0,0,1,7.46-.61,12.05,12.05,0,0,1,5.59,2,12.89,12.89,0,0,1,3.9,4.36,24,24,0,0,1,2.42,6.44q.6,2.55,1.09,5.65t1,6.51q.5,3.41,1.11,7t1.44,7.12c.87,3.7,2.23,6.32,4.1,7.86a7,7,0,0,0,6.3,1.47,14.41,14.41,0,0,0,6.39-3.82l1.55,1.39a19.68,19.68,0,0,1-4.94,5.31,17.24,17.24,0,0,1-6.34,2.92,13.66,13.66,0,0,1-5,.27,10.66,10.66,0,0,1-4.41-1.63,11.75,11.75,0,0,1-3.48-3.65,18.55,18.55,0,0,1-2.26-5.7c-.16-.67-.3-1.34-.41-2a17.94,17.94,0,0,1-.24-2.18l-.24,0a57.81,57.81,0,0,1-2.46,7.48,37.46,37.46,0,0,1-3.63,6.92,26,26,0,0,1-4.82,5.45,14.38,14.38,0,0,1-6.08,3.07,13.61,13.61,0,0,1-5.28.26,11.65,11.65,0,0,1-7.94-4.88,13.22,13.22,0,0,1-2-4.63,14.73,14.73,0,0,1-.15-6.49,17,17,0,0,1,2.45-5.82,22.93,22.93,0,0,1,4.63-5.1,40.89,40.89,0,0,1,6.36-4.3,55.49,55.49,0,0,1,7.62-3.46,72.06,72.06,0,0,1,8.46-2.53c-.19-1.67-.4-3.27-.64-4.82S281.85,192.33,281.42,190.5ZM263,222.8a12.59,12.59,0,0,0,1,2.8,7.2,7.2,0,0,0,1.65,2.16,5.41,5.41,0,0,0,2.27,1.2,6,6,0,0,0,2.89-.05,9.66,9.66,0,0,0,3.54-1.69,17.7,17.7,0,0,0,3.27-3.12,24.43,24.43,0,0,0,2.77-4.26,29.3,29.3,0,0,0,2.06-5.06,29,29,0,0,0,1.1-5.5,24,24,0,0,0-.07-5.62c-2,.51-3.9,1.1-5.81,1.75a44.25,44.25,0,0,0-5.35,2.21,28.43,28.43,0,0,0-4.5,2.76,15.07,15.07,0,0,0-3.29,3.4,11.14,11.14,0,0,0-1.72,4.11A11.6,11.6,0,0,0,263,222.8Z"/><path d="M327.24,139.43q-1.17,7.65-1.74,15.74t-.81,16c1.29,0,2.55-.1,3.77-.16l3.42-.18c1.05-.05,2-.11,2.88-.18l2.16-.16a34.68,34.68,0,0,0,6.09-.89q.25.66.42,1.2a4.47,4.47,0,0,1,.2,1,2.14,2.14,0,0,1-1.33,2.37,14.32,14.32,0,0,1-4.3.83q-2.72.21-6.09.14c-2.25,0-4.71-.06-7.38,0q-.13,4.26-.14,8.3c0,2.69,0,5.23.07,7.61s.13,4.59.23,6.63.2,3.8.31,5.3a55.73,55.73,0,0,0,1,7.52,18.08,18.08,0,0,0,2,5.52,8.29,8.29,0,0,0,3.43,3.3,9.68,9.68,0,0,0,5.19.85,18.88,18.88,0,0,0,4.9-1.13,37.37,37.37,0,0,0,6-2.88,4.09,4.09,0,0,1,1.47,2.52c-1.62,1.21-3.25,2.32-4.91,3.33a51,51,0,0,1-4.93,2.66,35.2,35.2,0,0,1-4.74,1.82,20.6,20.6,0,0,1-4.41.85,12.81,12.81,0,0,1-5.11-.59,9,9,0,0,1-4.2-3.15,19.41,19.41,0,0,1-3.09-6.47A50.23,50.23,0,0,1,316,206.53q-.27-3.6-.43-7.42t-.25-7.76q-.09-3.93-.05-7.87t.16-7.77q-3.25.28-6,.71a31,31,0,0,0-4.69,1.05,1.15,1.15,0,0,1-.17-.55,2.08,2.08,0,0,1,.73-1.62,8.05,8.05,0,0,1,2.24-1.5,20.13,20.13,0,0,1,3.53-1.26,37.19,37.19,0,0,1,4.56-.9q.33-8.34.84-15.77t1.16-13.29a3.81,3.81,0,0,1,.63-1.76,4.34,4.34,0,0,1,1.22-1.16A5.47,5.47,0,0,1,321,139a9.25,9.25,0,0,1,1.67-.28,9.9,9.9,0,0,1,2.47.09A8.67,8.67,0,0,1,327.24,139.43Z"/><path d="M385.4,184.49a9.27,9.27,0,0,0,1.32-4.4,7.53,7.53,0,0,0-.44-2.93,6.73,6.73,0,0,0-1.58-2.48,7.92,7.92,0,0,0-2.72-1.77,11.32,11.32,0,0,0-3.87-.77,14.29,14.29,0,0,0-10.43,3.7,19,19,0,0,0-3.51,4.27,28.56,28.56,0,0,0-2.46,5.27,35.73,35.73,0,0,0-1.52,5.79,44.38,44.38,0,0,0-.64,5.83,29.67,29.67,0,0,0,1,9.35,22.92,22.92,0,0,0,3.46,7.27,16.88,16.88,0,0,0,5.31,4.79,14.31,14.31,0,0,0,6.61,1.88,17.24,17.24,0,0,0,7.67-1.6,24,24,0,0,0,7.71-5.8l.63.36a5.3,5.3,0,0,1,.7.52,7.46,7.46,0,0,1,.56.58.82.82,0,0,1,.22.53.33.33,0,0,1,0,.19l-.09.16a27,27,0,0,1-9.95,9A25,25,0,0,1,371,226.8a22,22,0,0,1-6.64-1.22,20.4,20.4,0,0,1-5.42-2.9,20.84,20.84,0,0,1-4.19-4.25,24.65,24.65,0,0,1-2.94-5.23,27.55,27.55,0,0,1-1.67-5.86,29.46,29.46,0,0,1-.41-6.15,37.16,37.16,0,0,1,1.26-8.3,38.93,38.93,0,0,1,7.81-15,31.62,31.62,0,0,1,6.15-5.6,27.41,27.41,0,0,1,7.46-3.61,25.83,25.83,0,0,1,8.59-1.08,23.91,23.91,0,0,1,6.27,1,16.51,16.51,0,0,1,5,2.43,11.1,11.1,0,0,1,3.21,3.61,8.66,8.66,0,0,1,1,4.59,7.56,7.56,0,0,1-.62,2.85,6.3,6.3,0,0,1-1.52,2.09,6.11,6.11,0,0,1-2.24,1.26,7.76,7.76,0,0,1-2.76.35,10.31,10.31,0,0,1-1.86-.24,9.48,9.48,0,0,1-1.9-.65Z"/><path d="M413.93,206.93a112.28,112.28,0,0,1,9.31-15.76,59.26,59.26,0,0,1,8.94-10,25.84,25.84,0,0,1,8.25-5.06,14.91,14.91,0,0,1,7.22-.83,11.91,11.91,0,0,1,4.27,1.54,10.42,10.42,0,0,1,3.35,3.2,12.64,12.64,0,0,1,1.91,5,20.29,20.29,0,0,1-.07,6.81c-.12.78-.34,1.84-.65,3.17s-.66,2.81-1,4.45-.83,3.36-1.3,5.16-.9,3.58-1.32,5.33-.8,3.42-1.14,5-.61,2.94-.79,4.09a37.87,37.87,0,0,0-.53,5,9.19,9.19,0,0,0,.4,3.17,3.27,3.27,0,0,0,1.39,1.79,6.62,6.62,0,0,0,2.42.8,18.49,18.49,0,0,0,4.49.13,29.82,29.82,0,0,0,4.85-.86l.45,2.16a26.08,26.08,0,0,1-4.07,1.72,49,49,0,0,1-5,1.41,38.35,38.35,0,0,1-5.16.82,18.59,18.59,0,0,1-4.41-.08,5,5,0,0,1-3.29-1.68A7,7,0,0,1,441,230a19.18,19.18,0,0,1-.09-4.72c.15-1.77.39-3.66.7-5.67.39-2.43.87-4.92,1.46-7.48s1.16-5,1.74-7.35,1.11-4.49,1.6-6.43.83-3.52,1-4.72q.67-4.35-.72-6.8a5.84,5.84,0,0,0-4.39-2.92A8.71,8.71,0,0,0,437,185a26.68,26.68,0,0,0-6,4.44,55.38,55.38,0,0,0-6.24,7.13,79.63,79.63,0,0,0-5.88,9.19,90.59,90.59,0,0,0-4.93,10.61,74.06,74.06,0,0,0-3.41,11.34l-8.84-.35-.65-.14q1-4.59,2.17-10.12l2.52-11.75q1.33-6.21,2.79-12.95t3-13.72q1.5-7,3-14.1c1-4.74,2-9.41,3-14s2-9.14,2.92-13.57,1.85-8.66,2.71-12.7a2.81,2.81,0,0,1,.83-1.54,3.87,3.87,0,0,1,1.53-.88,7.68,7.68,0,0,1,2-.31,13.09,13.09,0,0,1,2.23.16,12.18,12.18,0,0,1,4.94,2.06q-2.2,7.85-4,14.41t-3.28,12.17q-1.49,5.61-2.73,10.47t-2.35,9.32q-1.11,4.47-2.11,8.72t-2,8.66c-.69,2.93-1.4,6-2.13,9.14s-1.53,6.56-2.39,10.2Z"/><path d="M536.9,167.59q-3.74,6.76-7.08,14.16t-6.29,14.69c1.23.4,2.43.79,3.59,1.15l3.27,1c1,.32,1.93.59,2.77.83l2.08.6a35.15,35.15,0,0,0,6,1.27c0,.47,0,.89,0,1.27a5.17,5.17,0,0,1-.16,1,2.16,2.16,0,0,1-2.07,1.76,14.36,14.36,0,0,1-4.33-.7q-2.61-.76-5.76-2c-2.09-.82-4.4-1.68-6.91-2.6q-1.6,4-3,7.74c-.94,2.53-1.79,4.92-2.57,7.17s-1.47,4.35-2.08,6.29-1.13,3.64-1.54,5.09a56.32,56.32,0,0,0-1.65,7.41,18,18,0,0,0,0,5.87,8.4,8.4,0,0,0,2.07,4.29,9.73,9.73,0,0,0,4.58,2.59,18.82,18.82,0,0,0,5,.64,39.18,39.18,0,0,0,6.67-.6,4.11,4.11,0,0,1,.51,2.87q-2.91.85-5.77,1.42a52.25,52.25,0,0,1-5.54.78,34.8,34.8,0,0,1-5.08.07,20.6,20.6,0,0,1-4.43-.73,12.78,12.78,0,0,1-4.58-2.32,9.21,9.21,0,0,1-2.86-4.41,19.61,19.61,0,0,1-.65-7.14,50,50,0,0,1,2-10.48c.66-2.31,1.39-4.68,2.17-7.11s1.6-4.88,2.45-7.36,1.75-4.95,2.68-7.4,1.88-4.87,2.84-7.23q-3.14-.87-5.87-1.42a31.71,31.71,0,0,0-4.77-.65,1.08,1.08,0,0,1,0-.56,2.1,2.1,0,0,1,1.24-1.28,8.53,8.53,0,0,1,2.63-.63,19.76,19.76,0,0,1,3.74,0,37.36,37.36,0,0,1,4.59.73q3.2-7.71,6.26-14.5t5.69-12.07a3.81,3.81,0,0,1,1.2-1.43,4.35,4.35,0,0,1,1.55-.67,5.28,5.28,0,0,1,1.69-.09,9.69,9.69,0,0,1,1.67.31,9.86,9.86,0,0,1,2.29,1A9.06,9.06,0,0,1,536.9,167.59Z"/><path d="M549.59,239.23a111.51,111.51,0,0,1,12-13.79,58.92,58.92,0,0,1,10.62-8.25,26,26,0,0,1,9-3.47,15.08,15.08,0,0,1,7.25.51,11.87,11.87,0,0,1,3.91,2.3,10.43,10.43,0,0,1,2.72,3.75,13.05,13.05,0,0,1,1,5.23,20.68,20.68,0,0,1-1.32,6.69c-.27.74-.67,1.74-1.22,3s-1.16,2.65-1.85,4.19-1.43,3.14-2.22,4.83-1.54,3.35-2.27,5-1.41,3.22-2,4.7-1.14,2.79-1.53,3.88a38.9,38.9,0,0,0-1.43,4.84,9.08,9.08,0,0,0-.19,3.19,3.27,3.27,0,0,0,1,2,6.7,6.7,0,0,0,2.23,1.23,18.18,18.18,0,0,0,4.39.95,28.87,28.87,0,0,0,4.93,0l.05,2.21a25.58,25.58,0,0,1-4.32.95,48.69,48.69,0,0,1-5.22.46,39.11,39.11,0,0,1-5.22-.14,18.75,18.75,0,0,1-4.32-.88,5,5,0,0,1-2.92-2.26,6.93,6.93,0,0,1-.76-3.59,19.9,19.9,0,0,1,.77-4.65c.48-1.71,1-3.52,1.73-5.44.82-2.32,1.76-4.69,2.8-7.09s2.06-4.71,3.06-6.91,1.91-4.21,2.75-6,1.46-3.31,1.86-4.46c1-2.76,1.16-5,.54-6.81a5.83,5.83,0,0,0-3.78-3.68,8.65,8.65,0,0,0-5.37.16,26.91,26.91,0,0,0-6.75,3.27,55.61,55.61,0,0,0-7.44,5.86,79.59,79.59,0,0,0-7.46,8,87.89,87.89,0,0,0-6.78,9.53A73,73,0,0,0,542.44,259l-8.62-2-.61-.25q1.78-4.33,4-9.56t4.63-11.08q2.45-5.87,5.12-12.22t5.42-13q2.76-6.6,5.57-13.3t5.54-13.24q2.74-6.56,5.35-12.81t5-12a2.75,2.75,0,0,1,1.09-1.36,3.93,3.93,0,0,1,1.67-.59,7.62,7.62,0,0,1,2,.06,12.6,12.6,0,0,1,2.17.56,12.29,12.29,0,0,1,4.47,2.93q-3.59,7.31-6.55,13.44t-5.45,11.36q-2.49,5.24-4.61,9.79t-4,8.74q-1.9,4.18-3.67,8.19t-3.58,8.14l-3.77,8.59-4.21,9.6Z"/><path d="M638.5,283.12a7,7,0,0,1,.46.56,5.39,5.39,0,0,1,.49.72,3.8,3.8,0,0,1,.31.73.91.91,0,0,1,0,.63.47.47,0,0,1-.24.24,33,33,0,0,1-6.65,3,30.59,30.59,0,0,1-6.57,1.38,25.54,25.54,0,0,1-6.26-.17,24.29,24.29,0,0,1-5.68-1.58,21.13,21.13,0,0,1-7.62-5.3,21.66,21.66,0,0,1-4.48-7.64,24.79,24.79,0,0,1-1.23-9.09,28.41,28.41,0,0,1,2.22-9.63,39.18,39.18,0,0,1,9.89-13.83A36.75,36.75,0,0,1,620,238.3a30.89,30.89,0,0,1,7.75-3,28,28,0,0,1,8.29-.68,26.13,26.13,0,0,1,8.5,2.05,21,21,0,0,1,5.06,3,15.88,15.88,0,0,1,3.59,4,11.37,11.37,0,0,1,1.64,4.67,9.9,9.9,0,0,1-.77,5.05,10.13,10.13,0,0,1-5.26,5.45,21.76,21.76,0,0,1-9,1.8,55.4,55.4,0,0,1-11.79-1.26,129.35,129.35,0,0,1-13.77-3.68l-.26.62a30.41,30.41,0,0,0-2.35,9.08,22.72,22.72,0,0,0,.62,8.06,17.28,17.28,0,0,0,3.3,6.44,14.53,14.53,0,0,0,5.67,4.18,18.49,18.49,0,0,0,7.7,1.31A27.65,27.65,0,0,0,638.5,283.12Zm5.16-32.37a9.11,9.11,0,0,0,.73-3.39,8.69,8.69,0,0,0-.57-3.23,8.34,8.34,0,0,0-1.78-2.74,8.54,8.54,0,0,0-2.86-1.93,12.49,12.49,0,0,0-4.84-1,13.59,13.59,0,0,0-4.57.78,17.34,17.34,0,0,0-4.23,2.18,27.22,27.22,0,0,0-3.78,3.21,34.19,34.19,0,0,0-3.24,3.85,37.91,37.91,0,0,0-2.61,4.1,76.11,76.11,0,0,0,10.21,2.8,35.55,35.55,0,0,0,8.19.72,13.64,13.64,0,0,0,5.91-1.48A7.61,7.61,0,0,0,643.66,250.75Z"/><image class="cls-3" width="296" height="390" transform="translate(180 321)" xlink:href="Titelsk%C3%A6rm7.png"/><path class="cls-17" d="M403.89,399C379,334.4,354.49,303.56,301,356.35a67.58,67.58,0,0,0-49.9,7.33C201.89,392.36,187,476.94,189.18,529.39c-.29,16.3,4.18,38.79,15.78,70.51l62.66,89,16.24-126c8.71-19.14,14.74-35,18.41-48a36.47,36.47,0,0,1,6.88-13.19c26.83-32.75,47.49-85.32,36.94-109.32-5.52-12.54-15.52-22.76-27.78-29.42,55.29-46,70.1,41.91,82.08,118A75.08,75.08,0,0,0,418,518.76c10.47,12,24.43,24.38,35.64,26.67-.59-2.62-41-35-42.85-89.12C410.12,436.19,410.61,416.41,403.89,399Z"/><path class="cls-8" d="M212.78,580.36,220,562.55c-1.74-16.58-18.9-15.83-34-7.84C191,581.05,199.56,582.47,212.78,580.36Z"/><path class="cls-17" d="M220,562.55a15.53,15.53,0,0,0-3.44-8.8c-6.58-1.39-15.21.81-23.26,5.07,2.13,11.33,4.93,18,8.48,21.85,3.23.66,6.88.34,11-.31Z"/><path class="cls-8" d="M266.34,568.75l-14.63-12.49c-6.07-15.53,9.51-22.74,26.59-22.59C286,559.35,279.05,564.54,266.34,568.75Z"/><path class="cls-17" d="M251.32,545c-1.31,3.1-1.34,6.84.39,11.25l14.63,12.49a34.58,34.58,0,0,0,9-4.12c2.18-5,1.91-12.68-1.85-25.19C264.85,539.36,256.59,541.18,251.32,545Z"/><circle cx="268.48" cy="688.17" r="7.54"/><path class="cls-8" d="M393.34,374c-4.31-.74-12.94,1.28-16.32,5.37.38.88.77,1.77,1.15,2.68,2.74-4.27,11.16-7.35,15.35-7.66Z"/><path class="cls-8" d="M389.13,365.39c-3.83-1.11-12.8.73-16.65,4.77q.66,1.15,1.29,2.37c3.38-4.11,11.78-6.95,15.47-6.94C389.2,365.53,389.17,365.46,389.13,365.39Z"/><path class="cls-8" d="M383.14,354.9c-4.34.19-12.1,3.43-15.6,7.71.54.7,1.07,1.42,1.59,2.17,3-4.34,10.23-8.37,14.26-9.49C383.3,355.16,383.22,355,383.14,354.9Z"/><path class="cls-8" d="M399.16,387.15c-4.39-1.38-13.36-.27-17.79,3.55.36,1.05.71,2.11,1.06,3.19,3.81-4.19,12.57-6.51,16.9-6.33Z"/><path class="cls-8" d="M385.55,404.41c.21.79.43,1.58.64,2.38,5-2.78,14.22-4.72,18.7-5-.06-.19-.14-.38-.2-.58C399.74,400.36,389.7,401.17,385.55,404.41Z"/><path class="cls-8" d="M388.05,414.17c.2.81.39,1.63.58,2.45,5.25-2.81,14.71-4.73,18.92-4.89l-.09-.44C402.86,410.28,392.55,411,388.05,414.17Z"/><path class="cls-8" d="M391.5,429.74c.17.87.35,1.74.52,2.62,4.68-3.82,13.07-5.29,17.68-4.49,0-.18,0-.36,0-.54C404.65,425.45,395.61,425.89,391.5,429.74Z"/><path class="cls-8" d="M394.45,445.13c.16.93.33,1.86.49,2.79,4.86-3.59,12-5.52,15.49-4.86v-.22C406.6,441.37,399.23,442.24,394.45,445.13Z"/><path class="cls-8" d="M410.91,458.69c0-.13,0-.27,0-.41-3.67-.92-9.5-.21-13.83,2,.14.89.29,1.78.44,2.66C401.84,460.1,407.47,458.51,410.91,458.69Z"/><path class="cls-8" d="M412.55,472.51c0-.09,0-.18-.05-.26-3.38-.68-8.83.53-13,3l.42,2.66C404,474.62,409.41,472.47,412.55,472.51Z"/><path class="cls-8" d="M372.7,341.27c-4.25,1.33-12,6.88-14,12.84h0c.75.49,1.49,1,2.21,1.6h0c1.38-5.7,8.29-11.94,12-14.27Z"/><path class="cls-8" d="M360.16,332.11c-6,2.1-13.33,10.12-14.62,17.41,0,0,0,.35-.08.74a22.88,22.88,0,0,1,2.89.12c1-6.82,7.23-15,12.49-17.94C360.61,332.33,360.39,332.21,360.16,332.11Z"/><path class="cls-8" d="M339,351.18c-1.24-6.07-1.68-15.09.14-20.43l-1.24.34c-2.48,5.37-2.79,14.65-1.67,21C337.19,351.71,338.11,351.42,339,351.18Z"/><path class="cls-8" d="M322.51,338.54c-.41.26-.81.53-1.22.81.31,5.44,2.84,12.43,5.66,17.3.82-.52,1.64-1,2.45-1.46C326.47,350.58,323.36,343.82,322.51,338.54Z"/><path class="cls-8" d="M309.92,348.11c1.63,4.79,5.4,10.35,9.1,14.26.75-.61,1.49-1.2,2.22-1.76-3.81-3.61-8.1-8.84-10.25-13.42Z"/><image class="cls-3" width="28" height="33" transform="translate(252 581)" xlink:href="Titelsk%C3%A6rm8.png"/><path class="cls-7" d="M257.57,608.66a11.36,11.36,0,0,1-3.32-1,1.54,1.54,0,0,1-.87-1.45,13.78,13.78,0,0,1,.34-2.85c2.48-9.69,18.39-20.67,18.39-20.67a11.49,11.49,0,0,1,.7,1.55c.9,2.87,2,5.67,1.45,9C272.8,602.93,265.32,609.84,257.57,608.66Z"/><path class="cls-18" d="M272.52,592.24a9.28,9.28,0,0,1,1.24,3.39h0q-.11.42-.24.84h0c-.08.28-.17.55-.27.82h0l-.3.79h0l-.33.77h0c-.12.25-.23.5-.36.74v0c-.12.24-.25.48-.38.72h0c-.13.24-.26.47-.4.7v0l-.42.66v0l-.45.65h0c-.16.21-.31.42-.47.62h0l-.5.6h0c-.17.2-.34.39-.52.57h0c-.17.19-.35.37-.53.54h0l-.55.52h0a14.91,14.91,0,0,1-1.17.93h0a9.39,9.39,0,0,1-11.43-6.82c2.42-4.28,6.64-8.49,10.25-11.62A9.39,9.39,0,0,1,272.52,592.24Z"/><path d="M257.21,596.6c1.22,1.71,2.46,3.31,3.68,4.73l1.36,1.57h0a57.92,57.92,0,0,0-3.68-8C258.1,595.43,257.64,596,257.21,596.6Z"/><image class="cls-3" width="33" height="28" transform="translate(207 591)" xlink:href="Titelsk%C3%A6rm9.png"/><path class="cls-7" d="M235.21,612.16a11.48,11.48,0,0,0,2.76-2.11,1.56,1.56,0,0,0,.31-1.67,13.62,13.62,0,0,0-1.3-2.55c-5.68-8.24-24.39-13.05-24.39-13.05a11.49,11.49,0,0,0-.12,1.7c.14,3,.11,6,1.75,9C218.94,612,228.34,615.94,235.21,612.16Z"/><path class="cls-18" d="M215.51,601.91a9.58,9.58,0,0,0,0,3.62h0c.17.24.34.47.52.7h0l.54.68h0c.18.22.37.43.56.64h0l.57.61h0l.59.58h0l.6.54h0l.61.52h0l.63.48h0c.21.16.43.31.65.45h0q.33.23.66.42h0l.67.39h0c.22.13.45.25.68.36h0l.69.33h0l.7.29h0c.48.18,1,.34,1.43.47h0a9.4,9.4,0,0,0,8.37-10.35c-3.75-3.18-9.17-5.68-13.63-7.37A9.39,9.39,0,0,0,215.51,601.91Z"/><path d="M231.38,600.72c-.55,2-1.16,3.95-1.82,5.7l-.73,2h0a58.29,58.29,0,0,1,.67-8.82C230.15,599.93,230.77,600.32,231.38,600.72Z"/></g></g></svg>
