<svg id="Layer_1" data-name="Layer 1" xmlns="http://www.w3.org/2000/svg" xmlns:xlink="http://www.w3.org/1999/xlink" width="500" height="100" viewBox="0 0 500 100"><defs><style>.cls-1{fill:url(#radial-gradient);}.cls-2{fill:#fff;}.cls-3{fill:none;}.cls-4{fill:url(#radial-gradient-2);}.cls-5{fill:url(#radial-gradient-3);}.cls-6{fill:url(#radial-gradient-4);}.cls-7{fill:url(#radial-gradient-5);}</style><radialGradient id="radial-gradient" cx="49.69" cy="348.66" r="34.11" gradientTransform="matrix(1, 0, 0, -0.99, 0, 395.23)" gradientUnits="userSpaceOnUse"><stop offset="0.23" stop-color="#00acc1"/><stop offset="1" stop-color="#168396"/></radialGradient><radialGradient id="radial-gradient-2" cx="149.69" cy="348.66" r="34.11" xlink:href="#radial-gradient"/><radialGradient id="radial-gradient-3" cx="249.69" cy="348.66" r="34.11" xlink:href="#radial-gradient"/><radialGradient id="radial-gradient-4" cx="349.69" cy="348.66" r="34.11" xlink:href="#radial-gradient"/><radialGradient id="radial-gradient-5" cx="450" cy="349.43" r="26.66" gradientTransform="matrix(1, 0, 0, -0.99, 0, 395.23)" gradientUnits="userSpaceOnUse"><stop offset="0"/><stop offset="0.54"/><stop offset="0.63"/></radialGradient></defs><title>Toggle_sprite</title><path class="cls-1" d="M31.85,34h36.3a16,16,0,0,1,15.9,16h0a16,16,0,0,1-15.9,16H31.85A16,16,0,0,1,16,50h0A15.9,15.9,0,0,1,31.85,34Z"/><circle class="cls-2" cx="67.55" cy="50" r="13.5"/><rect class="cls-3" width="100" height="100"/><path class="cls-4" d="M131.85,34h36.3a16,16,0,0,1,15.9,16h0a16,16,0,0,1-15.9,16h-36.3A16,16,0,0,1,116,50h0A15.9,15.9,0,0,1,131.85,34Z"/><circle class="cls-2" cx="160.55" cy="50" r="13.5"/><rect class="cls-3" x="100" width="100" height="100"/><path class="cls-5" d="M231.85,34h36.3a16,16,0,0,1,15.9,16h0a16,16,0,0,1-15.9,16h-36.3A16,16,0,0,1,216,50h0A15.9,15.9,0,0,1,231.85,34Z"/><circle class="cls-2" cx="250.55" cy="50" r="13.5"/><rect class="cls-3" x="200" width="100" height="100"/><path class="cls-6" d="M331.85,34h36.3a16,16,0,0,1,15.9,16h0a16,16,0,0,1-15.9,16h-36.3A16,16,0,0,1,316,50h0A15.9,15.9,0,0,1,331.85,34Z"/><circle class="cls-2" cx="340.55" cy="50" r="13.5"/><rect class="cls-3" x="300" width="100" height="100"/><path class="cls-7" d="M431.85,34h36.3a16,16,0,0,1,15.9,16h0a16,16,0,0,1-15.9,16h-36.3A16,16,0,0,1,416,50h0A15.9,15.9,0,0,1,431.85,34Z"/><circle class="cls-2" cx="431.55" cy="50" r="13.5"/><rect class="cls-3" x="400" width="100" height="100"/><rect class="cls-3" x="100" width="100" height="100"/><rect class="cls-3" x="200" width="100" height="100"/><rect class="cls-3" x="300" width="100" height="100"/><rect class="cls-3" x="400" width="100" height="100"/></svg>
