<svg id="Layer_1" data-name="Layer 1" xmlns="http://www.w3.org/2000/svg" xmlns:xlink="http://www.w3.org/1999/xlink" width="500" height="100" viewBox="0 0 500 100"><defs><style>.cls-1{fill:url(#radial-gradient);}.cls-2{fill:#fff;}.cls-3{fill:none;}.cls-4{fill:url(#radial-gradient-2);}.cls-5{fill:url(#radial-gradient-3);}.cls-6{fill:url(#radial-gradient-4);}.cls-7{fill:url(#radial-gradient-5);}.cls-8{fill:#b05412;}.cls-9{fill:#7c4b2a;}</style><radialGradient id="radial-gradient" cx="49.69" cy="348.66" r="34.11" gradientTransform="matrix(1, 0, 0, -0.99, 0, 395.23)" gradientUnits="userSpaceOnUse"><stop offset="0.23" stop-color="#00acc1"/><stop offset="1" stop-color="#168396"/></radialGradient><radialGradient id="radial-gradient-2" cx="149.69" cy="348.66" r="34.11" xlink:href="#radial-gradient"/><radialGradient id="radial-gradient-3" cx="249.69" cy="348.66" r="34.11" xlink:href="#radial-gradient"/><radialGradient id="radial-gradient-4" cx="349.69" cy="348.66" r="34.11" xlink:href="#radial-gradient"/><radialGradient id="radial-gradient-5" cx="450" cy="349.43" r="26.66" gradientTransform="matrix(1, 0, 0, -0.99, 0, 395.23)" gradientUnits="userSpaceOnUse"><stop offset="0" stop-color="#6b6b6b"/><stop offset="0.37" stop-color="#686868"/><stop offset="0.65" stop-color="#5e5e5e"/><stop offset="0.9" stop-color="#4e4e4e"/><stop offset="0.93" stop-color="#4b4b4b"/></radialGradient></defs><title>Toggle_sprite</title><path class="cls-1" d="M31.85,34h36.3a16,16,0,0,1,15.9,16h0a16,16,0,0,1-15.9,16H31.85A16,16,0,0,1,16,50h0A15.9,15.9,0,0,1,31.85,34Z"/><circle class="cls-2" cx="67.55" cy="50" r="13.5"/><rect class="cls-3" width="100" height="100"/><path class="cls-4" d="M131.85,34h36.3a16,16,0,0,1,15.9,16h0a16,16,0,0,1-15.9,16h-36.3A16,16,0,0,1,116,50h0A15.9,15.9,0,0,1,131.85,34Z"/><circle class="cls-2" cx="160.55" cy="50" r="13.5"/><rect class="cls-3" x="100" width="100" height="100"/><path class="cls-5" d="M231.85,34h36.3a16,16,0,0,1,15.9,16h0a16,16,0,0,1-15.9,16h-36.3A16,16,0,0,1,216,50h0A15.9,15.9,0,0,1,231.85,34Z"/><circle class="cls-2" cx="250.55" cy="50" r="13.5"/><rect class="cls-3" x="200" width="100" height="100"/><path class="cls-6" d="M331.85,34h36.3a16,16,0,0,1,15.9,16h0a16,16,0,0,1-15.9,16h-36.3A16,16,0,0,1,316,50h0A15.9,15.9,0,0,1,331.85,34Z"/><circle class="cls-2" cx="340.55" cy="50" r="13.5"/><rect class="cls-3" x="300" width="100" height="100"/><path class="cls-7" d="M431.85,34h36.3a16,16,0,0,1,15.9,16h0a16,16,0,0,1-15.9,16h-36.3A16,16,0,0,1,416,50h0A15.9,15.9,0,0,1,431.85,34Z"/><circle class="cls-2" cx="431.55" cy="50" r="13.5"/><rect class="cls-3" x="400" width="100" height="100"/><rect class="cls-3" x="100" width="100" height="100"/><rect class="cls-3" x="200" width="100" height="100"/><rect class="cls-3" x="300" width="100" height="100"/><rect class="cls-3" x="400" width="100" height="100"/><path class="cls-8" d="M80,20.22a5.79,5.79,0,0,0-3,1.43c-5.28,4.83-9.57,4-12.15,7-5,5.83-4.34,11.42-1.92,19,.17.53-2.45,11,1.94,17,1.87,2.54,3.39,3.28,4.36,3.39l-.17.11c-3.58,2.53,1.23,9.32,5.24,9l1.35-.43h0L79,75.58c2.09-1.48,4.61-10.15-.16-17.07-2.86-4.16-8.09-3.44-4.68-9.72,2.85-5.26-1.63-8.9.28-12-.12.44.12,1,2,.82l1.06-.11c.92-.14,2.11-.39,3.64-.78,2.67-.7,5.52-6.3,5.56-9.07C86.75,24.09,83.44,21,80,20.22Z"/><path class="cls-9" d="M63,47.64h0a9.77,9.77,0,0,1-.17,1.49c1.16-.08,2.63-.08,4.22,0A7.21,7.21,0,0,1,63,47.64Z"/><path class="cls-9" d="M73.82,66.81A15.7,15.7,0,0,1,69.65,68l-.47.06h0l-.17.11a3.34,3.34,0,0,0-.64.6,7.24,7.24,0,0,1,2.47-.53,3.37,3.37,0,0,0,1.37-.46Z"/><path class="cls-9" d="M73.68,31.21a.08.08,0,0,0-.15,0A18.32,18.32,0,0,0,74,37.79a3.19,3.19,0,0,1,.39-1,.28.28,0,0,0,0-.13A20.71,20.71,0,0,1,73.68,31.21Z"/><path class="cls-9" d="M73.2,25.47c.89-1.34,3.68-2.76,3.42-3.46,0,0,0,0,0,0-3.24,2.83-6.09,3.58-8.39,4.51C68.54,27.15,72.53,26.47,73.2,25.47Z"/><path class="cls-8" d="M166.94,17.05A5.85,5.85,0,0,0,164.27,19c-4.35,5.68-8.72,5.63-10.74,9-3.92,6.61-2.29,12,1.4,19,.26.49-.5,11.25,4.87,16.38,2.27,2.18,3.9,2.65,4.87,2.58l-.14.14c-3.09,3.11,2.82,9,6.71,7.92l1.26-.66,0,0,3.09-1.63c1.8-1.82,2.77-10.79-3.12-16.78-3.55-3.6-8.57-2-6.3-8.77,1.89-5.66-3.15-8.48-1.8-11.86,0,.45.28.92,2.1.47l1-.3c.88-.3,2-.75,3.44-1.4,2.52-1.16,4.35-7.17,3.91-9.9C174.3,19.69,170.51,17.24,166.94,17.05Z"/><path class="cls-9" d="M155,47l0,0h0a8.25,8.25,0,0,1,.1,1.5c1.12-.28,2.57-.53,4.14-.77A7.24,7.24,0,0,1,155,47Z"/><path class="cls-9" d="M169,64a15.43,15.43,0,0,1-3.9,1.84l-.46.14h0l-.14.14a3.4,3.4,0,0,0-.53.7,7.06,7.06,0,0,1,2.34-1,3.36,3.36,0,0,0,1.27-.69Z"/><path class="cls-9" d="M162.66,29a.07.07,0,0,0-.13.06,18.39,18.39,0,0,0,1.63,6.36,3,3,0,0,1,.22-1,.27.27,0,0,0,0-.12A21.09,21.09,0,0,1,162.66,29Z"/><path class="cls-9" d="M161.19,23.4c.65-1.47,3.15-3.36,2.78-4,0,0,0,0,0,0-2.7,3.35-5.38,4.58-7.48,5.89C156.9,25.86,160.71,24.5,161.19,23.4Z"/><path class="cls-8" d="M244.84,18.94a5.78,5.78,0,0,0-1.71,2.81c-1.79,6.93-5.83,8.58-6.37,12.51-1,7.62,2.58,11.94,8.72,17,.43.35,3.93,10.56,10.86,13.18,3,1.12,4.63.92,5.5.48a1.59,1.59,0,0,0-.08.18c-1.63,4.07,6.1,7.15,9.27,4.67l.9-1.1,0,0,2.21-2.7c.94-2.39-1.66-11-9.43-14.24-4.66-1.93-8.66,1.51-9.22-5.61-.46-6-6.2-6.58-6.28-10.22.13.43.62.73,2.11-.39l.82-.68a33.8,33.8,0,0,0,2.63-2.63c1.87-2,1.21-8.29-.26-10.64C252.65,18.49,248.19,17.72,244.84,18.94Z"/><path class="cls-9" d="M245.5,51.2l0,0h0a9,9,0,0,1,.67,1.34c.92-.7,2.16-1.49,3.52-2.32A7.28,7.28,0,0,1,245.5,51.2Z"/><path class="cls-9" d="M265,61.38a15.36,15.36,0,0,1-2.87,3.22l-.36.31,0,0a1.59,1.59,0,0,0-.08.18,3,3,0,0,0-.21.85,7.53,7.53,0,0,1,1.78-1.79,3.26,3.26,0,0,0,.9-1.12C264.57,62.34,265.05,61.37,265,61.38Z"/><path class="cls-9" d="M245.55,31.58a.07.07,0,0,0-.1.11,18.3,18.3,0,0,0,4,5.22,3.14,3.14,0,0,1-.2-1,.23.23,0,0,0-.07-.11A20.56,20.56,0,0,1,245.55,31.58Z"/><path class="cls-9" d="M242,27c0-1.6,1.59-4.32,1-4.76,0,0,0,0,0,0-1.17,4.14-3.16,6.32-4.59,8.35C239,31,242,28.22,242,27Z"/><path class="cls-8" d="M322.46,25.27a5.74,5.74,0,0,0-.43,3.26c1.16,7.06-1.87,10.21-.77,14,2.14,7.38,7.19,9.88,14.84,12,.53.15,7.85,8.07,15.26,7.67,3.15-.17,4.6-1,5.22-1.79v.2c.15,4.38,8.47,4.07,10.37.52l.38-1.37v0l.93-3.36c-.1-2.56-6-9.41-14.37-9.21-5.05.12-7.31,4.89-10.7-1.4-2.84-5.27-8.34-3.52-9.88-6.81.29.34.85.42,1.77-1.21l.48-1a34.83,34.83,0,0,0,1.34-3.48c.88-2.62-2.25-8.07-4.54-9.62C329.41,21.7,325,22.8,322.46,25.27Z"/><path class="cls-9" d="M336.1,54.51v0h0a9.59,9.59,0,0,1,1.15,1c.56-1,1.37-2.24,2.28-3.55A7.32,7.32,0,0,1,336.1,54.51Z"/><path class="cls-9" d="M358.08,55.92A15.27,15.27,0,0,1,356.75,60l-.2.42,0,0v.2a2.92,2.92,0,0,0,.16.86,7.25,7.25,0,0,1,.9-2.35,3.39,3.39,0,0,0,.37-1.4C358,57,358.09,55.9,358.08,55.92Z"/><path class="cls-9" d="M328.22,36.55a.07.07,0,0,0-.06.13,18.52,18.52,0,0,0,5.76,3.17,3.31,3.31,0,0,1-.6-.86.21.21,0,0,0-.11-.07A21.29,21.29,0,0,1,328.22,36.55Z"/><path class="cls-9" d="M323.15,33.8c-.64-1.47-.3-4.59-1-4.76h0c.6,4.26-.34,7.06-.82,9.49C322,38.62,323.62,34.9,323.15,33.8Z"/><path class="cls-8" d="M408.94,38a5.74,5.74,0,0,0,1.39,3c4.77,5.33,3.91,9.61,6.89,12.23,5.77,5.08,11.37,4.47,19,2.14.52-.16,11,2.58,17-1.74,2.56-1.84,3.32-3.35,3.43-4.31l.11.16c2.49,3.61,9.34-1.12,9-5.13L465.32,43v0l-1-3.33c-1.47-2.11-10.1-4.73-17.08,0-4.19,2.81-3.53,8-9.78,4.57-5.22-2.91-8.91,1.52-12-.43.44.13.95-.11.85-2-.1-1,0,0-.11-1a33.56,33.56,0,0,0-.74-3.65c-.66-2.69-6.23-5.6-9-5.68C412.89,31.28,409.78,34.56,408.94,38Z"/><path class="cls-9" d="M436.16,55.35v0h0a9.72,9.72,0,0,1,1.48.19c-.07-1.16,0-2.63,0-4.22A7.29,7.29,0,0,1,436.16,55.35Z"/><path class="cls-9" d="M455.45,44.72a15.15,15.15,0,0,1,1.09,4.18l.06.47v0l.11.16a3.13,3.13,0,0,0,.6.65,7.12,7.12,0,0,1-.5-2.47,3.5,3.5,0,0,0-.44-1.38C456,45.64,455.45,44.7,455.45,44.72Z"/><path class="cls-9" d="M419.86,44.44a.08.08,0,0,0,0,.15,18.32,18.32,0,0,0,6.56-.43,3.5,3.5,0,0,1-1-.4.19.19,0,0,0-.13,0A21.16,21.16,0,0,1,419.86,44.44Z"/><path class="cls-9" d="M414.1,44.85c-1.32-.9-2.71-3.71-3.41-3.46h0c2.79,3.27,3.51,6.14,4.4,8.45C415.73,49.53,415.1,45.53,414.1,44.85Z"/></svg>
