<svg xmlns="http://www.w3.org/2000/svg" xmlns:xlink="http://www.w3.org/1999/xlink" width="500" height="300" viewBox="0 0 500 300"><defs><style>.cls-1{fill:url(#New_Gradient_Swatch_1);}.cls-2{filter:url(#AI_BevelShadow_1);}.cls-3{fill:#b05412;}.cls-4{fill:#7c4b2a;}.cls-5{fill:#ef1851;}.cls-6{fill:#a81d2e;}.cls-7{fill:#fff;}.cls-8{fill:#fcad74;}.cls-9{fill:#76f1fc;}.cls-10{opacity:0.64;}.cls-11{fill:#faf7ee;}.cls-12{fill:none;}.cls-13{fill:#ed2435;}.cls-14{fill:#c9c9c9;}</style><linearGradient id="New_Gradient_Swatch_1" x1="5.28" y1="150" x2="494.72" y2="150" gradientUnits="userSpaceOnUse"><stop offset="0" stop-color="#76f1fc"/><stop offset="0.18" stop-color="#69e8f3"/><stop offset="0.51" stop-color="#48cfdb"/><stop offset="0.94" stop-color="#13a8b5"/><stop offset="1" stop-color="#0ba2b0"/></linearGradient><filter id="AI_BevelShadow_1" x="-20" y="-20" width="140" height="140" name="AI_BevelShadow_1"><feGaussianBlur result="blur" stdDeviation="4" in="SourceAlpha"/><feOffset result="offsetBlur" dx="4" dy="4" in="blur"/><feSpecularLighting result="specOut" surfaceScale="5" specularExponent="10" in="blur"><fePointLight x="-5000" y="-10000" z="-20000"/></feSpecularLighting><feComposite result="specOut" operator="in" in="specOut" in2="SourceAlpha"/><feComposite result="litPaint" operator="arithmetic" k2="1" k3="1" in="SourceGraphic" in2="specOut"/><feMerge><feMergeNode in="offsetBlur"/><feMergeNode in="litPaint"/></feMerge></filter></defs><title>Win</title><g id="Layer_1" data-name="Layer 1"><rect x="1.77" y="3.35" width="497" height="292.89"/><rect class="cls-1" x="5.28" y="7.5" width="489.44" height="285"/><g class="cls-2"><path class="cls-3" d="M120.26,136.8a29.7,29.7,0,0,0-13.53-18.1,18.33,18.33,0,0,0-10.31,1.44c-20.56,9.49-32.72,2.92-43.4,9.49C32.29,142.39,28.94,159.88,28.94,185c0,1.75-18,30.78-10.5,53,3.18,9.45,7,13.16,9.86,14.4l-.6.17c-13.24,4.17-5.28,29.28,7.14,32.08h4.5l.09,0h11c7.73-2.47,23.67-26.15,16-51.62-.35-1.13-3.65-8.45-4.1-9.45,7.35-3.66,24.57,17,31.35,1.69,8.64-19.42,3-2.8,22.89-14.41,30.51-17.8,8.33-73.34,3.84-73.94A.17.17,0,0,1,120.26,136.8ZM61.7,199.22c14-12.72,3.68-28.39,12.42-35.88-.79,1.19-.55,3,5.2,4.39l3.3.66a113.48,113.48,0,0,0,11.72,1.16,12.3,12.3,0,0,0,5.24-1.09c1.75-.73,4.07.54,3.68,2.39-2.89,13.94-2.78,29.86-24,35C70.84,207.83,57.26,203.25,61.7,199.22Z"/><path class="cls-4" d="M29.06,185h-.12v0A29.42,29.42,0,0,1,27,189.33c3.26.79,7.26,2.07,11.57,3.55a.05.05,0,0,0,0-.1A22.13,22.13,0,0,1,29.06,185Z"/><path class="cls-4" d="M44.55,252.41c-5.08.34-11,1.12-14.9.23l-1.48-.26.13.06-.6.17a9.6,9.6,0,0,0-2.51,1.22,22.51,22.51,0,0,1,7.94.76,10.67,10.67,0,0,0,4.57-.05C40,254,44.6,252.42,44.55,252.41Z"/><path class="cls-4" d="M77.19,145.78a.23.23,0,0,0-.46,0A57.48,57.48,0,0,0,71.94,166a10.1,10.1,0,0,1,2.11-2.55.69.69,0,0,0,.11-.39A66.81,66.81,0,0,1,77.19,145.78Z"/><path class="cls-4" d="M81.29,128c4-3.17,13.75-4.77,13.65-7.12a.24.24,0,0,0,0-.08c-12.49,5.41-21.83,4.93-29.64,5.5C65.63,128.59,78.32,130.37,81.29,128Z"/><path class="cls-4" d="M99.83,168.37a2.91,2.91,0,0,1,3.13,1l.07,0a10.59,10.59,0,0,0,4.89-6.13.09.09,0,0,0-.17-.08Q105.35,166.59,99.83,168.37Z"/><path class="cls-4" d="M101.33,215.12a12.8,12.8,0,0,1-6.14-4.94.19.19,0,0,0-.34.16c.73,2.68,1.59,5,3.09,5.63l.31.23c1-1.3,1.82-1.2,3.13-1Z"/><path class="cls-4" d="M120.3,136.87a.1.1,0,0,1,0-.07c-.14-.59-.31-1.19-.5-1.77a.1.1,0,0,0-.11-.07c-3.35,1.07-4.82,4.56-6.17,8.2a.09.09,0,0,0,.16.08c2.17-3.38,4.42-6.5,6.34-6.09Z"/><path class="cls-4" d="M54.77,218.09c.53,2.31,5.18,3.91,7.58,5.51a4.17,4.17,0,0,1,1.21-.38c-2.77-3.65-5.83-3.36-8.45-5.45C55,217.64,54.72,217.89,54.77,218.09Z"/><path class="cls-3" d="M183.42,256.19c1.44-1.52,2.54-4.26,2.17-10.78-.29-5-1.08-9.41-2.63-11.48a6.82,6.82,0,0,0-2.77-4c.75-2-.41-1.93-.41-3.14,0-2,.23-3.74-4.26-4.38a.07.07,0,0,1-.05,0,12.82,12.82,0,0,0-8.39-7.84,1.92,1.92,0,0,1-.63-.3l-.49-.34a2.16,2.16,0,0,1-.68-.76,13.88,13.88,0,0,0-18.1-5.93c-1.12-.09-2.26-.15-3.4-.15a41.33,41.33,0,0,0-5,.32,21,21,0,0,0-3.71-.32c-6.1,0-11.14,2.56-12,5.91-1.34,4.38-5.48,6.1-9.33,8,0,0-.09,0-.12,0-5.09,4.68-9.27,7.44-9.29,11.62a13.84,13.84,0,0,0,.76,4.61c-1,3.42-5.15,8.77-5.41,14-.43,8.93,6,14.9,8.16,15.68a11.61,11.61,0,0,0,11.59,11l.4,0a40.82,40.82,0,0,0,3.43,2.36c2.58,3.07,5.91,4.12,10.1,4.63h0c2.53,2.22,2.32,1.16,10.45,1.16,4.77,0,7.78.15,10.25-.28.81.18,1.65-.88,2.52-.88,5.14,0,9.49-2.19,11-6.81l.41-.35a9,9,0,0,0,6.54-4.3,13.62,13.62,0,0,0,7.58-11.77,10,10,0,0,0-.24-2.32A13.3,13.3,0,0,0,183.42,256.19Zm-36,2.36a16.22,16.22,0,0,0-11.72-5H132.9a.06.06,0,0,1-.06-.08,12.27,12.27,0,0,0,.48-3.41,11.71,11.71,0,0,0-1.93-6.56.07.07,0,0,1,0-.09,12.6,12.6,0,0,0,4.6-6.14h0c4.31-.08,8-1.56,9.92-3.72a9.83,9.83,0,0,0,7.72,3.73,9.46,9.46,0,0,0,1.07-.06,14.39,14.39,0,0,1,2.13,3.31,10.91,10.91,0,0,0-.53,9.86,15.26,15.26,0,0,0-4.23,3.87A11,11,0,0,0,147.37,258.55Z"/><path class="cls-4" d="M117.67,218.93a4.72,4.72,0,0,0,4.56-1.94c1.57-2,2.54-3.78,1.18-5a4.49,4.49,0,0,0-.38.95C122.15,215.82,120.08,217.54,117.67,218.93Z"/><path class="cls-4" d="M136.23,237.22c.52,0,1-.06,1.53-.11a.08.08,0,0,0,.07-.08c-.09-1.16-3.08-2.84-5.13-4.1a.07.07,0,0,0-.09.11c1.86,1.8,3.94,3.2,3.55,4.08A.07.07,0,0,0,136.23,237.22Z"/><path class="cls-4" d="M146.76,211.76c0,.09.17.06.17,0a9.36,9.36,0,0,1,.64-4.65l-.39.17-1.06-.08A11.11,11.11,0,0,0,146.76,211.76Z"/><path class="cls-4" d="M147.37,258.55c-.21-.22-.43-.43-.65-.63.29,1.27.68,4,.89,5.64a.07.07,0,0,0,.14,0,24.4,24.4,0,0,1-.05-5.5C147.59,258.22,147.47,258.38,147.37,258.55Z"/><path class="cls-4" d="M131.39,243.5a.07.07,0,0,1,0-.09l.34-.25c-1.33-.44-2.89-.81-4-1.14,1.43.81,3,1.42,4,2C131.61,243.84,131.5,243.67,131.39,243.5Z"/><path class="cls-4" d="M132.9,253.55a.06.06,0,0,1-.06-.08,13,13,0,0,0,.29-1.27c-1.29.49-2.75,2.52-3.87,4.11-.06.08.06.18.13.11,1.6-1.51,3-2.9,3.88-2.87Z"/><path class="cls-4" d="M145.93,233.55c.09.12.2.24.3.36a9.47,9.47,0,0,1,.71-4.92c-.67.76-1.53.9-1.42,2.14-.15-1-.51-1.23-1.42-2.14.78,1.3,1,3.23,1.42,5C145.66,233.84,145.8,233.69,145.93,233.55Z"/><path class="cls-4" d="M157.39,234.89a3.37,3.37,0,0,1-2.6,2.28l0,0,0,0a7,7,0,0,1,.49.62,4.29,4.29,0,0,0,2.33-2.91A.08.08,0,0,0,157.39,234.89Z"/><path class="cls-4" d="M112.32,266.58c-.52.38-2.19.43-4.53.32h0c0,.29,0,.58.08.87h2.48a1.18,1.18,0,0,0,.56-.13l1.5-.75C112.59,266.8,113.15,266,112.32,266.58Z"/><path class="cls-4" d="M104.91,236.81l.14.44a12.46,12.46,0,0,1-.54,1.44,8.79,8.79,0,0,0,5.61,2.08.14.14,0,0,0,0-.26A16.43,16.43,0,0,1,104.91,236.81Z"/><path class="cls-4" d="M127,273.36l-5.29,3.3-2.52,1.26h.23l.4,0,.75.56,1.14-.38,5.34-4.65S127,273.33,127,273.36Z"/><path class="cls-4" d="M140.54,282.32a20,20,0,0,1-5.81,2.25,4.59,4.59,0,0,0-1.35.38,8.25,8.25,0,0,0,1.23.93,10.06,10.06,0,0,0,6-3.48A0,0,0,0,0,140.54,282.32Z"/><path class="cls-4" d="M167.69,273.73a.05.05,0,0,0-.1,0,22.64,22.64,0,0,1-.35,5.23q.18-.42.33-.87l.41-.35.55-.11A12,12,0,0,0,167.69,273.73Z"/><path class="cls-4" d="M152.83,281.62a0,0,0,0,0-.06.06,11.5,11.5,0,0,0,2.47,3.74,3.34,3.34,0,0,1,1.21-.51A22.51,22.51,0,0,1,152.83,281.62Z"/><path class="cls-4" d="M160.07,252.89c.08.06.19,0,.13-.12a5.1,5.1,0,0,0-2.94-2.43l-1.12-.4.18.45c-.15.09-.3.2-.45.3A12.1,12.1,0,0,1,160.07,252.89Z"/><path class="cls-4" d="M174.52,273.44l.47-.25a17.59,17.59,0,0,1-3.68-.82.09.09,0,0,0-.08.16,5.53,5.53,0,0,0,3,1.38A4.39,4.39,0,0,0,174.52,273.44Z"/><path class="cls-4" d="M180.51,230.2l-.32-.23a4.27,4.27,0,0,0,.17-.56,20.49,20.49,0,0,1-2.44.19.09.09,0,0,0,0,.18A6.36,6.36,0,0,0,180.51,230.2Z"/><path class="cls-4" d="M175.9,222.51l-.38-.06a.07.07,0,0,1-.05,0c-.05-.14-.11-.27-.17-.41a3.89,3.89,0,0,0-1.16,2.95c0,.09.15.17.14.07A3.27,3.27,0,0,1,175.9,222.51Z"/><path class="cls-4" d="M181.86,259.35c.14-.21.28-.44.42-.67-2.13-1.15-5.74-1.34-7.59-.16-.14.09-.11.31.07.24a9.22,9.22,0,0,1,7.11.67S181.86,259.38,181.86,259.35Z"/><path class="cls-4" d="M168.12,214.93c-.34-.13-.68-.25-1-.36a1.92,1.92,0,0,1-.63-.3l-.49-.34a2.1,2.1,0,0,1-.52-.51c.18,1.11.57,2.3.71,2.06A1.54,1.54,0,0,1,168.12,214.93Z"/><path class="cls-4" d="M180.14,227.89a1.84,1.84,0,0,1-.36-1.06,15,15,0,0,0,0-1.52,3.59,3.59,0,0,0-.42,1A1.32,1.32,0,0,0,180.14,227.89Z"/><path class="cls-3" d="M272.42,256.19c1.43-1.52,2.53-4.26,2.16-10.78-.29-5-1.07-9.41-2.62-11.48a6.87,6.87,0,0,0-2.78-4c.75-2-.41-1.93-.41-3.14,0-2,.23-3.74-4.26-4.38a.07.07,0,0,1-.05,0,12.79,12.79,0,0,0-8.39-7.84,1.92,1.92,0,0,1-.63-.3l-.49-.34a2.26,2.26,0,0,1-.68-.76,13.88,13.88,0,0,0-18.1-5.93c-1.12-.09-2.26-.15-3.4-.15a41.33,41.33,0,0,0-5,.32,21,21,0,0,0-3.7-.32c-6.11,0-11.15,2.56-12,5.91-1.34,4.38-5.48,6.1-9.33,8,0,0-.09,0-.12,0-5.09,4.68-9.27,7.44-9.29,11.62a13.84,13.84,0,0,0,.76,4.61c-1,3.42-5.15,8.77-5.41,14-.43,8.93,6,14.9,8.16,15.68a11.61,11.61,0,0,0,11.59,11l.4,0a40.82,40.82,0,0,0,3.43,2.36c2.58,3.07,5.91,4.12,10.1,4.63h0c2.53,2.22,2.32,1.16,10.45,1.16,4.77,0,7.78.15,10.25-.28.81.18,1.65-.88,2.52-.88,5.14,0,9.49-2.19,11-6.81l.42-.35a9,9,0,0,0,6.53-4.3,13.62,13.62,0,0,0,7.58-11.77,10,10,0,0,0-.24-2.32A13.71,13.71,0,0,0,272.42,256.19Zm-36.06,2.36a16.21,16.21,0,0,0-11.72-5h-2.75a.06.06,0,0,1-.06-.08,12.27,12.27,0,0,0,.48-3.41,11.71,11.71,0,0,0-1.93-6.56.07.07,0,0,1,0-.09,12.6,12.6,0,0,0,4.6-6.14h0c4.31-.08,8-1.56,9.92-3.72a9.84,9.84,0,0,0,8.8,3.67,14.69,14.69,0,0,1,2.12,3.31,10.91,10.91,0,0,0-.53,9.86,15.26,15.26,0,0,0-4.23,3.87A11,11,0,0,0,236.36,258.55Z"/><path class="cls-4" d="M206.66,218.93a4.72,4.72,0,0,0,4.56-1.94c1.57-2,2.54-3.78,1.18-5a4.49,4.49,0,0,0-.38.95C211.14,215.82,209.07,217.54,206.66,218.93Z"/><path class="cls-4" d="M225.23,237.22c.51,0,1-.06,1.52-.11a.08.08,0,0,0,.07-.08c-.09-1.16-3.08-2.84-5.13-4.1a.07.07,0,0,0-.08.11c1.85,1.8,3.93,3.2,3.54,4.08A.08.08,0,0,0,225.23,237.22Z"/><path class="cls-4" d="M235.75,211.76a.09.09,0,0,0,.17,0c-.07-1.36-.08-3.4.65-4.65l-.4.17-1.06-.08A11.11,11.11,0,0,0,235.75,211.76Z"/><path class="cls-4" d="M236.36,258.55c-.21-.22-.43-.43-.65-.63.29,1.27.69,4,.89,5.64a.07.07,0,0,0,.14,0,24.4,24.4,0,0,1-.05-5.5C236.58,258.22,236.46,258.38,236.36,258.55Z"/><path class="cls-4" d="M220.38,243.5a.07.07,0,0,1,0-.09l.34-.25c-1.33-.44-2.89-.81-4-1.14,1.43.81,3,1.42,4,2A5.58,5.58,0,0,0,220.38,243.5Z"/><path class="cls-4" d="M221.89,253.55a.06.06,0,0,1-.06-.08,13,13,0,0,0,.29-1.27c-1.28.49-2.74,2.52-3.87,4.11-.06.08.06.18.13.11,1.6-1.51,3-2.9,3.88-2.87Z"/><path class="cls-4" d="M234.92,233.55c.09.12.2.24.3.36a9.47,9.47,0,0,1,.71-4.92c-.67.76-1.53.9-1.42,2.14-.15-1-.51-1.23-1.42-2.14.78,1.3,1,3.23,1.42,5C234.65,233.84,234.79,233.69,234.92,233.55Z"/><path class="cls-4" d="M246.38,234.89a3.37,3.37,0,0,1-2.6,2.28l0,0,0,0c.17.2.33.41.49.62a4.27,4.27,0,0,0,2.32-2.91A.08.08,0,0,0,246.38,234.89Z"/><path class="cls-4" d="M201.31,266.58c-.52.38-2.19.43-4.53.32h0c0,.29.05.58.08.87h2.48a1.18,1.18,0,0,0,.56-.13l1.5-.75C201.58,266.8,202.14,266,201.31,266.58Z"/><path class="cls-4" d="M193.9,236.81l.14.44a12.46,12.46,0,0,1-.54,1.44,8.79,8.79,0,0,0,5.61,2.08.14.14,0,0,0,.06-.26A16.47,16.47,0,0,1,193.9,236.81Z"/><path class="cls-4" d="M216,273.36l-5.28,3.3-2.52,1.26h.22l.4,0,.75.56,1.15-.38,5.33-4.65A0,0,0,0,0,216,273.36Z"/><path class="cls-4" d="M229.53,282.32a20,20,0,0,1-5.81,2.25,4.59,4.59,0,0,0-1.35.38,8.25,8.25,0,0,0,1.23.93,10,10,0,0,0,6-3.48A0,0,0,0,0,229.53,282.32Z"/><path class="cls-4" d="M256.68,273.73a.05.05,0,0,0-.1,0,22.64,22.64,0,0,1-.35,5.23,8.22,8.22,0,0,0,.33-.87l.42-.35.54-.11A12,12,0,0,0,256.68,273.73Z"/><path class="cls-4" d="M241.82,281.62a0,0,0,1,0-.06.06,11.5,11.5,0,0,0,2.47,3.74,3.34,3.34,0,0,1,1.21-.51A22.51,22.51,0,0,1,241.82,281.62Z"/><path class="cls-4" d="M249.06,252.89c.08.06.19,0,.13-.12a5.1,5.1,0,0,0-2.94-2.43l-1.12-.4.18.45c-.15.09-.3.2-.45.3A12.1,12.1,0,0,1,249.06,252.89Z"/><path class="cls-4" d="M263.51,273.44l.47-.25a17.59,17.59,0,0,1-3.68-.82.09.09,0,0,0-.08.16,5.53,5.53,0,0,0,3,1.38A4.39,4.39,0,0,0,263.51,273.44Z"/><path class="cls-4" d="M269.5,230.2l-.32-.23a4.27,4.27,0,0,0,.17-.56,20.34,20.34,0,0,1-2.44.19.09.09,0,0,0,0,.18A6.41,6.41,0,0,0,269.5,230.2Z"/><path class="cls-4" d="M264.89,222.51l-.38-.06a.07.07,0,0,1-.05,0c0-.14-.11-.27-.17-.41a3.89,3.89,0,0,0-1.16,2.95c0,.09.15.17.15.07A3.23,3.23,0,0,1,264.89,222.51Z"/><path class="cls-4" d="M270.85,259.35c.15-.21.28-.44.42-.67-2.13-1.15-5.73-1.34-7.58-.16-.15.09-.12.31.06.24a9.22,9.22,0,0,1,7.11.67S270.85,259.38,270.85,259.35Z"/><path class="cls-4" d="M257.11,214.93c-.34-.13-.68-.25-1-.36a1.92,1.92,0,0,1-.63-.3l-.49-.34a2.29,2.29,0,0,1-.52-.51c.18,1.11.57,2.3.71,2.06A1.54,1.54,0,0,1,257.11,214.93Z"/><path class="cls-4" d="M269.13,227.89a1.84,1.84,0,0,1-.36-1.06,15,15,0,0,0,0-1.52,3.59,3.59,0,0,0-.42,1A1.32,1.32,0,0,0,269.13,227.89Z"/></g><path d="M48.33,43.3q1.88,3.75,3.64,7.11t3.48,6.53q1.74,3.16,3.52,6.21t3.68,6.13q1.49,2.4,2.63,4.12a16.76,16.76,0,0,0,2.16,2.69,4.15,4.15,0,0,0,2,1.16,2.78,2.78,0,0,0,2-.48,10.54,10.54,0,0,0,1.36-1A11.74,11.74,0,0,0,74.33,74l1.19,1c-.39.65-.81,1.29-1.27,1.91s-.92,1.2-1.39,1.74a15.13,15.13,0,0,1-1.41,1.46,9.24,9.24,0,0,1-1.34,1,4.23,4.23,0,0,1-2.25.72,3.78,3.78,0,0,1-2-.61A7.69,7.69,0,0,1,64,79.58,24,24,0,0,1,62.23,77c-.66-1-1.32-2.18-2-3.39s-1.35-2.46-2-3.78l-.18.07c.29,1.25.54,2.56.73,3.94A33.93,33.93,0,0,1,59,78a26.82,26.82,0,0,1-.29,4.12,18.81,18.81,0,0,1-1,3.87,13.55,13.55,0,0,1-1.9,3.36,12,12,0,0,1-6.5,4.1,8.43,8.43,0,0,1-3.24,0,8.74,8.74,0,0,1-3-1.14,14.92,14.92,0,0,1-2.69-2.11A23.33,23.33,0,0,1,38,87.46q-1.17-1.56-2.22-3.27c-.76-1.23-1.51-2.54-2.27-4S32,77.39,31.3,76s-1.4-2.84-2-4.22S28,69.11,27.5,68L26.11,65q-.59-1.23-.9-1.74a4.83,4.83,0,0,0-.69-.9,1.59,1.59,0,0,0-.8-.46,2.22,2.22,0,0,0-1,.06,5.43,5.43,0,0,0-1.33.64,12.57,12.57,0,0,0-1.2.83c-.44.33-.93.71-1.46,1.16l-1-1.25q2.1-2.09,3.58-3.42a18.44,18.44,0,0,1,2.59-2,5,5,0,0,1,1.43-.65,2.08,2.08,0,0,1,1.16,0,2.5,2.5,0,0,1,1,.61,6.94,6.94,0,0,1,.91,1.2c.18.29.46.84.85,1.66s.86,1.81,1.4,3,1.15,2.47,1.82,3.9,1.39,2.92,2.16,4.44,1.55,3,2.38,4.57,1.65,3,2.49,4.32c.52.84,1.07,1.68,1.65,2.51a22.76,22.76,0,0,0,1.82,2.3,13.76,13.76,0,0,0,2,1.83,7.46,7.46,0,0,0,2.2,1.14,5.68,5.68,0,0,0,2.4.18,6.71,6.71,0,0,0,2.62-1,8.44,8.44,0,0,0,2.67-2.65,12.64,12.64,0,0,0,1.57-3.77,19.76,19.76,0,0,0,.51-4.62,28.2,28.2,0,0,0-.52-5.15,36.48,36.48,0,0,0-4-10.8c-.36-.67-.73-1.32-1.08-1.95l-1.09-2c-.37-.66-.76-1.35-1.15-2.06s-.82-1.48-1.27-2.3-.92-1.71-1.43-2.66-1.07-2-1.67-3.15a1.32,1.32,0,0,1-.17-.74,1.91,1.91,0,0,1,.21-.74,3,3,0,0,1,.51-.68,3.71,3.71,0,0,1,.69-.55,5.94,5.94,0,0,1,1.1-.51A6.48,6.48,0,0,1,48.33,43.3Z"/><path d="M109.57,23.09q-.36,4.82-.65,9.84c-.19,3.36-.34,6.69-.43,10s-.13,6.59-.11,9.8.13,6.29.33,9.23c.09,1.41.18,2.62.28,3.63s.21,1.87.32,2.56a11.14,11.14,0,0,0,.39,1.66,2.72,2.72,0,0,0,.52.92,1.22,1.22,0,0,0,.65.4,2.88,2.88,0,0,0,.85,0,7.64,7.64,0,0,0,1.93-.4,13.57,13.57,0,0,0,2.06-.9l.42.95a12.1,12.1,0,0,1-1.63,1.22,20.76,20.76,0,0,1-2.08,1.17,16.25,16.25,0,0,1-2.15.91,7.18,7.18,0,0,1-1.85.41,3.32,3.32,0,0,1-1-.06,1.75,1.75,0,0,1-.77-.41,2.71,2.71,0,0,1-.58-.84,6.14,6.14,0,0,1-.44-1.37c-.16-.74-.31-1.61-.45-2.6s-.24-2.08-.31-3.26-.12-2.53-.11-3.83.07-2.6.2-3.9l-.17,0a53.11,53.11,0,0,1-2.69,7.09,34.62,34.62,0,0,1-3.15,5.49,16.35,16.35,0,0,1-3.4,3.58,6.49,6.49,0,0,1-3.41,1.41,5,5,0,0,1-3-.67A6.69,6.69,0,0,1,87,73a11.48,11.48,0,0,1-1.36-3.13,18,18,0,0,1-.62-3.7,20.67,20.67,0,0,1,.21-4.58,20.88,20.88,0,0,1,1.17-4.34,20.16,20.16,0,0,1,2-3.88,16.3,16.3,0,0,1,2.79-3.15,14.12,14.12,0,0,1,3.45-2.17,11.91,11.91,0,0,1,7-.79,11.06,11.06,0,0,1,3,1c-.08-2.13-.14-4.29-.19-6.5s-.09-4.34-.1-6.42,0-4.06,0-5.92.08-3.52.16-5a1.61,1.61,0,0,1,.25-.8,1.86,1.86,0,0,1,.58-.57,3,3,0,0,1,.83-.34,4.19,4.19,0,0,1,1-.16A5.48,5.48,0,0,1,109.57,23.09Zm-5,26.88a11.69,11.69,0,0,0-5.11-.87,9.47,9.47,0,0,0-3.31.8,9.58,9.58,0,0,0-2.64,1.78,11.31,11.31,0,0,0-2,2.55,14.88,14.88,0,0,0-1.32,3.06,18.76,18.76,0,0,0-.78,6.77c0,.4.07.86.14,1.37a14.24,14.24,0,0,0,.33,1.6,12.64,12.64,0,0,0,.53,1.61A6.8,6.8,0,0,0,91.19,70a3.4,3.4,0,0,0,1,1,2.28,2.28,0,0,0,1.33.3,4.72,4.72,0,0,0,2.69-1.2,14.26,14.26,0,0,0,2.57-2.86,26.79,26.79,0,0,0,2.28-4,42.84,42.84,0,0,0,1.83-4.58,36.51,36.51,0,0,0,1.22-4.6A22,22,0,0,0,104.58,50Z"/><path d="M134.33,58.29a6.3,6.3,0,0,0,0-2.62,5.11,5.11,0,0,0-.88-2A5.22,5.22,0,0,0,132,52.28a6.14,6.14,0,0,0-1.88-.74,7.79,7.79,0,0,0-2.26-.19,4.28,4.28,0,0,0-1.63.45,2.75,2.75,0,0,0-1,1,4,4,0,0,0-.55,1.35,5.44,5.44,0,0,0,0,1.85,7.38,7.38,0,0,0,.58,1.94l-.11.18a4.83,4.83,0,0,1-2.23.07,3.45,3.45,0,0,1-1.12-.44,2.5,2.5,0,0,1-.82-.76,2.58,2.58,0,0,1-.44-1,3.06,3.06,0,0,1,0-1.24,4.15,4.15,0,0,1,1-1.93,6.77,6.77,0,0,1,1.75-1.46,10.05,10.05,0,0,1,2.31-1,16.16,16.16,0,0,1,2.57-.57,18.79,18.79,0,0,1,2.58-.15,13.41,13.41,0,0,1,2.32.25A9.66,9.66,0,0,1,136.11,51,5.52,5.52,0,0,1,138,53a6.05,6.05,0,0,1,.75,2.65,11.65,11.65,0,0,1-.27,3.24c-.17.81-.39,1.69-.66,2.65s-.56,2-.87,3-.62,2.13-.92,3.24-.58,2.23-.81,3.35a6.83,6.83,0,0,0,.15,4.19,3.1,3.1,0,0,0,2.3,1.87,6.42,6.42,0,0,0,3.38-.38l.37.9A8.9,8.9,0,0,1,138.36,79a7.62,7.62,0,0,1-3.19,0,6.08,6.08,0,0,1-2.12-.87,4.69,4.69,0,0,1-1.49-1.58,5.53,5.53,0,0,1-.72-2.25,8.93,8.93,0,0,1,.19-2.9c.06-.32.14-.64.23-1a7.65,7.65,0,0,1,.33-1l-.11,0A28.71,28.71,0,0,1,129,72.2a17.62,17.62,0,0,1-2.86,2.26,11.67,11.67,0,0,1-3.06,1.4A6.32,6.32,0,0,1,120,76a6.15,6.15,0,0,1-2.22-.93,5.38,5.38,0,0,1-2.31-3.67A6.24,6.24,0,0,1,115.5,69a7.2,7.2,0,0,1,1.22-2.82,8,8,0,0,1,2.15-2,10.4,10.4,0,0,1,2.91-1.28,18.08,18.08,0,0,1,3.47-.6,24.41,24.41,0,0,1,3.82,0,31,31,0,0,1,4,.58c.25-.76.47-1.49.68-2.2S134.14,59.16,134.33,58.29Zm-14,10.26a6.22,6.22,0,0,0-.13,1.41,3.36,3.36,0,0,0,.26,1.25,2.49,2.49,0,0,0,.7,1,2.78,2.78,0,0,0,1.2.55,4.52,4.52,0,0,0,1.79,0,8,8,0,0,0,2-.7,10.9,10.9,0,0,0,2-1.28A14,14,0,0,0,130,68.94a13.68,13.68,0,0,0,1.54-2.14,11.84,11.84,0,0,0,1.08-2.44c-.91-.16-1.83-.29-2.74-.39a18.3,18.3,0,0,0-2.64-.1,11.59,11.59,0,0,0-2.4.3,6.48,6.48,0,0,0-2,.81,5.17,5.17,0,0,0-1.52,1.43A5.63,5.63,0,0,0,120.37,68.55Z"/><g class="cls-2"><path class="cls-5" d="M261.81,94.67a27.1,27.1,0,0,0-3.72-5.27,15.69,15.69,0,0,0,.68-2.9c.55-4.32-5.71-7.8-15-13-4.64-2.6-9.5.54-12.39,5A34.94,34.94,0,0,0,204.94,91a.87.87,0,0,1-1.35,0A35,35,0,0,0,183.1,79.09a16.73,16.73,0,0,0-19.93-.58c-12.43.22-22.4,7.29-22.4,16a12.33,12.33,0,0,0,2.79,7.65,38.3,38.3,0,0,0-1.72,9.27c-3.73,2.42-6.07,6.1-5.07,10.08,3.95,15.76,6.68,15.1,12.47,13.61a34.69,34.69,0,0,0,5.25,5.38c.77.64,1.52,1.29,2.22,2l25.72,26.36q-.36.81-.66,1.65c-3,8.05,3.95,13.79,15,13l5.59,5.74a1.33,1.33,0,0,0,1.9,0l33.83-33.83c1.24.63,2.49,1.31,3.72,2.08,7.55,4.77,14.36-1.63,15-13a10.39,10.39,0,0,0-1.19-5.37C266.56,128.93,271,111.78,261.81,94.67Z"/></g><path class="cls-6" d="M143.56,102.15a38,38,0,0,0-1,3.77c3.15,1.25,18.73-1.22,19.07-2.24a.13.13,0,0,0,0-.26c-8.34.43-15,.23-18.16-1.37Z"/><path class="cls-6" d="M161.75,78.57c2.56,1.55,6.16,6.42,8,8.93.83.19-.53-6.61-5.62-9.64-.33.2-.66.42-1,.65C162.69,78.52,162.22,78.54,161.75,78.57Z"/><path class="cls-6" d="M183.1,79.09c-.29-.24-.6-.46-.91-.68.95,3.44-.29,5.07-1.42,7.09-.28.35,3.21-1.31,3.41-6.18Z"/><path class="cls-6" d="M231.57,78.24l-.19.27c-.66,0-1.31,0-2,.08,2.85,3.5,6.86,5.48,7.35,4.91C236.89,83.61,232.49,80.49,231.57,78.24Z"/><path class="cls-6" d="M206.16,103.44c.92,1.22.57-6.53-.93-12.74l-.29.33a.87.87,0,0,1-1.35,0c-.07-.08-.14-.15-.2-.23A42.44,42.44,0,0,1,206.16,103.44Z"/><path class="cls-6" d="M259.14,90.64c-.33-.42-.69-.84-1.05-1.24l0-.09c-1.82,2-6,1.27-10.35.19C246.42,90.92,252.68,92.77,259.14,90.64Z"/><path class="cls-6" d="M142,109.48c-.07.65-.13,1.3-.17,1.94-.32.21-.63.44-.94.67,4.17-.78,10.66,3.78,12.42,5.67a.26.26,0,0,0,.42-.31C152.53,115.47,147.2,111.37,142,109.48Z"/><path class="cls-6" d="M181.21,167.61l1.22,1.24a.61.61,0,0,0-.05.12c3.27-1.33,7.24-1.64,9.21-.4.26.16.29-.21.16-.49C191.09,166.62,186.14,166.65,181.21,167.61Z"/><path class="cls-6" d="M235.44,148c0-.35-.4-.15-.64.15-1,1.2.43,4.37,2.86,7.68l.39-.39c.87.44,1.73.92,2.6,1.42l0-.12.17,0C237.6,154.33,235.12,150.66,235.44,148Z"/><path class="cls-6" d="M255.58,139.13l.94-.91c-4-2.08-7.79-3.52-9.32-3.12-6.62,1.7-7.25,3-1.43,1.4,2.64-.73,7.15,1.11,10.35,3.84A12,12,0,0,0,255.58,139.13Z"/><path class="cls-6" d="M153.77,129.5c-.3,1.57-6.26,6-6.26,6,.54-.12,1.12-.26,1.73-.42.27.35.56.68.84,1C152.54,134.62,154.28,129.66,153.77,129.5Z"/><path class="cls-6" d="M197.73,184.53c2.33-.6,2.84-5.17,2-6,0-1-.89,4.56-3.76,5l.72,0Z"/><rect class="cls-3" x="381.2" y="173.33" width="3.63" height="27.75" rx="0.93" transform="translate(66.23 -98.08) rotate(15.96)"/><rect class="cls-3" x="291.51" y="165.74" width="3.63" height="31.44" rx="0.93" transform="translate(609.74 318.76) rotate(171.72)"/><ellipse class="cls-7" cx="290.9" cy="165.06" rx="4.66" ry="2.78" transform="translate(-42.37 193.28) rotate(-34.41)"/><path class="cls-7" d="M427.47,57a1.41,1.41,0,0,0-.21-.46c-.76-1.44-1.65-1.16-2.7,1.75-6.24,7.92-4.95,6.1-14.49,6.35s-7.28,8.12-16.47,8.66c-8.34.49,3.45,18.68,12.61,23.92-1,.74-1.54,1.85-1.48,3.84.24,9.06,7.2,15.35,13.07,15.19s13.61-8,13.36-17C431,93.53,430.2,63.62,427.47,57Z"/><rect class="cls-8" x="333.16" y="44.83" width="4.03" height="161.3" transform="matrix(0.64, 0.77, -0.77, 0.64, 218.1, -212.72)"/><path d="M410.41,70.61c9.29-6.23,18.38-12.59,16.69-15.1s-13.5-.24-22.79,6S388.85,74.8,390.53,77.31,401.12,76.83,410.41,70.61Z"/><rect class="cls-3" x="368.78" y="192.34" width="3.63" height="25.38" rx="0.93" transform="translate(330.31 -216.58) rotate(55.59)"/><rect class="cls-3" x="304.36" y="188.39" width="3.58" height="25.38" rx="0.92" transform="translate(-11.87 382.81) rotate(-63.04)"/><rect class="cls-9" x="314.8" y="201.4" width="13.42" height="7.97" rx="2.04" transform="translate(-9.06 14.92) rotate(-2.62)"/><path class="cls-10" d="M407.47,124.53a17.72,17.72,0,0,0-10,1.4c-19.93,9.21-31.72,2.83-42.08,9.21C335.28,147.51,332,164.47,332,188.83c0,1.7-17.43,29.84-10.18,51.44,3.08,9.16,6.82,12.75,9.55,13.95l-.57.18c-12.84,4-5.12,28.39,6.92,31.1h4.36l.09,0h10.71c7.5-2.39,23-25.36,15.49-50.05-4.49-14.85-20.44-17.63-4.6-32.81,13.24-12.7,3.56-27.53,12-34.79-.77,1.15-.54,2.88,5,4.25l3.2.64a106,106,0,0,0,11.37,1.12c8.48.46,22-13.25,24.75-21.3C423.7,142.19,416.88,130.12,407.47,124.53Z"/><ellipse class="cls-11" cx="388.42" cy="171.4" rx="8.63" ry="3.74" transform="translate(-16.31 43.19) rotate(-6.23)"/><path class="cls-3" d="M404.47,123.53a17.72,17.72,0,0,0-10,1.4c-19.93,9.21-31.72,2.83-42.08,9.21C332.28,146.51,329,163.47,329,187.83c0,1.7-17.43,29.84-10.18,51.44,3.08,9.16,6.82,12.75,9.55,13.95l-.57.18c-12.84,4-5.12,28.39,6.92,31.1h4.36l.09,0h10.71c7.5-2.39,23-25.36,15.49-50.05-4.49-14.85-20.44-17.63-4.6-32.81,13.24-12.7,3.56-27.53,12-34.79-.77,1.15-.54,2.88,5,4.25l3.2.64a106,106,0,0,0,11.37,1.12c8.48.46,22-13.25,24.75-21.3C420.7,141.19,413.88,129.12,404.47,123.53Z"/><path d="M368.32,163.5c1.44-7.05-2.23-13.54-6.95-14.26s-8.31,4-9.39,11.08.65,13,5.36,13.67S367.24,168.77,368.32,163.5Z"/><ellipse class="cls-7" cx="359.37" cy="161.04" rx="13.03" ry="8.63" transform="matrix(0.15, -0.99, 0.99, 0.15, 146.23, 492.17)"/><path d="M352.64,160.42c3.32-6.38,2.58-13.34-1.65-15.54s-9.32,2-12.64,8.39-2.5,12.19,1.72,14.39S349.32,166.8,352.64,160.42Z"/><path class="cls-7" d="M352.16,159.6c3.32-6.38,3.64-12.52-.59-14.72s-10.35,1.19-13.67,7.57-2.59,13.34,1.64,15.54S348.84,166,352.16,159.6Z"/><ellipse cx="346.41" cy="156.44" rx="3.17" ry="1.73" transform="translate(49.93 394.29) rotate(-63.04)"/><ellipse cx="358.49" cy="160.47" rx="3.17" ry="1.73" transform="translate(167.48 503.66) rotate(-85.01)"/><path class="cls-11" d="M395.33,172.84c3.91-1.74,5.18-6.33.87-6.24-3.78.09-5.56,3.58-8.35,6.82"/><path d="M363.1,178c-1.27,4.93-11.64,14.11-18.41,12.37s-12.66-14.16-10.37-18.7"/><path class="cls-12" d="M334.32,171.69c-1.38,2.74.21,8.34,3.18,12.75,1.81-1.78,5.12-3,8.91-3,5,0,9.14,2.06,10.13,4.79,3.32-2.63,6-5.91,6.56-8.24Z"/><path class="cls-13" d="M346.41,181.47c-3.79,0-7.1,1.19-8.91,3,2,2.89,4.5,5.26,7.19,5.95,3.57.92,8.14-1.2,11.85-4.13C355.55,183.53,351.39,181.47,346.41,181.47Z"/><ellipse class="cls-7" cx="286.3" cy="162.75" rx="4.66" ry="2.78" transform="translate(-41.87 190.28) rotate(-34.41)"/><ellipse class="cls-7" cx="293.34" cy="162.89" rx="1.67" ry="2.8" transform="translate(-20.41 43.96) rotate(-8.28)"/><path class="cls-4" d="M329.14,187.8H329v0a29.09,29.09,0,0,1-1.89,4.2c3.45.83,7.76,2.23,12.36,3.83A22.24,22.24,0,0,1,329.14,187.8Z"/><path class="cls-12" d="M404.47,123.53a17.72,17.72,0,0,0-10,1.4c-19.93,9.21-31.72,2.83-42.08,9.21C332.28,146.51,329,163.47,329,187.83c0,1.7-17.43,29.84-10.18,51.44,3,9,6.71,12.64,9.43,13.9l1.43.25,7.7,1a.06.06,0,0,1,0,.12h-12c-9.26,6.25-1.82,27.41,9.36,29.93h4.36l.09,0h10.71c7.5-2.39,23-25.36,15.49-50.05-4.49-14.85-20.44-17.63-4.6-32.81,13.24-12.7,3.56-27.53,12-34.79-.77,1.15-.54,2.88,5,4.25l3.2.64a106,106,0,0,0,11.37,1.12c8.48.46,22-13.25,24.75-21.3C420.7,141.19,413.88,129.12,404.47,123.53Z"/><path class="cls-4" d="M343,254a47.3,47.3,0,0,1-13.24-.57l-1.43-.25.12.05-.57.18a9.19,9.19,0,0,0-2.44,1.17,22.14,22.14,0,0,1,7.7.74,10.39,10.39,0,0,0,4.44-.05C339.76,254.75,343,254,343,254Z"/><path class="cls-12" d="M348.33,222.91H326.07c-2.19,0-6.15.17-8.64-1a39.86,39.86,0,0,0,1.42,17.32c3.08,9.16,6.82,12.75,9.55,13.95l-.57.18c-12.84,4-5.12,28.39,6.92,31.1h4.36l.09,0h10.71c7.5-2.39,23-25.36,15.49-50.05-1.64-5.41-4.79-9.22-7.38-12.61C356.29,223.38,351.22,222.91,348.33,222.91Z"/><path class="cls-12" d="M404.47,123.53a17.72,17.72,0,0,0-10,1.4c-19.93,9.21-31.72,2.83-42.08,9.21C332.28,146.51,329,163.47,329,187.83c0,.67-2.72,5.47-5.57,12.36.72.47,1.56,1.59,2.37,2.23l3.31,2.65c.57,1.15,13.81,4,19,3.46l7.38-.57a30,30,0,0,1,5.29-6.34c13.24-12.7,3.56-27.53,12-34.79-.77,1.15-.54,2.88,5,4.25l3.2.64a106,106,0,0,0,11.37,1.12c8.48.46,22-13.25,24.75-21.3C420.7,141.19,413.88,129.12,404.47,123.53Z"/><path class="cls-9" d="M329.14,205.07l-3.31-2.65c-.81-.64-1.65-1.76-2.37-2.23a83.58,83.58,0,0,0-6,21.76c2.49,1.13,6.45,1,8.64,1h22.26c2.89,0,8,.47,9.69-1.09-3.4-4.45-5.81-8.18-2.51-13.86l-7.38.57C343,209.1,330.29,205.65,329.14,205.07Z"/><path class="cls-12" d="M404.47,123.53a17.72,17.72,0,0,0-10,1.4c-19.93,9.21-31.72,2.83-42.08,9.21C332.28,146.51,329,163.47,329,187.83c0,1.7-17.43,29.84-10.18,51.44,3.08,9.16,6.82,12.75,9.55,13.95l-.57.18c-12.84,4-5.12,28.39,6.92,31.1h4.36l.09,0h10.71c7.5-2.39,23-25.36,15.49-50.05-4.49-14.85-20.44-17.63-4.6-32.81,11.85-11.36,5.35-24.43,9.92-32.26l4.65-19.61a.22.22,0,0,1,.44.05l-2.93,16.71a.66.66,0,0,1-.11.38l.07-.06c-.77,1.15-.54,2.88,5,4.25l3.2.64a106,106,0,0,0,11.37,1.12c8.48.46,22-13.25,24.75-21.3C420.7,141.19,413.88,129.12,404.47,123.53Z"/><path class="cls-4" d="M375.81,149.8a.22.22,0,0,0-.44-.05,56,56,0,0,0-4.65,19.61,10.1,10.1,0,0,1,2-2.47.66.66,0,0,0,.11-.38A64.83,64.83,0,0,1,375.81,149.8Z"/><path class="cls-4" d="M379.79,132.55c3.84-3.07,13.34-4.62,13.24-6.91,0,0,0,0,0-.07-12.12,5.25-21.17,4.78-28.76,5.33C364.61,133.12,376.91,134.85,379.79,132.55Z"/><path class="cls-14" d="M405.71,97.65l3.43-.22c2.24-.45,3.6-2,4.6-4a21.37,21.37,0,0,1-8.58,3.12c.35.23.7.46,1,.65A4.42,4.42,0,0,0,405.71,97.65Z"/><rect class="cls-9" x="350.78" y="209.01" width="11.1" height="7.68" rx="1.37" transform="translate(-26.95 53.56) rotate(-8.28)"/></g></svg>
