<svg xmlns="http://www.w3.org/2000/svg" xmlns:xlink="http://www.w3.org/1999/xlink" width="110" height="140" viewBox="0 0 110 140"><defs><style>.cls-1{filter:url(#AI_BevelShadow_1);}.cls-2{fill:#b05412;}.cls-3{fill:#7c4b2a;}</style><filter id="AI_BevelShadow_1" x="-20" y="-20" width="140" height="140" name="AI_BevelShadow_1"><feGaussianBlur result="blur" stdDeviation="4" in="SourceAlpha"/><feOffset result="offsetBlur" dx="4" dy="4" in="blur"/><feSpecularLighting result="specOut" surfaceScale="5" specularExponent="10" in="blur"><fePointLight x="-5000" y="-10000" z="-20000"/></feSpecularLighting><feComposite result="specOut" operator="in" in="specOut" in2="SourceAlpha"/><feComposite result="litPaint" operator="arithmetic" k2="1" k3="1" in="SourceGraphic" in2="specOut"/><feMerge><feMergeNode in="offsetBlur"/><feMergeNode in="litPaint"/></feMerge></filter></defs><title>½ Poop Hearth</title><g id="Layer_1" data-name="Layer 1"><g class="cls-1"><path class="cls-2" d="M88.59,94.84c0-4-4-7-6-11-4.81-5.77,4.26-9.69,11.19-9.09a.79.79,0,0,0,.86-.77c.24-9-11-8.3-15-13.05a.76.76,0,0,1-.12-.19c-1-2-1.88-5.69-1-7.71a.78.78,0,0,1,.25-.32c5-3.93,11.8-6.93,8.84-12.87-1.63-3.25-1.2-7.37-1.9-10.79a.78.78,0,0,0-1.35-.35l0,0a1.64,1.64,0,0,1-2.45,0A34.92,34.92,0,0,0,62.1,17.47a.63.63,0,0,1-.32-.15,16.27,16.27,0,0,0-10.19-3.48,16.45,16.45,0,0,0-9.42,2.88.74.74,0,0,1-.4.14c-12.32.3-22.18,7.34-22.18,16a12.22,12.22,0,0,0,2.56,7.35.76.76,0,0,1,.12.67,38.11,38.11,0,0,0-1.59,8.54.74.74,0,0,1-.33.57c-3.55,2.42-5.73,6-4.76,9.87,3.84,15.32,6.52,15.13,12,13.74a.77.77,0,0,1,.79.26,35.77,35.77,0,0,0,4.93,5,28.29,28.29,0,0,1,2.23,2l25.36,26a.77.77,0,0,1,.16.84c-.16.39-.32.79-.46,1.18-3,8,3.8,13.67,14.6,13a.74.74,0,0,1,.6.23l3.74,3.82a.77.77,0,0,0,1.32-.51C81.37,114.57,90.27,105.76,88.59,94.84Z"/><path class="cls-3" d="M22.38,40.49c-.32,1-.58,2-.81,3a.77.77,0,0,0,.65.93c4.39.72,18-1.49,18.26-2.43a.14.14,0,0,0,0-.27c-8.34.44-15,.24-18.16-1.36Z"/><path class="cls-3" d="M40.57,16.91C42.49,18.07,45,21.1,46.9,23.6a.78.78,0,0,0,1.35-.73,13.23,13.23,0,0,0-4.85-6.4.77.77,0,0,0-.85,0l-.37.25a.78.78,0,0,1-.42.14Z"/><path class="cls-3" d="M62.1,17.47a.73.73,0,0,1-.32-.15c-.25-.2-.51-.39-.77-.57,1,3.44-.29,5.07-1.42,7.09-.28.35,3.22-1.31,3.41-6.18Z"/><path class="cls-3" d="M83.35,29.36l-1-.7a.89.89,0,0,1-.92-.28l-.2-.24A42.13,42.13,0,0,1,84,40.79C84.84,41.92,84.6,35.29,83.35,29.36Z"/><path class="cls-3" d="M20.73,48.86c0,.18,0,.36-.05.53a.74.74,0,0,1-.33.58l-.63.46a6.55,6.55,0,0,1,2.12,0,1,1,0,0,0,.55-2l-.61-.26A.78.78,0,0,0,20.73,48.86Z"/><path class="cls-3" d="M60,106l1.22,1.24a.5.5,0,0,0,0,.13c3.27-1.34,7.24-1.65,9.21-.41.26.16.29-.21.16-.49C69.91,105,65,105,60,106Z"/><path class="cls-3" d="M31.28,71.76a.78.78,0,0,0-1.19-1c-1.75,1.58-3.76,3.09-3.76,3.09l1.24-.3a.78.78,0,0,1,.8.26l.53.63A7.74,7.74,0,0,0,31.28,71.76Z"/><path class="cls-3" d="M74.83,121.88l.72,0,.63.65a.76.76,0,0,0,.93.14c1.85-1.12,2.21-5,1.48-5.79C78.59,115.84,77.71,121.41,74.83,121.88Z"/></g></g></svg>